<?xml version="1.0" encoding="UTF-8" standalone="no"?>
<svg
   xmlns:dc="http://purl.org/dc/elements/1.1/"
   xmlns:cc="http://creativecommons.org/ns#"
   xmlns:rdf="http://www.w3.org/1999/02/22-rdf-syntax-ns#"
   xmlns:svg="http://www.w3.org/2000/svg"
   xmlns="http://www.w3.org/2000/svg"
   xmlns:xlink="http://www.w3.org/1999/xlink"
   xmlns:sodipodi="http://sodipodi.sourceforge.net/DTD/sodipodi-0.dtd"
   xmlns:inkscape="http://www.inkscape.org/namespaces/inkscape"
   width="1920px"
   height="1080px"
   viewBox="0 0 1920 1080"
   version="1.1"
   id="SVGRoot"
   sodipodi:docname="summary_examples.svg"
   inkscape:version="1.0.1 (1.0.1+r73)"
   inkscape:export-filename="/home/michael/phd/report_year1/figs/metacommunity_state_space_and_summary_collisions.png"
   inkscape:export-xdpi="96"
   inkscape:export-ydpi="96">
  <defs
     id="defs4420">
    <g
       id="g9092">
      <symbol
         overflow="visible"
         id="symbol2181">
        <path
           style="stroke:none;"
           d=""
           id="path5188" />
      </symbol>
      <symbol
         overflow="visible"
         id="symbol5611">
        <path
           style="stroke:none;"
           d="M 3.65625 -3.984375 L 4.515625 -3.984375 C 4.71875 -3.984375 4.8125 -3.984375 4.8125 -4.1875 C 4.8125 -4.296875 4.71875 -4.296875 4.546875 -4.296875 L 3.71875 -4.296875 L 3.921875 -5.4375 C 3.96875 -5.640625 4.109375 -6.34375 4.171875 -6.46875 C 4.25 -6.65625 4.421875 -6.8125 4.640625 -6.8125 C 4.671875 -6.8125 4.9375 -6.8125 5.125 -6.625 C 4.6875 -6.59375 4.578125 -6.234375 4.578125 -6.09375 C 4.578125 -5.859375 4.765625 -5.734375 4.953125 -5.734375 C 5.21875 -5.734375 5.5 -5.96875 5.5 -6.34375 C 5.5 -6.796875 5.046875 -7.03125 4.640625 -7.03125 C 4.296875 -7.03125 3.671875 -6.84375 3.375 -5.859375 C 3.3125 -5.65625 3.28125 -5.546875 3.046875 -4.296875 L 2.359375 -4.296875 C 2.15625 -4.296875 2.046875 -4.296875 2.046875 -4.109375 C 2.046875 -3.984375 2.140625 -3.984375 2.328125 -3.984375 L 2.984375 -3.984375 L 2.25 -0.046875 C 2.0625 0.921875 1.890625 1.828125 1.375 1.828125 C 1.328125 1.828125 1.09375 1.828125 0.890625 1.640625 C 1.359375 1.609375 1.453125 1.25 1.453125 1.109375 C 1.453125 0.875 1.265625 0.75 1.078125 0.75 C 0.8125 0.75 0.53125 0.984375 0.53125 1.359375 C 0.53125 1.796875 0.96875 2.046875 1.375 2.046875 C 1.921875 2.046875 2.328125 1.453125 2.5 1.078125 C 2.828125 0.453125 3.046875 -0.75 3.0625 -0.828125 Z M 3.65625 -3.984375 "
           id="path4658" />
      </symbol>
      <symbol
         overflow="visible"
         id="symbol422">
        <path
           style="stroke:none;"
           d="M 1.59375 -0.78125 C 1.5 -0.390625 1.46875 -0.3125 0.6875 -0.3125 C 0.515625 -0.3125 0.421875 -0.3125 0.421875 -0.109375 C 0.421875 0 0.515625 0 0.6875 0 L 4.25 0 C 5.828125 0 7 -1.171875 7 -2.15625 C 7 -2.875 6.421875 -3.453125 5.453125 -3.5625 C 6.484375 -3.75 7.53125 -4.484375 7.53125 -5.4375 C 7.53125 -6.171875 6.875 -6.8125 5.6875 -6.8125 L 2.328125 -6.8125 C 2.140625 -6.8125 2.046875 -6.8125 2.046875 -6.609375 C 2.046875 -6.5 2.140625 -6.5 2.328125 -6.5 C 2.34375 -6.5 2.53125 -6.5 2.703125 -6.484375 C 2.875 -6.453125 2.96875 -6.453125 2.96875 -6.3125 C 2.96875 -6.28125 2.953125 -6.25 2.9375 -6.125 Z M 3.09375 -3.65625 L 3.71875 -6.125 C 3.8125 -6.46875 3.828125 -6.5 4.25 -6.5 L 5.546875 -6.5 C 6.421875 -6.5 6.625 -5.90625 6.625 -5.46875 C 6.625 -4.59375 5.765625 -3.65625 4.5625 -3.65625 Z M 2.65625 -0.3125 C 2.515625 -0.3125 2.5 -0.3125 2.4375 -0.3125 C 2.328125 -0.328125 2.296875 -0.34375 2.296875 -0.421875 C 2.296875 -0.453125 2.296875 -0.46875 2.359375 -0.640625 L 3.046875 -3.421875 L 4.921875 -3.421875 C 5.875 -3.421875 6.078125 -2.6875 6.078125 -2.265625 C 6.078125 -1.28125 5.1875 -0.3125 4 -0.3125 Z M 2.65625 -0.3125 "
           id="path7974" />
      </symbol>
      <symbol
         overflow="visible"
         id="symbol5113">
        <path
           style="stroke:none;"
           d=""
           id="path6809" />
      </symbol>
      <symbol
         overflow="visible"
         id="symbol1538">
        <path
           style="stroke:none;"
           d="M 3.296875 2.390625 C 3.296875 2.359375 3.296875 2.34375 3.125 2.171875 C 1.890625 0.921875 1.5625 -0.96875 1.5625 -2.5 C 1.5625 -4.234375 1.9375 -5.96875 3.171875 -7.203125 C 3.296875 -7.328125 3.296875 -7.34375 3.296875 -7.375 C 3.296875 -7.453125 3.265625 -7.484375 3.203125 -7.484375 C 3.09375 -7.484375 2.203125 -6.796875 1.609375 -5.53125 C 1.109375 -4.4375 0.984375 -3.328125 0.984375 -2.5 C 0.984375 -1.71875 1.09375 -0.515625 1.640625 0.625 C 2.25 1.84375 3.09375 2.5 3.203125 2.5 C 3.265625 2.5 3.296875 2.46875 3.296875 2.390625 Z M 3.296875 2.390625 "
           id="path6856" />
      </symbol>
      <symbol
         overflow="visible"
         id="symbol4858">
        <path
           style="stroke:none;"
           d="M 2.5 -6.921875 L 1.15625 -5.5625 L 1.328125 -5.390625 L 2.5 -6.40625 L 3.640625 -5.390625 L 3.8125 -5.5625 Z M 2.5 -6.921875 "
           id="path2958" />
      </symbol>
      <symbol
         overflow="visible"
         id="symbol1184">
        <path
           style="stroke:none;"
           d="M 2.875 -2.5 C 2.875 -3.265625 2.765625 -4.46875 2.21875 -5.609375 C 1.625 -6.828125 0.765625 -7.484375 0.671875 -7.484375 C 0.609375 -7.484375 0.5625 -7.4375 0.5625 -7.375 C 0.5625 -7.34375 0.5625 -7.328125 0.75 -7.140625 C 1.734375 -6.15625 2.296875 -4.578125 2.296875 -2.5 C 2.296875 -0.78125 1.9375 0.96875 0.703125 2.21875 C 0.5625 2.34375 0.5625 2.359375 0.5625 2.390625 C 0.5625 2.453125 0.609375 2.5 0.671875 2.5 C 0.765625 2.5 1.671875 1.8125 2.25 0.546875 C 2.765625 -0.546875 2.875 -1.65625 2.875 -2.5 Z M 2.875 -2.5 "
           id="path477" />
      </symbol>
      <symbol
         overflow="visible"
         id="symbol7897">
        <path
           style="stroke:none;"
           d="M 1.90625 -3.765625 C 1.90625 -4.0625 1.671875 -4.296875 1.390625 -4.296875 C 1.09375 -4.296875 0.859375 -4.0625 0.859375 -3.765625 C 0.859375 -3.484375 1.09375 -3.234375 1.390625 -3.234375 C 1.671875 -3.234375 1.90625 -3.484375 1.90625 -3.765625 Z M 1.90625 -0.53125 C 1.90625 -0.8125 1.671875 -1.0625 1.390625 -1.0625 C 1.09375 -1.0625 0.859375 -0.8125 0.859375 -0.53125 C 0.859375 -0.234375 1.09375 0 1.390625 0 C 1.671875 0 1.90625 -0.234375 1.90625 -0.53125 Z M 1.90625 -0.53125 "
           id="path6845" />
      </symbol>
      <symbol
         overflow="visible"
         id="symbol2715">
        <path
           style="stroke:none;"
           d="M 6.75 -1.609375 L 6.5 -1.609375 C 6.453125 -1.359375 6.40625 -1.125 6.3125 -0.890625 C 6.265625 -0.734375 6.234375 -0.640625 5.65625 -0.640625 L 4.859375 -0.640625 C 5 -1.203125 5.296875 -1.6875 5.75 -2.34375 C 6.21875 -3.046875 6.625 -3.734375 6.625 -4.53125 C 6.625 -5.90625 5.28125 -7.03125 3.59375 -7.03125 C 1.890625 -7.03125 0.5625 -5.890625 0.5625 -4.53125 C 0.5625 -3.734375 0.96875 -3.046875 1.4375 -2.34375 C 1.875 -1.6875 2.1875 -1.203125 2.328125 -0.640625 L 1.53125 -0.640625 C 0.953125 -0.640625 0.921875 -0.734375 0.875 -0.875 C 0.78125 -1.109375 0.734375 -1.359375 0.6875 -1.609375 L 0.4375 -1.609375 L 0.765625 0 L 2.359375 0 C 2.578125 0 2.609375 0 2.609375 -0.203125 C 2.609375 -0.90625 2.296875 -1.78125 2.078125 -2.421875 C 1.859375 -3 1.578125 -3.78125 1.578125 -4.53125 C 1.578125 -6.125 2.6875 -6.8125 3.59375 -6.8125 C 4.546875 -6.8125 5.609375 -6.09375 5.609375 -4.53125 C 5.609375 -3.78125 5.328125 -3.03125 5.046875 -2.21875 C 4.890625 -1.796875 4.578125 -0.890625 4.578125 -0.203125 C 4.578125 0 4.609375 0 4.828125 0 L 6.421875 0 Z M 6.75 -1.609375 "
           id="path2462" />
      </symbol>
      <symbol
         overflow="visible"
         id="symbol9030">
        <path
           style="stroke:none;"
           d=""
           id="path9821" />
      </symbol>
      <symbol
         overflow="visible"
         id="symbol9142">
        <path
           style="stroke:none;"
           d="M 8.3125 -2.296875 C 7.765625 -1.875 7.5 -1.46875 7.421875 -1.328125 C 6.96875 -0.640625 6.890625 -0.015625 6.890625 -0.015625 C 6.890625 0.109375 7.015625 0.109375 7.09375 0.109375 C 7.25 0.109375 7.265625 0.09375 7.3125 -0.09375 C 7.53125 -1.0625 8.125 -1.90625 9.25 -2.359375 C 9.375 -2.40625 9.40625 -2.421875 9.40625 -2.5 C 9.40625 -2.5625 9.34375 -2.59375 9.328125 -2.609375 C 8.875 -2.765625 7.671875 -3.265625 7.296875 -4.9375 C 7.265625 -5.0625 7.25 -5.09375 7.09375 -5.09375 C 7.015625 -5.09375 6.890625 -5.09375 6.890625 -4.96875 C 6.890625 -4.953125 6.984375 -4.328125 7.390625 -3.65625 C 7.59375 -3.359375 7.890625 -3.015625 8.3125 -2.6875 L 0.90625 -2.6875 C 0.734375 -2.6875 0.546875 -2.6875 0.546875 -2.5 C 0.546875 -2.296875 0.734375 -2.296875 0.90625 -2.296875 Z M 8.3125 -2.296875 "
           id="path8095" />
      </symbol>
    </g>
    <g
       id="g65">
      <symbol
         overflow="visible"
         id="symbol5821">
        <path
           style="stroke:none;"
           d=""
           id="path6527" />
      </symbol>
      <symbol
         overflow="visible"
         id="symbol9225">
        <path
           style="stroke:none;"
           d="M 6.75 -1.609375 L 6.5 -1.609375 C 6.453125 -1.359375 6.40625 -1.125 6.3125 -0.890625 C 6.265625 -0.734375 6.234375 -0.640625 5.65625 -0.640625 L 4.859375 -0.640625 C 5 -1.203125 5.296875 -1.6875 5.75 -2.34375 C 6.21875 -3.046875 6.625 -3.734375 6.625 -4.53125 C 6.625 -5.90625 5.28125 -7.03125 3.59375 -7.03125 C 1.890625 -7.03125 0.5625 -5.890625 0.5625 -4.53125 C 0.5625 -3.734375 0.96875 -3.046875 1.4375 -2.34375 C 1.875 -1.6875 2.1875 -1.203125 2.328125 -0.640625 L 1.53125 -0.640625 C 0.953125 -0.640625 0.921875 -0.734375 0.875 -0.875 C 0.78125 -1.109375 0.734375 -1.359375 0.6875 -1.609375 L 0.4375 -1.609375 L 0.765625 0 L 2.359375 0 C 2.578125 0 2.609375 0 2.609375 -0.203125 C 2.609375 -0.90625 2.296875 -1.78125 2.078125 -2.421875 C 1.859375 -3 1.578125 -3.78125 1.578125 -4.53125 C 1.578125 -6.125 2.6875 -6.8125 3.59375 -6.8125 C 4.546875 -6.8125 5.609375 -6.09375 5.609375 -4.53125 C 5.609375 -3.78125 5.328125 -3.03125 5.046875 -2.21875 C 4.890625 -1.796875 4.578125 -0.890625 4.578125 -0.203125 C 4.578125 0 4.609375 0 4.828125 0 L 6.421875 0 Z M 6.75 -1.609375 "
           id="path2238" />
      </symbol>
    </g>
    <g
       id="g801">
      <symbol
         overflow="visible"
         id="symbol1667">
        <path
           style="stroke:none;"
           d=""
           id="path1464" />
      </symbol>
      <symbol
         overflow="visible"
         id="symbol467">
        <path
           style="stroke:none;"
           d="M 3.65625 -3.984375 L 4.515625 -3.984375 C 4.71875 -3.984375 4.8125 -3.984375 4.8125 -4.1875 C 4.8125 -4.296875 4.71875 -4.296875 4.546875 -4.296875 L 3.71875 -4.296875 L 3.921875 -5.4375 C 3.96875 -5.640625 4.109375 -6.34375 4.171875 -6.46875 C 4.25 -6.65625 4.421875 -6.8125 4.640625 -6.8125 C 4.671875 -6.8125 4.9375 -6.8125 5.125 -6.625 C 4.6875 -6.59375 4.578125 -6.234375 4.578125 -6.09375 C 4.578125 -5.859375 4.765625 -5.734375 4.953125 -5.734375 C 5.21875 -5.734375 5.5 -5.96875 5.5 -6.34375 C 5.5 -6.796875 5.046875 -7.03125 4.640625 -7.03125 C 4.296875 -7.03125 3.671875 -6.84375 3.375 -5.859375 C 3.3125 -5.65625 3.28125 -5.546875 3.046875 -4.296875 L 2.359375 -4.296875 C 2.15625 -4.296875 2.046875 -4.296875 2.046875 -4.109375 C 2.046875 -3.984375 2.140625 -3.984375 2.328125 -3.984375 L 2.984375 -3.984375 L 2.25 -0.046875 C 2.0625 0.921875 1.890625 1.828125 1.375 1.828125 C 1.328125 1.828125 1.09375 1.828125 0.890625 1.640625 C 1.359375 1.609375 1.453125 1.25 1.453125 1.109375 C 1.453125 0.875 1.265625 0.75 1.078125 0.75 C 0.8125 0.75 0.53125 0.984375 0.53125 1.359375 C 0.53125 1.796875 0.96875 2.046875 1.375 2.046875 C 1.921875 2.046875 2.328125 1.453125 2.5 1.078125 C 2.828125 0.453125 3.046875 -0.75 3.0625 -0.828125 Z M 3.65625 -3.984375 "
           id="path5582" />
      </symbol>
      <symbol
         overflow="visible"
         id="symbol35">
        <path
           style="stroke:none;"
           d=""
           id="path8928" />
      </symbol>
      <symbol
         overflow="visible"
         id="symbol9870">
        <path
           style="stroke:none;"
           d="M 3.296875 2.390625 C 3.296875 2.359375 3.296875 2.34375 3.125 2.171875 C 1.890625 0.921875 1.5625 -0.96875 1.5625 -2.5 C 1.5625 -4.234375 1.9375 -5.96875 3.171875 -7.203125 C 3.296875 -7.328125 3.296875 -7.34375 3.296875 -7.375 C 3.296875 -7.453125 3.265625 -7.484375 3.203125 -7.484375 C 3.09375 -7.484375 2.203125 -6.796875 1.609375 -5.53125 C 1.109375 -4.4375 0.984375 -3.328125 0.984375 -2.5 C 0.984375 -1.71875 1.09375 -0.515625 1.640625 0.625 C 2.25 1.84375 3.09375 2.5 3.203125 2.5 C 3.265625 2.5 3.296875 2.46875 3.296875 2.390625 Z M 3.296875 2.390625 "
           id="path668" />
      </symbol>
      <symbol
         overflow="visible"
         id="symbol477">
        <path
           style="stroke:none;"
           d="M 6.75 -1.609375 L 6.5 -1.609375 C 6.453125 -1.359375 6.40625 -1.125 6.3125 -0.890625 C 6.265625 -0.734375 6.234375 -0.640625 5.65625 -0.640625 L 4.859375 -0.640625 C 5 -1.203125 5.296875 -1.6875 5.75 -2.34375 C 6.21875 -3.046875 6.625 -3.734375 6.625 -4.53125 C 6.625 -5.90625 5.28125 -7.03125 3.59375 -7.03125 C 1.890625 -7.03125 0.5625 -5.890625 0.5625 -4.53125 C 0.5625 -3.734375 0.96875 -3.046875 1.4375 -2.34375 C 1.875 -1.6875 2.1875 -1.203125 2.328125 -0.640625 L 1.53125 -0.640625 C 0.953125 -0.640625 0.921875 -0.734375 0.875 -0.875 C 0.78125 -1.109375 0.734375 -1.359375 0.6875 -1.609375 L 0.4375 -1.609375 L 0.765625 0 L 2.359375 0 C 2.578125 0 2.609375 0 2.609375 -0.203125 C 2.609375 -0.90625 2.296875 -1.78125 2.078125 -2.421875 C 1.859375 -3 1.578125 -3.78125 1.578125 -4.53125 C 1.578125 -6.125 2.6875 -6.8125 3.59375 -6.8125 C 4.546875 -6.8125 5.609375 -6.09375 5.609375 -4.53125 C 5.609375 -3.78125 5.328125 -3.03125 5.046875 -2.21875 C 4.890625 -1.796875 4.578125 -0.890625 4.578125 -0.203125 C 4.578125 0 4.609375 0 4.828125 0 L 6.421875 0 Z M 6.75 -1.609375 "
           id="path7532" />
      </symbol>
      <symbol
         overflow="visible"
         id="symbol9351">
        <path
           style="stroke:none;"
           d="M 2.875 -2.5 C 2.875 -3.265625 2.765625 -4.46875 2.21875 -5.609375 C 1.625 -6.828125 0.765625 -7.484375 0.671875 -7.484375 C 0.609375 -7.484375 0.5625 -7.4375 0.5625 -7.375 C 0.5625 -7.34375 0.5625 -7.328125 0.75 -7.140625 C 1.734375 -6.15625 2.296875 -4.578125 2.296875 -2.5 C 2.296875 -0.78125 1.9375 0.96875 0.703125 2.21875 C 0.5625 2.34375 0.5625 2.359375 0.5625 2.390625 C 0.5625 2.453125 0.609375 2.5 0.671875 2.5 C 0.765625 2.5 1.671875 1.8125 2.25 0.546875 C 2.765625 -0.546875 2.875 -1.65625 2.875 -2.5 Z M 2.875 -2.5 "
           id="path3059" />
      </symbol>
    </g>
    <g
       id="g2790">
      <symbol
         overflow="visible"
         id="symbol6063">
        <path
           style="stroke:none;"
           d=""
           id="path5409" />
      </symbol>
      <symbol
         overflow="visible"
         id="symbol6874">
        <path
           style="stroke:none;"
           d="M 0.40625 -2.53125 C 0.796875 -3.671875 1.890625 -3.6875 2 -3.6875 C 3.5 -3.6875 3.609375 -1.9375 3.609375 -1.15625 C 3.609375 -0.546875 3.5625 -0.375 3.484375 -0.171875 C 3.265625 0.546875 2.96875 1.703125 2.96875 1.96875 C 2.96875 2.078125 3.015625 2.140625 3.09375 2.140625 C 3.234375 2.140625 3.3125 1.921875 3.421875 1.546875 C 3.65625 0.703125 3.75 0.140625 3.78125 -0.171875 C 3.8125 -0.296875 3.828125 -0.421875 3.875 -0.5625 C 4.1875 -1.546875 4.828125 -3.03125 5.21875 -3.8125 C 5.296875 -3.9375 5.40625 -4.15625 5.40625 -4.203125 C 5.40625 -4.296875 5.3125 -4.296875 5.296875 -4.296875 C 5.265625 -4.296875 5.203125 -4.296875 5.171875 -4.234375 C 4.65625 -3.28125 4.25 -2.28125 3.859375 -1.28125 C 3.84375 -1.578125 3.84375 -2.34375 3.453125 -3.3125 C 3.203125 -3.921875 2.8125 -4.40625 2.125 -4.40625 C 0.875 -4.40625 0.171875 -2.890625 0.171875 -2.578125 C 0.171875 -2.484375 0.265625 -2.484375 0.375 -2.484375 Z M 0.40625 -2.53125 "
           id="path2790" />
      </symbol>
    </g>
    <g
       id="g3666">
      <symbol
         overflow="visible"
         id="symbol3465">
        <path
           style="stroke:none;"
           d=""
           id="path8584" />
      </symbol>
      <symbol
         overflow="visible"
         id="symbol6140">
        <path
           style="stroke:none;"
           d="M 4.75 -2.359375 C 4.75 -3.921875 3.828125 -4.40625 3.09375 -4.40625 C 1.71875 -4.40625 0.40625 -2.984375 0.40625 -1.578125 C 0.40625 -0.640625 1 0.109375 2.03125 0.109375 C 2.65625 0.109375 3.375 -0.125 4.125 -0.734375 C 4.25 -0.203125 4.578125 0.109375 5.03125 0.109375 C 5.5625 0.109375 5.875 -0.4375 5.875 -0.59375 C 5.875 -0.671875 5.8125 -0.703125 5.75 -0.703125 C 5.6875 -0.703125 5.65625 -0.671875 5.625 -0.59375 C 5.4375 -0.109375 5.078125 -0.109375 5.0625 -0.109375 C 4.75 -0.109375 4.75 -0.890625 4.75 -1.125 C 4.75 -1.328125 4.75 -1.359375 4.859375 -1.46875 C 5.796875 -2.65625 6 -3.8125 6 -3.8125 C 6 -3.84375 5.984375 -3.921875 5.875 -3.921875 C 5.78125 -3.921875 5.78125 -3.890625 5.734375 -3.703125 C 5.546875 -3.078125 5.21875 -2.328125 4.75 -1.734375 Z M 4.09375 -0.984375 C 3.203125 -0.21875 2.4375 -0.109375 2.046875 -0.109375 C 1.453125 -0.109375 1.140625 -0.5625 1.140625 -1.203125 C 1.140625 -1.6875 1.40625 -2.765625 1.71875 -3.265625 C 2.1875 -4 2.734375 -4.1875 3.078125 -4.1875 C 4.0625 -4.1875 4.0625 -2.875 4.0625 -2.109375 C 4.0625 -1.734375 4.0625 -1.15625 4.09375 -0.984375 Z M 4.09375 -0.984375 "
           id="path6778" />
      </symbol>
    </g>
    <g
       id="g7587">
      <symbol
         overflow="visible"
         id="symbol7457">
        <path
           style="stroke:none;"
           d=""
           id="path5179" />
      </symbol>
      <symbol
         overflow="visible"
         id="symbol3151">
        <path
           style="stroke:none;"
           d="M 4.578125 -3.1875 C 4.578125 -3.984375 4.53125 -4.78125 4.1875 -5.515625 C 3.734375 -6.484375 2.90625 -6.640625 2.5 -6.640625 C 1.890625 -6.640625 1.171875 -6.375 0.75 -5.453125 C 0.4375 -4.765625 0.390625 -3.984375 0.390625 -3.1875 C 0.390625 -2.4375 0.421875 -1.546875 0.84375 -0.78125 C 1.265625 0.015625 2 0.21875 2.484375 0.21875 C 3.015625 0.21875 3.78125 0.015625 4.21875 -0.9375 C 4.53125 -1.625 4.578125 -2.40625 4.578125 -3.1875 Z M 2.484375 0 C 2.09375 0 1.5 -0.25 1.328125 -1.203125 C 1.21875 -1.796875 1.21875 -2.71875 1.21875 -3.3125 C 1.21875 -3.953125 1.21875 -4.609375 1.296875 -5.140625 C 1.484375 -6.328125 2.234375 -6.421875 2.484375 -6.421875 C 2.8125 -6.421875 3.46875 -6.234375 3.65625 -5.25 C 3.765625 -4.6875 3.765625 -3.9375 3.765625 -3.3125 C 3.765625 -2.5625 3.765625 -1.890625 3.65625 -1.25 C 3.5 -0.296875 2.9375 0 2.484375 0 Z M 2.484375 0 "
           id="path8202" />
      </symbol>
    </g>
    <g
       id="g3711">
      <symbol
         overflow="visible"
         id="symbol3795">
        <path
           style="stroke:none;"
           d=""
           id="path97" />
      </symbol>
      <symbol
         overflow="visible"
         id="symbol3702">
        <path
           style="stroke:none;"
           d="M 2.9375 -6.375 C 2.9375 -6.625 2.9375 -6.640625 2.703125 -6.640625 C 2.078125 -6 1.203125 -6 0.890625 -6 L 0.890625 -5.6875 C 1.09375 -5.6875 1.671875 -5.6875 2.1875 -5.953125 L 2.1875 -0.78125 C 2.1875 -0.421875 2.15625 -0.3125 1.265625 -0.3125 L 0.953125 -0.3125 L 0.953125 0 C 1.296875 -0.03125 2.15625 -0.03125 2.5625 -0.03125 C 2.953125 -0.03125 3.828125 -0.03125 4.171875 0 L 4.171875 -0.3125 L 3.859375 -0.3125 C 2.953125 -0.3125 2.9375 -0.421875 2.9375 -0.78125 Z M 2.9375 -6.375 "
           id="path9500" />
      </symbol>
    </g>
    <g
       id="g3098">
      <symbol
         overflow="visible"
         id="symbol8420">
        <path
           style="stroke:none;"
           d=""
           id="path216" />
      </symbol>
      <symbol
         overflow="visible"
         id="symbol161">
        <path
           style="stroke:none;"
           d="M 1.265625 -0.765625 L 2.328125 -1.796875 C 3.875 -3.171875 4.46875 -3.703125 4.46875 -4.703125 C 4.46875 -5.84375 3.578125 -6.640625 2.359375 -6.640625 C 1.234375 -6.640625 0.5 -5.71875 0.5 -4.828125 C 0.5 -4.28125 1 -4.28125 1.03125 -4.28125 C 1.203125 -4.28125 1.546875 -4.390625 1.546875 -4.8125 C 1.546875 -5.0625 1.359375 -5.328125 1.015625 -5.328125 C 0.9375 -5.328125 0.921875 -5.328125 0.890625 -5.3125 C 1.109375 -5.96875 1.65625 -6.328125 2.234375 -6.328125 C 3.140625 -6.328125 3.5625 -5.515625 3.5625 -4.703125 C 3.5625 -3.90625 3.078125 -3.125 2.515625 -2.5 L 0.609375 -0.375 C 0.5 -0.265625 0.5 -0.234375 0.5 0 L 4.203125 0 L 4.46875 -1.734375 L 4.234375 -1.734375 C 4.171875 -1.4375 4.109375 -1 4 -0.84375 C 3.9375 -0.765625 3.28125 -0.765625 3.0625 -0.765625 Z M 1.265625 -0.765625 "
           id="path7189" />
      </symbol>
    </g>
    <g
       id="g5560">
      <symbol
         overflow="visible"
         id="symbol1505">
        <path
           style="stroke:none;"
           d=""
           id="path572" />
      </symbol>
      <symbol
         overflow="visible"
         id="symbol6832">
        <path
           style="stroke:none;"
           d="M 2.890625 -3.515625 C 3.703125 -3.78125 4.28125 -4.46875 4.28125 -5.265625 C 4.28125 -6.078125 3.40625 -6.640625 2.453125 -6.640625 C 1.453125 -6.640625 0.6875 -6.046875 0.6875 -5.28125 C 0.6875 -4.953125 0.90625 -4.765625 1.203125 -4.765625 C 1.5 -4.765625 1.703125 -4.984375 1.703125 -5.28125 C 1.703125 -5.765625 1.234375 -5.765625 1.09375 -5.765625 C 1.390625 -6.265625 2.046875 -6.390625 2.40625 -6.390625 C 2.828125 -6.390625 3.375 -6.171875 3.375 -5.28125 C 3.375 -5.15625 3.34375 -4.578125 3.09375 -4.140625 C 2.796875 -3.65625 2.453125 -3.625 2.203125 -3.625 C 2.125 -3.609375 1.890625 -3.59375 1.8125 -3.59375 C 1.734375 -3.578125 1.671875 -3.5625 1.671875 -3.46875 C 1.671875 -3.359375 1.734375 -3.359375 1.90625 -3.359375 L 2.34375 -3.359375 C 3.15625 -3.359375 3.53125 -2.6875 3.53125 -1.703125 C 3.53125 -0.34375 2.84375 -0.0625 2.40625 -0.0625 C 1.96875 -0.0625 1.21875 -0.234375 0.875 -0.8125 C 1.21875 -0.765625 1.53125 -0.984375 1.53125 -1.359375 C 1.53125 -1.71875 1.265625 -1.921875 0.984375 -1.921875 C 0.734375 -1.921875 0.421875 -1.78125 0.421875 -1.34375 C 0.421875 -0.4375 1.34375 0.21875 2.4375 0.21875 C 3.65625 0.21875 4.5625 -0.6875 4.5625 -1.703125 C 4.5625 -2.515625 3.921875 -3.296875 2.890625 -3.515625 Z M 2.890625 -3.515625 "
           id="path9494" />
      </symbol>
    </g>
    <g
       id="g6780">
      <symbol
         overflow="visible"
         id="symbol632">
        <path
           style="stroke:none;"
           d=""
           id="path5094" />
      </symbol>
      <symbol
         overflow="visible"
         id="symbol4785">
        <path
           style="stroke:none;"
           d="M 2.9375 -1.640625 L 2.9375 -0.78125 C 2.9375 -0.421875 2.90625 -0.3125 2.171875 -0.3125 L 1.96875 -0.3125 L 1.96875 0 C 2.375 -0.03125 2.890625 -0.03125 3.3125 -0.03125 C 3.734375 -0.03125 4.25 -0.03125 4.671875 0 L 4.671875 -0.3125 L 4.453125 -0.3125 C 3.71875 -0.3125 3.703125 -0.421875 3.703125 -0.78125 L 3.703125 -1.640625 L 4.6875 -1.640625 L 4.6875 -1.953125 L 3.703125 -1.953125 L 3.703125 -6.484375 C 3.703125 -6.6875 3.703125 -6.75 3.53125 -6.75 C 3.453125 -6.75 3.421875 -6.75 3.34375 -6.625 L 0.28125 -1.953125 L 0.28125 -1.640625 Z M 2.984375 -1.953125 L 0.5625 -1.953125 L 2.984375 -5.671875 Z M 2.984375 -1.953125 "
           id="path6691" />
      </symbol>
    </g>
    <g
       id="g2010">
      <symbol
         overflow="visible"
         id="symbol7347">
        <path
           style="stroke:none;"
           d=""
           id="path8470" />
      </symbol>
      <symbol
         overflow="visible"
         id="symbol9093">
        <path
           style="stroke:none;"
           d="M 7.0625 -2.328125 C 7.078125 -2.375 7.109375 -2.4375 7.109375 -2.46875 C 7.109375 -2.46875 7.109375 -2.578125 6.984375 -2.578125 C 6.890625 -2.578125 6.875 -2.515625 6.859375 -2.453125 C 6.203125 -0.984375 5.84375 -0.3125 4.140625 -0.3125 L 2.6875 -0.3125 C 2.546875 -0.3125 2.515625 -0.3125 2.46875 -0.3125 C 2.359375 -0.328125 2.328125 -0.34375 2.328125 -0.421875 C 2.328125 -0.453125 2.328125 -0.46875 2.375 -0.640625 L 3.0625 -3.375 L 4.046875 -3.375 C 4.890625 -3.375 4.890625 -3.15625 4.890625 -2.90625 C 4.890625 -2.84375 4.890625 -2.71875 4.828125 -2.421875 C 4.8125 -2.375 4.796875 -2.34375 4.796875 -2.3125 C 4.796875 -2.265625 4.828125 -2.203125 4.921875 -2.203125 C 5 -2.203125 5.03125 -2.25 5.078125 -2.40625 L 5.640625 -4.734375 C 5.640625 -4.796875 5.59375 -4.84375 5.515625 -4.84375 C 5.4375 -4.84375 5.40625 -4.78125 5.390625 -4.671875 C 5.171875 -3.90625 5 -3.671875 4.078125 -3.671875 L 3.140625 -3.671875 L 3.734375 -6.078125 C 3.828125 -6.4375 3.84375 -6.46875 4.28125 -6.46875 L 5.6875 -6.46875 C 6.890625 -6.46875 7.203125 -6.1875 7.203125 -5.359375 C 7.203125 -5.125 7.203125 -5.109375 7.15625 -4.828125 C 7.15625 -4.78125 7.140625 -4.703125 7.140625 -4.65625 C 7.140625 -4.609375 7.171875 -4.53125 7.265625 -4.53125 C 7.375 -4.53125 7.390625 -4.59375 7.40625 -4.78125 L 7.609375 -6.515625 C 7.640625 -6.78125 7.59375 -6.78125 7.34375 -6.78125 L 2.296875 -6.78125 C 2.109375 -6.78125 2 -6.78125 2 -6.578125 C 2 -6.46875 2.09375 -6.46875 2.28125 -6.46875 C 2.65625 -6.46875 2.9375 -6.46875 2.9375 -6.296875 C 2.9375 -6.25 2.9375 -6.234375 2.875 -6.046875 L 1.5625 -0.78125 C 1.46875 -0.390625 1.453125 -0.3125 0.65625 -0.3125 C 0.484375 -0.3125 0.375 -0.3125 0.375 -0.125 C 0.375 0 0.46875 0 0.65625 0 L 5.828125 0 C 6.0625 0 6.078125 -0.015625 6.140625 -0.171875 Z M 7.0625 -2.328125 "
           id="path1728" />
      </symbol>
    </g>
    <g
       id="g8163">
      <symbol
         overflow="visible"
         id="symbol4365">
        <path
           style="stroke:none;"
           d=""
           id="path3197" />
      </symbol>
      <symbol
         overflow="visible"
         id="symbol9571">
        <path
           style="stroke:none;"
           d="M 1.59375 -0.78125 C 1.5 -0.390625 1.46875 -0.3125 0.6875 -0.3125 C 0.515625 -0.3125 0.421875 -0.3125 0.421875 -0.109375 C 0.421875 0 0.515625 0 0.6875 0 L 4.25 0 C 5.828125 0 7 -1.171875 7 -2.15625 C 7 -2.875 6.421875 -3.453125 5.453125 -3.5625 C 6.484375 -3.75 7.53125 -4.484375 7.53125 -5.4375 C 7.53125 -6.171875 6.875 -6.8125 5.6875 -6.8125 L 2.328125 -6.8125 C 2.140625 -6.8125 2.046875 -6.8125 2.046875 -6.609375 C 2.046875 -6.5 2.140625 -6.5 2.328125 -6.5 C 2.34375 -6.5 2.53125 -6.5 2.703125 -6.484375 C 2.875 -6.453125 2.96875 -6.453125 2.96875 -6.3125 C 2.96875 -6.28125 2.953125 -6.25 2.9375 -6.125 Z M 3.09375 -3.65625 L 3.71875 -6.125 C 3.8125 -6.46875 3.828125 -6.5 4.25 -6.5 L 5.546875 -6.5 C 6.421875 -6.5 6.625 -5.90625 6.625 -5.46875 C 6.625 -4.59375 5.765625 -3.65625 4.5625 -3.65625 Z M 2.65625 -0.3125 C 2.515625 -0.3125 2.5 -0.3125 2.4375 -0.3125 C 2.328125 -0.328125 2.296875 -0.34375 2.296875 -0.421875 C 2.296875 -0.453125 2.296875 -0.46875 2.359375 -0.640625 L 3.046875 -3.421875 L 4.921875 -3.421875 C 5.875 -3.421875 6.078125 -2.6875 6.078125 -2.265625 C 6.078125 -1.28125 5.1875 -0.3125 4 -0.3125 Z M 2.65625 -0.3125 "
           id="path7092" />
      </symbol>
      <symbol
         overflow="visible"
         id="symbol7608">
        <path
           style="stroke:none;"
           d="M 2.046875 -3.984375 L 2.984375 -3.984375 C 3.1875 -3.984375 3.296875 -3.984375 3.296875 -4.1875 C 3.296875 -4.296875 3.1875 -4.296875 3.015625 -4.296875 L 2.140625 -4.296875 C 2.5 -5.71875 2.546875 -5.90625 2.546875 -5.96875 C 2.546875 -6.140625 2.421875 -6.234375 2.25 -6.234375 C 2.21875 -6.234375 1.9375 -6.234375 1.859375 -5.875 L 1.46875 -4.296875 L 0.53125 -4.296875 C 0.328125 -4.296875 0.234375 -4.296875 0.234375 -4.109375 C 0.234375 -3.984375 0.3125 -3.984375 0.515625 -3.984375 L 1.390625 -3.984375 C 0.671875 -1.15625 0.625 -0.984375 0.625 -0.8125 C 0.625 -0.265625 1 0.109375 1.546875 0.109375 C 2.5625 0.109375 3.125 -1.34375 3.125 -1.421875 C 3.125 -1.53125 3.046875 -1.53125 3.015625 -1.53125 C 2.921875 -1.53125 2.90625 -1.5 2.859375 -1.390625 C 2.4375 -0.34375 1.90625 -0.109375 1.5625 -0.109375 C 1.359375 -0.109375 1.25 -0.234375 1.25 -0.5625 C 1.25 -0.8125 1.28125 -0.875 1.3125 -1.046875 Z M 2.046875 -3.984375 "
           id="path8026" />
      </symbol>
      <symbol
         overflow="visible"
         id="symbol1168">
        <path
           style="stroke:none;"
           d=""
           id="path9562" />
      </symbol>
      <symbol
         overflow="visible"
         id="symbol5247">
        <path
           style="stroke:none;"
           d="M 3.296875 2.390625 C 3.296875 2.359375 3.296875 2.34375 3.125 2.171875 C 1.890625 0.921875 1.5625 -0.96875 1.5625 -2.5 C 1.5625 -4.234375 1.9375 -5.96875 3.171875 -7.203125 C 3.296875 -7.328125 3.296875 -7.34375 3.296875 -7.375 C 3.296875 -7.453125 3.265625 -7.484375 3.203125 -7.484375 C 3.09375 -7.484375 2.203125 -6.796875 1.609375 -5.53125 C 1.109375 -4.4375 0.984375 -3.328125 0.984375 -2.5 C 0.984375 -1.71875 1.09375 -0.515625 1.640625 0.625 C 2.25 1.84375 3.09375 2.5 3.203125 2.5 C 3.265625 2.5 3.296875 2.46875 3.296875 2.390625 Z M 3.296875 2.390625 "
           id="path6446" />
      </symbol>
      <symbol
         overflow="visible"
         id="symbol3522">
        <path
           style="stroke:none;"
           d="M 2.875 -2.5 C 2.875 -3.265625 2.765625 -4.46875 2.21875 -5.609375 C 1.625 -6.828125 0.765625 -7.484375 0.671875 -7.484375 C 0.609375 -7.484375 0.5625 -7.4375 0.5625 -7.375 C 0.5625 -7.34375 0.5625 -7.328125 0.75 -7.140625 C 1.734375 -6.15625 2.296875 -4.578125 2.296875 -2.5 C 2.296875 -0.78125 1.9375 0.96875 0.703125 2.21875 C 0.5625 2.34375 0.5625 2.359375 0.5625 2.390625 C 0.5625 2.453125 0.609375 2.5 0.671875 2.5 C 0.765625 2.5 1.671875 1.8125 2.25 0.546875 C 2.765625 -0.546875 2.875 -1.65625 2.875 -2.5 Z M 2.875 -2.5 "
           id="path9599" />
      </symbol>
    </g>
    <g
       id="g1347">
      <symbol
         overflow="visible"
         id="symbol2533">
        <path
           style="stroke:none;"
           d=""
           id="path9093" />
      </symbol>
      <symbol
         overflow="visible"
         id="symbol7802">
        <path
           style="stroke:none;"
           d="M 3.984375 -1.34375 C 5.515625 -1.46875 6.625 -2.390625 6.625 -3.40625 C 6.625 -4.4375 5.5 -5.34375 3.984375 -5.46875 L 3.984375 -6.015625 C 3.984375 -6.359375 3.984375 -6.5 4.921875 -6.5 L 5.25 -6.5 L 5.25 -6.8125 C 4.890625 -6.78125 3.984375 -6.78125 3.5625 -6.78125 C 3.15625 -6.78125 2.234375 -6.78125 1.875 -6.8125 L 1.875 -6.5 L 2.203125 -6.5 C 3.15625 -6.5 3.15625 -6.375 3.15625 -6.015625 L 3.15625 -5.46875 C 1.625 -5.3125 0.5625 -4.390625 0.5625 -3.40625 C 0.5625 -2.375 1.671875 -1.5 3.15625 -1.34375 L 3.15625 -0.78125 C 3.15625 -0.453125 3.15625 -0.3125 2.203125 -0.3125 L 1.875 -0.3125 L 1.875 0 C 2.234375 -0.03125 3.15625 -0.03125 3.5625 -0.03125 C 3.96875 -0.03125 4.890625 -0.03125 5.25 0 L 5.25 -0.3125 L 4.921875 -0.3125 C 3.984375 -0.3125 3.984375 -0.4375 3.984375 -0.78125 Z M 3.15625 -1.578125 C 1.734375 -1.765625 1.5625 -2.78125 1.5625 -3.40625 C 1.5625 -3.921875 1.65625 -5.03125 3.15625 -5.234375 Z M 3.984375 -5.25 C 5.359375 -5.078125 5.625 -4.171875 5.625 -3.40625 C 5.625 -2.8125 5.484375 -1.75 3.984375 -1.5625 Z M 3.984375 -5.25 "
           id="path4694" />
      </symbol>
    </g>
    <g
       id="g3064">
      <symbol
         overflow="visible"
         id="symbol6313">
        <path
           style="stroke:none;"
           d=""
           id="path9039" />
      </symbol>
      <symbol
         overflow="visible"
         id="symbol3671">
        <path
           style="stroke:none;"
           d="M 2.828125 -6.234375 C 2.828125 -6.4375 2.6875 -6.59375 2.46875 -6.59375 C 2.1875 -6.59375 1.921875 -6.328125 1.921875 -6.0625 C 1.921875 -5.875 2.0625 -5.703125 2.296875 -5.703125 C 2.53125 -5.703125 2.828125 -5.9375 2.828125 -6.234375 Z M 2.078125 -2.484375 C 2.1875 -2.765625 2.1875 -2.796875 2.296875 -3.0625 C 2.375 -3.265625 2.421875 -3.40625 2.421875 -3.59375 C 2.421875 -4.03125 2.109375 -4.40625 1.609375 -4.40625 C 0.671875 -4.40625 0.296875 -2.953125 0.296875 -2.875 C 0.296875 -2.765625 0.390625 -2.765625 0.40625 -2.765625 C 0.515625 -2.765625 0.515625 -2.796875 0.5625 -2.953125 C 0.84375 -3.890625 1.234375 -4.1875 1.578125 -4.1875 C 1.65625 -4.1875 1.828125 -4.1875 1.828125 -3.875 C 1.828125 -3.65625 1.75 -3.453125 1.71875 -3.34375 C 1.640625 -3.09375 1.1875 -1.9375 1.03125 -1.5 C 0.921875 -1.25 0.796875 -0.921875 0.796875 -0.703125 C 0.796875 -0.234375 1.140625 0.109375 1.609375 0.109375 C 2.546875 0.109375 2.921875 -1.328125 2.921875 -1.421875 C 2.921875 -1.53125 2.828125 -1.53125 2.796875 -1.53125 C 2.703125 -1.53125 2.703125 -1.5 2.65625 -1.34375 C 2.46875 -0.71875 2.140625 -0.109375 1.640625 -0.109375 C 1.46875 -0.109375 1.390625 -0.203125 1.390625 -0.4375 C 1.390625 -0.6875 1.453125 -0.828125 1.6875 -1.4375 Z M 2.078125 -2.484375 "
           id="path842" />
      </symbol>
    </g>
    <g
       id="g1057">
      <symbol
         overflow="visible"
         id="symbol6975">
        <path
           style="stroke:none;"
           d=""
           id="path8656" />
      </symbol>
      <symbol
         overflow="visible"
         id="symbol2783">
        <path
           style="stroke:none;"
           d="M 3.953125 -6.234375 C 3.953125 -6.421875 3.8125 -6.59375 3.578125 -6.59375 C 3.34375 -6.59375 3.046875 -6.359375 3.046875 -6.0625 C 3.046875 -5.859375 3.1875 -5.703125 3.421875 -5.703125 C 3.6875 -5.703125 3.953125 -5.96875 3.953125 -6.234375 Z M 1.953125 0.5 C 1.765625 1.25 1.28125 1.828125 0.734375 1.828125 C 0.671875 1.828125 0.515625 1.828125 0.34375 1.734375 C 0.640625 1.671875 0.78125 1.40625 0.78125 1.203125 C 0.78125 1.046875 0.671875 0.859375 0.40625 0.859375 C 0.15625 0.859375 -0.125 1.0625 -0.125 1.421875 C -0.125 1.828125 0.265625 2.046875 0.75 2.046875 C 1.453125 2.046875 2.375 1.515625 2.625 0.53125 L 3.53125 -3.125 C 3.59375 -3.3125 3.59375 -3.453125 3.59375 -3.484375 C 3.59375 -4.0625 3.171875 -4.40625 2.671875 -4.40625 C 1.65625 -4.40625 1.09375 -2.953125 1.09375 -2.875 C 1.09375 -2.765625 1.1875 -2.765625 1.203125 -2.765625 C 1.296875 -2.765625 1.3125 -2.78125 1.390625 -2.96875 C 1.640625 -3.578125 2.09375 -4.1875 2.640625 -4.1875 C 2.78125 -4.1875 2.953125 -4.140625 2.953125 -3.734375 C 2.953125 -3.5 2.9375 -3.390625 2.890625 -3.21875 Z M 1.953125 0.5 "
           id="path1795" />
      </symbol>
    </g>
    <g
       id="g7898">
      <symbol
         overflow="visible"
         id="symbol483">
        <path
           style="stroke:none;"
           d=""
           id="path3387" />
      </symbol>
      <symbol
         overflow="visible"
         id="symbol3118">
        <path
           style="stroke:none;"
           d="M 9.234375 -6.046875 C 9.328125 -6.40625 9.34375 -6.5 10.09375 -6.5 C 10.3125 -6.5 10.40625 -6.5 10.40625 -6.703125 C 10.40625 -6.8125 10.3125 -6.8125 10.140625 -6.8125 L 8.828125 -6.8125 C 8.5625 -6.8125 8.546875 -6.8125 8.4375 -6.625 L 4.796875 -0.9375 L 4.015625 -6.578125 C 3.984375 -6.8125 3.96875 -6.8125 3.703125 -6.8125 L 2.34375 -6.8125 C 2.15625 -6.8125 2.046875 -6.8125 2.046875 -6.625 C 2.046875 -6.5 2.140625 -6.5 2.328125 -6.5 C 2.46875 -6.5 2.640625 -6.484375 2.765625 -6.484375 C 2.921875 -6.453125 2.984375 -6.4375 2.984375 -6.3125 C 2.984375 -6.28125 2.96875 -6.25 2.9375 -6.125 L 1.671875 -1.0625 C 1.578125 -0.65625 1.40625 -0.34375 0.59375 -0.3125 C 0.546875 -0.3125 0.421875 -0.296875 0.421875 -0.125 C 0.421875 -0.03125 0.484375 0 0.5625 0 C 0.875 0 1.21875 -0.03125 1.5625 -0.03125 C 1.890625 -0.03125 2.25 0 2.578125 0 C 2.625 0 2.765625 0 2.765625 -0.203125 C 2.765625 -0.3125 2.65625 -0.3125 2.578125 -0.3125 C 2.015625 -0.3125 1.90625 -0.515625 1.90625 -0.75 C 1.90625 -0.8125 1.90625 -0.875 1.9375 -0.984375 L 3.296875 -6.40625 L 3.3125 -6.40625 L 4.171875 -0.234375 C 4.1875 -0.109375 4.203125 0 4.3125 0 C 4.421875 0 4.484375 -0.109375 4.53125 -0.171875 L 8.5625 -6.484375 L 8.578125 -6.484375 L 7.140625 -0.78125 C 7.046875 -0.390625 7.03125 -0.3125 6.234375 -0.3125 C 6.078125 -0.3125 5.96875 -0.3125 5.96875 -0.125 C 5.96875 0 6.078125 0 6.109375 0 C 6.390625 0 7.0625 -0.03125 7.34375 -0.03125 C 7.75 -0.03125 8.1875 0 8.59375 0 C 8.65625 0 8.78125 0 8.78125 -0.203125 C 8.78125 -0.3125 8.6875 -0.3125 8.5 -0.3125 C 8.140625 -0.3125 7.859375 -0.3125 7.859375 -0.484375 C 7.859375 -0.53125 7.859375 -0.546875 7.90625 -0.734375 Z M 9.234375 -6.046875 "
           id="path9159" />
      </symbol>
    </g>
    <g
       id="g8110">
      <symbol
         overflow="visible"
         id="symbol8633">
        <path
           style="stroke:none;"
           d=""
           id="path7790" />
      </symbol>
      <symbol
         overflow="visible"
         id="symbol6667">
        <path
           style="stroke:none;"
           d="M 6.4375 -6.921875 C 6.4375 -6.953125 6.40625 -7.03125 6.3125 -7.03125 C 6.265625 -7.03125 6.265625 -7.015625 6.140625 -6.875 L 5.65625 -6.3125 C 5.40625 -6.78125 4.890625 -7.03125 4.234375 -7.03125 C 2.96875 -7.03125 1.78125 -5.875 1.78125 -4.671875 C 1.78125 -3.875 2.296875 -3.40625 2.8125 -3.265625 L 3.875 -2.984375 C 4.25 -2.890625 4.796875 -2.734375 4.796875 -1.921875 C 4.796875 -1.03125 3.984375 -0.09375 3 -0.09375 C 2.359375 -0.09375 1.25 -0.3125 1.25 -1.546875 C 1.25 -1.78125 1.3125 -2.03125 1.3125 -2.078125 C 1.328125 -2.125 1.328125 -2.140625 1.328125 -2.15625 C 1.328125 -2.25 1.265625 -2.265625 1.21875 -2.265625 C 1.171875 -2.265625 1.140625 -2.25 1.109375 -2.21875 C 1.078125 -2.1875 0.515625 0.09375 0.515625 0.125 C 0.515625 0.171875 0.5625 0.21875 0.625 0.21875 C 0.671875 0.21875 0.6875 0.203125 0.8125 0.0625 L 1.296875 -0.5 C 1.71875 0.078125 2.40625 0.21875 2.984375 0.21875 C 4.34375 0.21875 5.515625 -1.109375 5.515625 -2.34375 C 5.515625 -3.03125 5.171875 -3.375 5.03125 -3.515625 C 4.796875 -3.734375 4.640625 -3.78125 3.765625 -4 C 3.53125 -4.0625 3.1875 -4.171875 3.09375 -4.1875 C 2.828125 -4.28125 2.484375 -4.5625 2.484375 -5.09375 C 2.484375 -5.90625 3.28125 -6.75 4.234375 -6.75 C 5.046875 -6.75 5.65625 -6.3125 5.65625 -5.203125 C 5.65625 -4.890625 5.625 -4.703125 5.625 -4.640625 C 5.625 -4.640625 5.625 -4.546875 5.734375 -4.546875 C 5.84375 -4.546875 5.859375 -4.578125 5.890625 -4.75 Z M 6.4375 -6.921875 "
           id="path4406" />
      </symbol>
    </g>
    <g
       id="g4621">
      <symbol
         overflow="visible"
         id="symbol5301">
        <path
           style="stroke:none;"
           d=""
           id="path1982" />
      </symbol>
      <symbol
         overflow="visible"
         id="symbol8034">
        <path
           style="stroke:none;"
           d="M 3.734375 -6.03125 C 3.8125 -6.390625 3.84375 -6.5 4.78125 -6.5 C 5.078125 -6.5 5.15625 -6.5 5.15625 -6.6875 C 5.15625 -6.8125 5.046875 -6.8125 5 -6.8125 C 4.671875 -6.8125 3.859375 -6.78125 3.53125 -6.78125 C 3.234375 -6.78125 2.5 -6.8125 2.203125 -6.8125 C 2.140625 -6.8125 2.015625 -6.8125 2.015625 -6.609375 C 2.015625 -6.5 2.109375 -6.5 2.296875 -6.5 C 2.3125 -6.5 2.5 -6.5 2.671875 -6.484375 C 2.84375 -6.453125 2.9375 -6.453125 2.9375 -6.3125 C 2.9375 -6.28125 2.9375 -6.25 2.90625 -6.125 L 1.5625 -0.78125 C 1.46875 -0.390625 1.453125 -0.3125 0.65625 -0.3125 C 0.484375 -0.3125 0.390625 -0.3125 0.390625 -0.109375 C 0.390625 0 0.484375 0 0.65625 0 L 5.28125 0 C 5.515625 0 5.515625 0 5.578125 -0.171875 L 6.375 -2.328125 C 6.40625 -2.4375 6.40625 -2.453125 6.40625 -2.46875 C 6.40625 -2.5 6.375 -2.578125 6.296875 -2.578125 C 6.203125 -2.578125 6.1875 -2.515625 6.125 -2.359375 C 5.78125 -1.453125 5.34375 -0.3125 3.625 -0.3125 L 2.6875 -0.3125 C 2.546875 -0.3125 2.515625 -0.3125 2.46875 -0.3125 C 2.359375 -0.328125 2.328125 -0.34375 2.328125 -0.421875 C 2.328125 -0.453125 2.328125 -0.46875 2.375 -0.640625 Z M 3.734375 -6.03125 "
           id="path8179" />
      </symbol>
    </g>
    <g
       id="g5160">
      <symbol
         overflow="visible"
         id="symbol4796">
        <path
           style="stroke:none;"
           d=""
           id="path1626" />
      </symbol>
      <symbol
         overflow="visible"
         id="symbol7874">
        <path
           style="stroke:none;"
           d="M 7.0625 -2.328125 C 7.078125 -2.375 7.109375 -2.4375 7.109375 -2.46875 C 7.109375 -2.46875 7.109375 -2.578125 6.984375 -2.578125 C 6.890625 -2.578125 6.875 -2.515625 6.859375 -2.453125 C 6.203125 -0.984375 5.84375 -0.3125 4.140625 -0.3125 L 2.6875 -0.3125 C 2.546875 -0.3125 2.515625 -0.3125 2.46875 -0.3125 C 2.359375 -0.328125 2.328125 -0.34375 2.328125 -0.421875 C 2.328125 -0.453125 2.328125 -0.46875 2.375 -0.640625 L 3.0625 -3.375 L 4.046875 -3.375 C 4.890625 -3.375 4.890625 -3.15625 4.890625 -2.90625 C 4.890625 -2.84375 4.890625 -2.71875 4.828125 -2.421875 C 4.8125 -2.375 4.796875 -2.34375 4.796875 -2.3125 C 4.796875 -2.265625 4.828125 -2.203125 4.921875 -2.203125 C 5 -2.203125 5.03125 -2.25 5.078125 -2.40625 L 5.640625 -4.734375 C 5.640625 -4.796875 5.59375 -4.84375 5.515625 -4.84375 C 5.4375 -4.84375 5.40625 -4.78125 5.390625 -4.671875 C 5.171875 -3.90625 5 -3.671875 4.078125 -3.671875 L 3.140625 -3.671875 L 3.734375 -6.078125 C 3.828125 -6.4375 3.84375 -6.46875 4.28125 -6.46875 L 5.6875 -6.46875 C 6.890625 -6.46875 7.203125 -6.1875 7.203125 -5.359375 C 7.203125 -5.125 7.203125 -5.109375 7.15625 -4.828125 C 7.15625 -4.78125 7.140625 -4.703125 7.140625 -4.65625 C 7.140625 -4.609375 7.171875 -4.53125 7.265625 -4.53125 C 7.375 -4.53125 7.390625 -4.59375 7.40625 -4.78125 L 7.609375 -6.515625 C 7.640625 -6.78125 7.59375 -6.78125 7.34375 -6.78125 L 2.296875 -6.78125 C 2.109375 -6.78125 2 -6.78125 2 -6.578125 C 2 -6.46875 2.09375 -6.46875 2.28125 -6.46875 C 2.65625 -6.46875 2.9375 -6.46875 2.9375 -6.296875 C 2.9375 -6.25 2.9375 -6.234375 2.875 -6.046875 L 1.5625 -0.78125 C 1.46875 -0.390625 1.453125 -0.3125 0.65625 -0.3125 C 0.484375 -0.3125 0.375 -0.3125 0.375 -0.125 C 0.375 0 0.46875 0 0.65625 0 L 5.828125 0 C 6.0625 0 6.078125 -0.015625 6.140625 -0.171875 Z M 7.0625 -2.328125 "
           id="path8410" />
      </symbol>
      <symbol
         overflow="visible"
         id="symbol2501">
        <path
           style="stroke:none;"
           d="M 3.734375 -6.03125 C 3.8125 -6.390625 3.84375 -6.5 4.78125 -6.5 C 5.078125 -6.5 5.15625 -6.5 5.15625 -6.6875 C 5.15625 -6.8125 5.046875 -6.8125 5 -6.8125 C 4.671875 -6.8125 3.859375 -6.78125 3.53125 -6.78125 C 3.234375 -6.78125 2.5 -6.8125 2.203125 -6.8125 C 2.140625 -6.8125 2.015625 -6.8125 2.015625 -6.609375 C 2.015625 -6.5 2.109375 -6.5 2.296875 -6.5 C 2.3125 -6.5 2.5 -6.5 2.671875 -6.484375 C 2.84375 -6.453125 2.9375 -6.453125 2.9375 -6.3125 C 2.9375 -6.28125 2.9375 -6.25 2.90625 -6.125 L 1.5625 -0.78125 C 1.46875 -0.390625 1.453125 -0.3125 0.65625 -0.3125 C 0.484375 -0.3125 0.390625 -0.3125 0.390625 -0.109375 C 0.390625 0 0.484375 0 0.65625 0 L 5.28125 0 C 5.515625 0 5.515625 0 5.578125 -0.171875 L 6.375 -2.328125 C 6.40625 -2.4375 6.40625 -2.453125 6.40625 -2.46875 C 6.40625 -2.5 6.375 -2.578125 6.296875 -2.578125 C 6.203125 -2.578125 6.1875 -2.515625 6.125 -2.359375 C 5.78125 -1.453125 5.34375 -0.3125 3.625 -0.3125 L 2.6875 -0.3125 C 2.546875 -0.3125 2.515625 -0.3125 2.46875 -0.3125 C 2.359375 -0.328125 2.328125 -0.34375 2.328125 -0.421875 C 2.328125 -0.453125 2.328125 -0.46875 2.375 -0.640625 Z M 3.734375 -6.03125 "
           id="path4004" />
      </symbol>
      <symbol
         overflow="visible"
         id="symbol1503">
        <path
           style="stroke:none;"
           d=""
           id="path346" />
      </symbol>
      <symbol
         overflow="visible"
         id="symbol7532">
        <path
           style="stroke:none;"
           d="M 3.296875 2.390625 C 3.296875 2.359375 3.296875 2.34375 3.125 2.171875 C 1.890625 0.921875 1.5625 -0.96875 1.5625 -2.5 C 1.5625 -4.234375 1.9375 -5.96875 3.171875 -7.203125 C 3.296875 -7.328125 3.296875 -7.34375 3.296875 -7.375 C 3.296875 -7.453125 3.265625 -7.484375 3.203125 -7.484375 C 3.09375 -7.484375 2.203125 -6.796875 1.609375 -5.53125 C 1.109375 -4.4375 0.984375 -3.328125 0.984375 -2.5 C 0.984375 -1.71875 1.09375 -0.515625 1.640625 0.625 C 2.25 1.84375 3.09375 2.5 3.203125 2.5 C 3.265625 2.5 3.296875 2.46875 3.296875 2.390625 Z M 3.296875 2.390625 "
           id="path3375" />
      </symbol>
      <symbol
         overflow="visible"
         id="symbol8541">
        <path
           style="stroke:none;"
           d="M 2.875 -2.5 C 2.875 -3.265625 2.765625 -4.46875 2.21875 -5.609375 C 1.625 -6.828125 0.765625 -7.484375 0.671875 -7.484375 C 0.609375 -7.484375 0.5625 -7.4375 0.5625 -7.375 C 0.5625 -7.34375 0.5625 -7.328125 0.75 -7.140625 C 1.734375 -6.15625 2.296875 -4.578125 2.296875 -2.5 C 2.296875 -0.78125 1.9375 0.96875 0.703125 2.21875 C 0.5625 2.34375 0.5625 2.359375 0.5625 2.390625 C 0.5625 2.453125 0.609375 2.5 0.671875 2.5 C 0.765625 2.5 1.671875 1.8125 2.25 0.546875 C 2.765625 -0.546875 2.875 -1.65625 2.875 -2.5 Z M 2.875 -2.5 "
           id="path8553" />
      </symbol>
    </g>
    <g
       id="g4809">
      <symbol
         overflow="visible"
         id="symbol1653">
        <path
           style="stroke:none;"
           d=""
           id="path5964" />
      </symbol>
      <symbol
         overflow="visible"
         id="symbol2670">
        <path
           style="stroke:none;"
           d="M 7.0625 -2.328125 C 7.078125 -2.375 7.109375 -2.4375 7.109375 -2.46875 C 7.109375 -2.46875 7.109375 -2.578125 6.984375 -2.578125 C 6.890625 -2.578125 6.875 -2.515625 6.859375 -2.453125 C 6.203125 -0.984375 5.84375 -0.3125 4.140625 -0.3125 L 2.6875 -0.3125 C 2.546875 -0.3125 2.515625 -0.3125 2.46875 -0.3125 C 2.359375 -0.328125 2.328125 -0.34375 2.328125 -0.421875 C 2.328125 -0.453125 2.328125 -0.46875 2.375 -0.640625 L 3.0625 -3.375 L 4.046875 -3.375 C 4.890625 -3.375 4.890625 -3.15625 4.890625 -2.90625 C 4.890625 -2.84375 4.890625 -2.71875 4.828125 -2.421875 C 4.8125 -2.375 4.796875 -2.34375 4.796875 -2.3125 C 4.796875 -2.265625 4.828125 -2.203125 4.921875 -2.203125 C 5 -2.203125 5.03125 -2.25 5.078125 -2.40625 L 5.640625 -4.734375 C 5.640625 -4.796875 5.59375 -4.84375 5.515625 -4.84375 C 5.4375 -4.84375 5.40625 -4.78125 5.390625 -4.671875 C 5.171875 -3.90625 5 -3.671875 4.078125 -3.671875 L 3.140625 -3.671875 L 3.734375 -6.078125 C 3.828125 -6.4375 3.84375 -6.46875 4.28125 -6.46875 L 5.6875 -6.46875 C 6.890625 -6.46875 7.203125 -6.1875 7.203125 -5.359375 C 7.203125 -5.125 7.203125 -5.109375 7.15625 -4.828125 C 7.15625 -4.78125 7.140625 -4.703125 7.140625 -4.65625 C 7.140625 -4.609375 7.171875 -4.53125 7.265625 -4.53125 C 7.375 -4.53125 7.390625 -4.59375 7.40625 -4.78125 L 7.609375 -6.515625 C 7.640625 -6.78125 7.59375 -6.78125 7.34375 -6.78125 L 2.296875 -6.78125 C 2.109375 -6.78125 2 -6.78125 2 -6.578125 C 2 -6.46875 2.09375 -6.46875 2.28125 -6.46875 C 2.65625 -6.46875 2.9375 -6.46875 2.9375 -6.296875 C 2.9375 -6.25 2.9375 -6.234375 2.875 -6.046875 L 1.5625 -0.78125 C 1.46875 -0.390625 1.453125 -0.3125 0.65625 -0.3125 C 0.484375 -0.3125 0.375 -0.3125 0.375 -0.125 C 0.375 0 0.46875 0 0.65625 0 L 5.828125 0 C 6.0625 0 6.078125 -0.015625 6.140625 -0.171875 Z M 7.0625 -2.328125 "
           id="path3338" />
      </symbol>
      <symbol
         overflow="visible"
         id="symbol1919">
        <path
           style="stroke:none;"
           d="M 3.734375 -6.03125 C 3.8125 -6.390625 3.84375 -6.5 4.78125 -6.5 C 5.078125 -6.5 5.15625 -6.5 5.15625 -6.6875 C 5.15625 -6.8125 5.046875 -6.8125 5 -6.8125 C 4.671875 -6.8125 3.859375 -6.78125 3.53125 -6.78125 C 3.234375 -6.78125 2.5 -6.8125 2.203125 -6.8125 C 2.140625 -6.8125 2.015625 -6.8125 2.015625 -6.609375 C 2.015625 -6.5 2.109375 -6.5 2.296875 -6.5 C 2.3125 -6.5 2.5 -6.5 2.671875 -6.484375 C 2.84375 -6.453125 2.9375 -6.453125 2.9375 -6.3125 C 2.9375 -6.28125 2.9375 -6.25 2.90625 -6.125 L 1.5625 -0.78125 C 1.46875 -0.390625 1.453125 -0.3125 0.65625 -0.3125 C 0.484375 -0.3125 0.390625 -0.3125 0.390625 -0.109375 C 0.390625 0 0.484375 0 0.65625 0 L 5.28125 0 C 5.515625 0 5.515625 0 5.578125 -0.171875 L 6.375 -2.328125 C 6.40625 -2.4375 6.40625 -2.453125 6.40625 -2.46875 C 6.40625 -2.5 6.375 -2.578125 6.296875 -2.578125 C 6.203125 -2.578125 6.1875 -2.515625 6.125 -2.359375 C 5.78125 -1.453125 5.34375 -0.3125 3.625 -0.3125 L 2.6875 -0.3125 C 2.546875 -0.3125 2.515625 -0.3125 2.46875 -0.3125 C 2.359375 -0.328125 2.328125 -0.34375 2.328125 -0.421875 C 2.328125 -0.453125 2.328125 -0.46875 2.375 -0.640625 Z M 3.734375 -6.03125 "
           id="path3033" />
      </symbol>
      <symbol
         overflow="visible"
         id="symbol7502">
        <path
           style="stroke:none;"
           d="M 2.03125 -0.015625 C 2.03125 -0.671875 1.78125 -1.0625 1.390625 -1.0625 C 1.0625 -1.0625 0.859375 -0.8125 0.859375 -0.53125 C 0.859375 -0.265625 1.0625 0 1.390625 0 C 1.5 0 1.640625 -0.046875 1.734375 -0.125 C 1.765625 -0.15625 1.78125 -0.15625 1.78125 -0.15625 C 1.796875 -0.15625 1.796875 -0.15625 1.796875 -0.015625 C 1.796875 0.734375 1.453125 1.328125 1.125 1.65625 C 1.015625 1.765625 1.015625 1.78125 1.015625 1.8125 C 1.015625 1.890625 1.0625 1.921875 1.109375 1.921875 C 1.21875 1.921875 2.03125 1.15625 2.03125 -0.015625 Z M 2.03125 -0.015625 "
           id="path5884" />
      </symbol>
      <symbol
         overflow="visible"
         id="symbol6042">
        <path
           style="stroke:none;"
           d="M 2.046875 -3.984375 L 2.984375 -3.984375 C 3.1875 -3.984375 3.296875 -3.984375 3.296875 -4.1875 C 3.296875 -4.296875 3.1875 -4.296875 3.015625 -4.296875 L 2.140625 -4.296875 C 2.5 -5.71875 2.546875 -5.90625 2.546875 -5.96875 C 2.546875 -6.140625 2.421875 -6.234375 2.25 -6.234375 C 2.21875 -6.234375 1.9375 -6.234375 1.859375 -5.875 L 1.46875 -4.296875 L 0.53125 -4.296875 C 0.328125 -4.296875 0.234375 -4.296875 0.234375 -4.109375 C 0.234375 -3.984375 0.3125 -3.984375 0.515625 -3.984375 L 1.390625 -3.984375 C 0.671875 -1.15625 0.625 -0.984375 0.625 -0.8125 C 0.625 -0.265625 1 0.109375 1.546875 0.109375 C 2.5625 0.109375 3.125 -1.34375 3.125 -1.421875 C 3.125 -1.53125 3.046875 -1.53125 3.015625 -1.53125 C 2.921875 -1.53125 2.90625 -1.5 2.859375 -1.390625 C 2.4375 -0.34375 1.90625 -0.109375 1.5625 -0.109375 C 1.359375 -0.109375 1.25 -0.234375 1.25 -0.5625 C 1.25 -0.8125 1.28125 -0.875 1.3125 -1.046875 Z M 2.046875 -3.984375 "
           id="path1844" />
      </symbol>
      <symbol
         overflow="visible"
         id="symbol5387">
        <path
           style="stroke:none;"
           d=""
           id="path588" />
      </symbol>
      <symbol
         overflow="visible"
         id="symbol5912">
        <path
           style="stroke:none;"
           d="M 3.296875 2.390625 C 3.296875 2.359375 3.296875 2.34375 3.125 2.171875 C 1.890625 0.921875 1.5625 -0.96875 1.5625 -2.5 C 1.5625 -4.234375 1.9375 -5.96875 3.171875 -7.203125 C 3.296875 -7.328125 3.296875 -7.34375 3.296875 -7.375 C 3.296875 -7.453125 3.265625 -7.484375 3.203125 -7.484375 C 3.09375 -7.484375 2.203125 -6.796875 1.609375 -5.53125 C 1.109375 -4.4375 0.984375 -3.328125 0.984375 -2.5 C 0.984375 -1.71875 1.09375 -0.515625 1.640625 0.625 C 2.25 1.84375 3.09375 2.5 3.203125 2.5 C 3.265625 2.5 3.296875 2.46875 3.296875 2.390625 Z M 3.296875 2.390625 "
           id="path7494" />
      </symbol>
      <symbol
         overflow="visible"
         id="symbol9388">
        <path
           style="stroke:none;"
           d="M 2.875 -2.5 C 2.875 -3.265625 2.765625 -4.46875 2.21875 -5.609375 C 1.625 -6.828125 0.765625 -7.484375 0.671875 -7.484375 C 0.609375 -7.484375 0.5625 -7.4375 0.5625 -7.375 C 0.5625 -7.34375 0.5625 -7.328125 0.75 -7.140625 C 1.734375 -6.15625 2.296875 -4.578125 2.296875 -2.5 C 2.296875 -0.78125 1.9375 0.96875 0.703125 2.21875 C 0.5625 2.34375 0.5625 2.359375 0.5625 2.390625 C 0.5625 2.453125 0.609375 2.5 0.671875 2.5 C 0.765625 2.5 1.671875 1.8125 2.25 0.546875 C 2.765625 -0.546875 2.875 -1.65625 2.875 -2.5 Z M 2.875 -2.5 "
           id="path5843" />
      </symbol>
    </g>
  </defs>
  <sodipodi:namedview
     id="base"
     pagecolor="#ffffff"
     bordercolor="#666666"
     borderopacity="1.0"
     inkscape:pageopacity="0.0"
     inkscape:pageshadow="2"
     inkscape:zoom="0.58661908"
     inkscape:cx="1066.0325"
     inkscape:cy="318.08549"
     inkscape:document-units="px"
     inkscape:current-layer="layer3"
     inkscape:document-rotation="0"
     showgrid="false"
     inkscape:window-width="937"
     inkscape:window-height="1012"
     inkscape:window-x="1930"
     inkscape:window-y="50"
     inkscape:window-maximized="0"
     showguides="true"
     inkscape:guide-bbox="true">
    <sodipodi:guide
       position="952.40957,1308.1643"
       orientation="0,-1"
       id="guide1051" />
    <sodipodi:guide
       position="1193.2485,1160.2583"
       orientation="0,-1"
       id="guide1053" />
    <sodipodi:guide
       position="1308.6434,543.45618"
       orientation="1,0"
       id="guide1069" />
  </sodipodi:namedview>
  <metadata
     id="metadata4423">
    <rdf:RDF>
      <cc:Work
         rdf:about="">
        <dc:format>image/svg+xml</dc:format>
        <dc:type
           rdf:resource="http://purl.org/dc/dcmitype/StillImage" />
        <dc:title />
      </cc:Work>
    </rdf:RDF>
  </metadata>
  <g
     inkscape:label="Layer 1"
     inkscape:groupmode="layer"
     id="layer1"
     sodipodi:insensitive="true">
    <rect
       style="display:inline;fill:#2e3440;fill-opacity:1"
       id="rect395"
       width="1930.7454"
       height="1091.1956"
       x="0.15745409"
       y="2.0286508" />
  </g>
  <g
     inkscape:groupmode="layer"
     id="layer3"
     inkscape:label="Layer 2">
    <g
       inkscape:label=""
       transform="matrix(9.9630144,0,0,9.9630144,-623.79999,-662.64093)"
       id="g5880"
       style="fill:#ffffff">
      <g
         id="g6326"
         style="fill:#ffffff"
         transform="matrix(0.48700182,0,0,0.48700182,44.757441,51.938287)">
        <g
           style="fill:#ffffff;fill-opacity:1"
           id="g1611">
          <use
             xlink:href="#symbol5611"
             x="91.925003"
             y="81.962997"
             id="use4630"
             width="100%"
             height="100%"
             style="fill:#ffffff" />
        </g>
        <g
           style="fill:#ffffff;fill-opacity:1"
           id="g9080">
          <use
             xlink:href="#symbol1538"
             x="97.875"
             y="81.962997"
             id="use7342"
             width="100%"
             height="100%"
             style="fill:#ffffff" />
        </g>
        <g
           style="fill:#ffffff;fill-opacity:1"
           id="g6428">
          <use
             xlink:href="#symbol4858"
             x="104.117"
             y="79.444"
             id="use1932"
             width="100%"
             height="100%"
             style="fill:#ffffff" />
        </g>
        <g
           style="fill:#ffffff;fill-opacity:1"
           id="g8410">
          <use
             xlink:href="#symbol422"
             x="101.75"
             y="81.962997"
             id="use5271"
             width="100%"
             height="100%"
             style="fill:#ffffff" />
        </g>
        <g
           style="fill:#ffffff;fill-opacity:1"
           id="g843">
          <use
             xlink:href="#symbol1184"
             x="109.806"
             y="81.962997"
             id="use1585"
             width="100%"
             height="100%"
             style="fill:#ffffff" />
        </g>
        <g
           style="fill:#ffffff;fill-opacity:1"
           id="g3548">
          <use
             xlink:href="#symbol7897"
             x="116.45006"
             y="81.962997"
             id="use8005"
             width="100%"
             height="100%"
             style="fill:#ffffff" />
        </g>
        <g
           style="fill:#ffffff;fill-opacity:1"
           id="g3580">
          <use
             xlink:href="#symbol2715"
             x="121.98727"
             y="81.962997"
             id="use7433"
             width="100%"
             height="100%"
             style="fill:#ffffff" />
        </g>
        <g
           style="fill:#ffffff;fill-opacity:1"
           id="g1796">
          <use
             xlink:href="#symbol9142"
             x="131.94501"
             y="81.962997"
             id="use3299"
             width="100%"
             height="100%"
             style="fill:#ffffff" />
        </g>
        <g
           style="fill:#ffffff;fill-opacity:1"
           id="g3045">
          <use
             xlink:href="#symbol5611"
             x="144.675"
             y="81.962997"
             id="use9651"
             width="100%"
             height="100%"
             style="fill:#ffffff" />
        </g>
        <g
           style="fill:#ffffff;fill-opacity:1"
           id="g745">
          <use
             xlink:href="#symbol1538"
             x="150.625"
             y="81.962997"
             id="use8769"
             width="100%"
             height="100%"
             style="fill:#ffffff" />
          <use
             xlink:href="#symbol2715"
             x="154.49945"
             y="81.962997"
             id="use2363"
             width="100%"
             height="100%"
             style="fill:#ffffff" />
          <use
             xlink:href="#symbol1184"
             x="161.69444"
             y="81.962997"
             id="use2400"
             width="100%"
             height="100%"
             style="fill:#ffffff" />
        </g>
      </g>
      <path
         style="fill:none;stroke:#ffffff;stroke-width:0.741877;stroke-linecap:butt;stroke-linejoin:miter;stroke-miterlimit:4;stroke-dasharray:none;stroke-opacity:1"
         d="m 90.800717,161.16298 -0.461251,-44.8795 57.190214,-0.0381 0.5584,44.21755 z"
         id="path5960" />
    </g>
    <text
       xml:space="preserve"
       style="font-style:normal;font-weight:normal;font-size:57.0519px;line-height:1.25;font-family:sans-serif;fill:#000000;fill-opacity:1;stroke:none;stroke-width:1.4263"
       x="266.30069"
       y="173.01402"
       id="text5958"><tspan
         sodipodi:role="line"
         id="tspan5956"
         x="266.30069"
         y="173.01402"
         style="font-style:normal;font-variant:normal;font-weight:600;font-stretch:normal;font-family:Iosevka;-inkscape-font-specification:'Iosevka Semi-Bold';fill:#ffffff;stroke-width:1.4263">summary statistic</tspan></text>
    <text
       xml:space="preserve"
       style="font-style:normal;font-weight:normal;font-size:25.5561px;line-height:1.25;font-family:sans-serif;fill:#000000;fill-opacity:1;stroke:none;stroke-width:0.638901"
       x="1343.3309"
       y="220.44852"
       id="text5982"><tspan
         sodipodi:role="line"
         id="tspan5980"
         x="1343.3309"
         y="220.44852"
         style="font-style:normal;font-variant:normal;font-weight:600;font-stretch:normal;font-family:Iosevka;-inkscape-font-specification:'Iosevka Semi-Bold';fill:#ffffff;stroke-width:0.638901">-species richness</tspan></text>
    <rect
       style="fill:#434c5e;fill-opacity:1;stroke:none;stroke-width:1.64202"
       id="rect1063"
       width="506.49548"
       height="108.24828"
       x="1308.6434"
       y="238.35283" />
    <path
       style="fill:#ffffff;stroke:#ffffff;stroke-width:3;stroke-linecap:butt;stroke-linejoin:miter;stroke-miterlimit:4;stroke-dasharray:none;stroke-opacity:1"
       d="m 1629.8277,269.6956 -0.044,32.10391"
       id="path15443" />
    <rect
       style="fill:#434c5e;fill-opacity:1;stroke:none;stroke-width:1.7"
       id="rect1065"
       width="542.89532"
       height="108.24828"
       x="1308.6434"
       y="536.54382" />
    <path
       style="fill:none;stroke:#ffffff;stroke-width:1.58075;stroke-linecap:butt;stroke-linejoin:miter;stroke-miterlimit:4;stroke-dasharray:none;stroke-opacity:1"
       d="m 396.43283,575.62977 c 0,0 481.08759,-44.31391 912.21057,-282.34864"
       id="path5998"
       sodipodi:nodetypes="cc" />
    <g
       inkscape:label=""
       transform="matrix(6.3461683,0,0,6.3461683,235.49911,495.89306)"
       id="g6081"
       style="fill:#ffffff">
      <g
         id="g5517"
         style="fill:#ffffff">
        <g
           style="fill:#ffffff;fill-opacity:1"
           id="g9836">
          <use
             xlink:href="#symbol9225"
             x="91.925003"
             y="81.962997"
             id="use8501"
             style="fill:#ffffff"
             width="100%"
             height="100%" />
        </g>
      </g>
    </g>
    <text
       xml:space="preserve"
       style="font-style:normal;font-weight:normal;font-size:25.1304px;line-height:1.25;font-family:sans-serif;fill:#000000;fill-opacity:1;stroke:none;stroke-width:0.628257"
       x="1341.433"
       y="519.41113"
       id="text15104"><tspan
         sodipodi:role="line"
         id="tspan15102"
         x="1341.433"
         y="519.41113"
         style="font-style:normal;font-variant:normal;font-weight:600;font-stretch:normal;font-family:Iosevka;-inkscape-font-specification:'Iosevka Semi-Bold';fill:#ffffff;stroke-width:0.628257">-shannon entropy</tspan></text>
    <text
       xml:space="preserve"
       style="font-style:normal;font-weight:normal;font-size:29.3215px;line-height:1.25;font-family:sans-serif;fill:#000000;fill-opacity:1;stroke:none;stroke-width:0.733034"
       x="1342.9089"
       y="833.12952"
       id="text15108"><tspan
         sodipodi:role="line"
         id="tspan15106"
         x="1342.9089"
         y="833.12952"
         style="font-style:normal;font-variant:normal;font-weight:600;font-stretch:normal;font-family:Iosevka;-inkscape-font-specification:'Iosevka Semi-Bold';fill:#ffffff;stroke-width:0.733034">-species richness</tspan></text>
    <g
       inkscape:label=""
       transform="matrix(4.6539326,0,0,4.6539326,883.00941,139.68371)"
       id="g15245"
       style="fill:#ffffff">
      <g
         id="g2770"
         style="fill:#ffffff">
        <g
           style="fill:#ffffff;fill-opacity:1"
           id="g4099">
          <use
             xlink:href="#symbol6874"
             x="91.925003"
             y="81.962997"
             id="use4781"
             width="100%"
             height="100%"
             style="fill:#ffffff" />
        </g>
      </g>
    </g>
    <g
       inkscape:label=""
       transform="matrix(4.7282458,0,0,4.7282458,874.37425,445.48152)"
       id="g15382"
       style="fill:#ffffff">
      <g
         id="g9915"
         style="fill:#ffffff">
        <g
           style="fill:#ffffff;fill-opacity:1"
           id="g7195">
          <use
             xlink:href="#symbol6140"
             x="91.925003"
             y="81.962997"
             id="use2702"
             width="100%"
             height="100%"
             style="fill:#ffffff" />
        </g>
      </g>
    </g>
    <text
       xml:space="preserve"
       style="font-style:normal;font-weight:normal;font-size:40px;line-height:1.25;font-family:sans-serif;fill:#000000;fill-opacity:1;stroke:none"
       x="1308.1903"
       y="804.57294"
       id="text15397"><tspan
         sodipodi:role="line"
         id="tspan15395"
         x="1308.1903"
         y="804.57294" /></text>
    <g
       inkscape:label=""
       transform="matrix(4.7327774,0,0,4.7327774,877.43797,-164.07436)"
       id="g15405"
       style="fill:#ffffff">
      <g
         id="g15403"
         style="fill:#ffffff">
        <g
           style="fill:#ffffff;fill-opacity:1"
           id="g15401">
          <use
             xlink:href="#symbol6874"
             x="91.925003"
             y="81.962997"
             id="use15399"
             width="100%"
             height="100%"
             style="fill:#ffffff" />
        </g>
      </g>
    </g>
    <g
       inkscape:label=""
       transform="matrix(3.3057797,0,0,3.3057797,1439.5665,109.52512)"
       id="g15421"
       style="fill:#ffffff">
      <g
         id="g15419"
         style="fill:#ffffff">
        <g
           style="fill:#ffffff;fill-opacity:1"
           id="g15409">
          <use
             xlink:href="#symbol467"
             x="91.925003"
             y="81.962997"
             id="use15407"
             width="100%"
             height="100%"
             style="fill:#ffffff" />
        </g>
        <g
           style="fill:#ffffff;fill-opacity:1"
           id="g15417">
          <use
             xlink:href="#symbol9870"
             x="97.875"
             y="81.962997"
             id="use15411"
             width="100%"
             height="100%"
             style="fill:#ffffff" />
          <use
             xlink:href="#symbol477"
             x="101.74946"
             y="81.962997"
             id="use15413"
             width="100%"
             height="100%"
             style="fill:#ffffff" />
          <use
             xlink:href="#symbol9351"
             x="108.94444"
             y="81.962997"
             id="use15415"
             width="100%"
             height="100%"
             style="fill:#ffffff" />
        </g>
      </g>
    </g>
    <path
       style="fill:none;stroke:#ffffff;stroke-width:2.5;stroke-linecap:butt;stroke-linejoin:miter;stroke-miterlimit:4;stroke-dasharray:none;stroke-opacity:1"
       d="m 1735.9225,585.24062 -403.4363,0.15382"
       id="path15423" />
    <path
       style="fill:#ffffff;stroke:#ffffff;stroke-width:4.4;stroke-linecap:butt;stroke-linejoin:miter;stroke-miterlimit:4;stroke-dasharray:none;stroke-opacity:1"
       d="m 1332.7634,569.53829 -0.044,32.10391"
       id="path15425" />
    <path
       style="fill:#ffffff;stroke:#ffffff;stroke-width:4.4;stroke-linecap:butt;stroke-linejoin:miter;stroke-miterlimit:4;stroke-dasharray:none;stroke-opacity:1"
       d="m 1738.7634,569.53829 -0.044,32.10391"
       id="path15427" />
    <path
       style="fill:none;stroke:#ffffff;stroke-width:3.7689;stroke-linecap:butt;stroke-linejoin:miter;stroke-miterlimit:4;stroke-dasharray:none;stroke-opacity:1"
       d="m 1802.1714,285.39793 -472.6209,0.15382"
       id="path15429" />
    <path
       style="fill:#ffffff;stroke:#ffffff;stroke-width:3;stroke-linecap:butt;stroke-linejoin:miter;stroke-miterlimit:4;stroke-dasharray:none;stroke-opacity:1"
       d="m 1329.8277,269.6956 -0.044,32.10391"
       id="path15431" />
    <path
       style="fill:#ffffff;stroke:#ffffff;stroke-width:3;stroke-linecap:butt;stroke-linejoin:miter;stroke-miterlimit:4;stroke-dasharray:none;stroke-opacity:1"
       d="m 1745.8277,269.6956 -0.044,32.10391"
       id="path15433" />
    <path
       style="fill:#ffffff;stroke:#ffffff;stroke-width:3;stroke-linecap:butt;stroke-linejoin:miter;stroke-miterlimit:4;stroke-dasharray:none;stroke-opacity:1"
       d="m 1389.8277,269.6956 -0.044,32.10391"
       id="path15435" />
    <path
       style="fill:#ffffff;stroke:#ffffff;stroke-width:3;stroke-linecap:butt;stroke-linejoin:miter;stroke-miterlimit:4;stroke-dasharray:none;stroke-opacity:1"
       d="m 1449.8277,269.6956 -0.044,32.10391"
       id="path15437" />
    <path
       style="fill:#ffffff;stroke:#ffffff;stroke-width:3;stroke-linecap:butt;stroke-linejoin:miter;stroke-miterlimit:4;stroke-dasharray:none;stroke-opacity:1"
       d="m 1509.8277,269.6956 -0.044,32.10391"
       id="path15439" />
    <path
       style="fill:#ffffff;stroke:#ffffff;stroke-width:3;stroke-linecap:butt;stroke-linejoin:miter;stroke-miterlimit:4;stroke-dasharray:none;stroke-opacity:1"
       d="m 1569.8277,269.6956 -0.044,32.10391"
       id="path15441" />
    <path
       style="fill:#ffffff;stroke:#ffffff;stroke-width:3;stroke-linecap:butt;stroke-linejoin:miter;stroke-miterlimit:4;stroke-dasharray:none;stroke-opacity:1"
       d="m 1689.8277,269.6956 -0.044,32.10391"
       id="path15445" />
    <ellipse
       style="fill:none;fill-opacity:1;stroke:#56cee1;stroke-width:3.86748;stroke-miterlimit:4;stroke-dasharray:none;stroke-opacity:1"
       id="path15447"
       cx="1630.2268"
       cy="285.03409"
       rx="10.712787"
       ry="10.29326" />
    <ellipse
       style="fill:none;fill-opacity:1;stroke:#56cee1;stroke-width:3.86748;stroke-miterlimit:4;stroke-dasharray:none;stroke-opacity:1"
       id="ellipse15449"
       cx="1630.2268"
       cy="285.03409"
       rx="10.712787"
       ry="10.29326" />
    <path
       style="fill:none;stroke:#ffffff;stroke-width:1.57965;stroke-linecap:butt;stroke-linejoin:miter;stroke-miterlimit:4;stroke-dasharray:none;stroke-opacity:1"
       d="m 402.65255,584.87898 c 0,0 310.19347,-15.78403 870.86175,24.16858"
       id="path15506"
       sodipodi:nodetypes="cc" />
    <ellipse
       style="fill:none;fill-opacity:1;stroke:#56cee1;stroke-width:3.86748;stroke-miterlimit:4;stroke-dasharray:none;stroke-opacity:1"
       id="ellipse15451"
       cx="1542.5133"
       cy="584.25525"
       rx="10.712787"
       ry="10.29326" />
    <rect
       style="fill:#434c5e;fill-opacity:1;stroke:none;stroke-width:1.7"
       id="rect1067"
       width="542.89532"
       height="108.24828"
       x="1308.1898"
       y="841.44965" />
    <path
       style="fill:none;stroke:#ffffff;stroke-width:3.545;stroke-linecap:butt;stroke-linejoin:miter;stroke-miterlimit:4;stroke-dasharray:none;stroke-opacity:1"
       d="m 1763.5394,896.97297 -418.1344,0.15382"
       id="path15472" />
    <path
       style="fill:#ffffff;stroke:#ffffff;stroke-width:3;stroke-linecap:butt;stroke-linejoin:miter;stroke-miterlimit:4;stroke-dasharray:none;stroke-opacity:1"
       d="m 1345.6822,881.27064 -0.044,32.10391"
       id="path15474" />
    <path
       style="fill:#ffffff;stroke:#ffffff;stroke-width:3;stroke-linecap:butt;stroke-linejoin:miter;stroke-miterlimit:4;stroke-dasharray:none;stroke-opacity:1"
       d="m 1761.6822,881.27064 -0.044,32.10391"
       id="path15476" />
    <path
       style="fill:#ffffff;stroke:#ffffff;stroke-width:3;stroke-linecap:butt;stroke-linejoin:miter;stroke-miterlimit:4;stroke-dasharray:none;stroke-opacity:1"
       d="m 1405.6822,881.27064 -0.044,32.10391"
       id="path15478" />
    <path
       style="fill:#ffffff;stroke:#ffffff;stroke-width:3;stroke-linecap:butt;stroke-linejoin:miter;stroke-miterlimit:4;stroke-dasharray:none;stroke-opacity:1"
       d="m 1465.6822,881.27064 -0.044,32.10391"
       id="path15480" />
    <path
       style="fill:#ffffff;stroke:#ffffff;stroke-width:3;stroke-linecap:butt;stroke-linejoin:miter;stroke-miterlimit:4;stroke-dasharray:none;stroke-opacity:1"
       d="m 1525.6822,881.27064 -0.044,32.10391"
       id="path15482" />
    <path
       style="fill:#ffffff;stroke:#ffffff;stroke-width:3;stroke-linecap:butt;stroke-linejoin:miter;stroke-miterlimit:4;stroke-dasharray:none;stroke-opacity:1"
       d="m 1585.6822,881.27064 -0.044,32.10391"
       id="path15484" />
    <path
       style="fill:#ffffff;stroke:#ffffff;stroke-width:3;stroke-linecap:butt;stroke-linejoin:miter;stroke-miterlimit:4;stroke-dasharray:none;stroke-opacity:1"
       d="m 1645.6822,881.27064 -0.044,32.10391"
       id="path15486" />
    <path
       style="fill:#ffffff;stroke:#ffffff;stroke-width:3;stroke-linecap:butt;stroke-linejoin:miter;stroke-miterlimit:4;stroke-dasharray:none;stroke-opacity:1"
       d="m 1705.6822,881.27064 -0.044,32.10391"
       id="path15488" />
    <ellipse
       style="fill:#b571ad;fill-opacity:1;stroke:#b571ad;stroke-width:3.86748;stroke-miterlimit:4;stroke-dasharray:none;stroke-opacity:1"
       id="ellipse15492"
       cx="1646.0813"
       cy="896.60913"
       rx="10.712787"
       ry="10.29326" />
    <ellipse
       style="fill:#efa198;fill-opacity:1;stroke:#efa198;stroke-width:3.86748;stroke-miterlimit:4;stroke-dasharray:none;stroke-opacity:1"
       id="ellipse15494"
       cx="1527.2883"
       cy="896.75647"
       rx="10.712787"
       ry="10.29326" />
    <ellipse
       style="fill:#58ae80;fill-opacity:1;stroke:#58ae80;stroke-width:3.86748;stroke-miterlimit:4;stroke-dasharray:none;stroke-opacity:1"
       id="ellipse15496"
       cx="1466.9298"
       cy="897.02411"
       rx="10.712787"
       ry="10.29326" />
    <ellipse
       style="fill:#e78499;fill-opacity:1;stroke:#e78499;stroke-width:3.86748;stroke-miterlimit:4;stroke-dasharray:none;stroke-opacity:1"
       id="ellipse15498"
       cx="1526.8591"
       cy="877.09784"
       rx="10.712787"
       ry="10.29326" />
    <path
       style="fill:none;stroke:#ffffff;stroke-width:1.6;stroke-linecap:butt;stroke-linejoin:miter;stroke-miterlimit:4;stroke-dasharray:none;stroke-opacity:1"
       d="m 393.99808,590.97913 c 0,0 453.47469,210.85407 910.48892,301.99584"
       id="path15508"
       sodipodi:nodetypes="cc" />
    <ellipse
       style="fill:#8fd1e3;fill-opacity:1;stroke:#8fd1e3;stroke-width:7.55937;stroke-miterlimit:4;stroke-dasharray:none;stroke-opacity:1"
       id="path5972"
       cx="386.24438"
       cy="579.32532"
       rx="14.086872"
       ry="14.29344" />
    <g
       inkscape:label=""
       transform="matrix(3.3189947,0,0,3.3189947,1077.4525,59.069498)"
       id="g15874"
       style="fill:#ffffff">
      <g
         id="g6866"
         style="fill:#ffffff">
        <g
           style="fill:#ffffff;fill-opacity:1"
           id="g9312">
          <use
             xlink:href="#symbol3702"
             x="91.925003"
             y="81.962997"
             id="use2867"
             style="fill:#ffffff"
             width="100%"
             height="100%" />
        </g>
      </g>
    </g>
    <g
       inkscape:label=""
       transform="matrix(3.1873602,0,0,3.1873602,1149.6535,70.23179)"
       id="g16076"
       style="fill:#ffffff">
      <g
         id="g9189"
         style="fill:#ffffff">
        <g
           style="fill:#ffffff;fill-opacity:1"
           id="g4041">
          <use
             xlink:href="#symbol161"
             x="91.925003"
             y="81.962997"
             id="use548"
             style="fill:#ffffff"
             width="100%"
             height="100%" />
        </g>
      </g>
    </g>
    <g
       inkscape:label=""
       transform="matrix(3.1459564,0,0,3.1459564,1212.8875,72.989578)"
       id="g16287"
       style="fill:#ffffff">
      <g
         id="g7279"
         style="fill:#ffffff">
        <g
           style="fill:#ffffff;fill-opacity:1"
           id="g2471">
          <use
             xlink:href="#symbol6832"
             x="91.925003"
             y="81.962997"
             id="use7903"
             style="fill:#ffffff"
             width="100%"
             height="100%" />
        </g>
      </g>
    </g>
    <g
       inkscape:label=""
       transform="matrix(3.110862,0,0,3.110862,1275.2597,75.325999)"
       id="g16507"
       style="fill:#ffffff">
      <g
         id="g7526"
         style="fill:#ffffff">
        <g
           style="fill:#ffffff;fill-opacity:1"
           id="g487">
          <use
             xlink:href="#symbol4785"
             x="91.925003"
             y="81.962997"
             id="use5273"
             style="fill:#ffffff"
             width="100%"
             height="100%" />
        </g>
      </g>
    </g>
    <g
       inkscape:label=""
       transform="matrix(3.137173,0,0,3.137173,1033.4806,72.95339)"
       id="g16534"
       style="fill:#ffffff">
      <g
         id="g16532"
         style="fill:#ffffff">
        <g
           style="fill:#ffffff;fill-opacity:1"
           id="g16530">
          <use
             xlink:href="#symbol3151"
             x="91.925003"
             y="81.962997"
             id="use16528"
             style="fill:#ffffff"
             width="100%"
             height="100%" />
        </g>
      </g>
    </g>
    <g
       inkscape:label=""
       transform="matrix(3.3189947,0,0,3.3189947,1424.4501,356.70604)"
       id="g1077"
       style="fill:#ffffff">
      <g
         id="g1075"
         style="fill:#ffffff">
        <g
           style="fill:#ffffff;fill-opacity:1"
           id="g1073">
          <use
             xlink:href="#symbol3702"
             x="91.925003"
             y="81.962997"
             id="use1071"
             style="fill:#ffffff"
             width="100%"
             height="100%" />
        </g>
      </g>
    </g>
    <g
       inkscape:label=""
       transform="matrix(3.137173,0,0,3.137173,1035.7655,372.89237)"
       id="g1085"
       style="fill:#ffffff">
      <g
         id="g1083"
         style="fill:#ffffff">
        <g
           style="fill:#ffffff;fill-opacity:1"
           id="g1081">
          <use
             xlink:href="#symbol3151"
             x="91.925003"
             y="81.962997"
             id="use1079"
             style="fill:#ffffff"
             width="100%"
             height="100%" />
        </g>
      </g>
    </g>
    <g
       inkscape:label=""
       transform="matrix(12.003241,0,0,12.003241,61.136075,-674.01046)"
       id="g6463"
       style="fill:#ffffff"
       inkscape:export-xdpi="96"
       inkscape:export-ydpi="96">
      <g
         id="g817"
         style="fill:#ffffff">
        <g
           style="fill:#ffffff;fill-opacity:1"
           id="g8600">
          <use
             xlink:href="#symbol9093"
             x="91.925003"
             y="81.962997"
             id="use7454"
             width="100%"
             height="100%"
             style="fill:#ffffff" />
        </g>
      </g>
    </g>
    <g
       inkscape:label=""
       transform="matrix(12.003241,0,0,12.003241,125.2044,-824.83718)"
       id="g6716"
       style="fill:#ffffff"
       inkscape:export-xdpi="95.900002"
       inkscape:export-ydpi="95.900002">
      <g
         id="g3435"
         style="fill:#ffffff">
        <g
           style="fill:#ffffff;fill-opacity:1"
           id="g7077">
          <use
             xlink:href="#symbol9571"
             x="91.925003"
             y="81.962997"
             id="use1769"
             width="100%"
             height="100%"
             style="fill:#ffffff" />
        </g>
        <g
           style="fill:#ffffff;fill-opacity:1"
           id="g6011">
          <use
             xlink:href="#symbol5247"
             x="99.982002"
             y="81.962997"
             id="use2807"
             width="100%"
             height="100%"
             style="fill:#ffffff" />
        </g>
        <g
           style="fill:#ffffff;fill-opacity:1"
           id="g7525">
          <use
             xlink:href="#symbol7608"
             x="103.856"
             y="81.962997"
             id="use6539"
             width="100%"
             height="100%"
             style="fill:#ffffff" />
        </g>
        <g
           style="fill:#ffffff;fill-opacity:1"
           id="g2444">
          <use
             xlink:href="#symbol3522"
             x="107.454"
             y="81.962997"
             id="use2976"
             width="100%"
             height="100%"
             style="fill:#ffffff" />
        </g>
      </g>
    </g>
    <g
       inkscape:label=""
       transform="matrix(12.003241,0,0,12.003241,-83.170849,-677.59611)"
       id="g6992"
       style="fill:#ffffff"
       inkscape:export-xdpi="96"
       inkscape:export-ydpi="96">
      <g
         id="g7800"
         style="fill:#ffffff">
        <g
           style="fill:#ffffff;fill-opacity:1"
           id="g7714">
          <use
             xlink:href="#symbol7802"
             x="91.925003"
             y="81.962997"
             id="use2249"
             width="100%"
             height="100%"
             style="fill:#ffffff" />
        </g>
      </g>
    </g>
    <g
       inkscape:label=""
       transform="matrix(12.003241,0,0,12.003241,-254.33497,-625.35527)"
       id="g7263"
       style="fill:#ffffff"
       inkscape:export-xdpi="96"
       inkscape:export-ydpi="96">
      <g
         id="g9795"
         style="fill:#ffffff">
        <g
           style="fill:#ffffff;fill-opacity:1"
           id="g791">
          <use
             xlink:href="#symbol3671"
             x="91.925003"
             y="81.962997"
             id="use1710"
             width="100%"
             height="100%"
             style="fill:#ffffff" />
        </g>
      </g>
    </g>
    <g
       inkscape:label=""
       transform="matrix(12.003241,0,0,12.003241,-170.24156,-564.92998)"
       id="g7543"
       style="fill:#ffffff"
       inkscape:export-xdpi="96"
       inkscape:export-ydpi="96">
      <g
         id="g8701"
         style="fill:#ffffff">
        <g
           style="fill:#ffffff;fill-opacity:1"
           id="g2857">
          <use
             xlink:href="#symbol2783"
             x="91.925003"
             y="81.962997"
             id="use8688"
             width="100%"
             height="100%"
             style="fill:#ffffff" />
        </g>
      </g>
    </g>
    <g
       inkscape:label=""
       transform="matrix(12.003241,0,0,12.003241,-139.99471,-836.94344)"
       id="g7832"
       style="fill:#ffffff"
       inkscape:export-xdpi="96"
       inkscape:export-ydpi="96">
      <g
         id="g8659"
         style="fill:#ffffff">
        <g
           style="fill:#ffffff;fill-opacity:1"
           id="g5853">
          <use
             xlink:href="#symbol3118"
             x="91.925003"
             y="81.962997"
             id="use2698"
             width="100%"
             height="100%"
             style="fill:#ffffff" />
        </g>
      </g>
    </g>
    <g
       inkscape:label=""
       transform="matrix(12.003241,0,0,12.003241,18.955211,-802.50347)"
       id="g8130"
       style="fill:#ffffff"
       inkscape:export-xdpi="96"
       inkscape:export-ydpi="96">
      <g
         id="g6667"
         style="fill:#ffffff">
        <g
           style="fill:#ffffff;fill-opacity:1"
           id="g5872">
          <use
             xlink:href="#symbol6667"
             x="91.925003"
             y="81.962997"
             id="use8703"
             width="100%"
             height="100%"
             style="fill:#ffffff" />
        </g>
      </g>
    </g>
    <g
       inkscape:label=""
       transform="matrix(9.3825505,0,0,9.3825505,473.05552,-385.1318)"
       id="g8437"
       style="fill:#ffffff"
       inkscape:export-xdpi="96"
       inkscape:export-ydpi="96">
      <g
         id="g6066"
         style="fill:#ffffff">
        <g
           style="fill:#ffffff;fill-opacity:1"
           id="g8347">
          <use
             xlink:href="#symbol8034"
             x="91.925003"
             y="81.962997"
             id="use1050"
             width="100%"
             height="100%"
             style="fill:#ffffff" />
        </g>
      </g>
    </g>
    <g
       inkscape:label=""
       transform="matrix(8.3158843,0,0,8.3158843,424.99681,-178.00912)"
       id="g8767"
       style="fill:#ffffff"
       inkscape:export-xdpi="96"
       inkscape:export-ydpi="96">
      <g
         id="g163"
         style="fill:#ffffff">
        <g
           style="fill:#ffffff;fill-opacity:1"
           id="g85">
          <use
             xlink:href="#symbol7874"
             x="91.925003"
             y="81.962997"
             id="use5663"
             width="100%"
             height="100%"
             style="fill:#ffffff" />
        </g>
        <g
           style="fill:#ffffff;fill-opacity:1"
           id="g9265">
          <use
             xlink:href="#symbol7532"
             x="99.853996"
             y="81.962997"
             id="use6522"
             width="100%"
             height="100%"
             style="fill:#ffffff" />
        </g>
        <g
           style="fill:#ffffff;fill-opacity:1"
           id="g2183">
          <use
             xlink:href="#symbol2501"
             x="103.728"
             y="81.962997"
             id="use8539"
             width="100%"
             height="100%"
             style="fill:#ffffff" />
        </g>
        <g
           style="fill:#ffffff;fill-opacity:1"
           id="g2475">
          <use
             xlink:href="#symbol8541"
             x="110.508"
             y="81.962997"
             id="use9945"
             width="100%"
             height="100%"
             style="fill:#ffffff" />
        </g>
      </g>
    </g>
    <g
       inkscape:label=""
       transform="matrix(5.3254929,0,0,5.3254929,792.26856,-154.38478)"
       id="g9142"
       style="fill:#ffffff"
       inkscape:export-xdpi="96"
       inkscape:export-ydpi="96">
      <g
         id="g6414"
         style="fill:#ffffff">
        <g
           style="fill:#ffffff;fill-opacity:1"
           id="g7968">
          <use
             xlink:href="#symbol2670"
             x="91.925003"
             y="81.962997"
             id="use285"
             width="100%"
             height="100%"
             style="fill:#ffffff" />
        </g>
        <g
           style="fill:#ffffff;fill-opacity:1"
           id="g2034">
          <use
             xlink:href="#symbol5912"
             x="99.853996"
             y="81.962997"
             id="use4117"
             width="100%"
             height="100%"
             style="fill:#ffffff" />
        </g>
        <g
           style="fill:#ffffff;fill-opacity:1"
           id="g2820">
          <use
             xlink:href="#symbol1919"
             x="103.728"
             y="81.962997"
             id="use4042"
             width="100%"
             height="100%"
             style="fill:#ffffff" />
          <use
             xlink:href="#symbol7502"
             x="110.50854"
             y="81.962997"
             id="use1991"
             width="100%"
             height="100%"
             style="fill:#ffffff" />
        </g>
        <g
           style="fill:#ffffff;fill-opacity:1"
           id="g9137">
          <use
             xlink:href="#symbol6042"
             x="114.93991"
             y="81.962997"
             id="use2267"
             width="100%"
             height="100%"
             style="fill:#ffffff" />
        </g>
        <g
           style="fill:#ffffff;fill-opacity:1"
           id="g7221">
          <use
             xlink:href="#symbol9388"
             x="118.534"
             y="81.962997"
             id="use7352"
             width="100%"
             height="100%"
             style="fill:#ffffff" />
        </g>
      </g>
    </g>
  </g>
</svg>
