<?xml version="1.0" encoding="UTF-8" standalone="no"?>
<svg
   xmlns:dc="http://purl.org/dc/elements/1.1/"
   xmlns:cc="http://creativecommons.org/ns#"
   xmlns:rdf="http://www.w3.org/1999/02/22-rdf-syntax-ns#"
   xmlns:svg="http://www.w3.org/2000/svg"
   xmlns="http://www.w3.org/2000/svg"
   xmlns:xlink="http://www.w3.org/1999/xlink"
   xmlns:sodipodi="http://sodipodi.sourceforge.net/DTD/sodipodi-0.dtd"
   xmlns:inkscape="http://www.inkscape.org/namespaces/inkscape"
   width="1920px"
   height="1080px"
   viewBox="0 0 1920 1080"
   version="1.1"
   id="SVGRoot"
   sodipodi:docname="the_forecasting_problem.svg"
   inkscape:version="1.0.1 (1.0.1+r73)">
  <defs
     id="defs1402">
    <g
       id="g172">
      <symbol
         overflow="visible"
         id="symbol125">
        <path
           style="stroke:none;"
           d=""
           id="path7634" />
      </symbol>
      <symbol
         overflow="visible"
         id="symbol1020">
        <path
           style="stroke:none;"
           d="M 2.5 -6.921875 L 1.15625 -5.5625 L 1.328125 -5.390625 L 2.5 -6.40625 L 3.640625 -5.390625 L 3.8125 -5.5625 Z M 2.5 -6.921875 "
           id="path8760" />
      </symbol>
      <symbol
         overflow="visible"
         id="symbol8096">
        <path
           style="stroke:none;"
           d=""
           id="path9629" />
      </symbol>
      <symbol
         overflow="visible"
         id="symbol8829">
        <path
           style="stroke:none;"
           d="M 3.328125 -3.015625 C 3.390625 -3.265625 3.625 -4.1875 4.3125 -4.1875 C 4.359375 -4.1875 4.609375 -4.1875 4.8125 -4.0625 C 4.53125 -4 4.34375 -3.765625 4.34375 -3.515625 C 4.34375 -3.359375 4.453125 -3.171875 4.71875 -3.171875 C 4.9375 -3.171875 5.25 -3.34375 5.25 -3.75 C 5.25 -4.265625 4.671875 -4.40625 4.328125 -4.40625 C 3.75 -4.40625 3.40625 -3.875 3.28125 -3.65625 C 3.03125 -4.3125 2.5 -4.40625 2.203125 -4.40625 C 1.171875 -4.40625 0.59375 -3.125 0.59375 -2.875 C 0.59375 -2.765625 0.703125 -2.765625 0.71875 -2.765625 C 0.796875 -2.765625 0.828125 -2.796875 0.84375 -2.875 C 1.1875 -3.9375 1.84375 -4.1875 2.1875 -4.1875 C 2.375 -4.1875 2.71875 -4.09375 2.71875 -3.515625 C 2.71875 -3.203125 2.546875 -2.546875 2.1875 -1.140625 C 2.03125 -0.53125 1.671875 -0.109375 1.234375 -0.109375 C 1.171875 -0.109375 0.953125 -0.109375 0.734375 -0.234375 C 0.984375 -0.296875 1.203125 -0.5 1.203125 -0.78125 C 1.203125 -1.046875 0.984375 -1.125 0.84375 -1.125 C 0.53125 -1.125 0.296875 -0.875 0.296875 -0.546875 C 0.296875 -0.09375 0.78125 0.109375 1.21875 0.109375 C 1.890625 0.109375 2.25 -0.59375 2.265625 -0.640625 C 2.390625 -0.28125 2.75 0.109375 3.34375 0.109375 C 4.375 0.109375 4.9375 -1.171875 4.9375 -1.421875 C 4.9375 -1.53125 4.859375 -1.53125 4.828125 -1.53125 C 4.734375 -1.53125 4.71875 -1.484375 4.6875 -1.421875 C 4.359375 -0.34375 3.6875 -0.109375 3.375 -0.109375 C 2.984375 -0.109375 2.828125 -0.421875 2.828125 -0.765625 C 2.828125 -0.984375 2.875 -1.203125 2.984375 -1.640625 Z M 3.328125 -3.015625 "
           id="path6902" />
      </symbol>
      <symbol
         overflow="visible"
         id="symbol6318">
        <path
           style="stroke:none;"
           d="M 4.53125 -4.984375 C 4.53125 -5.640625 4.359375 -7.03125 3.34375 -7.03125 C 1.953125 -7.03125 0.421875 -4.21875 0.421875 -1.9375 C 0.421875 -1 0.703125 0.109375 1.609375 0.109375 C 3.015625 0.109375 4.53125 -2.75 4.53125 -4.984375 Z M 1.46875 -3.625 C 1.640625 -4.25 1.84375 -5.046875 2.25 -5.765625 C 2.515625 -6.25 2.875 -6.8125 3.328125 -6.8125 C 3.8125 -6.8125 3.875 -6.171875 3.875 -5.609375 C 3.875 -5.109375 3.796875 -4.609375 3.5625 -3.625 Z M 3.46875 -3.296875 C 3.359375 -2.84375 3.15625 -2 2.765625 -1.28125 C 2.421875 -0.59375 2.046875 -0.109375 1.609375 -0.109375 C 1.28125 -0.109375 1.078125 -0.40625 1.078125 -1.328125 C 1.078125 -1.75 1.140625 -2.328125 1.390625 -3.296875 Z M 3.46875 -3.296875 "
           id="path4988" />
      </symbol>
      <symbol
         overflow="visible"
         id="symbol6323">
        <path
           style="stroke:none;"
           d=""
           id="path6136" />
      </symbol>
      <symbol
         overflow="visible"
         id="symbol9016">
        <path
           style="stroke:none;"
           d="M 8.3125 -2.296875 C 7.765625 -1.875 7.5 -1.46875 7.421875 -1.328125 C 6.96875 -0.640625 6.890625 -0.015625 6.890625 -0.015625 C 6.890625 0.109375 7.015625 0.109375 7.09375 0.109375 C 7.25 0.109375 7.265625 0.09375 7.3125 -0.09375 C 7.53125 -1.0625 8.125 -1.90625 9.25 -2.359375 C 9.375 -2.40625 9.40625 -2.421875 9.40625 -2.5 C 9.40625 -2.5625 9.34375 -2.59375 9.328125 -2.609375 C 8.875 -2.765625 7.671875 -3.265625 7.296875 -4.9375 C 7.265625 -5.0625 7.25 -5.09375 7.09375 -5.09375 C 7.015625 -5.09375 6.890625 -5.09375 6.890625 -4.96875 C 6.890625 -4.953125 6.984375 -4.328125 7.390625 -3.65625 C 7.59375 -3.359375 7.890625 -3.015625 8.3125 -2.6875 L 0.90625 -2.6875 C 0.734375 -2.6875 0.546875 -2.6875 0.546875 -2.5 C 0.546875 -2.296875 0.734375 -2.296875 0.90625 -2.296875 Z M 8.3125 -2.296875 "
           id="path1993" />
      </symbol>
    </g>
    <g
       id="g9461">
      <symbol
         overflow="visible"
         id="symbol3426">
        <path
           style="stroke:none;"
           d=""
           id="path8382" />
      </symbol>
      <symbol
         overflow="visible"
         id="symbol5260">
        <path
           style="stroke:none;"
           d="M 2.5 -6.921875 L 1.15625 -5.5625 L 1.328125 -5.390625 L 2.5 -6.40625 L 3.640625 -5.390625 L 3.8125 -5.5625 Z M 2.5 -6.921875 "
           id="path3258" />
      </symbol>
      <symbol
         overflow="visible"
         id="symbol1968">
        <path
           style="stroke:none;"
           d="M 4.375 -5.203125 L 4.1875 -5.328125 L 3.53125 -4.171875 C 3.296875 -4.3125 2.921875 -4.46875 2.5 -4.46875 C 1.3125 -4.46875 0.34375 -3.40625 0.34375 -2.125 C 0.34375 -1.328125 0.75 -0.65625 1.28125 -0.28125 L 0.671875 0.796875 L 0.59375 0.890625 L 0.78125 1.015625 L 1.46875 -0.15625 C 1.6875 -0.03125 2.0625 0.109375 2.484375 0.109375 C 3.671875 0.109375 4.625 -0.890625 4.625 -2.125 C 4.625 -3.09375 4.09375 -3.765625 3.703125 -4.046875 Z M 1.453125 -0.59375 C 1.09375 -1 1.03125 -1.578125 1.03125 -2.140625 C 1.03125 -2.546875 1.0625 -3.109375 1.328125 -3.5625 C 1.625 -4.078125 2.125 -4.25 2.484375 -4.25 C 2.875 -4.25 3.1875 -4.0625 3.375 -3.90625 Z M 3.53125 -3.734375 C 3.921875 -3.265625 3.9375 -2.546875 3.9375 -2.140625 C 3.9375 -1.796875 3.9375 -1.203125 3.65625 -0.75 C 3.359375 -0.296875 2.875 -0.109375 2.5 -0.109375 C 2.25 -0.109375 1.90625 -0.171875 1.625 -0.421875 Z M 3.53125 -3.734375 "
           id="path1437" />
      </symbol>
      <symbol
         overflow="visible"
         id="symbol6757">
        <path
           style="stroke:none;"
           d="M 3.296875 2.390625 C 3.296875 2.359375 3.296875 2.34375 3.125 2.171875 C 1.890625 0.921875 1.5625 -0.96875 1.5625 -2.5 C 1.5625 -4.234375 1.9375 -5.96875 3.171875 -7.203125 C 3.296875 -7.328125 3.296875 -7.34375 3.296875 -7.375 C 3.296875 -7.453125 3.265625 -7.484375 3.203125 -7.484375 C 3.09375 -7.484375 2.203125 -6.796875 1.609375 -5.53125 C 1.109375 -4.4375 0.984375 -3.328125 0.984375 -2.5 C 0.984375 -1.71875 1.09375 -0.515625 1.640625 0.625 C 2.25 1.84375 3.09375 2.5 3.203125 2.5 C 3.265625 2.5 3.296875 2.46875 3.296875 2.390625 Z M 3.296875 2.390625 "
           id="path7790" />
      </symbol>
      <symbol
         overflow="visible"
         id="symbol504">
        <path
           style="stroke:none;"
           d="M 2.875 -2.5 C 2.875 -3.265625 2.765625 -4.46875 2.21875 -5.609375 C 1.625 -6.828125 0.765625 -7.484375 0.671875 -7.484375 C 0.609375 -7.484375 0.5625 -7.4375 0.5625 -7.375 C 0.5625 -7.34375 0.5625 -7.328125 0.75 -7.140625 C 1.734375 -6.15625 2.296875 -4.578125 2.296875 -2.5 C 2.296875 -0.78125 1.9375 0.96875 0.703125 2.21875 C 0.5625 2.34375 0.5625 2.359375 0.5625 2.390625 C 0.5625 2.453125 0.609375 2.5 0.671875 2.5 C 0.765625 2.5 1.671875 1.8125 2.25 0.546875 C 2.765625 -0.546875 2.875 -1.65625 2.875 -2.5 Z M 2.875 -2.5 "
           id="path5237" />
      </symbol>
      <symbol
         overflow="visible"
         id="symbol6617">
        <path
           style="stroke:none;"
           d=""
           id="path1359" />
      </symbol>
      <symbol
         overflow="visible"
         id="symbol7124">
        <path
           style="stroke:none;"
           d="M 3.328125 -3.015625 C 3.390625 -3.265625 3.625 -4.1875 4.3125 -4.1875 C 4.359375 -4.1875 4.609375 -4.1875 4.8125 -4.0625 C 4.53125 -4 4.34375 -3.765625 4.34375 -3.515625 C 4.34375 -3.359375 4.453125 -3.171875 4.71875 -3.171875 C 4.9375 -3.171875 5.25 -3.34375 5.25 -3.75 C 5.25 -4.265625 4.671875 -4.40625 4.328125 -4.40625 C 3.75 -4.40625 3.40625 -3.875 3.28125 -3.65625 C 3.03125 -4.3125 2.5 -4.40625 2.203125 -4.40625 C 1.171875 -4.40625 0.59375 -3.125 0.59375 -2.875 C 0.59375 -2.765625 0.703125 -2.765625 0.71875 -2.765625 C 0.796875 -2.765625 0.828125 -2.796875 0.84375 -2.875 C 1.1875 -3.9375 1.84375 -4.1875 2.1875 -4.1875 C 2.375 -4.1875 2.71875 -4.09375 2.71875 -3.515625 C 2.71875 -3.203125 2.546875 -2.546875 2.1875 -1.140625 C 2.03125 -0.53125 1.671875 -0.109375 1.234375 -0.109375 C 1.171875 -0.109375 0.953125 -0.109375 0.734375 -0.234375 C 0.984375 -0.296875 1.203125 -0.5 1.203125 -0.78125 C 1.203125 -1.046875 0.984375 -1.125 0.84375 -1.125 C 0.53125 -1.125 0.296875 -0.875 0.296875 -0.546875 C 0.296875 -0.09375 0.78125 0.109375 1.21875 0.109375 C 1.890625 0.109375 2.25 -0.59375 2.265625 -0.640625 C 2.390625 -0.28125 2.75 0.109375 3.34375 0.109375 C 4.375 0.109375 4.9375 -1.171875 4.9375 -1.421875 C 4.9375 -1.53125 4.859375 -1.53125 4.828125 -1.53125 C 4.734375 -1.53125 4.71875 -1.484375 4.6875 -1.421875 C 4.359375 -0.34375 3.6875 -0.109375 3.375 -0.109375 C 2.984375 -0.109375 2.828125 -0.421875 2.828125 -0.765625 C 2.828125 -0.984375 2.875 -1.203125 2.984375 -1.640625 Z M 3.328125 -3.015625 "
           id="path5645" />
      </symbol>
      <symbol
         overflow="visible"
         id="symbol2439">
        <path
           style="stroke:none;"
           d="M 3.015625 -3.15625 L 4.71875 -3.15625 C 6.125 -3.15625 7.515625 -4.1875 7.515625 -5.296875 C 7.515625 -6.078125 6.859375 -6.8125 5.546875 -6.8125 L 2.328125 -6.8125 C 2.140625 -6.8125 2.03125 -6.8125 2.03125 -6.625 C 2.03125 -6.5 2.109375 -6.5 2.3125 -6.5 C 2.4375 -6.5 2.625 -6.484375 2.734375 -6.484375 C 2.90625 -6.453125 2.953125 -6.4375 2.953125 -6.3125 C 2.953125 -6.28125 2.953125 -6.25 2.921875 -6.125 L 1.578125 -0.78125 C 1.484375 -0.390625 1.46875 -0.3125 0.671875 -0.3125 C 0.515625 -0.3125 0.40625 -0.3125 0.40625 -0.125 C 0.40625 0 0.515625 0 0.546875 0 C 0.828125 0 1.53125 -0.03125 1.8125 -0.03125 C 2.03125 -0.03125 2.25 -0.015625 2.453125 -0.015625 C 2.671875 -0.015625 2.890625 0 3.09375 0 C 3.171875 0 3.296875 0 3.296875 -0.203125 C 3.296875 -0.3125 3.203125 -0.3125 3.015625 -0.3125 C 2.65625 -0.3125 2.375 -0.3125 2.375 -0.484375 C 2.375 -0.546875 2.390625 -0.59375 2.40625 -0.65625 Z M 3.734375 -6.125 C 3.828125 -6.46875 3.84375 -6.5 4.28125 -6.5 L 5.234375 -6.5 C 6.0625 -6.5 6.59375 -6.234375 6.59375 -5.546875 C 6.59375 -5.15625 6.390625 -4.296875 6 -3.9375 C 5.5 -3.484375 4.90625 -3.40625 4.46875 -3.40625 L 3.0625 -3.40625 Z M 3.734375 -6.125 "
           id="path7553" />
      </symbol>
      <symbol
         overflow="visible"
         id="symbol7259">
        <path
           style="stroke:none;"
           d="M 4.53125 -4.984375 C 4.53125 -5.640625 4.359375 -7.03125 3.34375 -7.03125 C 1.953125 -7.03125 0.421875 -4.21875 0.421875 -1.9375 C 0.421875 -1 0.703125 0.109375 1.609375 0.109375 C 3.015625 0.109375 4.53125 -2.75 4.53125 -4.984375 Z M 1.46875 -3.625 C 1.640625 -4.25 1.84375 -5.046875 2.25 -5.765625 C 2.515625 -6.25 2.875 -6.8125 3.328125 -6.8125 C 3.8125 -6.8125 3.875 -6.171875 3.875 -5.609375 C 3.875 -5.109375 3.796875 -4.609375 3.5625 -3.625 Z M 3.46875 -3.296875 C 3.359375 -2.84375 3.15625 -2 2.765625 -1.28125 C 2.421875 -0.59375 2.046875 -0.109375 1.609375 -0.109375 C 1.28125 -0.109375 1.078125 -0.40625 1.078125 -1.328125 C 1.078125 -1.75 1.140625 -2.328125 1.390625 -3.296875 Z M 3.46875 -3.296875 "
           id="path6815" />
      </symbol>
      <symbol
         overflow="visible"
         id="symbol820">
        <path
           style="stroke:none;"
           d=""
           id="path8620" />
      </symbol>
      <symbol
         overflow="visible"
         id="symbol725">
        <path
           style="stroke:none;"
           d="M 1.578125 -7.125 C 1.578125 -7.296875 1.578125 -7.484375 1.390625 -7.484375 C 1.1875 -7.484375 1.1875 -7.296875 1.1875 -7.125 L 1.1875 2.140625 C 1.1875 2.3125 1.1875 2.5 1.390625 2.5 C 1.578125 2.5 1.578125 2.3125 1.578125 2.140625 Z M 1.578125 -7.125 "
           id="path3546" />
      </symbol>
    </g>
    <g
       id="g9863">
      <symbol
         overflow="visible"
         id="symbol2162">
        <path
           style="stroke:none;"
           d=""
           id="path8517" />
      </symbol>
      <symbol
         overflow="visible"
         id="symbol1283">
        <path
           style="stroke:none;"
           d="M 3.015625 -3.15625 L 4.71875 -3.15625 C 6.125 -3.15625 7.515625 -4.1875 7.515625 -5.296875 C 7.515625 -6.078125 6.859375 -6.8125 5.546875 -6.8125 L 2.328125 -6.8125 C 2.140625 -6.8125 2.03125 -6.8125 2.03125 -6.625 C 2.03125 -6.5 2.109375 -6.5 2.3125 -6.5 C 2.4375 -6.5 2.625 -6.484375 2.734375 -6.484375 C 2.90625 -6.453125 2.953125 -6.4375 2.953125 -6.3125 C 2.953125 -6.28125 2.953125 -6.25 2.921875 -6.125 L 1.578125 -0.78125 C 1.484375 -0.390625 1.46875 -0.3125 0.671875 -0.3125 C 0.515625 -0.3125 0.40625 -0.3125 0.40625 -0.125 C 0.40625 0 0.515625 0 0.546875 0 C 0.828125 0 1.53125 -0.03125 1.8125 -0.03125 C 2.03125 -0.03125 2.25 -0.015625 2.453125 -0.015625 C 2.671875 -0.015625 2.890625 0 3.09375 0 C 3.171875 0 3.296875 0 3.296875 -0.203125 C 3.296875 -0.3125 3.203125 -0.3125 3.015625 -0.3125 C 2.65625 -0.3125 2.375 -0.3125 2.375 -0.484375 C 2.375 -0.546875 2.390625 -0.59375 2.40625 -0.65625 Z M 3.734375 -6.125 C 3.828125 -6.46875 3.84375 -6.5 4.28125 -6.5 L 5.234375 -6.5 C 6.0625 -6.5 6.59375 -6.234375 6.59375 -5.546875 C 6.59375 -5.15625 6.390625 -4.296875 6 -3.9375 C 5.5 -3.484375 4.90625 -3.40625 4.46875 -3.40625 L 3.0625 -3.40625 Z M 3.734375 -6.125 "
           id="path2200" />
      </symbol>
      <symbol
         overflow="visible"
         id="symbol9881">
        <path
           style="stroke:none;"
           d="M 3.328125 -3.015625 C 3.390625 -3.265625 3.625 -4.1875 4.3125 -4.1875 C 4.359375 -4.1875 4.609375 -4.1875 4.8125 -4.0625 C 4.53125 -4 4.34375 -3.765625 4.34375 -3.515625 C 4.34375 -3.359375 4.453125 -3.171875 4.71875 -3.171875 C 4.9375 -3.171875 5.25 -3.34375 5.25 -3.75 C 5.25 -4.265625 4.671875 -4.40625 4.328125 -4.40625 C 3.75 -4.40625 3.40625 -3.875 3.28125 -3.65625 C 3.03125 -4.3125 2.5 -4.40625 2.203125 -4.40625 C 1.171875 -4.40625 0.59375 -3.125 0.59375 -2.875 C 0.59375 -2.765625 0.703125 -2.765625 0.71875 -2.765625 C 0.796875 -2.765625 0.828125 -2.796875 0.84375 -2.875 C 1.1875 -3.9375 1.84375 -4.1875 2.1875 -4.1875 C 2.375 -4.1875 2.71875 -4.09375 2.71875 -3.515625 C 2.71875 -3.203125 2.546875 -2.546875 2.1875 -1.140625 C 2.03125 -0.53125 1.671875 -0.109375 1.234375 -0.109375 C 1.171875 -0.109375 0.953125 -0.109375 0.734375 -0.234375 C 0.984375 -0.296875 1.203125 -0.5 1.203125 -0.78125 C 1.203125 -1.046875 0.984375 -1.125 0.84375 -1.125 C 0.53125 -1.125 0.296875 -0.875 0.296875 -0.546875 C 0.296875 -0.09375 0.78125 0.109375 1.21875 0.109375 C 1.890625 0.109375 2.25 -0.59375 2.265625 -0.640625 C 2.390625 -0.28125 2.75 0.109375 3.34375 0.109375 C 4.375 0.109375 4.9375 -1.171875 4.9375 -1.421875 C 4.9375 -1.53125 4.859375 -1.53125 4.828125 -1.53125 C 4.734375 -1.53125 4.71875 -1.484375 4.6875 -1.421875 C 4.359375 -0.34375 3.6875 -0.109375 3.375 -0.109375 C 2.984375 -0.109375 2.828125 -0.421875 2.828125 -0.765625 C 2.828125 -0.984375 2.875 -1.203125 2.984375 -1.640625 Z M 3.328125 -3.015625 "
           id="path3430" />
      </symbol>
      <symbol
         overflow="visible"
         id="symbol1337">
        <path
           style="stroke:none;"
           d="M 2.046875 -3.984375 L 2.984375 -3.984375 C 3.1875 -3.984375 3.296875 -3.984375 3.296875 -4.1875 C 3.296875 -4.296875 3.1875 -4.296875 3.015625 -4.296875 L 2.140625 -4.296875 C 2.5 -5.71875 2.546875 -5.90625 2.546875 -5.96875 C 2.546875 -6.140625 2.421875 -6.234375 2.25 -6.234375 C 2.21875 -6.234375 1.9375 -6.234375 1.859375 -5.875 L 1.46875 -4.296875 L 0.53125 -4.296875 C 0.328125 -4.296875 0.234375 -4.296875 0.234375 -4.109375 C 0.234375 -3.984375 0.3125 -3.984375 0.515625 -3.984375 L 1.390625 -3.984375 C 0.671875 -1.15625 0.625 -0.984375 0.625 -0.8125 C 0.625 -0.265625 1 0.109375 1.546875 0.109375 C 2.5625 0.109375 3.125 -1.34375 3.125 -1.421875 C 3.125 -1.53125 3.046875 -1.53125 3.015625 -1.53125 C 2.921875 -1.53125 2.90625 -1.5 2.859375 -1.390625 C 2.4375 -0.34375 1.90625 -0.109375 1.5625 -0.109375 C 1.359375 -0.109375 1.25 -0.234375 1.25 -0.5625 C 1.25 -0.8125 1.28125 -0.875 1.3125 -1.046875 Z M 2.046875 -3.984375 "
           id="path8553" />
      </symbol>
      <symbol
         overflow="visible"
         id="symbol4811">
        <path
           style="stroke:none;"
           d=""
           id="path801" />
      </symbol>
      <symbol
         overflow="visible"
         id="symbol2913">
        <path
           style="stroke:none;"
           d="M 3.296875 2.390625 C 3.296875 2.359375 3.296875 2.34375 3.125 2.171875 C 1.890625 0.921875 1.5625 -0.96875 1.5625 -2.5 C 1.5625 -4.234375 1.9375 -5.96875 3.171875 -7.203125 C 3.296875 -7.328125 3.296875 -7.34375 3.296875 -7.375 C 3.296875 -7.453125 3.265625 -7.484375 3.203125 -7.484375 C 3.09375 -7.484375 2.203125 -6.796875 1.609375 -5.53125 C 1.109375 -4.4375 0.984375 -3.328125 0.984375 -2.5 C 0.984375 -1.71875 1.09375 -0.515625 1.640625 0.625 C 2.25 1.84375 3.09375 2.5 3.203125 2.5 C 3.265625 2.5 3.296875 2.46875 3.296875 2.390625 Z M 3.296875 2.390625 "
           id="path2156" />
      </symbol>
      <symbol
         overflow="visible"
         id="symbol4808">
        <path
           style="stroke:none;"
           d="M 2.875 -2.5 C 2.875 -3.265625 2.765625 -4.46875 2.21875 -5.609375 C 1.625 -6.828125 0.765625 -7.484375 0.671875 -7.484375 C 0.609375 -7.484375 0.5625 -7.4375 0.5625 -7.375 C 0.5625 -7.34375 0.5625 -7.328125 0.75 -7.140625 C 1.734375 -6.15625 2.296875 -4.578125 2.296875 -2.5 C 2.296875 -0.78125 1.9375 0.96875 0.703125 2.21875 C 0.5625 2.34375 0.5625 2.359375 0.5625 2.390625 C 0.5625 2.453125 0.609375 2.5 0.671875 2.5 C 0.765625 2.5 1.671875 1.8125 2.25 0.546875 C 2.765625 -0.546875 2.875 -1.65625 2.875 -2.5 Z M 2.875 -2.5 "
           id="path4553" />
      </symbol>
      <symbol
         overflow="visible"
         id="symbol3993">
        <path
           style="stroke:none;"
           d="M 2.5 -6.921875 L 1.15625 -5.5625 L 1.328125 -5.390625 L 2.5 -6.40625 L 3.640625 -5.390625 L 3.8125 -5.5625 Z M 2.5 -6.921875 "
           id="path3092" />
      </symbol>
      <symbol
         overflow="visible"
         id="symbol3097">
        <path
           style="stroke:none;"
           d=""
           id="path3723" />
      </symbol>
      <symbol
         overflow="visible"
         id="symbol6740">
        <path
           style="stroke:none;"
           d="M 1.578125 -7.125 C 1.578125 -7.296875 1.578125 -7.484375 1.390625 -7.484375 C 1.1875 -7.484375 1.1875 -7.296875 1.1875 -7.125 L 1.1875 2.140625 C 1.1875 2.3125 1.1875 2.5 1.390625 2.5 C 1.578125 2.5 1.578125 2.3125 1.578125 2.140625 Z M 1.578125 -7.125 "
           id="path4787" />
      </symbol>
    </g>
    <g
       id="g5611">
      <symbol
         overflow="visible"
         id="symbol8834">
        <path
           style="stroke:none;"
           d=""
           id="path7037" />
      </symbol>
      <symbol
         overflow="visible"
         id="symbol1422">
        <path
           style="stroke:none;"
           d="M 3.015625 -3.15625 L 4.71875 -3.15625 C 6.125 -3.15625 7.515625 -4.1875 7.515625 -5.296875 C 7.515625 -6.078125 6.859375 -6.8125 5.546875 -6.8125 L 2.328125 -6.8125 C 2.140625 -6.8125 2.03125 -6.8125 2.03125 -6.625 C 2.03125 -6.5 2.109375 -6.5 2.3125 -6.5 C 2.4375 -6.5 2.625 -6.484375 2.734375 -6.484375 C 2.90625 -6.453125 2.953125 -6.4375 2.953125 -6.3125 C 2.953125 -6.28125 2.953125 -6.25 2.921875 -6.125 L 1.578125 -0.78125 C 1.484375 -0.390625 1.46875 -0.3125 0.671875 -0.3125 C 0.515625 -0.3125 0.40625 -0.3125 0.40625 -0.125 C 0.40625 0 0.515625 0 0.546875 0 C 0.828125 0 1.53125 -0.03125 1.8125 -0.03125 C 2.03125 -0.03125 2.25 -0.015625 2.453125 -0.015625 C 2.671875 -0.015625 2.890625 0 3.09375 0 C 3.171875 0 3.296875 0 3.296875 -0.203125 C 3.296875 -0.3125 3.203125 -0.3125 3.015625 -0.3125 C 2.65625 -0.3125 2.375 -0.3125 2.375 -0.484375 C 2.375 -0.546875 2.390625 -0.59375 2.40625 -0.65625 Z M 3.734375 -6.125 C 3.828125 -6.46875 3.84375 -6.5 4.28125 -6.5 L 5.234375 -6.5 C 6.0625 -6.5 6.59375 -6.234375 6.59375 -5.546875 C 6.59375 -5.15625 6.390625 -4.296875 6 -3.9375 C 5.5 -3.484375 4.90625 -3.40625 4.46875 -3.40625 L 3.0625 -3.40625 Z M 3.734375 -6.125 "
           id="path8320" />
      </symbol>
      <symbol
         overflow="visible"
         id="symbol9302">
        <path
           style="stroke:none;"
           d="M 3.328125 -3.015625 C 3.390625 -3.265625 3.625 -4.1875 4.3125 -4.1875 C 4.359375 -4.1875 4.609375 -4.1875 4.8125 -4.0625 C 4.53125 -4 4.34375 -3.765625 4.34375 -3.515625 C 4.34375 -3.359375 4.453125 -3.171875 4.71875 -3.171875 C 4.9375 -3.171875 5.25 -3.34375 5.25 -3.75 C 5.25 -4.265625 4.671875 -4.40625 4.328125 -4.40625 C 3.75 -4.40625 3.40625 -3.875 3.28125 -3.65625 C 3.03125 -4.3125 2.5 -4.40625 2.203125 -4.40625 C 1.171875 -4.40625 0.59375 -3.125 0.59375 -2.875 C 0.59375 -2.765625 0.703125 -2.765625 0.71875 -2.765625 C 0.796875 -2.765625 0.828125 -2.796875 0.84375 -2.875 C 1.1875 -3.9375 1.84375 -4.1875 2.1875 -4.1875 C 2.375 -4.1875 2.71875 -4.09375 2.71875 -3.515625 C 2.71875 -3.203125 2.546875 -2.546875 2.1875 -1.140625 C 2.03125 -0.53125 1.671875 -0.109375 1.234375 -0.109375 C 1.171875 -0.109375 0.953125 -0.109375 0.734375 -0.234375 C 0.984375 -0.296875 1.203125 -0.5 1.203125 -0.78125 C 1.203125 -1.046875 0.984375 -1.125 0.84375 -1.125 C 0.53125 -1.125 0.296875 -0.875 0.296875 -0.546875 C 0.296875 -0.09375 0.78125 0.109375 1.21875 0.109375 C 1.890625 0.109375 2.25 -0.59375 2.265625 -0.640625 C 2.390625 -0.28125 2.75 0.109375 3.34375 0.109375 C 4.375 0.109375 4.9375 -1.171875 4.9375 -1.421875 C 4.9375 -1.53125 4.859375 -1.53125 4.828125 -1.53125 C 4.734375 -1.53125 4.71875 -1.484375 4.6875 -1.421875 C 4.359375 -0.34375 3.6875 -0.109375 3.375 -0.109375 C 2.984375 -0.109375 2.828125 -0.421875 2.828125 -0.765625 C 2.828125 -0.984375 2.875 -1.203125 2.984375 -1.640625 Z M 3.328125 -3.015625 "
           id="path2854" />
      </symbol>
      <symbol
         overflow="visible"
         id="symbol1737">
        <path
           style="stroke:none;"
           d="M 4.53125 -4.984375 C 4.53125 -5.640625 4.359375 -7.03125 3.34375 -7.03125 C 1.953125 -7.03125 0.421875 -4.21875 0.421875 -1.9375 C 0.421875 -1 0.703125 0.109375 1.609375 0.109375 C 3.015625 0.109375 4.53125 -2.75 4.53125 -4.984375 Z M 1.46875 -3.625 C 1.640625 -4.25 1.84375 -5.046875 2.25 -5.765625 C 2.515625 -6.25 2.875 -6.8125 3.328125 -6.8125 C 3.8125 -6.8125 3.875 -6.171875 3.875 -5.609375 C 3.875 -5.109375 3.796875 -4.609375 3.5625 -3.625 Z M 3.46875 -3.296875 C 3.359375 -2.84375 3.15625 -2 2.765625 -1.28125 C 2.421875 -0.59375 2.046875 -0.109375 1.609375 -0.109375 C 1.28125 -0.109375 1.078125 -0.40625 1.078125 -1.328125 C 1.078125 -1.75 1.140625 -2.328125 1.390625 -3.296875 Z M 3.46875 -3.296875 "
           id="path250" />
      </symbol>
      <symbol
         overflow="visible"
         id="symbol7879">
        <path
           style="stroke:none;"
           d="M 2.03125 -0.015625 C 2.03125 -0.671875 1.78125 -1.0625 1.390625 -1.0625 C 1.0625 -1.0625 0.859375 -0.8125 0.859375 -0.53125 C 0.859375 -0.265625 1.0625 0 1.390625 0 C 1.5 0 1.640625 -0.046875 1.734375 -0.125 C 1.765625 -0.15625 1.78125 -0.15625 1.78125 -0.15625 C 1.796875 -0.15625 1.796875 -0.15625 1.796875 -0.015625 C 1.796875 0.734375 1.453125 1.328125 1.125 1.65625 C 1.015625 1.765625 1.015625 1.78125 1.015625 1.8125 C 1.015625 1.890625 1.0625 1.921875 1.109375 1.921875 C 1.21875 1.921875 2.03125 1.15625 2.03125 -0.015625 Z M 2.03125 -0.015625 "
           id="path3364" />
      </symbol>
      <symbol
         overflow="visible"
         id="symbol3480">
        <path
           style="stroke:none;"
           d=""
           id="path717" />
      </symbol>
      <symbol
         overflow="visible"
         id="symbol6233">
        <path
           style="stroke:none;"
           d="M 3.296875 2.390625 C 3.296875 2.359375 3.296875 2.34375 3.125 2.171875 C 1.890625 0.921875 1.5625 -0.96875 1.5625 -2.5 C 1.5625 -4.234375 1.9375 -5.96875 3.171875 -7.203125 C 3.296875 -7.328125 3.296875 -7.34375 3.296875 -7.375 C 3.296875 -7.453125 3.265625 -7.484375 3.203125 -7.484375 C 3.09375 -7.484375 2.203125 -6.796875 1.609375 -5.53125 C 1.109375 -4.4375 0.984375 -3.328125 0.984375 -2.5 C 0.984375 -1.71875 1.09375 -0.515625 1.640625 0.625 C 2.25 1.84375 3.09375 2.5 3.203125 2.5 C 3.265625 2.5 3.296875 2.46875 3.296875 2.390625 Z M 3.296875 2.390625 "
           id="path3756" />
      </symbol>
      <symbol
         overflow="visible"
         id="symbol2194">
        <path
           style="stroke:none;"
           d="M 2.5 -6.921875 L 1.15625 -5.5625 L 1.328125 -5.390625 L 2.5 -6.40625 L 3.640625 -5.390625 L 3.8125 -5.5625 Z M 2.5 -6.921875 "
           id="path7544" />
      </symbol>
      <symbol
         overflow="visible"
         id="symbol930">
        <path
           style="stroke:none;"
           d="M 2.875 -2.5 C 2.875 -3.265625 2.765625 -4.46875 2.21875 -5.609375 C 1.625 -6.828125 0.765625 -7.484375 0.671875 -7.484375 C 0.609375 -7.484375 0.5625 -7.4375 0.5625 -7.375 C 0.5625 -7.34375 0.5625 -7.328125 0.75 -7.140625 C 1.734375 -6.15625 2.296875 -4.578125 2.296875 -2.5 C 2.296875 -0.78125 1.9375 0.96875 0.703125 2.21875 C 0.5625 2.34375 0.5625 2.359375 0.5625 2.390625 C 0.5625 2.453125 0.609375 2.5 0.671875 2.5 C 0.765625 2.5 1.671875 1.8125 2.25 0.546875 C 2.765625 -0.546875 2.875 -1.65625 2.875 -2.5 Z M 2.875 -2.5 "
           id="path4238" />
      </symbol>
      <symbol
         overflow="visible"
         id="symbol8226">
        <path
           style="stroke:none;"
           d=""
           id="path1075" />
      </symbol>
      <symbol
         overflow="visible"
         id="symbol469">
        <path
           style="stroke:none;"
           d="M 1.578125 -7.125 C 1.578125 -7.296875 1.578125 -7.484375 1.390625 -7.484375 C 1.1875 -7.484375 1.1875 -7.296875 1.1875 -7.125 L 1.1875 2.140625 C 1.1875 2.3125 1.1875 2.5 1.390625 2.5 C 1.578125 2.5 1.578125 2.3125 1.578125 2.140625 Z M 1.578125 -7.125 "
           id="path4336" />
      </symbol>
    </g>
    <g
       id="g1970">
      <symbol
         overflow="visible"
         id="symbol3304">
        <path
           style="stroke:none;"
           d=""
           id="path2695" />
      </symbol>
      <symbol
         overflow="visible"
         id="symbol3460">
        <path
           style="stroke:none;"
           d="M 2.5 -6.921875 L 1.15625 -5.5625 L 1.328125 -5.390625 L 2.5 -6.40625 L 3.640625 -5.390625 L 3.8125 -5.5625 Z M 2.5 -6.921875 "
           id="path8142" />
      </symbol>
      <symbol
         overflow="visible"
         id="symbol2080">
        <path
           style="stroke:none;"
           d="M 3.296875 2.390625 C 3.296875 2.359375 3.296875 2.34375 3.125 2.171875 C 1.890625 0.921875 1.5625 -0.96875 1.5625 -2.5 C 1.5625 -4.234375 1.9375 -5.96875 3.171875 -7.203125 C 3.296875 -7.328125 3.296875 -7.34375 3.296875 -7.375 C 3.296875 -7.453125 3.265625 -7.484375 3.203125 -7.484375 C 3.09375 -7.484375 2.203125 -6.796875 1.609375 -5.53125 C 1.109375 -4.4375 0.984375 -3.328125 0.984375 -2.5 C 0.984375 -1.71875 1.09375 -0.515625 1.640625 0.625 C 2.25 1.84375 3.09375 2.5 3.203125 2.5 C 3.265625 2.5 3.296875 2.46875 3.296875 2.390625 Z M 3.296875 2.390625 "
           id="path7268" />
      </symbol>
      <symbol
         overflow="visible"
         id="symbol6281">
        <path
           style="stroke:none;"
           d="M 2.875 -2.5 C 2.875 -3.265625 2.765625 -4.46875 2.21875 -5.609375 C 1.625 -6.828125 0.765625 -7.484375 0.671875 -7.484375 C 0.609375 -7.484375 0.5625 -7.4375 0.5625 -7.375 C 0.5625 -7.34375 0.5625 -7.328125 0.75 -7.140625 C 1.734375 -6.15625 2.296875 -4.578125 2.296875 -2.5 C 2.296875 -0.78125 1.9375 0.96875 0.703125 2.21875 C 0.5625 2.34375 0.5625 2.359375 0.5625 2.390625 C 0.5625 2.453125 0.609375 2.5 0.671875 2.5 C 0.765625 2.5 1.671875 1.8125 2.25 0.546875 C 2.765625 -0.546875 2.875 -1.65625 2.875 -2.5 Z M 2.875 -2.5 "
           id="path2421" />
      </symbol>
      <symbol
         overflow="visible"
         id="symbol3615">
        <path
           style="stroke:none;"
           d=""
           id="path3893" />
      </symbol>
      <symbol
         overflow="visible"
         id="symbol2605">
        <path
           style="stroke:none;"
           d="M 3.328125 -3.015625 C 3.390625 -3.265625 3.625 -4.1875 4.3125 -4.1875 C 4.359375 -4.1875 4.609375 -4.1875 4.8125 -4.0625 C 4.53125 -4 4.34375 -3.765625 4.34375 -3.515625 C 4.34375 -3.359375 4.453125 -3.171875 4.71875 -3.171875 C 4.9375 -3.171875 5.25 -3.34375 5.25 -3.75 C 5.25 -4.265625 4.671875 -4.40625 4.328125 -4.40625 C 3.75 -4.40625 3.40625 -3.875 3.28125 -3.65625 C 3.03125 -4.3125 2.5 -4.40625 2.203125 -4.40625 C 1.171875 -4.40625 0.59375 -3.125 0.59375 -2.875 C 0.59375 -2.765625 0.703125 -2.765625 0.71875 -2.765625 C 0.796875 -2.765625 0.828125 -2.796875 0.84375 -2.875 C 1.1875 -3.9375 1.84375 -4.1875 2.1875 -4.1875 C 2.375 -4.1875 2.71875 -4.09375 2.71875 -3.515625 C 2.71875 -3.203125 2.546875 -2.546875 2.1875 -1.140625 C 2.03125 -0.53125 1.671875 -0.109375 1.234375 -0.109375 C 1.171875 -0.109375 0.953125 -0.109375 0.734375 -0.234375 C 0.984375 -0.296875 1.203125 -0.5 1.203125 -0.78125 C 1.203125 -1.046875 0.984375 -1.125 0.84375 -1.125 C 0.53125 -1.125 0.296875 -0.875 0.296875 -0.546875 C 0.296875 -0.09375 0.78125 0.109375 1.21875 0.109375 C 1.890625 0.109375 2.25 -0.59375 2.265625 -0.640625 C 2.390625 -0.28125 2.75 0.109375 3.34375 0.109375 C 4.375 0.109375 4.9375 -1.171875 4.9375 -1.421875 C 4.9375 -1.53125 4.859375 -1.53125 4.828125 -1.53125 C 4.734375 -1.53125 4.71875 -1.484375 4.6875 -1.421875 C 4.359375 -0.34375 3.6875 -0.109375 3.375 -0.109375 C 2.984375 -0.109375 2.828125 -0.421875 2.828125 -0.765625 C 2.828125 -0.984375 2.875 -1.203125 2.984375 -1.640625 Z M 3.328125 -3.015625 "
           id="path9872" />
      </symbol>
      <symbol
         overflow="visible"
         id="symbol4093">
        <path
           style="stroke:none;"
           d="M 3.015625 -3.15625 L 4.71875 -3.15625 C 6.125 -3.15625 7.515625 -4.1875 7.515625 -5.296875 C 7.515625 -6.078125 6.859375 -6.8125 5.546875 -6.8125 L 2.328125 -6.8125 C 2.140625 -6.8125 2.03125 -6.8125 2.03125 -6.625 C 2.03125 -6.5 2.109375 -6.5 2.3125 -6.5 C 2.4375 -6.5 2.625 -6.484375 2.734375 -6.484375 C 2.90625 -6.453125 2.953125 -6.4375 2.953125 -6.3125 C 2.953125 -6.28125 2.953125 -6.25 2.921875 -6.125 L 1.578125 -0.78125 C 1.484375 -0.390625 1.46875 -0.3125 0.671875 -0.3125 C 0.515625 -0.3125 0.40625 -0.3125 0.40625 -0.125 C 0.40625 0 0.515625 0 0.546875 0 C 0.828125 0 1.53125 -0.03125 1.8125 -0.03125 C 2.03125 -0.03125 2.25 -0.015625 2.453125 -0.015625 C 2.671875 -0.015625 2.890625 0 3.09375 0 C 3.171875 0 3.296875 0 3.296875 -0.203125 C 3.296875 -0.3125 3.203125 -0.3125 3.015625 -0.3125 C 2.65625 -0.3125 2.375 -0.3125 2.375 -0.484375 C 2.375 -0.546875 2.390625 -0.59375 2.40625 -0.65625 Z M 3.734375 -6.125 C 3.828125 -6.46875 3.84375 -6.5 4.28125 -6.5 L 5.234375 -6.5 C 6.0625 -6.5 6.59375 -6.234375 6.59375 -5.546875 C 6.59375 -5.15625 6.390625 -4.296875 6 -3.9375 C 5.5 -3.484375 4.90625 -3.40625 4.46875 -3.40625 L 3.0625 -3.40625 Z M 3.734375 -6.125 "
           id="path2770" />
      </symbol>
      <symbol
         overflow="visible"
         id="symbol7141">
        <path
           style="stroke:none;"
           d="M 4.53125 -4.984375 C 4.53125 -5.640625 4.359375 -7.03125 3.34375 -7.03125 C 1.953125 -7.03125 0.421875 -4.21875 0.421875 -1.9375 C 0.421875 -1 0.703125 0.109375 1.609375 0.109375 C 3.015625 0.109375 4.53125 -2.75 4.53125 -4.984375 Z M 1.46875 -3.625 C 1.640625 -4.25 1.84375 -5.046875 2.25 -5.765625 C 2.515625 -6.25 2.875 -6.8125 3.328125 -6.8125 C 3.8125 -6.8125 3.875 -6.171875 3.875 -5.609375 C 3.875 -5.109375 3.796875 -4.609375 3.5625 -3.625 Z M 3.46875 -3.296875 C 3.359375 -2.84375 3.15625 -2 2.765625 -1.28125 C 2.421875 -0.59375 2.046875 -0.109375 1.609375 -0.109375 C 1.28125 -0.109375 1.078125 -0.40625 1.078125 -1.328125 C 1.078125 -1.75 1.140625 -2.328125 1.390625 -3.296875 Z M 3.46875 -3.296875 "
           id="path449" />
      </symbol>
      <symbol
         overflow="visible"
         id="symbol7258">
        <path
           style="stroke:none;"
           d=""
           id="path2312" />
      </symbol>
      <symbol
         overflow="visible"
         id="symbol1803">
        <path
           style="stroke:none;"
           d="M 8.3125 -2.296875 C 7.765625 -1.875 7.5 -1.46875 7.421875 -1.328125 C 6.96875 -0.640625 6.890625 -0.015625 6.890625 -0.015625 C 6.890625 0.109375 7.015625 0.109375 7.09375 0.109375 C 7.25 0.109375 7.265625 0.09375 7.3125 -0.09375 C 7.53125 -1.0625 8.125 -1.90625 9.25 -2.359375 C 9.375 -2.40625 9.40625 -2.421875 9.40625 -2.5 C 9.40625 -2.5625 9.34375 -2.59375 9.328125 -2.609375 C 8.875 -2.765625 7.671875 -3.265625 7.296875 -4.9375 C 7.265625 -5.0625 7.25 -5.09375 7.09375 -5.09375 C 7.015625 -5.09375 6.890625 -5.09375 6.890625 -4.96875 C 6.890625 -4.953125 6.984375 -4.328125 7.390625 -3.65625 C 7.59375 -3.359375 7.890625 -3.015625 8.3125 -2.6875 L 0.90625 -2.6875 C 0.734375 -2.6875 0.546875 -2.6875 0.546875 -2.5 C 0.546875 -2.296875 0.734375 -2.296875 0.90625 -2.296875 Z M 8.3125 -2.296875 "
           id="path1170" />
      </symbol>
      <symbol
         overflow="visible"
         id="symbol6983">
        <path
           style="stroke:none;"
           d="M 1.578125 -7.125 C 1.578125 -7.296875 1.578125 -7.484375 1.390625 -7.484375 C 1.1875 -7.484375 1.1875 -7.296875 1.1875 -7.125 L 1.1875 2.140625 C 1.1875 2.3125 1.1875 2.5 1.390625 2.5 C 1.578125 2.5 1.578125 2.3125 1.578125 2.140625 Z M 1.578125 -7.125 "
           id="path9276" />
      </symbol>
    </g>
  </defs>
  <sodipodi:namedview
     id="base"
     pagecolor="#ffffff"
     bordercolor="#666666"
     borderopacity="1.0"
     inkscape:pageopacity="0.0"
     inkscape:pageshadow="2"
     inkscape:zoom="1.2926777"
     inkscape:cx="513.16142"
     inkscape:cy="473.07772"
     inkscape:document-units="px"
     inkscape:current-layer="layer1"
     inkscape:document-rotation="0"
     showgrid="false"
     inkscape:window-width="1902"
     inkscape:window-height="1032"
     inkscape:window-x="5"
     inkscape:window-y="35"
     inkscape:window-maximized="0" />
  <metadata
     id="metadata1405">
    <rdf:RDF>
      <cc:Work
         rdf:about="">
        <dc:format>image/svg+xml</dc:format>
        <dc:type
           rdf:resource="http://purl.org/dc/dcmitype/StillImage" />
        <dc:title></dc:title>
      </cc:Work>
    </rdf:RDF>
  </metadata>
  <g
     inkscape:label="Layer 1"
     inkscape:groupmode="layer"
     id="layer1">
    <rect
       style="fill:#58d1d4;fill-opacity:0.99518692;stroke-width:10.1975"
       id="rect1982"
       width="2022.7921"
       height="970.84503"
       x="31.625793"
       y="1.8124824" />
    <rect
       style="fill:#3fbacf;fill-opacity:1;stroke-width:7.74324"
       id="rect1976"
       width="1479.4064"
       height="765.36981"
       x="83.162674"
       y="126.99945" />
    <rect
       style="fill:#3f74d4;fill-opacity:0.447773;stroke-width:4.75063"
       id="rect1980"
       width="860.89423"
       height="495.07037"
       x="144.34352"
       y="225.23476" />
    <text
       xml:space="preserve"
       style="font-style:normal;font-weight:normal;font-size:53.3333px;line-height:1.25;font-family:sans-serif;fill:#ffffff;fill-opacity:1;stroke:none"
       x="173.58348"
       y="289.7735"
       id="text1988"><tspan
         sodipodi:role="line"
         id="tspan1986"
         x="173.58348"
         y="289.7735"
         style="font-style:normal;font-variant:normal;font-weight:600;font-stretch:normal;font-size:53.3333px;font-family:Iosevka;-inkscape-font-specification:'Iosevka Semi-Bold';fill:#ffffff">Inference</tspan></text>
    <text
       xml:space="preserve"
       style="font-style:normal;font-weight:normal;font-size:40px;line-height:1.25;font-family:sans-serif;fill:#ffffff;fill-opacity:1;stroke:none"
       x="1318.0173"
       y="191.7767"
       id="text1992"><tspan
         sodipodi:role="line"
         id="tspan1990"
         x="1318.0173"
         y="191.7767"
         style="font-style:normal;font-variant:normal;font-weight:600;font-stretch:normal;font-family:Iosevka;-inkscape-font-specification:'Iosevka Semi-Bold';fill:#ffffff">Prediction</tspan></text>
    <text
       xml:space="preserve"
       style="font-style:normal;font-weight:normal;font-size:40px;line-height:1.25;font-family:sans-serif;fill:#ffffff;fill-opacity:1;stroke:none"
       x="1707.462"
       y="66.824142"
       id="text1996"><tspan
         sodipodi:role="line"
         id="tspan1994"
         x="1707.462"
         y="66.824142"
         style="font-style:normal;font-variant:normal;font-weight:600;font-stretch:normal;font-family:Iosevka;-inkscape-font-specification:'Iosevka Semi-Bold';fill:#ffffff">Forecasting</tspan></text>
    <text
       xml:space="preserve"
       style="font-style:normal;font-weight:normal;font-size:40px;line-height:1.25;font-family:sans-serif;fill:#ffffff;fill-opacity:1;stroke:none"
       x="2285.2034"
       y="-2.2371485"
       id="text2002"><tspan
         sodipodi:role="line"
         id="tspan2000"
         x="2285.2034"
         y="-2.2371485"
         style="font-style:normal;font-variant:normal;font-weight:600;font-stretch:normal;font-family:Iosevka;-inkscape-font-specification:'Iosevka Semi-Bold';fill:#ffffff">Validation</tspan></text>
    <g
       inkscape:label=""
       transform="matrix(5.8064041,0,0,5.8064041,1157.9065,-239.28695)"
       id="g2332"
       style="fill:#ffffff">
      <g
         id="g9482"
         style="fill:#ffffff">
        <g
           style="fill:#ffffff;fill-opacity:1"
           id="g1960">
          <use
             xlink:href="#symbol1283"
             x="91.925003"
             y="81.962997"
             id="use3089"
             width="100%"
             height="100%"
             style="fill:#ffffff" />
        </g>
        <g
           style="fill:#ffffff;fill-opacity:1"
           id="g910">
          <use
             xlink:href="#symbol2913"
             x="99.705002"
             y="81.962997"
             id="use9731"
             width="100%"
             height="100%"
             style="fill:#ffffff" />
        </g>
        <g
           style="fill:#ffffff;fill-opacity:1"
           id="g7663">
          <use
             xlink:href="#symbol9881"
             x="103.579"
             y="81.962997"
             id="use3798"
             width="100%"
             height="100%"
             style="fill:#ffffff" />
        </g>
        <g
           style="fill:#ffffff;fill-opacity:1"
           id="g9841">
          <use
             xlink:href="#symbol2913"
             x="109.273"
             y="81.962997"
             id="use8220"
             width="100%"
             height="100%"
             style="fill:#ffffff" />
        </g>
        <g
           style="fill:#ffffff;fill-opacity:1"
           id="g9912">
          <use
             xlink:href="#symbol1337"
             x="113.148"
             y="81.962997"
             id="use7801"
             width="100%"
             height="100%"
             style="fill:#ffffff" />
        </g>
        <g
           style="fill:#ffffff;fill-opacity:1"
           id="g7148">
          <use
             xlink:href="#symbol4808"
             x="116.745"
             y="81.962997"
             id="use1024"
             width="100%"
             height="100%"
             style="fill:#ffffff" />
        </g>
        <g
           style="fill:#ffffff;fill-opacity:1"
           id="g5297">
          <use
             xlink:href="#symbol6740"
             x="120.62"
             y="81.962997"
             id="use1536"
             width="100%"
             height="100%"
             style="fill:#ffffff" />
        </g>
        <g
           style="fill:#ffffff;fill-opacity:1"
           id="g741">
          <use
             xlink:href="#symbol3993"
             x="124.02"
             y="81.962997"
             id="use1493"
             width="100%"
             height="100%"
             style="fill:#ffffff" />
        </g>
        <g
           style="fill:#ffffff;fill-opacity:1"
           id="g6250">
          <use
             xlink:href="#symbol9881"
             x="123.387"
             y="81.962997"
             id="use2899"
             width="100%"
             height="100%"
             style="fill:#ffffff" />
        </g>
        <g
           style="fill:#ffffff;fill-opacity:1"
           id="g5883">
          <use
             xlink:href="#symbol4808"
             x="129.08099"
             y="81.962997"
             id="use1490"
             width="100%"
             height="100%"
             style="fill:#ffffff" />
        </g>
      </g>
    </g>
    <g
       inkscape:label=""
       transform="matrix(5.8034378,0,0,5.8034378,724.65632,-95.280726)"
       id="g2516"
       style="fill:#ffffff">
      <g
         id="g373"
         style="fill:#ffffff">
        <g
           style="fill:#ffffff;fill-opacity:1"
           id="g9504">
          <use
             xlink:href="#symbol1422"
             x="91.925003"
             y="81.962997"
             id="use1109"
             width="100%"
             height="100%"
             style="fill:#ffffff" />
        </g>
        <g
           style="fill:#ffffff;fill-opacity:1"
           id="g9957">
          <use
             xlink:href="#symbol6233"
             x="99.705002"
             y="81.962997"
             id="use4306"
             width="100%"
             height="100%"
             style="fill:#ffffff" />
        </g>
        <g
           style="fill:#ffffff;fill-opacity:1"
           id="g9105">
          <use
             xlink:href="#symbol9302"
             x="103.579"
             y="81.962997"
             id="use8903"
             width="100%"
             height="100%"
             style="fill:#ffffff" />
        </g>
        <g
           style="fill:#ffffff;fill-opacity:1"
           id="g1710">
          <use
             xlink:href="#symbol469"
             x="109.273"
             y="81.962997"
             id="use9520"
             width="100%"
             height="100%"
             style="fill:#ffffff" />
        </g>
        <g
           style="fill:#ffffff;fill-opacity:1"
           id="g710">
          <use
             xlink:href="#symbol1737"
             x="112.041"
             y="81.962997"
             id="use5282"
             width="100%"
             height="100%"
             style="fill:#ffffff" />
        </g>
        <g
           style="fill:#ffffff;fill-opacity:1"
           id="g6742">
          <use
             xlink:href="#symbol7879"
             x="116.9964"
             y="81.962997"
             id="use6906"
             width="100%"
             height="100%"
             style="fill:#ffffff" />
        </g>
        <g
           style="fill:#ffffff;fill-opacity:1"
           id="g7310">
          <use
             xlink:href="#symbol2194"
             x="122.055"
             y="81.962997"
             id="use6751"
             width="100%"
             height="100%"
             style="fill:#ffffff" />
        </g>
        <g
           style="fill:#ffffff;fill-opacity:1"
           id="g7275">
          <use
             xlink:href="#symbol9302"
             x="121.422"
             y="81.962997"
             id="use6504"
             width="100%"
             height="100%"
             style="fill:#ffffff" />
        </g>
        <g
           style="fill:#ffffff;fill-opacity:1"
           id="g2653">
          <use
             xlink:href="#symbol930"
             x="127.116"
             y="81.962997"
             id="use6565"
             width="100%"
             height="100%"
             style="fill:#ffffff" />
        </g>
      </g>
    </g>
    <g
       inkscape:label=""
       transform="matrix(4.4872801,0,0,4.4872801,-235.61983,-20.959428)"
       id="g2745"
       style="fill:#ffffff">
      <g
         id="g2206"
         style="fill:#ffffff">
        <g
           style="fill:#ffffff;fill-opacity:1"
           id="g3905">
          <use
             xlink:href="#symbol3460"
             x="92.557999"
             y="81.962997"
             id="use2"
             width="100%"
             height="100%"
             style="fill:#ffffff" />
        </g>
        <g
           style="fill:#ffffff;fill-opacity:1"
           id="g7631">
          <use
             xlink:href="#symbol2605"
             x="91.925003"
             y="81.962997"
             id="use1732"
             width="100%"
             height="100%"
             style="fill:#ffffff" />
        </g>
        <g
           style="fill:#ffffff;fill-opacity:1"
           id="g5309">
          <use
             xlink:href="#symbol1803"
             x="100.386"
             y="81.962997"
             id="use6695"
             width="100%"
             height="100%"
             style="fill:#ffffff" />
        </g>
        <g
           style="fill:#ffffff;fill-opacity:1"
           id="g1414">
          <use
             xlink:href="#symbol4093"
             x="113.116"
             y="81.962997"
             id="use6684"
             width="100%"
             height="100%"
             style="fill:#ffffff" />
        </g>
        <g
           style="fill:#ffffff;fill-opacity:1"
           id="g3467">
          <use
             xlink:href="#symbol2080"
             x="120.896"
             y="81.962997"
             id="use9108"
             width="100%"
             height="100%"
             style="fill:#ffffff" />
        </g>
        <g
           style="fill:#ffffff;fill-opacity:1"
           id="g5082">
          <use
             xlink:href="#symbol7141"
             x="124.771"
             y="81.962997"
             id="use2811"
             width="100%"
             height="100%"
             style="fill:#ffffff" />
        </g>
        <g
           style="fill:#ffffff;fill-opacity:1"
           id="g2208">
          <use
             xlink:href="#symbol6983"
             x="129.724"
             y="81.962997"
             id="use7856"
             width="100%"
             height="100%"
             style="fill:#ffffff" />
        </g>
        <g
           style="fill:#ffffff;fill-opacity:1"
           id="g1900">
          <use
             xlink:href="#symbol3460"
             x="133.125"
             y="81.962997"
             id="use4235"
             width="100%"
             height="100%"
             style="fill:#ffffff" />
        </g>
        <g
           style="fill:#ffffff;fill-opacity:1"
           id="g2703">
          <use
             xlink:href="#symbol2605"
             x="132.492"
             y="81.962997"
             id="use4950"
             width="100%"
             height="100%"
             style="fill:#ffffff" />
        </g>
        <g
           style="fill:#ffffff;fill-opacity:1"
           id="g2993">
          <use
             xlink:href="#symbol6281"
             x="138.186"
             y="81.962997"
             id="use6154"
             width="100%"
             height="100%"
             style="fill:#ffffff" />
        </g>
      </g>
    </g>
  </g>
</svg>
