<?xml version="1.0" encoding="UTF-8" standalone="no"?>
<svg
   xmlns:dc="http://purl.org/dc/elements/1.1/"
   xmlns:cc="http://creativecommons.org/ns#"
   xmlns:rdf="http://www.w3.org/1999/02/22-rdf-syntax-ns#"
   xmlns:svg="http://www.w3.org/2000/svg"
   xmlns="http://www.w3.org/2000/svg"
   xmlns:xlink="http://www.w3.org/1999/xlink"
   xmlns:sodipodi="http://sodipodi.sourceforge.net/DTD/sodipodi-0.dtd"
   xmlns:inkscape="http://www.inkscape.org/namespaces/inkscape"
   sodipodi:docname="the_forecasting_problem.svg"
   id="SVGRoot"
   version="1.1"
   viewBox="0 0 1920 1080"
   height="1080px"
   width="1920px"
   inkscape:version="1.0.1 (1.0.1+r73)"
   inkscape:export-filename="/home/michael/phd/report_year1/figs/the_forecasting_problem.png"
   inkscape:export-xdpi="96"
   inkscape:export-ydpi="96">
  <defs
     id="defs380">
    <inkscape:perspective
       sodipodi:type="inkscape:persp3d"
       inkscape:vp_x="0 : 540 : 1"
       inkscape:vp_y="0 : 1000 : 0"
       inkscape:vp_z="1920 : 540 : 1"
       inkscape:persp3d-origin="960 : 360 : 1"
       id="perspective393" />
    <g
       id="g4535">
      <symbol
         overflow="visible"
         id="symbol8052">
        <path
           style="stroke:none;"
           d=""
           id="path5046" />
      </symbol>
      <symbol
         overflow="visible"
         id="symbol8445">
        <path
           style="stroke:none;"
           d="M 3.015625 -3.15625 L 4.71875 -3.15625 C 6.125 -3.15625 7.515625 -4.1875 7.515625 -5.296875 C 7.515625 -6.078125 6.859375 -6.8125 5.546875 -6.8125 L 2.328125 -6.8125 C 2.140625 -6.8125 2.03125 -6.8125 2.03125 -6.625 C 2.03125 -6.5 2.109375 -6.5 2.3125 -6.5 C 2.4375 -6.5 2.625 -6.484375 2.734375 -6.484375 C 2.90625 -6.453125 2.953125 -6.4375 2.953125 -6.3125 C 2.953125 -6.28125 2.953125 -6.25 2.921875 -6.125 L 1.578125 -0.78125 C 1.484375 -0.390625 1.46875 -0.3125 0.671875 -0.3125 C 0.515625 -0.3125 0.40625 -0.3125 0.40625 -0.125 C 0.40625 0 0.515625 0 0.546875 0 C 0.828125 0 1.53125 -0.03125 1.8125 -0.03125 C 2.03125 -0.03125 2.25 -0.015625 2.453125 -0.015625 C 2.671875 -0.015625 2.890625 0 3.09375 0 C 3.171875 0 3.296875 0 3.296875 -0.203125 C 3.296875 -0.3125 3.203125 -0.3125 3.015625 -0.3125 C 2.65625 -0.3125 2.375 -0.3125 2.375 -0.484375 C 2.375 -0.546875 2.390625 -0.59375 2.40625 -0.65625 Z M 3.734375 -6.125 C 3.828125 -6.46875 3.84375 -6.5 4.28125 -6.5 L 5.234375 -6.5 C 6.0625 -6.5 6.59375 -6.234375 6.59375 -5.546875 C 6.59375 -5.15625 6.390625 -4.296875 6 -3.9375 C 5.5 -3.484375 4.90625 -3.40625 4.46875 -3.40625 L 3.0625 -3.40625 Z M 3.734375 -6.125 "
           id="path3892" />
      </symbol>
      <symbol
         overflow="visible"
         id="symbol8256">
        <path
           style="stroke:none;"
           d="M 3.328125 -3.015625 C 3.390625 -3.265625 3.625 -4.1875 4.3125 -4.1875 C 4.359375 -4.1875 4.609375 -4.1875 4.8125 -4.0625 C 4.53125 -4 4.34375 -3.765625 4.34375 -3.515625 C 4.34375 -3.359375 4.453125 -3.171875 4.71875 -3.171875 C 4.9375 -3.171875 5.25 -3.34375 5.25 -3.75 C 5.25 -4.265625 4.671875 -4.40625 4.328125 -4.40625 C 3.75 -4.40625 3.40625 -3.875 3.28125 -3.65625 C 3.03125 -4.3125 2.5 -4.40625 2.203125 -4.40625 C 1.171875 -4.40625 0.59375 -3.125 0.59375 -2.875 C 0.59375 -2.765625 0.703125 -2.765625 0.71875 -2.765625 C 0.796875 -2.765625 0.828125 -2.796875 0.84375 -2.875 C 1.1875 -3.9375 1.84375 -4.1875 2.1875 -4.1875 C 2.375 -4.1875 2.71875 -4.09375 2.71875 -3.515625 C 2.71875 -3.203125 2.546875 -2.546875 2.1875 -1.140625 C 2.03125 -0.53125 1.671875 -0.109375 1.234375 -0.109375 C 1.171875 -0.109375 0.953125 -0.109375 0.734375 -0.234375 C 0.984375 -0.296875 1.203125 -0.5 1.203125 -0.78125 C 1.203125 -1.046875 0.984375 -1.125 0.84375 -1.125 C 0.53125 -1.125 0.296875 -0.875 0.296875 -0.546875 C 0.296875 -0.09375 0.78125 0.109375 1.21875 0.109375 C 1.890625 0.109375 2.25 -0.59375 2.265625 -0.640625 C 2.390625 -0.28125 2.75 0.109375 3.34375 0.109375 C 4.375 0.109375 4.9375 -1.171875 4.9375 -1.421875 C 4.9375 -1.53125 4.859375 -1.53125 4.828125 -1.53125 C 4.734375 -1.53125 4.71875 -1.484375 4.6875 -1.421875 C 4.359375 -0.34375 3.6875 -0.109375 3.375 -0.109375 C 2.984375 -0.109375 2.828125 -0.421875 2.828125 -0.765625 C 2.828125 -0.984375 2.875 -1.203125 2.984375 -1.640625 Z M 3.328125 -3.015625 "
           id="path8492" />
      </symbol>
      <symbol
         overflow="visible"
         id="symbol3647">
        <path
           style="stroke:none;"
           d="M 4.53125 -4.984375 C 4.53125 -5.640625 4.359375 -7.03125 3.34375 -7.03125 C 1.953125 -7.03125 0.421875 -4.21875 0.421875 -1.9375 C 0.421875 -1 0.703125 0.109375 1.609375 0.109375 C 3.015625 0.109375 4.53125 -2.75 4.53125 -4.984375 Z M 1.46875 -3.625 C 1.640625 -4.25 1.84375 -5.046875 2.25 -5.765625 C 2.515625 -6.25 2.875 -6.8125 3.328125 -6.8125 C 3.8125 -6.8125 3.875 -6.171875 3.875 -5.609375 C 3.875 -5.109375 3.796875 -4.609375 3.5625 -3.625 Z M 3.46875 -3.296875 C 3.359375 -2.84375 3.15625 -2 2.765625 -1.28125 C 2.421875 -0.59375 2.046875 -0.109375 1.609375 -0.109375 C 1.28125 -0.109375 1.078125 -0.40625 1.078125 -1.328125 C 1.078125 -1.75 1.140625 -2.328125 1.390625 -3.296875 Z M 3.46875 -3.296875 "
           id="path1107" />
      </symbol>
      <symbol
         overflow="visible"
         id="symbol6112">
        <path
           style="stroke:none;"
           d=""
           id="path4071" />
      </symbol>
      <symbol
         overflow="visible"
         id="symbol8383">
        <path
           style="stroke:none;"
           d="M 3.296875 2.390625 C 3.296875 2.359375 3.296875 2.34375 3.125 2.171875 C 1.890625 0.921875 1.5625 -0.96875 1.5625 -2.5 C 1.5625 -4.234375 1.9375 -5.96875 3.171875 -7.203125 C 3.296875 -7.328125 3.296875 -7.34375 3.296875 -7.375 C 3.296875 -7.453125 3.265625 -7.484375 3.203125 -7.484375 C 3.09375 -7.484375 2.203125 -6.796875 1.609375 -5.53125 C 1.109375 -4.4375 0.984375 -3.328125 0.984375 -2.5 C 0.984375 -1.71875 1.09375 -0.515625 1.640625 0.625 C 2.25 1.84375 3.09375 2.5 3.203125 2.5 C 3.265625 2.5 3.296875 2.46875 3.296875 2.390625 Z M 3.296875 2.390625 "
           id="path5298" />
      </symbol>
      <symbol
         overflow="visible"
         id="symbol1602">
        <path
           style="stroke:none;"
           d="M 2.5 -6.921875 L 1.15625 -5.5625 L 1.328125 -5.390625 L 2.5 -6.40625 L 3.640625 -5.390625 L 3.8125 -5.5625 Z M 2.5 -6.921875 "
           id="path9119" />
      </symbol>
      <symbol
         overflow="visible"
         id="symbol9486">
        <path
           style="stroke:none;"
           d="M 2.875 -2.5 C 2.875 -3.265625 2.765625 -4.46875 2.21875 -5.609375 C 1.625 -6.828125 0.765625 -7.484375 0.671875 -7.484375 C 0.609375 -7.484375 0.5625 -7.4375 0.5625 -7.375 C 0.5625 -7.34375 0.5625 -7.328125 0.75 -7.140625 C 1.734375 -6.15625 2.296875 -4.578125 2.296875 -2.5 C 2.296875 -0.78125 1.9375 0.96875 0.703125 2.21875 C 0.5625 2.34375 0.5625 2.359375 0.5625 2.390625 C 0.5625 2.453125 0.609375 2.5 0.671875 2.5 C 0.765625 2.5 1.671875 1.8125 2.25 0.546875 C 2.765625 -0.546875 2.875 -1.65625 2.875 -2.5 Z M 2.875 -2.5 "
           id="path6932" />
      </symbol>
      <symbol
         overflow="visible"
         id="symbol4916">
        <path
           style="stroke:none;"
           d=""
           id="path7085" />
      </symbol>
      <symbol
         overflow="visible"
         id="symbol122">
        <path
           style="stroke:none;"
           d="M 1.578125 -7.125 C 1.578125 -7.296875 1.578125 -7.484375 1.390625 -7.484375 C 1.1875 -7.484375 1.1875 -7.296875 1.1875 -7.125 L 1.1875 2.140625 C 1.1875 2.3125 1.1875 2.5 1.390625 2.5 C 1.578125 2.5 1.578125 2.3125 1.578125 2.140625 Z M 1.578125 -7.125 "
           id="path7294" />
      </symbol>
    </g>
    <g
       id="g6410">
      <symbol
         overflow="visible"
         id="symbol1899">
        <path
           style="stroke:none;"
           d=""
           id="path9365" />
      </symbol>
      <symbol
         overflow="visible"
         id="symbol2381">
        <path
           style="stroke:none;"
           d="M 3.015625 -3.15625 L 4.71875 -3.15625 C 6.125 -3.15625 7.515625 -4.1875 7.515625 -5.296875 C 7.515625 -6.078125 6.859375 -6.8125 5.546875 -6.8125 L 2.328125 -6.8125 C 2.140625 -6.8125 2.03125 -6.8125 2.03125 -6.625 C 2.03125 -6.5 2.109375 -6.5 2.3125 -6.5 C 2.4375 -6.5 2.625 -6.484375 2.734375 -6.484375 C 2.90625 -6.453125 2.953125 -6.4375 2.953125 -6.3125 C 2.953125 -6.28125 2.953125 -6.25 2.921875 -6.125 L 1.578125 -0.78125 C 1.484375 -0.390625 1.46875 -0.3125 0.671875 -0.3125 C 0.515625 -0.3125 0.40625 -0.3125 0.40625 -0.125 C 0.40625 0 0.515625 0 0.546875 0 C 0.828125 0 1.53125 -0.03125 1.8125 -0.03125 C 2.03125 -0.03125 2.25 -0.015625 2.453125 -0.015625 C 2.671875 -0.015625 2.890625 0 3.09375 0 C 3.171875 0 3.296875 0 3.296875 -0.203125 C 3.296875 -0.3125 3.203125 -0.3125 3.015625 -0.3125 C 2.65625 -0.3125 2.375 -0.3125 2.375 -0.484375 C 2.375 -0.546875 2.390625 -0.59375 2.40625 -0.65625 Z M 3.734375 -6.125 C 3.828125 -6.46875 3.84375 -6.5 4.28125 -6.5 L 5.234375 -6.5 C 6.0625 -6.5 6.59375 -6.234375 6.59375 -5.546875 C 6.59375 -5.15625 6.390625 -4.296875 6 -3.9375 C 5.5 -3.484375 4.90625 -3.40625 4.46875 -3.40625 L 3.0625 -3.40625 Z M 3.734375 -6.125 "
           id="path9438" />
      </symbol>
      <symbol
         overflow="visible"
         id="symbol5873">
        <path
           style="stroke:none;"
           d="M 3.328125 -3.015625 C 3.390625 -3.265625 3.625 -4.1875 4.3125 -4.1875 C 4.359375 -4.1875 4.609375 -4.1875 4.8125 -4.0625 C 4.53125 -4 4.34375 -3.765625 4.34375 -3.515625 C 4.34375 -3.359375 4.453125 -3.171875 4.71875 -3.171875 C 4.9375 -3.171875 5.25 -3.34375 5.25 -3.75 C 5.25 -4.265625 4.671875 -4.40625 4.328125 -4.40625 C 3.75 -4.40625 3.40625 -3.875 3.28125 -3.65625 C 3.03125 -4.3125 2.5 -4.40625 2.203125 -4.40625 C 1.171875 -4.40625 0.59375 -3.125 0.59375 -2.875 C 0.59375 -2.765625 0.703125 -2.765625 0.71875 -2.765625 C 0.796875 -2.765625 0.828125 -2.796875 0.84375 -2.875 C 1.1875 -3.9375 1.84375 -4.1875 2.1875 -4.1875 C 2.375 -4.1875 2.71875 -4.09375 2.71875 -3.515625 C 2.71875 -3.203125 2.546875 -2.546875 2.1875 -1.140625 C 2.03125 -0.53125 1.671875 -0.109375 1.234375 -0.109375 C 1.171875 -0.109375 0.953125 -0.109375 0.734375 -0.234375 C 0.984375 -0.296875 1.203125 -0.5 1.203125 -0.78125 C 1.203125 -1.046875 0.984375 -1.125 0.84375 -1.125 C 0.53125 -1.125 0.296875 -0.875 0.296875 -0.546875 C 0.296875 -0.09375 0.78125 0.109375 1.21875 0.109375 C 1.890625 0.109375 2.25 -0.59375 2.265625 -0.640625 C 2.390625 -0.28125 2.75 0.109375 3.34375 0.109375 C 4.375 0.109375 4.9375 -1.171875 4.9375 -1.421875 C 4.9375 -1.53125 4.859375 -1.53125 4.828125 -1.53125 C 4.734375 -1.53125 4.71875 -1.484375 4.6875 -1.421875 C 4.359375 -0.34375 3.6875 -0.109375 3.375 -0.109375 C 2.984375 -0.109375 2.828125 -0.421875 2.828125 -0.765625 C 2.828125 -0.984375 2.875 -1.203125 2.984375 -1.640625 Z M 3.328125 -3.015625 "
           id="path8583" />
      </symbol>
      <symbol
         overflow="visible"
         id="symbol2680">
        <path
           style="stroke:none;"
           d="M 4.53125 -4.984375 C 4.53125 -5.640625 4.359375 -7.03125 3.34375 -7.03125 C 1.953125 -7.03125 0.421875 -4.21875 0.421875 -1.9375 C 0.421875 -1 0.703125 0.109375 1.609375 0.109375 C 3.015625 0.109375 4.53125 -2.75 4.53125 -4.984375 Z M 1.46875 -3.625 C 1.640625 -4.25 1.84375 -5.046875 2.25 -5.765625 C 2.515625 -6.25 2.875 -6.8125 3.328125 -6.8125 C 3.8125 -6.8125 3.875 -6.171875 3.875 -5.609375 C 3.875 -5.109375 3.796875 -4.609375 3.5625 -3.625 Z M 3.46875 -3.296875 C 3.359375 -2.84375 3.15625 -2 2.765625 -1.28125 C 2.421875 -0.59375 2.046875 -0.109375 1.609375 -0.109375 C 1.28125 -0.109375 1.078125 -0.40625 1.078125 -1.328125 C 1.078125 -1.75 1.140625 -2.328125 1.390625 -3.296875 Z M 3.46875 -3.296875 "
           id="path4008" />
      </symbol>
      <symbol
         overflow="visible"
         id="symbol2121">
        <path
           style="stroke:none;"
           d=""
           id="path7218" />
      </symbol>
      <symbol
         overflow="visible"
         id="symbol1791">
        <path
           style="stroke:none;"
           d="M 3.296875 2.390625 C 3.296875 2.359375 3.296875 2.34375 3.125 2.171875 C 1.890625 0.921875 1.5625 -0.96875 1.5625 -2.5 C 1.5625 -4.234375 1.9375 -5.96875 3.171875 -7.203125 C 3.296875 -7.328125 3.296875 -7.34375 3.296875 -7.375 C 3.296875 -7.453125 3.265625 -7.484375 3.203125 -7.484375 C 3.09375 -7.484375 2.203125 -6.796875 1.609375 -5.53125 C 1.109375 -4.4375 0.984375 -3.328125 0.984375 -2.5 C 0.984375 -1.71875 1.09375 -0.515625 1.640625 0.625 C 2.25 1.84375 3.09375 2.5 3.203125 2.5 C 3.265625 2.5 3.296875 2.46875 3.296875 2.390625 Z M 3.296875 2.390625 "
           id="path3044" />
      </symbol>
      <symbol
         overflow="visible"
         id="symbol4928">
        <path
           style="stroke:none;"
           d="M 2.5 -6.921875 L 1.15625 -5.5625 L 1.328125 -5.390625 L 2.5 -6.40625 L 3.640625 -5.390625 L 3.8125 -5.5625 Z M 2.5 -6.921875 "
           id="path7701" />
      </symbol>
      <symbol
         overflow="visible"
         id="symbol4573">
        <path
           style="stroke:none;"
           d="M 2.875 -2.5 C 2.875 -3.265625 2.765625 -4.46875 2.21875 -5.609375 C 1.625 -6.828125 0.765625 -7.484375 0.671875 -7.484375 C 0.609375 -7.484375 0.5625 -7.4375 0.5625 -7.375 C 0.5625 -7.34375 0.5625 -7.328125 0.75 -7.140625 C 1.734375 -6.15625 2.296875 -4.578125 2.296875 -2.5 C 2.296875 -0.78125 1.9375 0.96875 0.703125 2.21875 C 0.5625 2.34375 0.5625 2.359375 0.5625 2.390625 C 0.5625 2.453125 0.609375 2.5 0.671875 2.5 C 0.765625 2.5 1.671875 1.8125 2.25 0.546875 C 2.765625 -0.546875 2.875 -1.65625 2.875 -2.5 Z M 2.875 -2.5 "
           id="path1844" />
      </symbol>
      <symbol
         overflow="visible"
         id="symbol5162">
        <path
           style="stroke:none;"
           d=""
           id="path633" />
      </symbol>
      <symbol
         overflow="visible"
         id="symbol8375">
        <path
           style="stroke:none;"
           d="M 1.578125 -7.125 C 1.578125 -7.296875 1.578125 -7.484375 1.390625 -7.484375 C 1.1875 -7.484375 1.1875 -7.296875 1.1875 -7.125 L 1.1875 2.140625 C 1.1875 2.3125 1.1875 2.5 1.390625 2.5 C 1.578125 2.5 1.578125 2.3125 1.578125 2.140625 Z M 1.578125 -7.125 "
           id="path8743" />
      </symbol>
    </g>
    <g
       id="g8464">
      <symbol
         overflow="visible"
         id="symbol940">
        <path
           style="stroke:none;"
           d=""
           id="path4541" />
      </symbol>
      <symbol
         overflow="visible"
         id="symbol863">
        <path
           style="stroke:none;"
           d="M 3.015625 -3.15625 L 4.71875 -3.15625 C 6.125 -3.15625 7.515625 -4.1875 7.515625 -5.296875 C 7.515625 -6.078125 6.859375 -6.8125 5.546875 -6.8125 L 2.328125 -6.8125 C 2.140625 -6.8125 2.03125 -6.8125 2.03125 -6.625 C 2.03125 -6.5 2.109375 -6.5 2.3125 -6.5 C 2.4375 -6.5 2.625 -6.484375 2.734375 -6.484375 C 2.90625 -6.453125 2.953125 -6.4375 2.953125 -6.3125 C 2.953125 -6.28125 2.953125 -6.25 2.921875 -6.125 L 1.578125 -0.78125 C 1.484375 -0.390625 1.46875 -0.3125 0.671875 -0.3125 C 0.515625 -0.3125 0.40625 -0.3125 0.40625 -0.125 C 0.40625 0 0.515625 0 0.546875 0 C 0.828125 0 1.53125 -0.03125 1.8125 -0.03125 C 2.03125 -0.03125 2.25 -0.015625 2.453125 -0.015625 C 2.671875 -0.015625 2.890625 0 3.09375 0 C 3.171875 0 3.296875 0 3.296875 -0.203125 C 3.296875 -0.3125 3.203125 -0.3125 3.015625 -0.3125 C 2.65625 -0.3125 2.375 -0.3125 2.375 -0.484375 C 2.375 -0.546875 2.390625 -0.59375 2.40625 -0.65625 Z M 3.734375 -6.125 C 3.828125 -6.46875 3.84375 -6.5 4.28125 -6.5 L 5.234375 -6.5 C 6.0625 -6.5 6.59375 -6.234375 6.59375 -5.546875 C 6.59375 -5.15625 6.390625 -4.296875 6 -3.9375 C 5.5 -3.484375 4.90625 -3.40625 4.46875 -3.40625 L 3.0625 -3.40625 Z M 3.734375 -6.125 "
           id="path3330" />
      </symbol>
      <symbol
         overflow="visible"
         id="symbol9282">
        <path
           style="stroke:none;"
           d="M 3.328125 -3.015625 C 3.390625 -3.265625 3.625 -4.1875 4.3125 -4.1875 C 4.359375 -4.1875 4.609375 -4.1875 4.8125 -4.0625 C 4.53125 -4 4.34375 -3.765625 4.34375 -3.515625 C 4.34375 -3.359375 4.453125 -3.171875 4.71875 -3.171875 C 4.9375 -3.171875 5.25 -3.34375 5.25 -3.75 C 5.25 -4.265625 4.671875 -4.40625 4.328125 -4.40625 C 3.75 -4.40625 3.40625 -3.875 3.28125 -3.65625 C 3.03125 -4.3125 2.5 -4.40625 2.203125 -4.40625 C 1.171875 -4.40625 0.59375 -3.125 0.59375 -2.875 C 0.59375 -2.765625 0.703125 -2.765625 0.71875 -2.765625 C 0.796875 -2.765625 0.828125 -2.796875 0.84375 -2.875 C 1.1875 -3.9375 1.84375 -4.1875 2.1875 -4.1875 C 2.375 -4.1875 2.71875 -4.09375 2.71875 -3.515625 C 2.71875 -3.203125 2.546875 -2.546875 2.1875 -1.140625 C 2.03125 -0.53125 1.671875 -0.109375 1.234375 -0.109375 C 1.171875 -0.109375 0.953125 -0.109375 0.734375 -0.234375 C 0.984375 -0.296875 1.203125 -0.5 1.203125 -0.78125 C 1.203125 -1.046875 0.984375 -1.125 0.84375 -1.125 C 0.53125 -1.125 0.296875 -0.875 0.296875 -0.546875 C 0.296875 -0.09375 0.78125 0.109375 1.21875 0.109375 C 1.890625 0.109375 2.25 -0.59375 2.265625 -0.640625 C 2.390625 -0.28125 2.75 0.109375 3.34375 0.109375 C 4.375 0.109375 4.9375 -1.171875 4.9375 -1.421875 C 4.9375 -1.53125 4.859375 -1.53125 4.828125 -1.53125 C 4.734375 -1.53125 4.71875 -1.484375 4.6875 -1.421875 C 4.359375 -0.34375 3.6875 -0.109375 3.375 -0.109375 C 2.984375 -0.109375 2.828125 -0.421875 2.828125 -0.765625 C 2.828125 -0.984375 2.875 -1.203125 2.984375 -1.640625 Z M 3.328125 -3.015625 "
           id="path495" />
      </symbol>
      <symbol
         overflow="visible"
         id="symbol6212">
        <path
           style="stroke:none;"
           d="M 4.53125 -4.984375 C 4.53125 -5.640625 4.359375 -7.03125 3.34375 -7.03125 C 1.953125 -7.03125 0.421875 -4.21875 0.421875 -1.9375 C 0.421875 -1 0.703125 0.109375 1.609375 0.109375 C 3.015625 0.109375 4.53125 -2.75 4.53125 -4.984375 Z M 1.46875 -3.625 C 1.640625 -4.25 1.84375 -5.046875 2.25 -5.765625 C 2.515625 -6.25 2.875 -6.8125 3.328125 -6.8125 C 3.8125 -6.8125 3.875 -6.171875 3.875 -5.609375 C 3.875 -5.109375 3.796875 -4.609375 3.5625 -3.625 Z M 3.46875 -3.296875 C 3.359375 -2.84375 3.15625 -2 2.765625 -1.28125 C 2.421875 -0.59375 2.046875 -0.109375 1.609375 -0.109375 C 1.28125 -0.109375 1.078125 -0.40625 1.078125 -1.328125 C 1.078125 -1.75 1.140625 -2.328125 1.390625 -3.296875 Z M 3.46875 -3.296875 "
           id="path9812" />
      </symbol>
      <symbol
         overflow="visible"
         id="symbol2754">
        <path
           style="stroke:none;"
           d=""
           id="path3409" />
      </symbol>
      <symbol
         overflow="visible"
         id="symbol6240">
        <path
           style="stroke:none;"
           d="M 3.296875 2.390625 C 3.296875 2.359375 3.296875 2.34375 3.125 2.171875 C 1.890625 0.921875 1.5625 -0.96875 1.5625 -2.5 C 1.5625 -4.234375 1.9375 -5.96875 3.171875 -7.203125 C 3.296875 -7.328125 3.296875 -7.34375 3.296875 -7.375 C 3.296875 -7.453125 3.265625 -7.484375 3.203125 -7.484375 C 3.09375 -7.484375 2.203125 -6.796875 1.609375 -5.53125 C 1.109375 -4.4375 0.984375 -3.328125 0.984375 -2.5 C 0.984375 -1.71875 1.09375 -0.515625 1.640625 0.625 C 2.25 1.84375 3.09375 2.5 3.203125 2.5 C 3.265625 2.5 3.296875 2.46875 3.296875 2.390625 Z M 3.296875 2.390625 "
           id="path6624" />
      </symbol>
      <symbol
         overflow="visible"
         id="symbol195">
        <path
           style="stroke:none;"
           d="M 2.5 -6.921875 L 1.15625 -5.5625 L 1.328125 -5.390625 L 2.5 -6.40625 L 3.640625 -5.390625 L 3.8125 -5.5625 Z M 2.5 -6.921875 "
           id="path4279" />
      </symbol>
      <symbol
         overflow="visible"
         id="symbol1410">
        <path
           style="stroke:none;"
           d="M 2.875 -2.5 C 2.875 -3.265625 2.765625 -4.46875 2.21875 -5.609375 C 1.625 -6.828125 0.765625 -7.484375 0.671875 -7.484375 C 0.609375 -7.484375 0.5625 -7.4375 0.5625 -7.375 C 0.5625 -7.34375 0.5625 -7.328125 0.75 -7.140625 C 1.734375 -6.15625 2.296875 -4.578125 2.296875 -2.5 C 2.296875 -0.78125 1.9375 0.96875 0.703125 2.21875 C 0.5625 2.34375 0.5625 2.359375 0.5625 2.390625 C 0.5625 2.453125 0.609375 2.5 0.671875 2.5 C 0.765625 2.5 1.671875 1.8125 2.25 0.546875 C 2.765625 -0.546875 2.875 -1.65625 2.875 -2.5 Z M 2.875 -2.5 "
           id="path8826" />
      </symbol>
      <symbol
         overflow="visible"
         id="symbol1533">
        <path
           style="stroke:none;"
           d=""
           id="path2068" />
      </symbol>
      <symbol
         overflow="visible"
         id="symbol5064">
        <path
           style="stroke:none;"
           d="M 1.578125 -7.125 C 1.578125 -7.296875 1.578125 -7.484375 1.390625 -7.484375 C 1.1875 -7.484375 1.1875 -7.296875 1.1875 -7.125 L 1.1875 2.140625 C 1.1875 2.3125 1.1875 2.5 1.390625 2.5 C 1.578125 2.5 1.578125 2.3125 1.578125 2.140625 Z M 1.578125 -7.125 "
           id="path9665" />
      </symbol>
    </g>
    <g
       id="g9112">
      <symbol
         overflow="visible"
         id="symbol9281">
        <path
           style="stroke:none;"
           d=""
           id="path2965" />
      </symbol>
      <symbol
         overflow="visible"
         id="symbol2439">
        <path
           style="stroke:none;"
           d="M 3.015625 -3.15625 L 4.71875 -3.15625 C 6.125 -3.15625 7.515625 -4.1875 7.515625 -5.296875 C 7.515625 -6.078125 6.859375 -6.8125 5.546875 -6.8125 L 2.328125 -6.8125 C 2.140625 -6.8125 2.03125 -6.8125 2.03125 -6.625 C 2.03125 -6.5 2.109375 -6.5 2.3125 -6.5 C 2.4375 -6.5 2.625 -6.484375 2.734375 -6.484375 C 2.90625 -6.453125 2.953125 -6.4375 2.953125 -6.3125 C 2.953125 -6.28125 2.953125 -6.25 2.921875 -6.125 L 1.578125 -0.78125 C 1.484375 -0.390625 1.46875 -0.3125 0.671875 -0.3125 C 0.515625 -0.3125 0.40625 -0.3125 0.40625 -0.125 C 0.40625 0 0.515625 0 0.546875 0 C 0.828125 0 1.53125 -0.03125 1.8125 -0.03125 C 2.03125 -0.03125 2.25 -0.015625 2.453125 -0.015625 C 2.671875 -0.015625 2.890625 0 3.09375 0 C 3.171875 0 3.296875 0 3.296875 -0.203125 C 3.296875 -0.3125 3.203125 -0.3125 3.015625 -0.3125 C 2.65625 -0.3125 2.375 -0.3125 2.375 -0.484375 C 2.375 -0.546875 2.390625 -0.59375 2.40625 -0.65625 Z M 3.734375 -6.125 C 3.828125 -6.46875 3.84375 -6.5 4.28125 -6.5 L 5.234375 -6.5 C 6.0625 -6.5 6.59375 -6.234375 6.59375 -5.546875 C 6.59375 -5.15625 6.390625 -4.296875 6 -3.9375 C 5.5 -3.484375 4.90625 -3.40625 4.46875 -3.40625 L 3.0625 -3.40625 Z M 3.734375 -6.125 "
           id="path609" />
      </symbol>
      <symbol
         overflow="visible"
         id="symbol23">
        <path
           style="stroke:none;"
           d="M 3.328125 -3.015625 C 3.390625 -3.265625 3.625 -4.1875 4.3125 -4.1875 C 4.359375 -4.1875 4.609375 -4.1875 4.8125 -4.0625 C 4.53125 -4 4.34375 -3.765625 4.34375 -3.515625 C 4.34375 -3.359375 4.453125 -3.171875 4.71875 -3.171875 C 4.9375 -3.171875 5.25 -3.34375 5.25 -3.75 C 5.25 -4.265625 4.671875 -4.40625 4.328125 -4.40625 C 3.75 -4.40625 3.40625 -3.875 3.28125 -3.65625 C 3.03125 -4.3125 2.5 -4.40625 2.203125 -4.40625 C 1.171875 -4.40625 0.59375 -3.125 0.59375 -2.875 C 0.59375 -2.765625 0.703125 -2.765625 0.71875 -2.765625 C 0.796875 -2.765625 0.828125 -2.796875 0.84375 -2.875 C 1.1875 -3.9375 1.84375 -4.1875 2.1875 -4.1875 C 2.375 -4.1875 2.71875 -4.09375 2.71875 -3.515625 C 2.71875 -3.203125 2.546875 -2.546875 2.1875 -1.140625 C 2.03125 -0.53125 1.671875 -0.109375 1.234375 -0.109375 C 1.171875 -0.109375 0.953125 -0.109375 0.734375 -0.234375 C 0.984375 -0.296875 1.203125 -0.5 1.203125 -0.78125 C 1.203125 -1.046875 0.984375 -1.125 0.84375 -1.125 C 0.53125 -1.125 0.296875 -0.875 0.296875 -0.546875 C 0.296875 -0.09375 0.78125 0.109375 1.21875 0.109375 C 1.890625 0.109375 2.25 -0.59375 2.265625 -0.640625 C 2.390625 -0.28125 2.75 0.109375 3.34375 0.109375 C 4.375 0.109375 4.9375 -1.171875 4.9375 -1.421875 C 4.9375 -1.53125 4.859375 -1.53125 4.828125 -1.53125 C 4.734375 -1.53125 4.71875 -1.484375 4.6875 -1.421875 C 4.359375 -0.34375 3.6875 -0.109375 3.375 -0.109375 C 2.984375 -0.109375 2.828125 -0.421875 2.828125 -0.765625 C 2.828125 -0.984375 2.875 -1.203125 2.984375 -1.640625 Z M 3.328125 -3.015625 "
           id="path5592" />
      </symbol>
      <symbol
         overflow="visible"
         id="symbol7676">
        <path
           style="stroke:none;"
           d="M 4.53125 -4.984375 C 4.53125 -5.640625 4.359375 -7.03125 3.34375 -7.03125 C 1.953125 -7.03125 0.421875 -4.21875 0.421875 -1.9375 C 0.421875 -1 0.703125 0.109375 1.609375 0.109375 C 3.015625 0.109375 4.53125 -2.75 4.53125 -4.984375 Z M 1.46875 -3.625 C 1.640625 -4.25 1.84375 -5.046875 2.25 -5.765625 C 2.515625 -6.25 2.875 -6.8125 3.328125 -6.8125 C 3.8125 -6.8125 3.875 -6.171875 3.875 -5.609375 C 3.875 -5.109375 3.796875 -4.609375 3.5625 -3.625 Z M 3.46875 -3.296875 C 3.359375 -2.84375 3.15625 -2 2.765625 -1.28125 C 2.421875 -0.59375 2.046875 -0.109375 1.609375 -0.109375 C 1.28125 -0.109375 1.078125 -0.40625 1.078125 -1.328125 C 1.078125 -1.75 1.140625 -2.328125 1.390625 -3.296875 Z M 3.46875 -3.296875 "
           id="path8842" />
      </symbol>
      <symbol
         overflow="visible"
         id="symbol1780">
        <path
           style="stroke:none;"
           d=""
           id="path410" />
      </symbol>
      <symbol
         overflow="visible"
         id="symbol2759">
        <path
           style="stroke:none;"
           d="M 3.296875 2.390625 C 3.296875 2.359375 3.296875 2.34375 3.125 2.171875 C 1.890625 0.921875 1.5625 -0.96875 1.5625 -2.5 C 1.5625 -4.234375 1.9375 -5.96875 3.171875 -7.203125 C 3.296875 -7.328125 3.296875 -7.34375 3.296875 -7.375 C 3.296875 -7.453125 3.265625 -7.484375 3.203125 -7.484375 C 3.09375 -7.484375 2.203125 -6.796875 1.609375 -5.53125 C 1.109375 -4.4375 0.984375 -3.328125 0.984375 -2.5 C 0.984375 -1.71875 1.09375 -0.515625 1.640625 0.625 C 2.25 1.84375 3.09375 2.5 3.203125 2.5 C 3.265625 2.5 3.296875 2.46875 3.296875 2.390625 Z M 3.296875 2.390625 "
           id="path3320" />
      </symbol>
      <symbol
         overflow="visible"
         id="symbol8340">
        <path
           style="stroke:none;"
           d="M 2.5 -6.921875 L 1.15625 -5.5625 L 1.328125 -5.390625 L 2.5 -6.40625 L 3.640625 -5.390625 L 3.8125 -5.5625 Z M 2.5 -6.921875 "
           id="path149" />
      </symbol>
      <symbol
         overflow="visible"
         id="symbol9437">
        <path
           style="stroke:none;"
           d="M 2.875 -2.5 C 2.875 -3.265625 2.765625 -4.46875 2.21875 -5.609375 C 1.625 -6.828125 0.765625 -7.484375 0.671875 -7.484375 C 0.609375 -7.484375 0.5625 -7.4375 0.5625 -7.375 C 0.5625 -7.34375 0.5625 -7.328125 0.75 -7.140625 C 1.734375 -6.15625 2.296875 -4.578125 2.296875 -2.5 C 2.296875 -0.78125 1.9375 0.96875 0.703125 2.21875 C 0.5625 2.34375 0.5625 2.359375 0.5625 2.390625 C 0.5625 2.453125 0.609375 2.5 0.671875 2.5 C 0.765625 2.5 1.671875 1.8125 2.25 0.546875 C 2.765625 -0.546875 2.875 -1.65625 2.875 -2.5 Z M 2.875 -2.5 "
           id="path2952" />
      </symbol>
      <symbol
         overflow="visible"
         id="symbol2487">
        <path
           style="stroke:none;"
           d=""
           id="path3798" />
      </symbol>
      <symbol
         overflow="visible"
         id="symbol2096">
        <path
           style="stroke:none;"
           d="M 1.578125 -7.125 C 1.578125 -7.296875 1.578125 -7.484375 1.390625 -7.484375 C 1.1875 -7.484375 1.1875 -7.296875 1.1875 -7.125 L 1.1875 2.140625 C 1.1875 2.3125 1.1875 2.5 1.390625 2.5 C 1.578125 2.5 1.578125 2.3125 1.578125 2.140625 Z M 1.578125 -7.125 "
           id="path4538" />
      </symbol>
    </g>
    <g
       id="g1892">
      <symbol
         overflow="visible"
         id="symbol9460">
        <path
           style="stroke:none;"
           d=""
           id="path3902" />
      </symbol>
      <symbol
         overflow="visible"
         id="symbol8033">
        <path
           style="stroke:none;"
           d="M 2.5 -6.921875 L 1.15625 -5.5625 L 1.328125 -5.390625 L 2.5 -6.40625 L 3.640625 -5.390625 L 3.8125 -5.5625 Z M 2.5 -6.921875 "
           id="path3344" />
      </symbol>
      <symbol
         overflow="visible"
         id="symbol2193">
        <path
           style="stroke:none;"
           d=""
           id="path9770" />
      </symbol>
      <symbol
         overflow="visible"
         id="symbol2699">
        <path
           style="stroke:none;"
           d="M 3.328125 -3.015625 C 3.390625 -3.265625 3.625 -4.1875 4.3125 -4.1875 C 4.359375 -4.1875 4.609375 -4.1875 4.8125 -4.0625 C 4.53125 -4 4.34375 -3.765625 4.34375 -3.515625 C 4.34375 -3.359375 4.453125 -3.171875 4.71875 -3.171875 C 4.9375 -3.171875 5.25 -3.34375 5.25 -3.75 C 5.25 -4.265625 4.671875 -4.40625 4.328125 -4.40625 C 3.75 -4.40625 3.40625 -3.875 3.28125 -3.65625 C 3.03125 -4.3125 2.5 -4.40625 2.203125 -4.40625 C 1.171875 -4.40625 0.59375 -3.125 0.59375 -2.875 C 0.59375 -2.765625 0.703125 -2.765625 0.71875 -2.765625 C 0.796875 -2.765625 0.828125 -2.796875 0.84375 -2.875 C 1.1875 -3.9375 1.84375 -4.1875 2.1875 -4.1875 C 2.375 -4.1875 2.71875 -4.09375 2.71875 -3.515625 C 2.71875 -3.203125 2.546875 -2.546875 2.1875 -1.140625 C 2.03125 -0.53125 1.671875 -0.109375 1.234375 -0.109375 C 1.171875 -0.109375 0.953125 -0.109375 0.734375 -0.234375 C 0.984375 -0.296875 1.203125 -0.5 1.203125 -0.78125 C 1.203125 -1.046875 0.984375 -1.125 0.84375 -1.125 C 0.53125 -1.125 0.296875 -0.875 0.296875 -0.546875 C 0.296875 -0.09375 0.78125 0.109375 1.21875 0.109375 C 1.890625 0.109375 2.25 -0.59375 2.265625 -0.640625 C 2.390625 -0.28125 2.75 0.109375 3.34375 0.109375 C 4.375 0.109375 4.9375 -1.171875 4.9375 -1.421875 C 4.9375 -1.53125 4.859375 -1.53125 4.828125 -1.53125 C 4.734375 -1.53125 4.71875 -1.484375 4.6875 -1.421875 C 4.359375 -0.34375 3.6875 -0.109375 3.375 -0.109375 C 2.984375 -0.109375 2.828125 -0.421875 2.828125 -0.765625 C 2.828125 -0.984375 2.875 -1.203125 2.984375 -1.640625 Z M 3.328125 -3.015625 "
           id="path2823" />
      </symbol>
    </g>
    <g
       id="g8649">
      <symbol
         overflow="visible"
         id="symbol8600">
        <path
           style="stroke:none;"
           d=""
           id="path3747" />
      </symbol>
      <symbol
         overflow="visible"
         id="symbol1220">
        <path
           style="stroke:none;"
           d="M 3.015625 -3.15625 L 4.71875 -3.15625 C 6.125 -3.15625 7.515625 -4.1875 7.515625 -5.296875 C 7.515625 -6.078125 6.859375 -6.8125 5.546875 -6.8125 L 2.328125 -6.8125 C 2.140625 -6.8125 2.03125 -6.8125 2.03125 -6.625 C 2.03125 -6.5 2.109375 -6.5 2.3125 -6.5 C 2.4375 -6.5 2.625 -6.484375 2.734375 -6.484375 C 2.90625 -6.453125 2.953125 -6.4375 2.953125 -6.3125 C 2.953125 -6.28125 2.953125 -6.25 2.921875 -6.125 L 1.578125 -0.78125 C 1.484375 -0.390625 1.46875 -0.3125 0.671875 -0.3125 C 0.515625 -0.3125 0.40625 -0.3125 0.40625 -0.125 C 0.40625 0 0.515625 0 0.546875 0 C 0.828125 0 1.53125 -0.03125 1.8125 -0.03125 C 2.03125 -0.03125 2.25 -0.015625 2.453125 -0.015625 C 2.671875 -0.015625 2.890625 0 3.09375 0 C 3.171875 0 3.296875 0 3.296875 -0.203125 C 3.296875 -0.3125 3.203125 -0.3125 3.015625 -0.3125 C 2.65625 -0.3125 2.375 -0.3125 2.375 -0.484375 C 2.375 -0.546875 2.390625 -0.59375 2.40625 -0.65625 Z M 3.734375 -6.125 C 3.828125 -6.46875 3.84375 -6.5 4.28125 -6.5 L 5.234375 -6.5 C 6.0625 -6.5 6.59375 -6.234375 6.59375 -5.546875 C 6.59375 -5.15625 6.390625 -4.296875 6 -3.9375 C 5.5 -3.484375 4.90625 -3.40625 4.46875 -3.40625 L 3.0625 -3.40625 Z M 3.734375 -6.125 "
           id="path1304" />
      </symbol>
      <symbol
         overflow="visible"
         id="symbol3097">
        <path
           style="stroke:none;"
           d="M 3.328125 -3.015625 C 3.390625 -3.265625 3.625 -4.1875 4.3125 -4.1875 C 4.359375 -4.1875 4.609375 -4.1875 4.8125 -4.0625 C 4.53125 -4 4.34375 -3.765625 4.34375 -3.515625 C 4.34375 -3.359375 4.453125 -3.171875 4.71875 -3.171875 C 4.9375 -3.171875 5.25 -3.34375 5.25 -3.75 C 5.25 -4.265625 4.671875 -4.40625 4.328125 -4.40625 C 3.75 -4.40625 3.40625 -3.875 3.28125 -3.65625 C 3.03125 -4.3125 2.5 -4.40625 2.203125 -4.40625 C 1.171875 -4.40625 0.59375 -3.125 0.59375 -2.875 C 0.59375 -2.765625 0.703125 -2.765625 0.71875 -2.765625 C 0.796875 -2.765625 0.828125 -2.796875 0.84375 -2.875 C 1.1875 -3.9375 1.84375 -4.1875 2.1875 -4.1875 C 2.375 -4.1875 2.71875 -4.09375 2.71875 -3.515625 C 2.71875 -3.203125 2.546875 -2.546875 2.1875 -1.140625 C 2.03125 -0.53125 1.671875 -0.109375 1.234375 -0.109375 C 1.171875 -0.109375 0.953125 -0.109375 0.734375 -0.234375 C 0.984375 -0.296875 1.203125 -0.5 1.203125 -0.78125 C 1.203125 -1.046875 0.984375 -1.125 0.84375 -1.125 C 0.53125 -1.125 0.296875 -0.875 0.296875 -0.546875 C 0.296875 -0.09375 0.78125 0.109375 1.21875 0.109375 C 1.890625 0.109375 2.25 -0.59375 2.265625 -0.640625 C 2.390625 -0.28125 2.75 0.109375 3.34375 0.109375 C 4.375 0.109375 4.9375 -1.171875 4.9375 -1.421875 C 4.9375 -1.53125 4.859375 -1.53125 4.828125 -1.53125 C 4.734375 -1.53125 4.71875 -1.484375 4.6875 -1.421875 C 4.359375 -0.34375 3.6875 -0.109375 3.375 -0.109375 C 2.984375 -0.109375 2.828125 -0.421875 2.828125 -0.765625 C 2.828125 -0.984375 2.875 -1.203125 2.984375 -1.640625 Z M 3.328125 -3.015625 "
           id="path3096" />
      </symbol>
      <symbol
         overflow="visible"
         id="symbol477">
        <path
           style="stroke:none;"
           d="M 2.046875 -3.984375 L 2.984375 -3.984375 C 3.1875 -3.984375 3.296875 -3.984375 3.296875 -4.1875 C 3.296875 -4.296875 3.1875 -4.296875 3.015625 -4.296875 L 2.140625 -4.296875 C 2.5 -5.71875 2.546875 -5.90625 2.546875 -5.96875 C 2.546875 -6.140625 2.421875 -6.234375 2.25 -6.234375 C 2.21875 -6.234375 1.9375 -6.234375 1.859375 -5.875 L 1.46875 -4.296875 L 0.53125 -4.296875 C 0.328125 -4.296875 0.234375 -4.296875 0.234375 -4.109375 C 0.234375 -3.984375 0.3125 -3.984375 0.515625 -3.984375 L 1.390625 -3.984375 C 0.671875 -1.15625 0.625 -0.984375 0.625 -0.8125 C 0.625 -0.265625 1 0.109375 1.546875 0.109375 C 2.5625 0.109375 3.125 -1.34375 3.125 -1.421875 C 3.125 -1.53125 3.046875 -1.53125 3.015625 -1.53125 C 2.921875 -1.53125 2.90625 -1.5 2.859375 -1.390625 C 2.4375 -0.34375 1.90625 -0.109375 1.5625 -0.109375 C 1.359375 -0.109375 1.25 -0.234375 1.25 -0.5625 C 1.25 -0.8125 1.28125 -0.875 1.3125 -1.046875 Z M 2.046875 -3.984375 "
           id="path5322" />
      </symbol>
      <symbol
         overflow="visible"
         id="symbol2646">
        <path
           style="stroke:none;"
           d="M 4.53125 -4.984375 C 4.53125 -5.640625 4.359375 -7.03125 3.34375 -7.03125 C 1.953125 -7.03125 0.421875 -4.21875 0.421875 -1.9375 C 0.421875 -1 0.703125 0.109375 1.609375 0.109375 C 3.015625 0.109375 4.53125 -2.75 4.53125 -4.984375 Z M 1.46875 -3.625 C 1.640625 -4.25 1.84375 -5.046875 2.25 -5.765625 C 2.515625 -6.25 2.875 -6.8125 3.328125 -6.8125 C 3.8125 -6.8125 3.875 -6.171875 3.875 -5.609375 C 3.875 -5.109375 3.796875 -4.609375 3.5625 -3.625 Z M 3.46875 -3.296875 C 3.359375 -2.84375 3.15625 -2 2.765625 -1.28125 C 2.421875 -0.59375 2.046875 -0.109375 1.609375 -0.109375 C 1.28125 -0.109375 1.078125 -0.40625 1.078125 -1.328125 C 1.078125 -1.75 1.140625 -2.328125 1.390625 -3.296875 Z M 3.46875 -3.296875 "
           id="path4854" />
      </symbol>
      <symbol
         overflow="visible"
         id="symbol7234">
        <path
           style="stroke:none;"
           d=""
           id="path4825" />
      </symbol>
      <symbol
         overflow="visible"
         id="symbol1063">
        <path
           style="stroke:none;"
           d="M 3.296875 2.390625 C 3.296875 2.359375 3.296875 2.34375 3.125 2.171875 C 1.890625 0.921875 1.5625 -0.96875 1.5625 -2.5 C 1.5625 -4.234375 1.9375 -5.96875 3.171875 -7.203125 C 3.296875 -7.328125 3.296875 -7.34375 3.296875 -7.375 C 3.296875 -7.453125 3.265625 -7.484375 3.203125 -7.484375 C 3.09375 -7.484375 2.203125 -6.796875 1.609375 -5.53125 C 1.109375 -4.4375 0.984375 -3.328125 0.984375 -2.5 C 0.984375 -1.71875 1.09375 -0.515625 1.640625 0.625 C 2.25 1.84375 3.09375 2.5 3.203125 2.5 C 3.265625 2.5 3.296875 2.46875 3.296875 2.390625 Z M 3.296875 2.390625 "
           id="path2902" />
      </symbol>
      <symbol
         overflow="visible"
         id="symbol3923">
        <path
           style="stroke:none;"
           d="M 2.875 -2.5 C 2.875 -3.265625 2.765625 -4.46875 2.21875 -5.609375 C 1.625 -6.828125 0.765625 -7.484375 0.671875 -7.484375 C 0.609375 -7.484375 0.5625 -7.4375 0.5625 -7.375 C 0.5625 -7.34375 0.5625 -7.328125 0.75 -7.140625 C 1.734375 -6.15625 2.296875 -4.578125 2.296875 -2.5 C 2.296875 -0.78125 1.9375 0.96875 0.703125 2.21875 C 0.5625 2.34375 0.5625 2.359375 0.5625 2.390625 C 0.5625 2.453125 0.609375 2.5 0.671875 2.5 C 0.765625 2.5 1.671875 1.8125 2.25 0.546875 C 2.765625 -0.546875 2.875 -1.65625 2.875 -2.5 Z M 2.875 -2.5 "
           id="path8334" />
      </symbol>
      <symbol
         overflow="visible"
         id="symbol3036">
        <path
           style="stroke:none;"
           d=""
           id="path2837" />
      </symbol>
      <symbol
         overflow="visible"
         id="symbol4532">
        <path
           style="stroke:none;"
           d="M 1.578125 -7.125 C 1.578125 -7.296875 1.578125 -7.484375 1.390625 -7.484375 C 1.1875 -7.484375 1.1875 -7.296875 1.1875 -7.125 L 1.1875 2.140625 C 1.1875 2.3125 1.1875 2.5 1.390625 2.5 C 1.578125 2.5 1.578125 2.3125 1.578125 2.140625 Z M 1.578125 -7.125 "
           id="path6186" />
      </symbol>
    </g>
    <g
       id="g5865">
      <symbol
         overflow="visible"
         id="symbol7840">
        <path
           style="stroke:none;"
           d=""
           id="path3536" />
      </symbol>
      <symbol
         overflow="visible"
         id="symbol2954">
        <path
           style="stroke:none;"
           d="M 3.015625 -3.15625 L 4.71875 -3.15625 C 6.125 -3.15625 7.515625 -4.1875 7.515625 -5.296875 C 7.515625 -6.078125 6.859375 -6.8125 5.546875 -6.8125 L 2.328125 -6.8125 C 2.140625 -6.8125 2.03125 -6.8125 2.03125 -6.625 C 2.03125 -6.5 2.109375 -6.5 2.3125 -6.5 C 2.4375 -6.5 2.625 -6.484375 2.734375 -6.484375 C 2.90625 -6.453125 2.953125 -6.4375 2.953125 -6.3125 C 2.953125 -6.28125 2.953125 -6.25 2.921875 -6.125 L 1.578125 -0.78125 C 1.484375 -0.390625 1.46875 -0.3125 0.671875 -0.3125 C 0.515625 -0.3125 0.40625 -0.3125 0.40625 -0.125 C 0.40625 0 0.515625 0 0.546875 0 C 0.828125 0 1.53125 -0.03125 1.8125 -0.03125 C 2.03125 -0.03125 2.25 -0.015625 2.453125 -0.015625 C 2.671875 -0.015625 2.890625 0 3.09375 0 C 3.171875 0 3.296875 0 3.296875 -0.203125 C 3.296875 -0.3125 3.203125 -0.3125 3.015625 -0.3125 C 2.65625 -0.3125 2.375 -0.3125 2.375 -0.484375 C 2.375 -0.546875 2.390625 -0.59375 2.40625 -0.65625 Z M 3.734375 -6.125 C 3.828125 -6.46875 3.84375 -6.5 4.28125 -6.5 L 5.234375 -6.5 C 6.0625 -6.5 6.59375 -6.234375 6.59375 -5.546875 C 6.59375 -5.15625 6.390625 -4.296875 6 -3.9375 C 5.5 -3.484375 4.90625 -3.40625 4.46875 -3.40625 L 3.0625 -3.40625 Z M 3.734375 -6.125 "
           id="path4582" />
      </symbol>
      <symbol
         overflow="visible"
         id="symbol5948">
        <path
           style="stroke:none;"
           d="M 4.53125 -4.984375 C 4.53125 -5.640625 4.359375 -7.03125 3.34375 -7.03125 C 1.953125 -7.03125 0.421875 -4.21875 0.421875 -1.9375 C 0.421875 -1 0.703125 0.109375 1.609375 0.109375 C 3.015625 0.109375 4.53125 -2.75 4.53125 -4.984375 Z M 1.46875 -3.625 C 1.640625 -4.25 1.84375 -5.046875 2.25 -5.765625 C 2.515625 -6.25 2.875 -6.8125 3.328125 -6.8125 C 3.8125 -6.8125 3.875 -6.171875 3.875 -5.609375 C 3.875 -5.109375 3.796875 -4.609375 3.5625 -3.625 Z M 3.46875 -3.296875 C 3.359375 -2.84375 3.15625 -2 2.765625 -1.28125 C 2.421875 -0.59375 2.046875 -0.109375 1.609375 -0.109375 C 1.28125 -0.109375 1.078125 -0.40625 1.078125 -1.328125 C 1.078125 -1.75 1.140625 -2.328125 1.390625 -3.296875 Z M 3.46875 -3.296875 "
           id="path5510" />
      </symbol>
      <symbol
         overflow="visible"
         id="symbol5781">
        <path
           style="stroke:none;"
           d="M 3.328125 -3.015625 C 3.390625 -3.265625 3.625 -4.1875 4.3125 -4.1875 C 4.359375 -4.1875 4.609375 -4.1875 4.8125 -4.0625 C 4.53125 -4 4.34375 -3.765625 4.34375 -3.515625 C 4.34375 -3.359375 4.453125 -3.171875 4.71875 -3.171875 C 4.9375 -3.171875 5.25 -3.34375 5.25 -3.75 C 5.25 -4.265625 4.671875 -4.40625 4.328125 -4.40625 C 3.75 -4.40625 3.40625 -3.875 3.28125 -3.65625 C 3.03125 -4.3125 2.5 -4.40625 2.203125 -4.40625 C 1.171875 -4.40625 0.59375 -3.125 0.59375 -2.875 C 0.59375 -2.765625 0.703125 -2.765625 0.71875 -2.765625 C 0.796875 -2.765625 0.828125 -2.796875 0.84375 -2.875 C 1.1875 -3.9375 1.84375 -4.1875 2.1875 -4.1875 C 2.375 -4.1875 2.71875 -4.09375 2.71875 -3.515625 C 2.71875 -3.203125 2.546875 -2.546875 2.1875 -1.140625 C 2.03125 -0.53125 1.671875 -0.109375 1.234375 -0.109375 C 1.171875 -0.109375 0.953125 -0.109375 0.734375 -0.234375 C 0.984375 -0.296875 1.203125 -0.5 1.203125 -0.78125 C 1.203125 -1.046875 0.984375 -1.125 0.84375 -1.125 C 0.53125 -1.125 0.296875 -0.875 0.296875 -0.546875 C 0.296875 -0.09375 0.78125 0.109375 1.21875 0.109375 C 1.890625 0.109375 2.25 -0.59375 2.265625 -0.640625 C 2.390625 -0.28125 2.75 0.109375 3.34375 0.109375 C 4.375 0.109375 4.9375 -1.171875 4.9375 -1.421875 C 4.9375 -1.53125 4.859375 -1.53125 4.828125 -1.53125 C 4.734375 -1.53125 4.71875 -1.484375 4.6875 -1.421875 C 4.359375 -0.34375 3.6875 -0.109375 3.375 -0.109375 C 2.984375 -0.109375 2.828125 -0.421875 2.828125 -0.765625 C 2.828125 -0.984375 2.875 -1.203125 2.984375 -1.640625 Z M 3.328125 -3.015625 "
           id="path9133" />
      </symbol>
      <symbol
         overflow="visible"
         id="symbol305">
        <path
           style="stroke:none;"
           d=""
           id="path3712" />
      </symbol>
      <symbol
         overflow="visible"
         id="symbol5943">
        <path
           style="stroke:none;"
           d="M 2.546875 2.5 L 2.546875 2.09375 L 1.578125 2.09375 L 1.578125 -7.078125 L 2.546875 -7.078125 L 2.546875 -7.484375 L 1.171875 -7.484375 L 1.171875 2.5 Z M 2.546875 2.5 "
           id="path5349" />
      </symbol>
      <symbol
         overflow="visible"
         id="symbol2518">
        <path
           style="stroke:none;"
           d="M 2.5 -6.921875 L 1.15625 -5.5625 L 1.328125 -5.390625 L 2.5 -6.40625 L 3.640625 -5.390625 L 3.8125 -5.5625 Z M 2.5 -6.921875 "
           id="path3182" />
      </symbol>
      <symbol
         overflow="visible"
         id="symbol653">
        <path
           style="stroke:none;"
           d="M 1.578125 -7.484375 L 0.21875 -7.484375 L 0.21875 -7.078125 L 1.1875 -7.078125 L 1.1875 2.09375 L 0.21875 2.09375 L 0.21875 2.5 L 1.578125 2.5 Z M 1.578125 -7.484375 "
           id="path8530" />
      </symbol>
      <symbol
         overflow="visible"
         id="symbol1587">
        <path
           style="stroke:none;"
           d=""
           id="path2072" />
      </symbol>
      <symbol
         overflow="visible"
         id="symbol7125">
        <path
           style="stroke:none;"
           d="M 1.578125 -7.125 C 1.578125 -7.296875 1.578125 -7.484375 1.390625 -7.484375 C 1.1875 -7.484375 1.1875 -7.296875 1.1875 -7.125 L 1.1875 2.140625 C 1.1875 2.3125 1.1875 2.5 1.390625 2.5 C 1.578125 2.5 1.578125 2.3125 1.578125 2.140625 Z M 1.578125 -7.125 "
           id="path804" />
      </symbol>
    </g>
    <g
       id="g7100">
      <symbol
         overflow="visible"
         id="symbol4423">
        <path
           style="stroke:none;"
           d=""
           id="path6957" />
      </symbol>
      <symbol
         overflow="visible"
         id="symbol5383">
        <path
           style="stroke:none;"
           d="M 3.015625 -3.15625 L 4.71875 -3.15625 C 6.125 -3.15625 7.515625 -4.1875 7.515625 -5.296875 C 7.515625 -6.078125 6.859375 -6.8125 5.546875 -6.8125 L 2.328125 -6.8125 C 2.140625 -6.8125 2.03125 -6.8125 2.03125 -6.625 C 2.03125 -6.5 2.109375 -6.5 2.3125 -6.5 C 2.4375 -6.5 2.625 -6.484375 2.734375 -6.484375 C 2.90625 -6.453125 2.953125 -6.4375 2.953125 -6.3125 C 2.953125 -6.28125 2.953125 -6.25 2.921875 -6.125 L 1.578125 -0.78125 C 1.484375 -0.390625 1.46875 -0.3125 0.671875 -0.3125 C 0.515625 -0.3125 0.40625 -0.3125 0.40625 -0.125 C 0.40625 0 0.515625 0 0.546875 0 C 0.828125 0 1.53125 -0.03125 1.8125 -0.03125 C 2.03125 -0.03125 2.25 -0.015625 2.453125 -0.015625 C 2.671875 -0.015625 2.890625 0 3.09375 0 C 3.171875 0 3.296875 0 3.296875 -0.203125 C 3.296875 -0.3125 3.203125 -0.3125 3.015625 -0.3125 C 2.65625 -0.3125 2.375 -0.3125 2.375 -0.484375 C 2.375 -0.546875 2.390625 -0.59375 2.40625 -0.65625 Z M 3.734375 -6.125 C 3.828125 -6.46875 3.84375 -6.5 4.28125 -6.5 L 5.234375 -6.5 C 6.0625 -6.5 6.59375 -6.234375 6.59375 -5.546875 C 6.59375 -5.15625 6.390625 -4.296875 6 -3.9375 C 5.5 -3.484375 4.90625 -3.40625 4.46875 -3.40625 L 3.0625 -3.40625 Z M 3.734375 -6.125 "
           id="path9382" />
      </symbol>
      <symbol
         overflow="visible"
         id="symbol4309">
        <path
           style="stroke:none;"
           d="M 3.328125 -3.015625 C 3.390625 -3.265625 3.625 -4.1875 4.3125 -4.1875 C 4.359375 -4.1875 4.609375 -4.1875 4.8125 -4.0625 C 4.53125 -4 4.34375 -3.765625 4.34375 -3.515625 C 4.34375 -3.359375 4.453125 -3.171875 4.71875 -3.171875 C 4.9375 -3.171875 5.25 -3.34375 5.25 -3.75 C 5.25 -4.265625 4.671875 -4.40625 4.328125 -4.40625 C 3.75 -4.40625 3.40625 -3.875 3.28125 -3.65625 C 3.03125 -4.3125 2.5 -4.40625 2.203125 -4.40625 C 1.171875 -4.40625 0.59375 -3.125 0.59375 -2.875 C 0.59375 -2.765625 0.703125 -2.765625 0.71875 -2.765625 C 0.796875 -2.765625 0.828125 -2.796875 0.84375 -2.875 C 1.1875 -3.9375 1.84375 -4.1875 2.1875 -4.1875 C 2.375 -4.1875 2.71875 -4.09375 2.71875 -3.515625 C 2.71875 -3.203125 2.546875 -2.546875 2.1875 -1.140625 C 2.03125 -0.53125 1.671875 -0.109375 1.234375 -0.109375 C 1.171875 -0.109375 0.953125 -0.109375 0.734375 -0.234375 C 0.984375 -0.296875 1.203125 -0.5 1.203125 -0.78125 C 1.203125 -1.046875 0.984375 -1.125 0.84375 -1.125 C 0.53125 -1.125 0.296875 -0.875 0.296875 -0.546875 C 0.296875 -0.09375 0.78125 0.109375 1.21875 0.109375 C 1.890625 0.109375 2.25 -0.59375 2.265625 -0.640625 C 2.390625 -0.28125 2.75 0.109375 3.34375 0.109375 C 4.375 0.109375 4.9375 -1.171875 4.9375 -1.421875 C 4.9375 -1.53125 4.859375 -1.53125 4.828125 -1.53125 C 4.734375 -1.53125 4.71875 -1.484375 4.6875 -1.421875 C 4.359375 -0.34375 3.6875 -0.109375 3.375 -0.109375 C 2.984375 -0.109375 2.828125 -0.421875 2.828125 -0.765625 C 2.828125 -0.984375 2.875 -1.203125 2.984375 -1.640625 Z M 3.328125 -3.015625 "
           id="path8018" />
      </symbol>
      <symbol
         overflow="visible"
         id="symbol6890">
        <path
           style="stroke:none;"
           d="M 2.046875 -3.984375 L 2.984375 -3.984375 C 3.1875 -3.984375 3.296875 -3.984375 3.296875 -4.1875 C 3.296875 -4.296875 3.1875 -4.296875 3.015625 -4.296875 L 2.140625 -4.296875 C 2.5 -5.71875 2.546875 -5.90625 2.546875 -5.96875 C 2.546875 -6.140625 2.421875 -6.234375 2.25 -6.234375 C 2.21875 -6.234375 1.9375 -6.234375 1.859375 -5.875 L 1.46875 -4.296875 L 0.53125 -4.296875 C 0.328125 -4.296875 0.234375 -4.296875 0.234375 -4.109375 C 0.234375 -3.984375 0.3125 -3.984375 0.515625 -3.984375 L 1.390625 -3.984375 C 0.671875 -1.15625 0.625 -0.984375 0.625 -0.8125 C 0.625 -0.265625 1 0.109375 1.546875 0.109375 C 2.5625 0.109375 3.125 -1.34375 3.125 -1.421875 C 3.125 -1.53125 3.046875 -1.53125 3.015625 -1.53125 C 2.921875 -1.53125 2.90625 -1.5 2.859375 -1.390625 C 2.4375 -0.34375 1.90625 -0.109375 1.5625 -0.109375 C 1.359375 -0.109375 1.25 -0.234375 1.25 -0.5625 C 1.25 -0.8125 1.28125 -0.875 1.3125 -1.046875 Z M 2.046875 -3.984375 "
           id="path3129" />
      </symbol>
      <symbol
         overflow="visible"
         id="symbol1598">
        <path
           style="stroke:none;"
           d="M 4.53125 -4.984375 C 4.53125 -5.640625 4.359375 -7.03125 3.34375 -7.03125 C 1.953125 -7.03125 0.421875 -4.21875 0.421875 -1.9375 C 0.421875 -1 0.703125 0.109375 1.609375 0.109375 C 3.015625 0.109375 4.53125 -2.75 4.53125 -4.984375 Z M 1.46875 -3.625 C 1.640625 -4.25 1.84375 -5.046875 2.25 -5.765625 C 2.515625 -6.25 2.875 -6.8125 3.328125 -6.8125 C 3.8125 -6.8125 3.875 -6.171875 3.875 -5.609375 C 3.875 -5.109375 3.796875 -4.609375 3.5625 -3.625 Z M 3.46875 -3.296875 C 3.359375 -2.84375 3.15625 -2 2.765625 -1.28125 C 2.421875 -0.59375 2.046875 -0.109375 1.609375 -0.109375 C 1.28125 -0.109375 1.078125 -0.40625 1.078125 -1.328125 C 1.078125 -1.75 1.140625 -2.328125 1.390625 -3.296875 Z M 3.46875 -3.296875 "
           id="path934" />
      </symbol>
      <symbol
         overflow="visible"
         id="symbol5486">
        <path
           style="stroke:none;"
           d=""
           id="path8728" />
      </symbol>
      <symbol
         overflow="visible"
         id="symbol3964">
        <path
           style="stroke:none;"
           d="M 2.546875 2.5 L 2.546875 2.09375 L 1.578125 2.09375 L 1.578125 -7.078125 L 2.546875 -7.078125 L 2.546875 -7.484375 L 1.171875 -7.484375 L 1.171875 2.5 Z M 2.546875 2.5 "
           id="path2012" />
      </symbol>
      <symbol
         overflow="visible"
         id="symbol9863">
        <path
           style="stroke:none;"
           d="M 3.296875 2.390625 C 3.296875 2.359375 3.296875 2.34375 3.125 2.171875 C 1.890625 0.921875 1.5625 -0.96875 1.5625 -2.5 C 1.5625 -4.234375 1.9375 -5.96875 3.171875 -7.203125 C 3.296875 -7.328125 3.296875 -7.34375 3.296875 -7.375 C 3.296875 -7.453125 3.265625 -7.484375 3.203125 -7.484375 C 3.09375 -7.484375 2.203125 -6.796875 1.609375 -5.53125 C 1.109375 -4.4375 0.984375 -3.328125 0.984375 -2.5 C 0.984375 -1.71875 1.09375 -0.515625 1.640625 0.625 C 2.25 1.84375 3.09375 2.5 3.203125 2.5 C 3.265625 2.5 3.296875 2.46875 3.296875 2.390625 Z M 3.296875 2.390625 "
           id="path8849" />
      </symbol>
      <symbol
         overflow="visible"
         id="symbol1844">
        <path
           style="stroke:none;"
           d="M 2.875 -2.5 C 2.875 -3.265625 2.765625 -4.46875 2.21875 -5.609375 C 1.625 -6.828125 0.765625 -7.484375 0.671875 -7.484375 C 0.609375 -7.484375 0.5625 -7.4375 0.5625 -7.375 C 0.5625 -7.34375 0.5625 -7.328125 0.75 -7.140625 C 1.734375 -6.15625 2.296875 -4.578125 2.296875 -2.5 C 2.296875 -0.78125 1.9375 0.96875 0.703125 2.21875 C 0.5625 2.34375 0.5625 2.359375 0.5625 2.390625 C 0.5625 2.453125 0.609375 2.5 0.671875 2.5 C 0.765625 2.5 1.671875 1.8125 2.25 0.546875 C 2.765625 -0.546875 2.875 -1.65625 2.875 -2.5 Z M 2.875 -2.5 "
           id="path1687" />
      </symbol>
      <symbol
         overflow="visible"
         id="symbol3070">
        <path
           style="stroke:none;"
           d="M 1.578125 -7.484375 L 0.21875 -7.484375 L 0.21875 -7.078125 L 1.1875 -7.078125 L 1.1875 2.09375 L 0.21875 2.09375 L 0.21875 2.5 L 1.578125 2.5 Z M 1.578125 -7.484375 "
           id="path4757" />
      </symbol>
      <symbol
         overflow="visible"
         id="symbol9361">
        <path
           style="stroke:none;"
           d=""
           id="path3225" />
      </symbol>
      <symbol
         overflow="visible"
         id="symbol8367">
        <path
           style="stroke:none;"
           d="M 1.578125 -7.125 C 1.578125 -7.296875 1.578125 -7.484375 1.390625 -7.484375 C 1.1875 -7.484375 1.1875 -7.296875 1.1875 -7.125 L 1.1875 2.140625 C 1.1875 2.3125 1.1875 2.5 1.390625 2.5 C 1.578125 2.5 1.578125 2.3125 1.578125 2.140625 Z M 1.578125 -7.125 "
           id="path4166" />
      </symbol>
    </g>
    <g
       id="g701">
      <symbol
         overflow="visible"
         id="symbol7462">
        <path
           style="stroke:none;"
           d=""
           id="path3345" />
      </symbol>
      <symbol
         overflow="visible"
         id="symbol6250">
        <path
           style="stroke:none;"
           d="M 4.53125 -4.984375 C 4.53125 -5.640625 4.359375 -7.03125 3.34375 -7.03125 C 1.953125 -7.03125 0.421875 -4.21875 0.421875 -1.9375 C 0.421875 -1 0.703125 0.109375 1.609375 0.109375 C 3.015625 0.109375 4.53125 -2.75 4.53125 -4.984375 Z M 1.46875 -3.625 C 1.640625 -4.25 1.84375 -5.046875 2.25 -5.765625 C 2.515625 -6.25 2.875 -6.8125 3.328125 -6.8125 C 3.8125 -6.8125 3.875 -6.171875 3.875 -5.609375 C 3.875 -5.109375 3.796875 -4.609375 3.5625 -3.625 Z M 3.46875 -3.296875 C 3.359375 -2.84375 3.15625 -2 2.765625 -1.28125 C 2.421875 -0.59375 2.046875 -0.109375 1.609375 -0.109375 C 1.28125 -0.109375 1.078125 -0.40625 1.078125 -1.328125 C 1.078125 -1.75 1.140625 -2.328125 1.390625 -3.296875 Z M 3.46875 -3.296875 "
           id="path7810" />
      </symbol>
    </g>
    <g
       id="g6206">
      <symbol
         overflow="visible"
         id="symbol2367">
        <path
           style="stroke:none;"
           d=""
           id="path8780" />
      </symbol>
      <symbol
         overflow="visible"
         id="symbol7547">
        <path
           style="stroke:none;"
           d="M 2.046875 -3.984375 L 2.984375 -3.984375 C 3.1875 -3.984375 3.296875 -3.984375 3.296875 -4.1875 C 3.296875 -4.296875 3.1875 -4.296875 3.015625 -4.296875 L 2.140625 -4.296875 C 2.5 -5.71875 2.546875 -5.90625 2.546875 -5.96875 C 2.546875 -6.140625 2.421875 -6.234375 2.25 -6.234375 C 2.21875 -6.234375 1.9375 -6.234375 1.859375 -5.875 L 1.46875 -4.296875 L 0.53125 -4.296875 C 0.328125 -4.296875 0.234375 -4.296875 0.234375 -4.109375 C 0.234375 -3.984375 0.3125 -3.984375 0.515625 -3.984375 L 1.390625 -3.984375 C 0.671875 -1.15625 0.625 -0.984375 0.625 -0.8125 C 0.625 -0.265625 1 0.109375 1.546875 0.109375 C 2.5625 0.109375 3.125 -1.34375 3.125 -1.421875 C 3.125 -1.53125 3.046875 -1.53125 3.015625 -1.53125 C 2.921875 -1.53125 2.90625 -1.5 2.859375 -1.390625 C 2.4375 -0.34375 1.90625 -0.109375 1.5625 -0.109375 C 1.359375 -0.109375 1.25 -0.234375 1.25 -0.5625 C 1.25 -0.8125 1.28125 -0.875 1.3125 -1.046875 Z M 2.046875 -3.984375 "
           id="path436" />
      </symbol>
    </g>
    <g
       id="g5314">
      <symbol
         overflow="visible"
         id="symbol7931">
        <path
           style="stroke:none;"
           d=""
           id="path6467" />
      </symbol>
      <symbol
         overflow="visible"
         id="symbol5879">
        <path
           style="stroke:none;"
           d="M 3.328125 -3.015625 C 3.390625 -3.265625 3.625 -4.1875 4.3125 -4.1875 C 4.359375 -4.1875 4.609375 -4.1875 4.8125 -4.0625 C 4.53125 -4 4.34375 -3.765625 4.34375 -3.515625 C 4.34375 -3.359375 4.453125 -3.171875 4.71875 -3.171875 C 4.9375 -3.171875 5.25 -3.34375 5.25 -3.75 C 5.25 -4.265625 4.671875 -4.40625 4.328125 -4.40625 C 3.75 -4.40625 3.40625 -3.875 3.28125 -3.65625 C 3.03125 -4.3125 2.5 -4.40625 2.203125 -4.40625 C 1.171875 -4.40625 0.59375 -3.125 0.59375 -2.875 C 0.59375 -2.765625 0.703125 -2.765625 0.71875 -2.765625 C 0.796875 -2.765625 0.828125 -2.796875 0.84375 -2.875 C 1.1875 -3.9375 1.84375 -4.1875 2.1875 -4.1875 C 2.375 -4.1875 2.71875 -4.09375 2.71875 -3.515625 C 2.71875 -3.203125 2.546875 -2.546875 2.1875 -1.140625 C 2.03125 -0.53125 1.671875 -0.109375 1.234375 -0.109375 C 1.171875 -0.109375 0.953125 -0.109375 0.734375 -0.234375 C 0.984375 -0.296875 1.203125 -0.5 1.203125 -0.78125 C 1.203125 -1.046875 0.984375 -1.125 0.84375 -1.125 C 0.53125 -1.125 0.296875 -0.875 0.296875 -0.546875 C 0.296875 -0.09375 0.78125 0.109375 1.21875 0.109375 C 1.890625 0.109375 2.25 -0.59375 2.265625 -0.640625 C 2.390625 -0.28125 2.75 0.109375 3.34375 0.109375 C 4.375 0.109375 4.9375 -1.171875 4.9375 -1.421875 C 4.9375 -1.53125 4.859375 -1.53125 4.828125 -1.53125 C 4.734375 -1.53125 4.71875 -1.484375 4.6875 -1.421875 C 4.359375 -0.34375 3.6875 -0.109375 3.375 -0.109375 C 2.984375 -0.109375 2.828125 -0.421875 2.828125 -0.765625 C 2.828125 -0.984375 2.875 -1.203125 2.984375 -1.640625 Z M 3.328125 -3.015625 "
           id="path4299" />
      </symbol>
      <symbol
         overflow="visible"
         id="symbol3004">
        <path
           style="stroke:none;"
           d="M 2.046875 -3.984375 L 2.984375 -3.984375 C 3.1875 -3.984375 3.296875 -3.984375 3.296875 -4.1875 C 3.296875 -4.296875 3.1875 -4.296875 3.015625 -4.296875 L 2.140625 -4.296875 C 2.5 -5.71875 2.546875 -5.90625 2.546875 -5.96875 C 2.546875 -6.140625 2.421875 -6.234375 2.25 -6.234375 C 2.21875 -6.234375 1.9375 -6.234375 1.859375 -5.875 L 1.46875 -4.296875 L 0.53125 -4.296875 C 0.328125 -4.296875 0.234375 -4.296875 0.234375 -4.109375 C 0.234375 -3.984375 0.3125 -3.984375 0.515625 -3.984375 L 1.390625 -3.984375 C 0.671875 -1.15625 0.625 -0.984375 0.625 -0.8125 C 0.625 -0.265625 1 0.109375 1.546875 0.109375 C 2.5625 0.109375 3.125 -1.34375 3.125 -1.421875 C 3.125 -1.53125 3.046875 -1.53125 3.015625 -1.53125 C 2.921875 -1.53125 2.90625 -1.5 2.859375 -1.390625 C 2.4375 -0.34375 1.90625 -0.109375 1.5625 -0.109375 C 1.359375 -0.109375 1.25 -0.234375 1.25 -0.5625 C 1.25 -0.8125 1.28125 -0.875 1.3125 -1.046875 Z M 2.046875 -3.984375 "
           id="path7415" />
      </symbol>
      <symbol
         overflow="visible"
         id="symbol4072">
        <path
           style="stroke:none;"
           d=""
           id="path1581" />
      </symbol>
      <symbol
         overflow="visible"
         id="symbol4284">
        <path
           style="stroke:none;"
           d="M 3.296875 2.390625 C 3.296875 2.359375 3.296875 2.34375 3.125 2.171875 C 1.890625 0.921875 1.5625 -0.96875 1.5625 -2.5 C 1.5625 -4.234375 1.9375 -5.96875 3.171875 -7.203125 C 3.296875 -7.328125 3.296875 -7.34375 3.296875 -7.375 C 3.296875 -7.453125 3.265625 -7.484375 3.203125 -7.484375 C 3.09375 -7.484375 2.203125 -6.796875 1.609375 -5.53125 C 1.109375 -4.4375 0.984375 -3.328125 0.984375 -2.5 C 0.984375 -1.71875 1.09375 -0.515625 1.640625 0.625 C 2.25 1.84375 3.09375 2.5 3.203125 2.5 C 3.265625 2.5 3.296875 2.46875 3.296875 2.390625 Z M 3.296875 2.390625 "
           id="path564" />
      </symbol>
      <symbol
         overflow="visible"
         id="symbol1483">
        <path
           style="stroke:none;"
           d="M 2.875 -2.5 C 2.875 -3.265625 2.765625 -4.46875 2.21875 -5.609375 C 1.625 -6.828125 0.765625 -7.484375 0.671875 -7.484375 C 0.609375 -7.484375 0.5625 -7.4375 0.5625 -7.375 C 0.5625 -7.34375 0.5625 -7.328125 0.75 -7.140625 C 1.734375 -6.15625 2.296875 -4.578125 2.296875 -2.5 C 2.296875 -0.78125 1.9375 0.96875 0.703125 2.21875 C 0.5625 2.34375 0.5625 2.359375 0.5625 2.390625 C 0.5625 2.453125 0.609375 2.5 0.671875 2.5 C 0.765625 2.5 1.671875 1.8125 2.25 0.546875 C 2.765625 -0.546875 2.875 -1.65625 2.875 -2.5 Z M 2.875 -2.5 "
           id="path9102" />
      </symbol>
    </g>
  </defs>
  <sodipodi:namedview
     id="base"
     pagecolor="#ffffff"
     bordercolor="#666666"
     borderopacity="1.0"
     inkscape:pageopacity="0.0"
     inkscape:pageshadow="2"
     inkscape:zoom="0.5"
     inkscape:cx="1009.9435"
     inkscape:cy="615.17266"
     inkscape:document-units="px"
     inkscape:current-layer="layer1"
     inkscape:document-rotation="0"
     showgrid="false"
     inkscape:window-width="937"
     inkscape:window-height="1012"
     inkscape:window-x="1930"
     inkscape:window-y="50"
     inkscape:window-maximized="0"
     showguides="true"
     inkscape:guide-bbox="true" />
  <metadata
     id="metadata383">
    <rdf:RDF>
      <cc:Work
         rdf:about="">
        <dc:format>image/svg+xml</dc:format>
        <dc:type
           rdf:resource="http://purl.org/dc/dcmitype/StillImage" />
      </cc:Work>
    </rdf:RDF>
  </metadata>
  <g
     inkscape:label="Layer 1"
     inkscape:groupmode="layer"
     id="layer1"
     style="display:inline">
    <rect
       style="fill:#2e3440;fill-opacity:1"
       id="rect395"
       width="1930.7454"
       height="1091.1956"
       x="0.38669881"
       y="-2.451303" />
  </g>
  <g
     inkscape:groupmode="layer"
     id="layer2"
     inkscape:label="2">
    <g
       inkscape:label=""
       transform="matrix(4.8025952,0,0,4.8025952,-250.23759,92.440159)"
       id="g2302"
       style="fill:#ffffff">
      <g
         id="g206"
         style="fill:#ffffff">
        <g
           style="fill:#ffffff;fill-opacity:1"
           id="g4861">
          <use
             xlink:href="#symbol8033"
             x="92.557999"
             y="81.962997"
             id="use2084"
             width="100%"
             height="100%"
             style="fill:#ffffff" />
        </g>
        <g
           style="fill:#ffffff;fill-opacity:1"
           id="g9861">
          <use
             xlink:href="#symbol2699"
             x="91.925003"
             y="81.962997"
             id="use3645"
             width="100%"
             height="100%"
             style="fill:#ffffff" />
        </g>
      </g>
    </g>
    <path
       style="fill:none;stroke:#ffffff;stroke-width:3.94908;stroke-linecap:butt;stroke-linejoin:miter;stroke-miterlimit:4;stroke-dasharray:none;stroke-opacity:1"
       d="m 97.458178,409.55157 c 0,0 -2.21435,341.22455 -3.04734,346.68709 -0.833,5.46253 379.701132,3.18565 379.701132,3.18565"
       id="path2539"
       sodipodi:nodetypes="csc" />
    <path
       style="fill:#b48ead;fill-opacity:0.740723;stroke:#b48ead;stroke-width:9.7;stroke-linecap:butt;stroke-linejoin:miter;stroke-miterlimit:4;stroke-dasharray:none;stroke-opacity:1"
       d="m 764.45109,598.76884 c 0,0 18.39526,-103.13229 36.4997,-52.87869 66.41586,184.35453 127.39665,134.67075 176.36518,155.44002 86.50223,36.68864 168.57053,53.27137 168.57053,53.27137 v 0 l -386.20644,-1.40125 z"
       id="path3157"
       sodipodi:nodetypes="csscccc" />
    <path
       style="fill:none;stroke:#ffffff;stroke-width:3.94908;stroke-linecap:butt;stroke-linejoin:miter;stroke-miterlimit:4;stroke-dasharray:none;stroke-opacity:1"
       d="m 760.93409,409.42869 c 0,0 -2.21435,341.22455 -3.04734,346.68709 -0.833,5.46253 399.15535,1.98089 399.15535,1.98089"
       id="path2545"
       sodipodi:nodetypes="csc" />
    <g
       inkscape:label=""
       transform="matrix(3.895857,0,0,3.895857,288.64831,119.74773)"
       id="g2731"
       style="fill:#ffffff">
      <g
         id="g8100"
         style="fill:#ffffff">
        <g
           style="fill:#ffffff;fill-opacity:1"
           id="g248">
          <use
             xlink:href="#symbol2954"
             x="91.925003"
             y="81.962997"
             id="use2337"
             width="100%"
             height="100%"
             style="fill:#ffffff" />
        </g>
        <g
           style="fill:#ffffff;fill-opacity:1"
           id="g4592">
          <use
             xlink:href="#symbol5943"
             x="99.705002"
             y="81.962997"
             id="use200"
             width="100%"
             height="100%"
             style="fill:#ffffff" />
        </g>
        <g
           style="fill:#ffffff;fill-opacity:1"
           id="g9599">
          <use
             xlink:href="#symbol5948"
             x="102.473"
             y="81.962997"
             id="use5916"
             width="100%"
             height="100%"
             style="fill:#ffffff" />
        </g>
        <g
           style="fill:#ffffff;fill-opacity:1"
           id="g2148">
          <use
             xlink:href="#symbol7125"
             x="107.426"
             y="81.962997"
             id="use98"
             width="100%"
             height="100%"
             style="fill:#ffffff" />
        </g>
        <g
           style="fill:#ffffff;fill-opacity:1"
           id="g9977">
          <use
             xlink:href="#symbol2518"
             x="110.827"
             y="81.962997"
             id="use7680"
             width="100%"
             height="100%"
             style="fill:#ffffff" />
        </g>
        <g
           style="fill:#ffffff;fill-opacity:1"
           id="g5839">
          <use
             xlink:href="#symbol5781"
             x="110.194"
             y="81.962997"
             id="use2666"
             width="100%"
             height="100%"
             style="fill:#ffffff" />
        </g>
        <g
           style="fill:#ffffff;fill-opacity:1"
           id="g6613">
          <use
             xlink:href="#symbol653"
             x="115.888"
             y="81.962997"
             id="use950"
             width="100%"
             height="100%"
             style="fill:#ffffff" />
        </g>
      </g>
    </g>
    <g
       inkscape:label=""
       transform="matrix(3.9361591,0,0,3.9361591,870.70373,100.24963)"
       id="g3001"
       style="fill:#ffffff">
      <g
         id="g3227"
         style="fill:#ffffff">
        <g
           style="fill:#ffffff;fill-opacity:1"
           id="g9934">
          <use
             xlink:href="#symbol5383"
             x="91.925003"
             y="81.962997"
             id="use6950"
             width="100%"
             height="100%"
             style="fill:#ffffff" />
        </g>
        <g
           style="fill:#ffffff;fill-opacity:1"
           id="g4394">
          <use
             xlink:href="#symbol3964"
             x="99.705002"
             y="81.962997"
             id="use8340"
             width="100%"
             height="100%"
             style="fill:#ffffff" />
        </g>
        <g
           style="fill:#ffffff;fill-opacity:1"
           id="g5398">
          <use
             xlink:href="#symbol4309"
             x="102.473"
             y="81.962997"
             id="use3165"
             width="100%"
             height="100%"
             style="fill:#ffffff" />
        </g>
        <g
           style="fill:#ffffff;fill-opacity:1"
           id="g7835">
          <use
             xlink:href="#symbol9863"
             x="108.166"
             y="81.962997"
             id="use6055"
             width="100%"
             height="100%"
             style="fill:#ffffff" />
        </g>
        <g
           style="fill:#ffffff;fill-opacity:1"
           id="g3923">
          <use
             xlink:href="#symbol6890"
             x="112.041"
             y="81.962997"
             id="use1945"
             width="100%"
             height="100%"
             style="fill:#ffffff" />
        </g>
        <g
           style="fill:#ffffff;fill-opacity:1"
           id="g6747">
          <use
             xlink:href="#symbol1844"
             x="115.638"
             y="81.962997"
             id="use5407"
             width="100%"
             height="100%"
             style="fill:#ffffff" />
        </g>
        <g
           style="fill:#ffffff;fill-opacity:1"
           id="g1278">
          <use
             xlink:href="#symbol8367"
             x="119.513"
             y="81.962997"
             id="use5445"
             width="100%"
             height="100%"
             style="fill:#ffffff" />
        </g>
        <g
           style="fill:#ffffff;fill-opacity:1"
           id="g3428">
          <use
             xlink:href="#symbol1598"
             x="122.28"
             y="81.962997"
             id="use3999"
             width="100%"
             height="100%"
             style="fill:#ffffff" />
        </g>
        <g
           style="fill:#ffffff;fill-opacity:1"
           id="g954">
          <use
             xlink:href="#symbol3070"
             x="127.234"
             y="81.962997"
             id="use3652"
             width="100%"
             height="100%"
             style="fill:#ffffff" />
        </g>
      </g>
    </g>
    <path
       style="fill:none;stroke:#ffffff;stroke-width:3.94908;stroke-linecap:butt;stroke-linejoin:miter;stroke-miterlimit:4;stroke-dasharray:none;stroke-opacity:1"
       d="m 1394.6233,410.86609 c 0,0 -2.2144,341.22455 -3.0474,346.68709 -0.833,5.46253 462.3229,0.15688 462.3229,0.15688"
       id="path3050" />
    <path
       style="fill:none;fill-opacity:1;stroke:#88c0d0;stroke-width:2.37444;stroke-miterlimit:4;stroke-dasharray:none;stroke-opacity:1"
       id="path3119"
       d="m 140.13588,612.1469 c 1.40337,3.23903 3.6139,6.25069 5.81877,9.23542 1.09007,1.50004 2.30749,2.94409 3.61078,4.35153 0,0 0.72269,-0.30481 0.72269,-0.30481 v 0 c -1.32093,-1.39695 -2.55261,-2.83259 -3.64537,-4.3301 -2.20771,-2.98198 -4.41131,-5.99922 -5.73474,-9.25662 0,0 -0.77213,0.30458 -0.77213,0.30458 z" />
    <path
       style="fill:none;fill-opacity:1;stroke:#88c0d0;stroke-width:2.29796;stroke-miterlimit:4;stroke-dasharray:none;stroke-opacity:1"
       id="path3130"
       d="m 149.32778,613.27292 c -1.29576,2.96738 -3.33677,5.72646 -5.37255,8.46087 -1.00649,1.37423 -2.13056,2.69718 -3.33391,3.98657 0,0 -0.66726,-0.27925 -0.66726,-0.27925 v 0 c 1.21963,-1.27978 2.35686,-2.59502 3.36583,-3.96694 2.03841,-2.73189 4.07302,-5.49607 5.29498,-8.48028 0,0 0.71291,0.27903 0.71291,0.27903 z" />
    <path
       style="fill:none;fill-opacity:1;stroke:#88c0d0;stroke-width:2.37444;stroke-miterlimit:4;stroke-dasharray:none;stroke-opacity:1"
       id="path3132"
       d="m 179.95497,628.82947 c 1.40337,3.23903 3.6139,6.25069 5.81876,9.23542 1.09008,1.50004 2.3075,2.94409 3.61078,4.35153 0,0 0.72269,-0.30481 0.72269,-0.30481 v 0 c -1.32092,-1.39695 -2.5526,-2.83259 -3.64537,-4.3301 -2.2077,-2.98198 -4.4113,-5.99922 -5.73474,-9.25662 0,0 -0.77212,0.30458 -0.77212,0.30458 z" />
    <path
       style="fill:none;fill-opacity:1;stroke:#88c0d0;stroke-width:2.29796;stroke-miterlimit:4;stroke-dasharray:none;stroke-opacity:1"
       id="path3134"
       d="m 189.14687,629.95549 c -1.29577,2.96738 -3.33678,5.72646 -5.37256,8.46087 -1.00649,1.37423 -2.13056,2.69718 -3.3339,3.98658 0,0 -0.66726,-0.27925 -0.66726,-0.27925 v 0 c 1.21962,-1.27979 2.35686,-2.59502 3.36582,-3.96695 2.03842,-2.73189 4.07303,-5.49607 5.29498,-8.48028 0,0 0.71292,0.27903 0.71292,0.27903 z" />
    <path
       style="fill:none;fill-opacity:1;stroke:#88c0d0;stroke-width:2.37444;stroke-miterlimit:4;stroke-dasharray:none;stroke-opacity:1"
       id="path3136"
       d="m 248.85691,607.28985 c 1.40337,3.23903 3.6139,6.25069 5.81876,9.23542 1.09008,1.50003 2.3075,2.94409 3.61079,4.35153 0,0 0.72269,-0.30481 0.72269,-0.30481 v 0 c -1.32093,-1.39695 -2.55261,-2.83259 -3.64538,-4.3301 -2.2077,-2.98198 -4.4113,-5.99922 -5.73473,-9.25662 0,0 -0.77213,0.30458 -0.77213,0.30458 z" />
    <path
       style="fill:none;fill-opacity:1;stroke:#88c0d0;stroke-width:2.29796;stroke-miterlimit:4;stroke-dasharray:none;stroke-opacity:1"
       id="path3138"
       d="m 258.04881,608.41586 c -1.29576,2.96738 -3.33678,5.72647 -5.37256,8.46087 -1.00649,1.37424 -2.13055,2.69718 -3.3339,3.98658 0,0 -0.66726,-0.27925 -0.66726,-0.27925 v 0 c 1.21963,-1.27978 2.35686,-2.59502 3.36582,-3.96695 2.03842,-2.73188 4.07303,-5.49607 5.29498,-8.48027 0,0 0.71292,0.27902 0.71292,0.27902 z" />
    <path
       style="fill:none;fill-opacity:1;stroke:#88c0d0;stroke-width:2.37444;stroke-miterlimit:4;stroke-dasharray:none;stroke-opacity:1"
       id="path3140"
       d="m 212.32411,595.02459 c 1.40337,3.23903 3.6139,6.25069 5.81876,9.23542 1.09008,1.50003 2.3075,2.94408 3.61078,4.35153 0,0 0.7227,-0.30482 0.7227,-0.30482 v 0 c -1.32093,-1.39694 -2.55261,-2.83258 -3.64538,-4.33009 -2.2077,-2.98198 -4.4113,-5.99922 -5.73474,-9.25662 0,0 -0.77212,0.30458 -0.77212,0.30458 z" />
    <path
       style="fill:none;fill-opacity:1;stroke:#88c0d0;stroke-width:2.29796;stroke-miterlimit:4;stroke-dasharray:none;stroke-opacity:1"
       id="path3142"
       d="m 221.51601,596.1506 c -1.29577,2.96738 -3.33678,5.72647 -5.37256,8.46087 -1.00649,1.37424 -2.13055,2.69718 -3.3339,3.98658 0,0 -0.66726,-0.27925 -0.66726,-0.27925 v 0 c 1.21963,-1.27978 2.35686,-2.59502 3.36582,-3.96695 2.03842,-2.73188 4.07303,-5.49607 5.29498,-8.48027 0,0 0.71292,0.27902 0.71292,0.27902 z" />
    <path
       style="fill:none;fill-opacity:1;stroke:#88c0d0;stroke-width:2.37444;stroke-miterlimit:4;stroke-dasharray:none;stroke-opacity:1"
       id="path3144"
       d="m 291.63867,553.45113 c 1.40337,3.23903 3.6139,6.25069 5.81876,9.23542 1.09008,1.50004 2.3075,2.94409 3.61078,4.35153 0,0 0.72269,-0.30481 0.72269,-0.30481 v 0 c -1.32092,-1.39695 -2.5526,-2.83259 -3.64537,-4.3301 -2.2077,-2.98198 -4.4113,-5.99922 -5.73474,-9.25662 0,0 -0.77212,0.30458 -0.77212,0.30458 z" />
    <path
       style="fill:none;fill-opacity:1;stroke:#88c0d0;stroke-width:2.29796;stroke-miterlimit:4;stroke-dasharray:none;stroke-opacity:1"
       id="path3146"
       d="m 300.83057,554.57715 c -1.29577,2.96738 -3.33678,5.72646 -5.37256,8.46087 -1.00649,1.37423 -2.13056,2.69718 -3.3339,3.98658 0,0 -0.66726,-0.27926 -0.66726,-0.27926 v 0 c 1.21962,-1.27978 2.35686,-2.59501 3.36582,-3.96694 2.03842,-2.73189 4.07303,-5.49607 5.29498,-8.48028 0,0 0.71292,0.27903 0.71292,0.27903 z" />
    <path
       style="fill:#80b2c2;fill-opacity:0.37;stroke:#88c0d0;stroke-width:0;stroke-linecap:butt;stroke-linejoin:miter;stroke-miterlimit:4;stroke-dasharray:none;stroke-opacity:0.348358"
       d="M 1613.306,542.76774 C 1660.4177,464.70226 1862.5265,391.999 1862.5265,391.999 l -2.6943,238.74401 c 0,0 -195.9376,-8.14649 -246.6338,-69.17372 -4.2145,-5.07341 -3.2385,-13.25682 0.1076,-18.80155 z"
       id="path3244"
       sodipodi:nodetypes="sccas" />
    <path
       style="fill:#80b2c2;fill-opacity:0.23999999;stroke:#88c0d0;stroke-width:0.02;stroke-linecap:butt;stroke-linejoin:miter;stroke-miterlimit:4;stroke-dasharray:none;stroke-opacity:0.675854"
       d="m 1614.6891,544.85835 c 44.4709,-50.29864 246.6071,-125.83982 246.6071,-125.83982 -1.2562,69.2324 0.9742,77.86054 -0.6191,126.43116 0,0 -186.9172,68.46382 -246.0895,11.52275 -2.9098,-2.80003 -3.0571,-8.54154 0.1013,-12.11409 z"
       id="path3246"
       sodipodi:nodetypes="sccass" />
    <path
       style="fill:#80b2c2;fill-opacity:0.41999999;stroke:#88c0d0;stroke-width:0;stroke-linecap:butt;stroke-linejoin:miter;stroke-opacity:1;stroke-miterlimit:4;stroke-dasharray:none"
       d="m 1614.6889,544.85835 c 31.9297,-36.96909 246.7031,-100.52884 246.7031,-100.52884 -0.9019,50.88524 1.0281,44.68852 -0.3203,80.91999 -2.2806,2.47495 -194.5566,38.03098 -246.4558,28.5126 -3.2116,-0.58902 -2.1949,-6.27796 0.073,-8.90375 z"
       id="path3248"
       sodipodi:nodetypes="sccss" />
    <path
       style="fill:none;stroke:#88c0d0;stroke-width:0.98767;stroke-linecap:butt;stroke-linejoin:miter;stroke-miterlimit:4;stroke-dasharray:none;stroke-opacity:1"
       d="m 155.24012,624.54146 20.71673,10.99064"
       id="path3252" />
    <path
       style="fill:none;stroke:#88c0d0;stroke-width:0.98767;stroke-linecap:butt;stroke-linejoin:miter;stroke-miterlimit:4;stroke-dasharray:none;stroke-opacity:1"
       d="M 192.64129,629.16682 209.03981,611.0181"
       id="path3254"
       sodipodi:nodetypes="cc" />
    <path
       style="fill:none;stroke:#88c0d0;stroke-width:0.98767;stroke-linecap:butt;stroke-linejoin:miter;stroke-miterlimit:4;stroke-dasharray:none;stroke-opacity:1"
       d="M 192.64129,629.16682 209.03981,611.0181"
       id="path3256"
       sodipodi:nodetypes="cc" />
    <path
       style="fill:none;stroke:#88c0d0;stroke-width:0.98767;stroke-linecap:butt;stroke-linejoin:miter;stroke-miterlimit:4;stroke-dasharray:none;stroke-opacity:1"
       d="m 226.06193,606.0649 22.33659,8.27914"
       id="path3258"
       sodipodi:nodetypes="cc" />
    <path
       style="fill:none;stroke:#88c0d0;stroke-width:0.98767;stroke-linecap:butt;stroke-linejoin:miter;stroke-miterlimit:4;stroke-dasharray:none;stroke-opacity:1"
       d="m 262.00604,610.25298 31.0535,-39.79073"
       id="path3260"
       sodipodi:nodetypes="cc" />
    <path
       style="fill:none;fill-opacity:1;stroke:#88c0d0;stroke-width:2.29796;stroke-miterlimit:4;stroke-dasharray:none;stroke-opacity:1"
       id="path3266"
       d="m 189.14687,629.95549 c -1.29577,2.96738 -3.33678,5.72646 -5.37256,8.46087 -1.00649,1.37423 -2.13056,2.69718 -3.3339,3.98658 0,0 -0.66726,-0.27925 -0.66726,-0.27925 v 0 c 1.21962,-1.27979 2.35686,-2.59502 3.36582,-3.96695 2.03842,-2.73189 4.07303,-5.49607 5.29498,-8.48028 0,0 0.71292,0.27903 0.71292,0.27903 z" />
    <path
       style="fill:none;stroke:#88c0d0;stroke-width:0.98767;stroke-linecap:butt;stroke-linejoin:miter;stroke-miterlimit:4;stroke-dasharray:none;stroke-opacity:1"
       d="M 192.64129,629.16682 209.03981,611.0181"
       id="path3268"
       sodipodi:nodetypes="cc" />
    <path
       style="fill:none;fill-opacity:1;stroke:#88c0d0;stroke-width:2.29796;stroke-miterlimit:4;stroke-dasharray:none;stroke-opacity:1"
       id="path3270"
       d="m 189.14687,629.95549 c -1.29577,2.96738 -3.33678,5.72646 -5.37256,8.46087 -1.00649,1.37423 -2.13056,2.69718 -3.3339,3.98658 0,0 -0.66726,-0.27925 -0.66726,-0.27925 v 0 c 1.21962,-1.27979 2.35686,-2.59502 3.36582,-3.96695 2.03842,-2.73189 4.07303,-5.49607 5.29498,-8.48028 0,0 0.71292,0.27903 0.71292,0.27903 z" />
    <path
       style="fill:none;stroke:#88c0d0;stroke-width:0.98767;stroke-linecap:butt;stroke-linejoin:miter;stroke-miterlimit:4;stroke-dasharray:none;stroke-opacity:1"
       d="M 192.64129,629.16682 209.03981,611.0181"
       id="path3272"
       sodipodi:nodetypes="cc" />
    <path
       style="fill:none;fill-opacity:1;stroke:#88c0d0;stroke-width:2.37444;stroke-miterlimit:4;stroke-dasharray:none;stroke-opacity:1"
       id="path3274"
       d="m 105.61925,635.69996 c 1.40337,3.23903 3.6139,6.25069 5.81876,9.23542 1.09008,1.50004 2.3075,2.94409 3.61078,4.35153 0,0 0.72269,-0.30481 0.72269,-0.30481 v 0 c -1.32092,-1.39695 -2.5526,-2.83259 -3.64537,-4.3301 -2.2077,-2.98198 -4.4113,-5.99922 -5.73474,-9.25662 0,0 -0.77212,0.30458 -0.77212,0.30458 z" />
    <path
       style="fill:none;fill-opacity:1;stroke:#88c0d0;stroke-width:2.29796;stroke-miterlimit:4;stroke-dasharray:none;stroke-opacity:1"
       id="path3276"
       d="m 114.81115,636.82598 c -1.29577,2.96738 -3.33678,5.72646 -5.37256,8.46087 -1.00649,1.37423 -2.13056,2.69718 -3.3339,3.98658 0,0 -0.66726,-0.27925 -0.66726,-0.27925 v 0 c 1.21962,-1.27979 2.35686,-2.59502 3.36582,-3.96695 2.03842,-2.73189 4.07303,-5.49607 5.29498,-8.48028 0,0 0.71292,0.27903 0.71292,0.27903 z" />
    <path
       style="fill:none;stroke:#88c0d0;stroke-width:0.98767;stroke-linecap:butt;stroke-linejoin:miter;stroke-miterlimit:4;stroke-dasharray:none;stroke-opacity:1"
       d="m 118.81115,638.82598 16.39852,-18.14872"
       id="path3278"
       sodipodi:nodetypes="cc" />
    <path
       style="fill:none;fill-opacity:1;stroke:#88c0d0;stroke-width:2.37444;stroke-miterlimit:4;stroke-dasharray:none;stroke-opacity:1"
       id="path3119-7"
       d="m 1444.1356,612.89772 c 1.4034,3.23903 3.6139,6.25069 5.8188,9.23542 1.0901,1.50004 2.3075,2.94409 3.6108,4.35153 0,0 0.7227,-0.30481 0.7227,-0.30481 v 0 c -1.321,-1.39695 -2.5527,-2.83259 -3.6454,-4.3301 -2.2077,-2.98198 -4.4113,-5.99922 -5.7348,-9.25662 0,0 -0.7721,0.30458 -0.7721,0.30458 z" />
    <path
       style="fill:none;fill-opacity:1;stroke:#88c0d0;stroke-width:2.29796;stroke-miterlimit:4;stroke-dasharray:none;stroke-opacity:1"
       id="path3130-0"
       d="m 1453.3275,614.02374 c -1.2957,2.96738 -3.3368,5.72646 -5.3725,8.46087 -1.0065,1.37423 -2.1306,2.69718 -3.3339,3.98657 0,0 -0.6673,-0.27925 -0.6673,-0.27925 v 0 c 1.2196,-1.27978 2.3569,-2.59502 3.3658,-3.96694 2.0384,-2.73189 4.073,-5.49607 5.295,-8.48028 0,0 0.7129,0.27903 0.7129,0.27903 z" />
    <path
       style="fill:none;fill-opacity:1;stroke:#88c0d0;stroke-width:2.37444;stroke-miterlimit:4;stroke-dasharray:none;stroke-opacity:1"
       id="path3132-9"
       d="m 1483.9547,629.58029 c 1.4034,3.23903 3.6139,6.25069 5.8188,9.23542 1.09,1.50004 2.3075,2.94409 3.6107,4.35153 0,0 0.7227,-0.30481 0.7227,-0.30481 v 0 c -1.3209,-1.39695 -2.5526,-2.83259 -3.6453,-4.3301 -2.2077,-2.98198 -4.4113,-5.99922 -5.7348,-9.25662 0,0 -0.7721,0.30458 -0.7721,0.30458 z" />
    <path
       style="fill:none;fill-opacity:1;stroke:#88c0d0;stroke-width:2.29796;stroke-miterlimit:4;stroke-dasharray:none;stroke-opacity:1"
       id="path3134-36"
       d="m 1493.1466,630.70631 c -1.2958,2.96738 -3.3368,5.72646 -5.3726,8.46087 -1.0064,1.37423 -2.1305,2.69718 -3.3339,3.98658 0,0 -0.6672,-0.27925 -0.6672,-0.27925 v 0 c 1.2196,-1.27979 2.3568,-2.59502 3.3658,-3.96695 2.0384,-2.73189 4.073,-5.49607 5.295,-8.48028 0,0 0.7129,0.27903 0.7129,0.27903 z" />
    <path
       style="fill:none;fill-opacity:1;stroke:#88c0d0;stroke-width:2.37444;stroke-miterlimit:4;stroke-dasharray:none;stroke-opacity:1"
       id="path3136-0"
       d="m 1552.8566,608.04067 c 1.4034,3.23903 3.6139,6.25069 5.8188,9.23542 1.0901,1.50003 2.3075,2.94409 3.6108,4.35153 0,0 0.7227,-0.30481 0.7227,-0.30481 v 0 c -1.3209,-1.39695 -2.5526,-2.83259 -3.6454,-4.3301 -2.2077,-2.98198 -4.4113,-5.99922 -5.7347,-9.25662 0,0 -0.7722,0.30458 -0.7722,0.30458 z" />
    <path
       style="fill:none;fill-opacity:1;stroke:#88c0d0;stroke-width:2.29796;stroke-miterlimit:4;stroke-dasharray:none;stroke-opacity:1"
       id="path3138-62"
       d="m 1562.0485,609.16668 c -1.2957,2.96738 -3.3367,5.72647 -5.3725,8.46087 -1.0065,1.37424 -2.1306,2.69718 -3.3339,3.98658 0,0 -0.6673,-0.27925 -0.6673,-0.27925 v 0 c 1.2197,-1.27978 2.3569,-2.59502 3.3658,-3.96695 2.0385,-2.73188 4.0731,-5.49607 5.295,-8.48027 0,0 0.7129,0.27902 0.7129,0.27902 z" />
    <path
       style="fill:none;fill-opacity:1;stroke:#88c0d0;stroke-width:2.37444;stroke-miterlimit:4;stroke-dasharray:none;stroke-opacity:1"
       id="path3140-6"
       d="m 1516.3238,595.77541 c 1.4034,3.23903 3.6139,6.25069 5.8188,9.23542 1.0901,1.50003 2.3075,2.94408 3.6108,4.35153 0,0 0.7227,-0.30482 0.7227,-0.30482 v 0 c -1.3209,-1.39694 -2.5526,-2.83258 -3.6454,-4.33009 -2.2077,-2.98198 -4.4113,-5.99922 -5.7347,-9.25662 0,0 -0.7722,0.30458 -0.7722,0.30458 z" />
    <path
       style="fill:none;fill-opacity:1;stroke:#88c0d0;stroke-width:2.29796;stroke-miterlimit:4;stroke-dasharray:none;stroke-opacity:1"
       id="path3142-1"
       d="m 1525.5157,596.90142 c -1.2957,2.96738 -3.3367,5.72647 -5.3725,8.46087 -1.0065,1.37424 -2.1306,2.69718 -3.3339,3.98658 0,0 -0.6673,-0.27925 -0.6673,-0.27925 v 0 c 1.2197,-1.27978 2.3569,-2.59502 3.3658,-3.96695 2.0385,-2.73188 4.0731,-5.49607 5.295,-8.48027 0,0 0.7129,0.27902 0.7129,0.27902 z" />
    <path
       style="fill:none;fill-opacity:1;stroke:#88c0d0;stroke-width:2.37444;stroke-miterlimit:4;stroke-dasharray:none;stroke-opacity:1"
       id="path3144-8"
       d="m 1595.6384,554.20195 c 1.4034,3.23903 3.6139,6.25069 5.8188,9.23542 1.09,1.50004 2.3075,2.94409 3.6107,4.35153 0,0 0.7227,-0.30481 0.7227,-0.30481 v 0 c -1.3209,-1.39695 -2.5526,-2.83259 -3.6453,-4.3301 -2.2077,-2.98198 -4.4113,-5.99922 -5.7348,-9.25662 0,0 -0.7721,0.30458 -0.7721,0.30458 z" />
    <path
       style="fill:none;fill-opacity:1;stroke:#88c0d0;stroke-width:2.29796;stroke-miterlimit:4;stroke-dasharray:none;stroke-opacity:1"
       id="path3146-7"
       d="m 1604.8303,555.32797 c -1.2958,2.96738 -3.3368,5.72646 -5.3726,8.46087 -1.0064,1.37423 -2.1305,2.69718 -3.3339,3.98658 0,0 -0.6672,-0.27926 -0.6672,-0.27926 v 0 c 1.2196,-1.27978 2.3568,-2.59501 3.3658,-3.96694 2.0384,-2.73189 4.073,-5.49607 5.295,-8.48028 0,0 0.7129,0.27903 0.7129,0.27903 z" />
    <path
       style="fill:none;stroke:#88c0d0;stroke-width:0.98767;stroke-linecap:butt;stroke-linejoin:miter;stroke-miterlimit:4;stroke-dasharray:none;stroke-opacity:1"
       d="m 1459.2399,625.29228 20.7167,10.99064"
       id="path3252-9" />
    <path
       style="fill:none;stroke:#88c0d0;stroke-width:0.98767;stroke-linecap:butt;stroke-linejoin:miter;stroke-miterlimit:4;stroke-dasharray:none;stroke-opacity:1"
       d="m 1496.641,629.91764 16.3985,-18.14872"
       id="path3254-2"
       sodipodi:nodetypes="cc" />
    <path
       style="fill:none;stroke:#88c0d0;stroke-width:0.98767;stroke-linecap:butt;stroke-linejoin:miter;stroke-miterlimit:4;stroke-dasharray:none;stroke-opacity:1"
       d="m 1496.641,629.91764 16.3985,-18.14872"
       id="path3256-0"
       sodipodi:nodetypes="cc" />
    <path
       style="fill:none;stroke:#88c0d0;stroke-width:0.98767;stroke-linecap:butt;stroke-linejoin:miter;stroke-miterlimit:4;stroke-dasharray:none;stroke-opacity:1"
       d="m 1530.0617,606.81572 22.3366,8.27914"
       id="path3258-2"
       sodipodi:nodetypes="cc" />
    <path
       style="fill:none;stroke:#88c0d0;stroke-width:0.98767;stroke-linecap:butt;stroke-linejoin:miter;stroke-miterlimit:4;stroke-dasharray:none;stroke-opacity:1"
       d="m 1566.0058,611.0038 31.0535,-39.79073"
       id="path3260-3"
       sodipodi:nodetypes="cc" />
    <path
       style="fill:none;fill-opacity:1;stroke:#88c0d0;stroke-width:2.29796;stroke-miterlimit:4;stroke-dasharray:none;stroke-opacity:1"
       id="path3266-7"
       d="m 1493.1466,630.70631 c -1.2958,2.96738 -3.3368,5.72646 -5.3726,8.46087 -1.0064,1.37423 -2.1305,2.69718 -3.3339,3.98658 0,0 -0.6672,-0.27925 -0.6672,-0.27925 v 0 c 1.2196,-1.27979 2.3568,-2.59502 3.3658,-3.96695 2.0384,-2.73189 4.073,-5.49607 5.295,-8.48028 0,0 0.7129,0.27903 0.7129,0.27903 z" />
    <path
       style="fill:none;stroke:#88c0d0;stroke-width:0.98767;stroke-linecap:butt;stroke-linejoin:miter;stroke-miterlimit:4;stroke-dasharray:none;stroke-opacity:1"
       d="m 1496.641,629.91764 16.3985,-18.14872"
       id="path3268-5"
       sodipodi:nodetypes="cc" />
    <path
       style="fill:none;fill-opacity:1;stroke:#88c0d0;stroke-width:2.29796;stroke-miterlimit:4;stroke-dasharray:none;stroke-opacity:1"
       id="path3270-9"
       d="m 1493.1466,630.70631 c -1.2958,2.96738 -3.3368,5.72646 -5.3726,8.46087 -1.0064,1.37423 -2.1305,2.69718 -3.3339,3.98658 0,0 -0.6672,-0.27925 -0.6672,-0.27925 v 0 c 1.2196,-1.27979 2.3568,-2.59502 3.3658,-3.96695 2.0384,-2.73189 4.073,-5.49607 5.295,-8.48028 0,0 0.7129,0.27903 0.7129,0.27903 z" />
    <path
       style="fill:none;stroke:#88c0d0;stroke-width:0.98767;stroke-linecap:butt;stroke-linejoin:miter;stroke-miterlimit:4;stroke-dasharray:none;stroke-opacity:1"
       d="m 1496.641,629.91764 16.3985,-18.14872"
       id="path3272-2"
       sodipodi:nodetypes="cc" />
    <path
       style="fill:none;fill-opacity:1;stroke:#88c0d0;stroke-width:2.37444;stroke-miterlimit:4;stroke-dasharray:none;stroke-opacity:1"
       id="path3274-2"
       d="m 1409.619,636.45078 c 1.4034,3.23903 3.6139,6.25069 5.8187,9.23542 1.0901,1.50004 2.3075,2.94409 3.6108,4.35153 0,0 0.7227,-0.30481 0.7227,-0.30481 v 0 c -1.3209,-1.39695 -2.5526,-2.83259 -3.6454,-4.3301 -2.2077,-2.98198 -4.4113,-5.99922 -5.7347,-9.25662 0,0 -0.7721,0.30458 -0.7721,0.30458 z" />
    <path
       style="fill:none;fill-opacity:1;stroke:#88c0d0;stroke-width:2.29796;stroke-miterlimit:4;stroke-dasharray:none;stroke-opacity:1"
       id="path3276-8"
       d="m 1418.8109,637.5768 c -1.2958,2.96738 -3.3368,5.72646 -5.3726,8.46087 -1.0065,1.37423 -2.1305,2.69718 -3.3339,3.98658 0,0 -0.6672,-0.27925 -0.6672,-0.27925 v 0 c 1.2196,-1.27979 2.3568,-2.59502 3.3658,-3.96695 2.0384,-2.73189 4.073,-5.49607 5.295,-8.48028 0,0 0.7129,0.27903 0.7129,0.27903 z" />
    <path
       style="fill:none;stroke:#88c0d0;stroke-width:0.98767;stroke-linecap:butt;stroke-linejoin:miter;stroke-miterlimit:4;stroke-dasharray:none;stroke-opacity:1"
       d="m 1422.8109,639.5768 16.3985,-18.14872"
       id="path3278-9"
       sodipodi:nodetypes="cc" />
    <path
       style="fill:#80b2c2;fill-opacity:0.44;stroke:#88c0d0;stroke-width:0;stroke-linecap:butt;stroke-linejoin:miter;stroke-miterlimit:4;stroke-dasharray:none;stroke-opacity:1"
       d="m 1614.6889,544.85835 c 31.9297,-36.96909 246.1211,-84.44338 246.1211,-84.44338 -0.9019,50.88524 2.0261,7.88563 0.6777,44.1171 -2.2806,2.47495 -194.9726,58.74841 -246.8718,49.23003 -3.2116,-0.58902 -2.1949,-6.27796 0.073,-8.90375 z"
       id="path3360"
       sodipodi:nodetypes="sccss" />
    <g
       inkscape:label=""
       transform="matrix(5.9865985,0,0,5.9865985,642.12921,343.73654)"
       id="g3630"
       style="fill:#ffffff">
      <g
         id="g8034"
         style="fill:#ffffff">
        <g
           style="fill:#ffffff;fill-opacity:1"
           id="g1862">
          <use
             xlink:href="#symbol6250"
             x="91.925003"
             y="81.962997"
             id="use7061"
             width="100%"
             height="100%"
             style="fill:#ffffff"
             transform="matrix(0.73396067,0,0,0.73396067,15.638644,18.084985)" />
        </g>
      </g>
    </g>
    <g
       inkscape:label=""
       transform="matrix(5.453631,0,0,5.453631,-30.137135,363.68658)"
       id="g3920"
       style="fill:#ffffff">
      <g
         id="g2520"
         style="fill:#ffffff">
        <g
           style="fill:#ffffff;fill-opacity:1"
           id="g6245">
          <use
             xlink:href="#symbol7547"
             x="91.925003"
             y="81.962997"
             id="use3290"
             width="100%"
             height="100%"
             style="fill:#ffffff" />
        </g>
      </g>
    </g>
    <g
       inkscape:label=""
       transform="matrix(3.792038,0,0,3.792038,-335.02048,113.84531)"
       id="g4233"
       style="fill:#ffffff">
      <g
         id="g8434"
         style="fill:#ffffff">
        <g
           style="fill:#ffffff;fill-opacity:1"
           id="g4953">
          <use
             xlink:href="#symbol5879"
             x="91.925003"
             y="81.962997"
             id="use5466"
             width="100%"
             height="100%"
             style="fill:#ffffff" />
        </g>
        <g
           style="fill:#ffffff;fill-opacity:1"
           id="g4851">
          <use
             xlink:href="#symbol4284"
             x="97.619003"
             y="81.962997"
             id="use7556"
             width="100%"
             height="100%"
             style="fill:#ffffff" />
        </g>
        <g
           style="fill:#ffffff;fill-opacity:1"
           id="g6876">
          <use
             xlink:href="#symbol3004"
             x="101.494"
             y="81.962997"
             id="use3292"
             width="100%"
             height="100%"
             style="fill:#ffffff" />
        </g>
        <g
           style="fill:#ffffff;fill-opacity:1"
           id="g2645">
          <use
             xlink:href="#symbol1483"
             x="105.091"
             y="81.962997"
             id="use3574"
             width="100%"
             height="100%"
             style="fill:#ffffff" />
        </g>
      </g>
    </g>
    <g
       inkscape:label=""
       transform="matrix(5.453631,0,0,5.453631,1333.7243,362.26157)"
       id="g4266"
       style="fill:#ffffff">
      <g
         id="g4264"
         style="fill:#ffffff">
        <g
           style="fill:#ffffff;fill-opacity:1"
           id="g4262">
          <use
             xlink:href="#symbol7547"
             x="91.925003"
             y="81.962997"
             id="use4260"
             width="100%"
             height="100%"
             style="fill:#ffffff" />
        </g>
      </g>
    </g>
    <path
       style="fill:none;stroke:#ffffff;stroke-width:2.9;stroke-linecap:butt;stroke-linejoin:miter;stroke-miterlimit:4;stroke-dasharray:none;stroke-opacity:1"
       d="m 93.132324,824.86837 c 0,0 -0.963377,23.82549 17.991676,28.58891 11.6569,2.92939 378.55804,-1.0711 394.02784,29.15548 12.10995,23.66172 2.977,11.02417 23.69245,-1.37923 21.48753,-12.86567 634.02921,12.7824 634.81291,-41.73143"
       id="path4281"
       sodipodi:nodetypes="csssc" />
    <path
       style="fill:none;stroke:#ffffff;stroke-width:2.9;stroke-linecap:butt;stroke-linejoin:miter;stroke-miterlimit:4;stroke-dasharray:none;stroke-opacity:1"
       d="m 758.72144,268.54938 c 0,0 -0.96338,-23.82549 17.99167,-28.58891 11.6569,-2.92939 524.40959,5.98901 541.38719,-23.41711 14.4812,-25.08215 18.7665,6.84487 28.5301,8.745 159.9713,31.13267 498.2337,-21.65659 487.0688,42.48062"
       id="path4283"
       sodipodi:nodetypes="cssac" />
    <path
       style="fill:none;stroke:#ffffff;stroke-width:1.66998;stroke-linecap:butt;stroke-linejoin:miter;stroke-miterlimit:4;stroke-dasharray:none;stroke-opacity:1"
       d="m 100.30859,523.73703 c 0,0 1.43517,-4.87155 3.37944,-6.19616 26.85383,-18.29527 87.34224,3.23298 96.72519,-12.11786 5.37844,-8.79932 6.89863,0.64984 10.32433,1.15649 30.67507,4.53678 93.58497,-8.58911 91.48784,16.84802"
       id="path4285"
       sodipodi:nodetypes="casac" />
  </g>
</svg>
