<?xml version="1.0" encoding="UTF-8" standalone="no"?>
<svg
   xmlns:dc="http://purl.org/dc/elements/1.1/"
   xmlns:cc="http://creativecommons.org/ns#"
   xmlns:rdf="http://www.w3.org/1999/02/22-rdf-syntax-ns#"
   xmlns:svg="http://www.w3.org/2000/svg"
   xmlns="http://www.w3.org/2000/svg"
   xmlns:sodipodi="http://sodipodi.sourceforge.net/DTD/sodipodi-0.dtd"
   xmlns:inkscape="http://www.inkscape.org/namespaces/inkscape"
   width="170.86711mm"
   height="124.20937mm"
   viewBox="0 0 170.86711 124.20938"
   version="1.1"
   id="svg14739"
   inkscape:export-filename="/home/michael/phd/report_year1/commitee_meeting_pres_figs/adj_matrix.png"
   inkscape:export-xdpi="245.24001"
   inkscape:export-ydpi="245.24001"
   inkscape:version="1.0.1 (1.0.1+r73)"
   sodipodi:docname="landscape.svg">
  <defs
     id="defs14733" />
  <sodipodi:namedview
     id="base"
     pagecolor="#ffffff"
     bordercolor="#666666"
     borderopacity="1.0"
     inkscape:pageopacity="0.0"
     inkscape:pageshadow="2"
     inkscape:zoom="0.58420755"
     inkscape:cx="138.56213"
     inkscape:cy="202.45125"
     inkscape:document-units="mm"
     inkscape:current-layer="layer1"
     inkscape:document-rotation="0"
     showgrid="false"
     inkscape:window-width="1902"
     inkscape:window-height="1032"
     inkscape:window-x="5"
     inkscape:window-y="35"
     inkscape:window-maximized="0"
     fit-margin-top="0"
     fit-margin-left="0"
     fit-margin-right="0"
     fit-margin-bottom="0" />
  <metadata
     id="metadata14736">
    <rdf:RDF>
      <cc:Work
         rdf:about="">
        <dc:format>image/svg+xml</dc:format>
        <dc:type
           rdf:resource="http://purl.org/dc/dcmitype/StillImage" />
        <dc:title></dc:title>
      </cc:Work>
    </rdf:RDF>
  </metadata>
  <g
     inkscape:label="Layer 1"
     inkscape:groupmode="layer"
     id="layer1"
     transform="translate(-5.8319042,-61.855051)">
    <path
       style="fill:#1a1f1b;fill-opacity:1;stroke:#000000;stroke-width:2.08176;stroke-linecap:butt;stroke-linejoin:miter;stroke-miterlimit:4;stroke-dasharray:none;stroke-opacity:1"
       d="M 8.1888577,137.75611 C -2.9462703,132.81565 59.911468,74.352514 71.392069,62.683958 78.309208,55.653528 177.3036,99.406074 175.63734,107.192 c -1.66626,7.78596 -44.00028,74.60772 -58.98332,78.68815 C 104.22963,189.26377 8.1888577,137.75611 8.1888577,137.75611 Z"
       id="path2060"
       sodipodi:nodetypes="sssss" />
    <path
       style="fill:#4a8e55;fill-opacity:0.565379;stroke:none;stroke-width:0.264583px;stroke-linecap:butt;stroke-linejoin:miter;stroke-opacity:1"
       d="m 69.127507,109.41499 c -0.807189,-18.73222 1.080526,-28.078383 15.352127,-23.015882 14.271604,5.0625 37.738936,17.076852 27.668996,20.786242 -10.06994,3.70939 -15.021837,7.04328 -23.236357,9.24435 -7.495727,2.00848 -19.387747,2.19881 -19.784766,-7.01471 z"
       id="path2070"
       sodipodi:nodetypes="sssss" />
    <path
       style="fill:#4a8e55;fill-opacity:0.565379;stroke:none;stroke-width:0.170029px;stroke-linecap:butt;stroke-linejoin:miter;stroke-opacity:1"
       d="m 71.162914,101.52064 c 0.478486,-4.65279 3.715294,-13.994108 13.106862,-10.817061 9.391571,3.177034 24.834474,10.716811 18.207854,13.044691 -6.626622,2.32787 -19.580952,8.23591 -24.389727,6.40873 -4.808775,-1.82718 -7.403475,-3.98358 -6.924989,-8.63636 z"
       id="path2074"
       sodipodi:nodetypes="zsssz" />
    <path
       style="fill:#4a8e55;fill-opacity:0.565379;stroke:none;stroke-width:0.12107px;stroke-linecap:butt;stroke-linejoin:miter;stroke-opacity:1"
       d="m 53.077378,130.34556 c -4.034281,1.9387 -9.249832,4.34112 -13.344238,1.24712 -23.847199,-18.02048 24.099067,-7.60374 13.344238,-1.24712 z"
       id="path2076"
       sodipodi:nodetypes="csc" />
    <path
       style="fill:#4a8e55;fill-opacity:0.565379;stroke:none;stroke-width:0.113821px;stroke-linecap:butt;stroke-linejoin:miter;stroke-opacity:1"
       d="m 129.97696,115.17633 c 3.7339,0.14613 24.94159,-9.54819 23.81311,-5.28794 -16.58063,32.12598 -27.44542,31.46189 -35.29988,19.57446 -3.40772,-5.15744 7.75286,-14.43268 11.48677,-14.28652 z"
       id="path2078"
       sodipodi:nodetypes="zcaz" />
    <path
       style="fill:#4a8e55;fill-opacity:0.565379;stroke:none;stroke-width:0.0751854px;stroke-linecap:butt;stroke-linejoin:miter;stroke-opacity:1"
       d="m 48.611749,128.43948 c -2.660021,1.13393 -6.098919,2.53908 -8.798584,0.72943 -15.723759,-10.54003 15.889829,-4.44737 8.798584,-0.72943 z"
       id="path2080"
       sodipodi:nodetypes="csc" />
    <path
       style="fill:#4a8e55;fill-opacity:0.565379;stroke:none;stroke-width:0.0889895px;stroke-linecap:butt;stroke-linejoin:miter;stroke-opacity:1"
       d="m 87.114349,141.73352 c -2.179566,1.9387 -4.997327,4.34112 -7.209377,1.24712 -12.883722,-18.02048 13.019796,-7.60374 7.209377,-1.24712 z"
       id="path2084"
       sodipodi:nodetypes="csc" />
    <path
       style="fill:#4a8e55;fill-opacity:0.565379;stroke:none;stroke-width:0.0552631px;stroke-linecap:butt;stroke-linejoin:miter;stroke-opacity:1"
       d="m 84.701742,139.82744 c -1.437107,1.13393 -3.295011,2.53908 -4.753536,0.72943 -8.49494,-10.54003 8.584662,-4.44737 4.753536,-0.72943 z"
       id="path2086"
       sodipodi:nodetypes="csc" />
    <path
       style="fill:#4a8e55;fill-opacity:0.565379;stroke:none;stroke-width:0.0798699px;stroke-linecap:butt;stroke-linejoin:miter;stroke-opacity:1"
       d="m 130.44336,117.44647 c 2.78504,0.0964 18.60346,-6.30335 17.76174,-3.4909 -12.36717,21.20836 -20.47103,20.76996 -26.32952,12.92233 -2.54175,-3.40474 5.78272,-9.52791 8.56778,-9.43143 z"
       id="path2088"
       sodipodi:nodetypes="zcaz" />
    <path
       style="fill:#4a8e55;fill-opacity:0.565379;stroke:none;stroke-width:0.131341px;stroke-linecap:butt;stroke-linejoin:miter;stroke-opacity:1"
       d="m 122.09624,149.17433 c -4.75239,-1.93683 -10.89629,-4.33692 -15.71949,-1.24592 -28.091947,18.00304 28.38865,7.59638 15.71949,1.24592 z"
       id="path2090"
       sodipodi:nodetypes="csc" />
    <path
       style="fill:#4a8e55;fill-opacity:0.565379;stroke:none;stroke-width:0.0815633px;stroke-linecap:butt;stroke-linejoin:miter;stroke-opacity:1"
       d="m 116.83573,151.07856 c -3.13351,-1.13283 -7.18451,-2.53662 -10.36473,-0.72872 -18.522533,10.52981 18.71821,4.44306 10.36473,0.72872 z"
       id="path2092"
       sodipodi:nodetypes="csc" />
  </g>
</svg>
