<?xml version="1.0" encoding="UTF-8" standalone="no"?>
<svg
   xmlns:dc="http://purl.org/dc/elements/1.1/"
   xmlns:cc="http://creativecommons.org/ns#"
   xmlns:rdf="http://www.w3.org/1999/02/22-rdf-syntax-ns#"
   xmlns:svg="http://www.w3.org/2000/svg"
   xmlns="http://www.w3.org/2000/svg"
   xmlns:xlink="http://www.w3.org/1999/xlink"
   xmlns:sodipodi="http://sodipodi.sourceforge.net/DTD/sodipodi-0.dtd"
   xmlns:inkscape="http://www.inkscape.org/namespaces/inkscape"
   width="374.4335mm"
   height="196.31094mm"
   viewBox="0 0 374.43351 196.31094"
   version="1.1"
   id="svg8"
   sodipodi:docname="optim.svg"
   inkscape:version="1.0.1 (1.0.1+r73)"
   inkscape:export-filename="/home/michael/phd/report_year1/committee_meeting_pres_figs/optimization.png"
   inkscape:export-xdpi="96"
   inkscape:export-ydpi="96">
  <defs
     id="defs2">
    <g
       id="g8866">
      <symbol
         overflow="visible"
         id="symbol7862">
        <path
           style="stroke:none"
           d=""
           id="path2586" />
      </symbol>
      <symbol
         overflow="visible"
         id="symbol6228">
        <path
           style="stroke:none"
           d="M 1.09375,-3.421875 V -0.75 c 0,0.4375 -0.109375,0.4375 -0.78125,0.4375 V 0 c 0.359375,-0.015625 0.859375,-0.03125 1.140625,-0.03125 0.25,0 0.765625,0.015625 1.109375,0.03125 v -0.3125 c -0.671875,0 -0.78125,0 -0.78125,-0.4375 V -2.59375 C 1.78125,-3.625 2.5,-4.1875 3.125,-4.1875 c 0.640625,0 0.75,0.53125 0.75,1.109375 V -0.75 c 0,0.4375 -0.109375,0.4375 -0.78125,0.4375 V 0 c 0.34375,-0.015625 0.859375,-0.03125 1.125,-0.03125 0.25,0 0.78125,0.015625 1.109375,0.03125 v -0.3125 c -0.65625,0 -0.765625,0 -0.765625,-0.4375 v -1.84375 c 0,-1.03125 0.703125,-1.59375 1.34375,-1.59375 0.625,0 0.734375,0.53125 0.734375,1.109375 V -0.75 c 0,0.4375 -0.109375,0.4375 -0.78125,0.4375 V 0 c 0.34375,-0.015625 0.859375,-0.03125 1.125,-0.03125 0.265625,0 0.78125,0.015625 1.125,0.03125 v -0.3125 c -0.515625,0 -0.765625,0 -0.78125,-0.296875 v -1.90625 c 0,-0.859375 0,-1.15625 -0.3125,-1.515625 -0.140625,-0.171875 -0.46875,-0.375 -1.046875,-0.375 -0.828125,0 -1.28125,0.59375 -1.4375,0.984375 C 4.390625,-4.296875 3.65625,-4.40625 3.203125,-4.40625 2.46875,-4.40625 2,-3.984375 1.71875,-3.359375 V -4.40625 L 0.3125,-4.296875 v 0.3125 c 0.703125,0 0.78125,0.0625 0.78125,0.5625 z m 0,0"
           id="path6432" />
      </symbol>
      <symbol
         overflow="visible"
         id="symbol4090">
        <path
           style="stroke:none"
           d="M 1.765625,-4.40625 0.375,-4.296875 v 0.3125 c 0.640625,0 0.734375,0.0625 0.734375,0.546875 V -0.75 c 0,0.4375 -0.109375,0.4375 -0.78125,0.4375 V 0 C 0.640625,-0.015625 1.1875,-0.03125 1.421875,-0.03125 1.78125,-0.03125 2.125,-0.015625 2.46875,0 v -0.3125 c -0.671875,0 -0.703125,-0.046875 -0.703125,-0.4375 z m 0.03125,-1.734375 c 0,-0.3125 -0.234375,-0.53125 -0.515625,-0.53125 -0.3125,0 -0.53125,0.265625 -0.53125,0.53125 0,0.265625 0.21875,0.53125 0.53125,0.53125 0.28125,0 0.515625,-0.21875 0.515625,-0.53125 z m 0,0"
           id="path76" />
      </symbol>
      <symbol
         overflow="visible"
         id="symbol7684">
        <path
           style="stroke:none"
           d="M 1.09375,-3.421875 V -0.75 c 0,0.4375 -0.109375,0.4375 -0.78125,0.4375 V 0 c 0.359375,-0.015625 0.859375,-0.03125 1.140625,-0.03125 0.25,0 0.765625,0.015625 1.109375,0.03125 v -0.3125 c -0.671875,0 -0.78125,0 -0.78125,-0.4375 V -2.59375 C 1.78125,-3.625 2.5,-4.1875 3.125,-4.1875 c 0.640625,0 0.75,0.53125 0.75,1.109375 V -0.75 c 0,0.4375 -0.109375,0.4375 -0.78125,0.4375 V 0 c 0.34375,-0.015625 0.859375,-0.03125 1.125,-0.03125 0.25,0 0.78125,0.015625 1.109375,0.03125 v -0.3125 c -0.515625,0 -0.765625,0 -0.765625,-0.296875 v -1.90625 c 0,-0.859375 0,-1.15625 -0.3125,-1.515625 -0.140625,-0.171875 -0.46875,-0.375 -1.046875,-0.375 C 2.46875,-4.40625 2,-3.984375 1.71875,-3.359375 V -4.40625 L 0.3125,-4.296875 v 0.3125 c 0.703125,0 0.78125,0.0625 0.78125,0.5625 z m 0,0"
           id="path8232" />
      </symbol>
      <symbol
         overflow="visible"
         id="symbol7713">
        <path
           style="stroke:none"
           d="m 3.296875,2.390625 c 0,-0.03125 0,-0.046875 -0.171875,-0.21875 C 1.890625,0.921875 1.5625,-0.96875 1.5625,-2.5 c 0,-1.734375 0.375,-3.46875 1.609375,-4.703125 0.125,-0.125 0.125,-0.140625 0.125,-0.171875 0,-0.078125 -0.03125,-0.109375 -0.09375,-0.109375 -0.109375,0 -1,0.6875 -1.59375,1.953125 -0.5,1.09375 -0.625,2.203125 -0.625,3.03125 0,0.78125 0.109375,1.984375 0.65625,3.125 C 2.25,1.84375 3.09375,2.5 3.203125,2.5 c 0.0625,0 0.09375,-0.03125 0.09375,-0.109375 z m 0,0"
           id="path5117" />
      </symbol>
      <symbol
         overflow="visible"
         id="symbol1222">
        <path
           style="stroke:none"
           d="M 2.5,-6.921875 1.15625,-5.5625 1.328125,-5.390625 2.5,-6.40625 3.640625,-5.390625 3.8125,-5.5625 Z m 0,0"
           id="path9521" />
      </symbol>
      <symbol
         overflow="visible"
         id="symbol3882">
        <path
           style="stroke:none"
           d="m 2.875,-2.5 c 0,-0.765625 -0.109375,-1.96875 -0.65625,-3.109375 -0.59375,-1.21875 -1.453125,-1.875 -1.546875,-1.875 -0.0625,0 -0.109375,0.046875 -0.109375,0.109375 0,0.03125 0,0.046875 0.1875,0.234375 0.984375,0.984375 1.546875,2.5625 1.546875,4.640625 0,1.71875 -0.359375,3.46875 -1.59375,4.71875 C 0.5625,2.34375 0.5625,2.359375 0.5625,2.390625 0.5625,2.453125 0.609375,2.5 0.671875,2.5 0.765625,2.5 1.671875,1.8125 2.25,0.546875 2.765625,-0.546875 2.875,-1.65625 2.875,-2.5 Z m 0,0"
           id="path5979" />
      </symbol>
      <symbol
         overflow="visible"
         id="symbol5135">
        <path
           style="stroke:none"
           d=""
           id="path8065" />
      </symbol>
      <symbol
         overflow="visible"
         id="symbol6893">
        <path
           style="stroke:none"
           d="m 7.109375,-4.1875 c 0.0625,-0.265625 0.078125,-0.328125 0.59375,-0.328125 0.15625,0 0.234375,0 0.234375,-0.140625 0,-0.109375 -0.078125,-0.109375 -0.203125,-0.109375 H 6.78125 c -0.203125,0 -0.203125,0.015625 -0.296875,0.140625 l -2.6875,3.984375 -0.6875,-3.9375 c -0.03125,-0.171875 -0.03125,-0.1875 -0.25,-0.1875 H 1.875 c -0.140625,0 -0.234375,0 -0.234375,0.15625 0,0.09375 0.078125,0.09375 0.234375,0.09375 0.109375,0 0.140625,0 0.265625,0.015625 0.140625,0.015625 0.15625,0.03125 0.15625,0.109375 0,0 0,0.046875 -0.03125,0.140625 l -0.875,3.5 c -0.0625,0.234375 -0.171875,0.484375 -0.734375,0.5 -0.046875,0 -0.140625,0 -0.140625,0.15625 0,0 0,0.09375 0.109375,0.09375 0.203125,0 0.5,-0.03125 0.71875,-0.03125 C 1.515625,-0.03125 1.921875,0 2.078125,0 2.125,0 2.21875,0 2.21875,-0.15625 2.21875,-0.25 2.125,-0.25 2.0625,-0.25 1.625,-0.265625 1.625,-0.453125 1.625,-0.546875 c 0,-0.03125 0,-0.0625 0.03125,-0.171875 l 0.921875,-3.703125 0.75,4.234375 C 3.359375,-0.0625 3.359375,0 3.46875,0 3.5625,0 3.625,-0.078125 3.671875,-0.15625 L 6.59375,-4.5 6.609375,-4.484375 5.625,-0.546875 C 5.5625,-0.3125 5.546875,-0.25 5.015625,-0.25 c -0.125,0 -0.21875,0 -0.21875,0.15625 0,0 0,0.09375 0.109375,0.09375 0.140625,0 0.296875,-0.015625 0.4375,-0.015625 0.140625,0 0.296875,-0.015625 0.4375,-0.015625 C 5.984375,-0.03125 6.46875,0 6.671875,0 6.703125,0 6.8125,0 6.8125,-0.15625 6.8125,-0.25 6.734375,-0.25 6.59375,-0.25 c -0.015625,0 -0.140625,0 -0.265625,-0.015625 -0.15625,-0.015625 -0.15625,-0.03125 -0.15625,-0.109375 0,-0.03125 0.015625,-0.109375 0.015625,-0.140625 z m 0,0"
           id="path5769" />
      </symbol>
      <symbol
         overflow="visible"
         id="symbol5456">
        <path
           style="stroke:none"
           d=""
           id="path8359" />
      </symbol>
      <symbol
         overflow="visible"
         id="symbol3596">
        <path
           style="stroke:none"
           d="M 3.015625,-3.15625 H 4.71875 c 1.40625,0 2.796875,-1.03125 2.796875,-2.140625 0,-0.78125 -0.65625,-1.515625 -1.96875,-1.515625 h -3.21875 c -0.1875,0 -0.296875,0 -0.296875,0.1875 0,0.125 0.078125,0.125 0.28125,0.125 0.125,0 0.3125,0.015625 0.421875,0.015625 0.171875,0.03125 0.21875,0.046875 0.21875,0.171875 0,0.03125 0,0.0625 -0.03125,0.1875 l -1.34375,5.34375 c -0.09375,0.390625 -0.109375,0.46875 -0.90625,0.46875 -0.15625,0 -0.265625,0 -0.265625,0.1875 C 0.40625,0 0.515625,0 0.546875,0 0.828125,0 1.53125,-0.03125 1.8125,-0.03125 c 0.21875,0 0.4375,0.015625 0.640625,0.015625 0.21875,0 0.4375,0.015625 0.640625,0.015625 0.078125,0 0.203125,0 0.203125,-0.203125 0,-0.109375 -0.09375,-0.109375 -0.28125,-0.109375 -0.359375,0 -0.640625,0 -0.640625,-0.171875 0,-0.0625 0.015625,-0.109375 0.03125,-0.171875 z M 3.734375,-6.125 C 3.828125,-6.46875 3.84375,-6.5 4.28125,-6.5 h 0.953125 c 0.828125,0 1.359375,0.265625 1.359375,0.953125 0,0.390625 -0.203125,1.25 -0.59375,1.609375 -0.5,0.453125 -1.09375,0.53125 -1.53125,0.53125 H 3.0625 Z m 0,0"
           id="path4087" />
      </symbol>
      <symbol
         overflow="visible"
         id="symbol4555">
        <path
           style="stroke:none"
           d="m 4.25,-6.046875 c 0.078125,-0.28125 0.109375,-0.34375 0.234375,-0.375 0.09375,-0.015625 0.421875,-0.015625 0.625,-0.015625 1.015625,0 1.453125,0.03125 1.453125,0.8125 0,0.15625 -0.03125,0.546875 -0.078125,0.796875 0,0.046875 -0.03125,0.15625 -0.03125,0.1875 0,0.0625 0.03125,0.140625 0.125,0.140625 0.109375,0 0.125,-0.078125 0.15625,-0.234375 L 7,-6.46875 C 7.015625,-6.515625 7.015625,-6.609375 7.015625,-6.640625 7.015625,-6.75 6.921875,-6.75 6.75,-6.75 H 1.21875 c -0.234375,0 -0.25,0.015625 -0.328125,0.203125 l -0.59375,1.75 c 0,0.015625 -0.0625,0.15625 -0.0625,0.1875 0,0.046875 0.0625,0.109375 0.125,0.109375 0.09375,0 0.109375,-0.0625 0.171875,-0.21875 C 1.0625,-6.265625 1.328125,-6.4375 2.796875,-6.4375 H 3.1875 c 0.28125,0 0.28125,0.03125 0.28125,0.125 0,0.046875 -0.03125,0.171875 -0.046875,0.203125 L 2.09375,-0.78125 C 2,-0.421875 1.96875,-0.3125 0.90625,-0.3125 c -0.359375,0 -0.421875,0 -0.421875,0.1875 C 0.484375,0 0.59375,0 0.65625,0 c 0.265625,0 0.546875,-0.015625 0.8125,-0.015625 0.28125,0 0.578125,-0.015625 0.859375,-0.015625 0.28125,0 0.546875,0.015625 0.828125,0.015625 C 3.4375,-0.015625 3.734375,0 4.015625,0 c 0.09375,0 0.21875,0 0.21875,-0.203125 0,-0.109375 -0.078125,-0.109375 -0.34375,-0.109375 -0.234375,0 -0.375,0 -0.625,-0.015625 -0.296875,-0.03125 -0.375,-0.0625 -0.375,-0.21875 0,-0.015625 0,-0.0625 0.046875,-0.203125 z m 0,0"
           id="path9658" />
      </symbol>
      <symbol
         overflow="visible"
         id="symbol5168">
        <path
           style="stroke:none"
           d=""
           id="path6282" />
      </symbol>
      <symbol
         overflow="visible"
         id="symbol9343">
        <path
           style="stroke:none"
           d="m 6.5625,-2.296875 c 0.171875,0 0.359375,0 0.359375,-0.203125 0,-0.1875 -0.1875,-0.1875 -0.359375,-0.1875 H 1.171875 c -0.171875,0 -0.34375,0 -0.34375,0.1875 0,0.203125 0.171875,0.203125 0.34375,0.203125 z m 0,0"
           id="path3095" />
      </symbol>
    </g>
    <g
       id="g3552">
      <symbol
         overflow="visible"
         id="symbol7951">
        <path
           style="stroke:none"
           d=""
           id="path6111" />
      </symbol>
      <symbol
         overflow="visible"
         id="symbol1438">
        <path
           style="stroke:none"
           d="M 1.09375,-3.421875 V -0.75 c 0,0.4375 -0.109375,0.4375 -0.78125,0.4375 V 0 c 0.359375,-0.015625 0.859375,-0.03125 1.140625,-0.03125 0.25,0 0.765625,0.015625 1.109375,0.03125 v -0.3125 c -0.671875,0 -0.78125,0 -0.78125,-0.4375 V -2.59375 C 1.78125,-3.625 2.5,-4.1875 3.125,-4.1875 c 0.640625,0 0.75,0.53125 0.75,1.109375 V -0.75 c 0,0.4375 -0.109375,0.4375 -0.78125,0.4375 V 0 c 0.34375,-0.015625 0.859375,-0.03125 1.125,-0.03125 0.25,0 0.78125,0.015625 1.109375,0.03125 v -0.3125 c -0.65625,0 -0.765625,0 -0.765625,-0.4375 v -1.84375 c 0,-1.03125 0.703125,-1.59375 1.34375,-1.59375 0.625,0 0.734375,0.53125 0.734375,1.109375 V -0.75 c 0,0.4375 -0.109375,0.4375 -0.78125,0.4375 V 0 c 0.34375,-0.015625 0.859375,-0.03125 1.125,-0.03125 0.265625,0 0.78125,0.015625 1.125,0.03125 v -0.3125 c -0.515625,0 -0.765625,0 -0.78125,-0.296875 v -1.90625 c 0,-0.859375 0,-1.15625 -0.3125,-1.515625 -0.140625,-0.171875 -0.46875,-0.375 -1.046875,-0.375 -0.828125,0 -1.28125,0.59375 -1.4375,0.984375 C 4.390625,-4.296875 3.65625,-4.40625 3.203125,-4.40625 2.46875,-4.40625 2,-3.984375 1.71875,-3.359375 V -4.40625 L 0.3125,-4.296875 v 0.3125 c 0.703125,0 0.78125,0.0625 0.78125,0.5625 z m 0,0"
           id="path8023" />
      </symbol>
      <symbol
         overflow="visible"
         id="symbol2095">
        <path
           style="stroke:none"
           d="M 1.765625,-4.40625 0.375,-4.296875 v 0.3125 c 0.640625,0 0.734375,0.0625 0.734375,0.546875 V -0.75 c 0,0.4375 -0.109375,0.4375 -0.78125,0.4375 V 0 C 0.640625,-0.015625 1.1875,-0.03125 1.421875,-0.03125 1.78125,-0.03125 2.125,-0.015625 2.46875,0 v -0.3125 c -0.671875,0 -0.703125,-0.046875 -0.703125,-0.4375 z m 0.03125,-1.734375 c 0,-0.3125 -0.234375,-0.53125 -0.515625,-0.53125 -0.3125,0 -0.53125,0.265625 -0.53125,0.53125 0,0.265625 0.21875,0.53125 0.53125,0.53125 0.28125,0 0.515625,-0.21875 0.515625,-0.53125 z m 0,0"
           id="path4741" />
      </symbol>
      <symbol
         overflow="visible"
         id="symbol7400">
        <path
           style="stroke:none"
           d="M 1.09375,-3.421875 V -0.75 c 0,0.4375 -0.109375,0.4375 -0.78125,0.4375 V 0 c 0.359375,-0.015625 0.859375,-0.03125 1.140625,-0.03125 0.25,0 0.765625,0.015625 1.109375,0.03125 v -0.3125 c -0.671875,0 -0.78125,0 -0.78125,-0.4375 V -2.59375 C 1.78125,-3.625 2.5,-4.1875 3.125,-4.1875 c 0.640625,0 0.75,0.53125 0.75,1.109375 V -0.75 c 0,0.4375 -0.109375,0.4375 -0.78125,0.4375 V 0 c 0.34375,-0.015625 0.859375,-0.03125 1.125,-0.03125 0.25,0 0.78125,0.015625 1.109375,0.03125 v -0.3125 c -0.515625,0 -0.765625,0 -0.765625,-0.296875 v -1.90625 c 0,-0.859375 0,-1.15625 -0.3125,-1.515625 -0.140625,-0.171875 -0.46875,-0.375 -1.046875,-0.375 C 2.46875,-4.40625 2,-3.984375 1.71875,-3.359375 V -4.40625 L 0.3125,-4.296875 v 0.3125 c 0.703125,0 0.78125,0.0625 0.78125,0.5625 z m 0,0"
           id="path5008" />
      </symbol>
      <symbol
         overflow="visible"
         id="symbol8125">
        <path
           style="stroke:none"
           d="m 5.796875,-2.578125 h -0.25 c -0.109375,1.015625 -0.25,2.265625 -2,2.265625 h -0.8125 C 2.265625,-0.3125 2.25,-0.375 2.25,-0.703125 v -5.3125 C 2.25,-6.359375 2.25,-6.5 3.1875,-6.5 H 3.515625 V -6.8125 C 3.15625,-6.78125 2.25,-6.78125 1.84375,-6.78125 c -0.390625,0 -1.171875,0 -1.515625,-0.03125 V -6.5 H 0.5625 c 0.765625,0 0.796875,0.109375 0.796875,0.46875 v 5.25 c 0,0.359375 -0.03125,0.46875 -0.796875,0.46875 H 0.328125 V 0 h 5.1875 z m 0,0"
           id="path9497" />
      </symbol>
      <symbol
         overflow="visible"
         id="symbol4072">
        <path
           style="stroke:none"
           d="M 4.6875,-2.140625 C 4.6875,-3.40625 3.703125,-4.46875 2.5,-4.46875 c -1.25,0 -2.21875,1.09375 -2.21875,2.328125 0,1.296875 1.03125,2.25 2.203125,2.25 1.203125,0 2.203125,-0.984375 2.203125,-2.25 z m -2.1875,2 c -0.4375,0 -0.875,-0.203125 -1.140625,-0.671875 -0.25,-0.4375 -0.25,-1.046875 -0.25,-1.40625 0,-0.390625 0,-0.921875 0.234375,-1.359375 C 1.609375,-4.03125 2.078125,-4.25 2.484375,-4.25 c 0.4375,0 0.859375,0.21875 1.125,0.65625 0.265625,0.421875 0.265625,1 0.265625,1.375 0,0.359375 0,0.90625 -0.21875,1.34375 C 3.421875,-0.421875 2.984375,-0.140625 2.5,-0.140625 Z m 0,0"
           id="path7853" />
      </symbol>
      <symbol
         overflow="visible"
         id="symbol4033">
        <path
           style="stroke:none"
           d="m 2.078125,-1.9375 c 0.21875,0.046875 1.03125,0.203125 1.03125,0.921875 0,0.5 -0.34375,0.90625 -1.125,0.90625 -0.84375,0 -1.203125,-0.5625 -1.390625,-1.421875 C 0.5625,-1.65625 0.5625,-1.6875 0.453125,-1.6875 c -0.125,0 -0.125,0.0625 -0.125,0.234375 V -0.125 c 0,0.171875 0,0.234375 0.109375,0.234375 0.046875,0 0.0625,-0.015625 0.25,-0.203125 0.015625,-0.015625 0.015625,-0.03125 0.203125,-0.21875 0.4375,0.40625 0.890625,0.421875 1.09375,0.421875 1.140625,0 1.609375,-0.671875 1.609375,-1.390625 0,-0.515625 -0.296875,-0.828125 -0.421875,-0.9375 C 2.84375,-2.546875 2.453125,-2.625 2.03125,-2.703125 1.46875,-2.8125 0.8125,-2.9375 0.8125,-3.515625 c 0,-0.359375 0.25,-0.765625 1.109375,-0.765625 1.09375,0 1.15625,0.90625 1.171875,1.203125 0,0.09375 0.09375,0.09375 0.109375,0.09375 0.140625,0 0.140625,-0.046875 0.140625,-0.234375 v -1.015625 c 0,-0.15625 0,-0.234375 -0.109375,-0.234375 -0.046875,0 -0.078125,0 -0.203125,0.125 -0.03125,0.03125 -0.125,0.125 -0.171875,0.15625 -0.375,-0.28125 -0.78125,-0.28125 -0.9375,-0.28125 -1.21875,0 -1.59375,0.671875 -1.59375,1.234375 0,0.34375 0.15625,0.625 0.421875,0.84375 0.328125,0.25 0.609375,0.3125 1.328125,0.453125 z m 0,0"
           id="path6729" />
      </symbol>
      <symbol
         overflow="visible"
         id="symbol1684">
        <path
           style="stroke:none"
           d="m 3.296875,2.390625 c 0,-0.03125 0,-0.046875 -0.171875,-0.21875 C 1.890625,0.921875 1.5625,-0.96875 1.5625,-2.5 c 0,-1.734375 0.375,-3.46875 1.609375,-4.703125 0.125,-0.125 0.125,-0.140625 0.125,-0.171875 0,-0.078125 -0.03125,-0.109375 -0.09375,-0.109375 -0.109375,0 -1,0.6875 -1.59375,1.953125 -0.5,1.09375 -0.625,2.203125 -0.625,3.03125 0,0.78125 0.109375,1.984375 0.65625,3.125 C 2.25,1.84375 3.09375,2.5 3.203125,2.5 c 0.0625,0 0.09375,-0.03125 0.09375,-0.109375 z m 0,0"
           id="path2902" />
      </symbol>
      <symbol
         overflow="visible"
         id="symbol9716">
        <path
           style="stroke:none"
           d="m 2.875,-2.5 c 0,-0.765625 -0.109375,-1.96875 -0.65625,-3.109375 -0.59375,-1.21875 -1.453125,-1.875 -1.546875,-1.875 -0.0625,0 -0.109375,0.046875 -0.109375,0.109375 0,0.03125 0,0.046875 0.1875,0.234375 0.984375,0.984375 1.546875,2.5625 1.546875,4.640625 0,1.71875 -0.359375,3.46875 -1.59375,4.71875 C 0.5625,2.34375 0.5625,2.359375 0.5625,2.390625 0.5625,2.453125 0.609375,2.5 0.671875,2.5 0.765625,2.5 1.671875,1.8125 2.25,0.546875 2.765625,-0.546875 2.875,-1.65625 2.875,-2.5 Z m 0,0"
           id="path3160" />
      </symbol>
      <symbol
         overflow="visible"
         id="symbol2480">
        <path
           style="stroke:none"
           d=""
           id="path1056" />
      </symbol>
      <symbol
         overflow="visible"
         id="symbol748">
        <path
           style="stroke:none"
           d="m 7.109375,-4.1875 c 0.0625,-0.265625 0.078125,-0.328125 0.59375,-0.328125 0.15625,0 0.234375,0 0.234375,-0.140625 0,-0.109375 -0.078125,-0.109375 -0.203125,-0.109375 H 6.78125 c -0.203125,0 -0.203125,0.015625 -0.296875,0.140625 l -2.6875,3.984375 -0.6875,-3.9375 c -0.03125,-0.171875 -0.03125,-0.1875 -0.25,-0.1875 H 1.875 c -0.140625,0 -0.234375,0 -0.234375,0.15625 0,0.09375 0.078125,0.09375 0.234375,0.09375 0.109375,0 0.140625,0 0.265625,0.015625 0.140625,0.015625 0.15625,0.03125 0.15625,0.109375 0,0 0,0.046875 -0.03125,0.140625 l -0.875,3.5 c -0.0625,0.234375 -0.171875,0.484375 -0.734375,0.5 -0.046875,0 -0.140625,0 -0.140625,0.15625 0,0 0,0.09375 0.109375,0.09375 0.203125,0 0.5,-0.03125 0.71875,-0.03125 C 1.515625,-0.03125 1.921875,0 2.078125,0 2.125,0 2.21875,0 2.21875,-0.15625 2.21875,-0.25 2.125,-0.25 2.0625,-0.25 1.625,-0.265625 1.625,-0.453125 1.625,-0.546875 c 0,-0.03125 0,-0.0625 0.03125,-0.171875 l 0.921875,-3.703125 0.75,4.234375 C 3.359375,-0.0625 3.359375,0 3.46875,0 3.5625,0 3.625,-0.078125 3.671875,-0.15625 L 6.59375,-4.5 6.609375,-4.484375 5.625,-0.546875 C 5.5625,-0.3125 5.546875,-0.25 5.015625,-0.25 c -0.125,0 -0.21875,0 -0.21875,0.15625 0,0 0,0.09375 0.109375,0.09375 0.140625,0 0.296875,-0.015625 0.4375,-0.015625 0.140625,0 0.296875,-0.015625 0.4375,-0.015625 C 5.984375,-0.03125 6.46875,0 6.671875,0 6.703125,0 6.8125,0 6.8125,-0.15625 6.8125,-0.25 6.734375,-0.25 6.59375,-0.25 c -0.015625,0 -0.140625,0 -0.265625,-0.015625 -0.15625,-0.015625 -0.15625,-0.03125 -0.15625,-0.109375 0,-0.03125 0.015625,-0.109375 0.015625,-0.140625 z m 0,0"
           id="path9386" />
      </symbol>
      <symbol
         overflow="visible"
         id="symbol8689">
        <path
           style="stroke:none"
           d=""
           id="path9126" />
      </symbol>
      <symbol
         overflow="visible"
         id="symbol3254">
        <path
           style="stroke:none"
           d="m 4.25,-6.046875 c 0.078125,-0.28125 0.109375,-0.34375 0.234375,-0.375 0.09375,-0.015625 0.421875,-0.015625 0.625,-0.015625 1.015625,0 1.453125,0.03125 1.453125,0.8125 0,0.15625 -0.03125,0.546875 -0.078125,0.796875 0,0.046875 -0.03125,0.15625 -0.03125,0.1875 0,0.0625 0.03125,0.140625 0.125,0.140625 0.109375,0 0.125,-0.078125 0.15625,-0.234375 L 7,-6.46875 C 7.015625,-6.515625 7.015625,-6.609375 7.015625,-6.640625 7.015625,-6.75 6.921875,-6.75 6.75,-6.75 H 1.21875 c -0.234375,0 -0.25,0.015625 -0.328125,0.203125 l -0.59375,1.75 c 0,0.015625 -0.0625,0.15625 -0.0625,0.1875 0,0.046875 0.0625,0.109375 0.125,0.109375 0.09375,0 0.109375,-0.0625 0.171875,-0.21875 C 1.0625,-6.265625 1.328125,-6.4375 2.796875,-6.4375 H 3.1875 c 0.28125,0 0.28125,0.03125 0.28125,0.125 0,0.046875 -0.03125,0.171875 -0.046875,0.203125 L 2.09375,-0.78125 C 2,-0.421875 1.96875,-0.3125 0.90625,-0.3125 c -0.359375,0 -0.421875,0 -0.421875,0.1875 C 0.484375,0 0.59375,0 0.65625,0 c 0.265625,0 0.546875,-0.015625 0.8125,-0.015625 0.28125,0 0.578125,-0.015625 0.859375,-0.015625 0.28125,0 0.546875,0.015625 0.828125,0.015625 C 3.4375,-0.015625 3.734375,0 4.015625,0 c 0.09375,0 0.21875,0 0.21875,-0.203125 0,-0.109375 -0.078125,-0.109375 -0.34375,-0.109375 -0.234375,0 -0.375,0 -0.625,-0.015625 -0.296875,-0.03125 -0.375,-0.0625 -0.375,-0.21875 0,-0.015625 0,-0.0625 0.046875,-0.203125 z m 0,0"
           id="path1698" />
      </symbol>
      <symbol
         overflow="visible"
         id="symbol9195">
        <path
           style="stroke:none"
           d="m 3.015625,-3.234375 h 0.96875 c 0.75,0 0.828125,0.15625 0.828125,0.4375 0,0.078125 0,0.1875 -0.0625,0.5 C 4.71875,-2.25 4.71875,-2.21875 4.71875,-2.1875 c 0,0.078125 0.0625,0.109375 0.109375,0.109375 0.109375,0 0.109375,-0.03125 0.15625,-0.203125 L 5.53125,-4.453125 C 5.5625,-4.5625 5.5625,-4.578125 5.5625,-4.609375 5.5625,-4.625 5.546875,-4.71875 5.4375,-4.71875 5.34375,-4.71875 5.328125,-4.671875 5.296875,-4.5 5.078125,-3.734375 4.859375,-3.546875 4,-3.546875 H 3.09375 l 0.640625,-2.53125 C 3.828125,-6.4375 3.84375,-6.46875 4.28125,-6.46875 h 1.3125 c 1.21875,0 1.453125,0.328125 1.453125,1.09375 0,0.234375 0,0.265625 -0.03125,0.546875 C 7,-4.703125 7,-4.6875 7,-4.65625 c 0,0.046875 0.03125,0.125 0.125,0.125 0.109375,0 0.109375,-0.0625 0.125,-0.25 L 7.453125,-6.515625 C 7.484375,-6.78125 7.4375,-6.78125 7.1875,-6.78125 H 2.296875 c -0.1875,0 -0.296875,0 -0.296875,0.203125 0,0.109375 0.09375,0.109375 0.28125,0.109375 0.375,0 0.65625,0 0.65625,0.171875 0,0.046875 0,0.0625 -0.0625,0.25 L 1.5625,-0.78125 c -0.09375,0.390625 -0.109375,0.46875 -0.90625,0.46875 -0.171875,0 -0.28125,0 -0.28125,0.1875 C 0.375,0 0.5,0 0.53125,0 0.8125,0 1.5625,-0.03125 1.84375,-0.03125 2.171875,-0.03125 3,0 3.328125,0 3.421875,0 3.53125,0 3.53125,-0.1875 3.53125,-0.265625 3.484375,-0.296875 3.484375,-0.296875 3.453125,-0.3125 3.421875,-0.3125 3.203125,-0.3125 c -0.21875,0 -0.265625,0 -0.515625,-0.015625 -0.296875,-0.03125 -0.328125,-0.078125 -0.328125,-0.203125 0,-0.015625 0,-0.078125 0.046875,-0.21875 z m 0,0"
           id="path9389" />
      </symbol>
      <symbol
         overflow="visible"
         id="symbol3423">
        <path
           style="stroke:none"
           d="m 2.046875,-3.984375 h 0.9375 c 0.203125,0 0.3125,0 0.3125,-0.203125 0,-0.109375 -0.109375,-0.109375 -0.28125,-0.109375 h -0.875 C 2.5,-5.71875 2.546875,-5.90625 2.546875,-5.96875 c 0,-0.171875 -0.125,-0.265625 -0.296875,-0.265625 -0.03125,0 -0.3125,0 -0.390625,0.359375 L 1.46875,-4.296875 h -0.9375 c -0.203125,0 -0.296875,0 -0.296875,0.1875 0,0.125 0.078125,0.125 0.28125,0.125 h 0.875 C 0.671875,-1.15625 0.625,-0.984375 0.625,-0.8125 0.625,-0.265625 1,0.109375 1.546875,0.109375 2.5625,0.109375 3.125,-1.34375 3.125,-1.421875 3.125,-1.53125 3.046875,-1.53125 3.015625,-1.53125 2.921875,-1.53125 2.90625,-1.5 2.859375,-1.390625 2.4375,-0.34375 1.90625,-0.109375 1.5625,-0.109375 c -0.203125,0 -0.3125,-0.125 -0.3125,-0.453125 0,-0.25 0.03125,-0.3125 0.0625,-0.484375 z m 0,0"
           id="path624" />
      </symbol>
      <symbol
         overflow="visible"
         id="symbol7948">
        <path
           style="stroke:none"
           d=""
           id="path6664" />
      </symbol>
      <symbol
         overflow="visible"
         id="symbol8849">
        <path
           style="stroke:none"
           d="m 6.5625,-2.296875 c 0.171875,0 0.359375,0 0.359375,-0.203125 0,-0.1875 -0.1875,-0.1875 -0.359375,-0.1875 H 1.171875 c -0.171875,0 -0.34375,0 -0.34375,0.1875 0,0.203125 0.171875,0.203125 0.34375,0.203125 z m 0,0"
           id="path2575" />
      </symbol>
    </g>
    <g
       id="g8222">
      <symbol
         overflow="visible"
         id="symbol9170">
        <path
           style="stroke:none"
           d=""
           id="path783" />
      </symbol>
      <symbol
         overflow="visible"
         id="symbol6556">
        <path
           style="stroke:none"
           d="M 1.09375,-3.421875 V -0.75 c 0,0.4375 -0.109375,0.4375 -0.78125,0.4375 V 0 c 0.359375,-0.015625 0.859375,-0.03125 1.140625,-0.03125 0.25,0 0.765625,0.015625 1.109375,0.03125 v -0.3125 c -0.671875,0 -0.78125,0 -0.78125,-0.4375 V -2.59375 C 1.78125,-3.625 2.5,-4.1875 3.125,-4.1875 c 0.640625,0 0.75,0.53125 0.75,1.109375 V -0.75 c 0,0.4375 -0.109375,0.4375 -0.78125,0.4375 V 0 c 0.34375,-0.015625 0.859375,-0.03125 1.125,-0.03125 0.25,0 0.78125,0.015625 1.109375,0.03125 v -0.3125 c -0.65625,0 -0.765625,0 -0.765625,-0.4375 v -1.84375 c 0,-1.03125 0.703125,-1.59375 1.34375,-1.59375 0.625,0 0.734375,0.53125 0.734375,1.109375 V -0.75 c 0,0.4375 -0.109375,0.4375 -0.78125,0.4375 V 0 c 0.34375,-0.015625 0.859375,-0.03125 1.125,-0.03125 0.265625,0 0.78125,0.015625 1.125,0.03125 v -0.3125 c -0.515625,0 -0.765625,0 -0.78125,-0.296875 v -1.90625 c 0,-0.859375 0,-1.15625 -0.3125,-1.515625 -0.140625,-0.171875 -0.46875,-0.375 -1.046875,-0.375 -0.828125,0 -1.28125,0.59375 -1.4375,0.984375 C 4.390625,-4.296875 3.65625,-4.40625 3.203125,-4.40625 2.46875,-4.40625 2,-3.984375 1.71875,-3.359375 V -4.40625 L 0.3125,-4.296875 v 0.3125 c 0.703125,0 0.78125,0.0625 0.78125,0.5625 z m 0,0"
           id="path4320" />
      </symbol>
      <symbol
         overflow="visible"
         id="symbol4531">
        <path
           style="stroke:none"
           d="M 1.765625,-4.40625 0.375,-4.296875 v 0.3125 c 0.640625,0 0.734375,0.0625 0.734375,0.546875 V -0.75 c 0,0.4375 -0.109375,0.4375 -0.78125,0.4375 V 0 C 0.640625,-0.015625 1.1875,-0.03125 1.421875,-0.03125 1.78125,-0.03125 2.125,-0.015625 2.46875,0 v -0.3125 c -0.671875,0 -0.703125,-0.046875 -0.703125,-0.4375 z m 0.03125,-1.734375 c 0,-0.3125 -0.234375,-0.53125 -0.515625,-0.53125 -0.3125,0 -0.53125,0.265625 -0.53125,0.53125 0,0.265625 0.21875,0.53125 0.53125,0.53125 0.28125,0 0.515625,-0.21875 0.515625,-0.53125 z m 0,0"
           id="path6009" />
      </symbol>
      <symbol
         overflow="visible"
         id="symbol9788">
        <path
           style="stroke:none"
           d="M 1.09375,-3.421875 V -0.75 c 0,0.4375 -0.109375,0.4375 -0.78125,0.4375 V 0 c 0.359375,-0.015625 0.859375,-0.03125 1.140625,-0.03125 0.25,0 0.765625,0.015625 1.109375,0.03125 v -0.3125 c -0.671875,0 -0.78125,0 -0.78125,-0.4375 V -2.59375 C 1.78125,-3.625 2.5,-4.1875 3.125,-4.1875 c 0.640625,0 0.75,0.53125 0.75,1.109375 V -0.75 c 0,0.4375 -0.109375,0.4375 -0.78125,0.4375 V 0 c 0.34375,-0.015625 0.859375,-0.03125 1.125,-0.03125 0.25,0 0.78125,0.015625 1.109375,0.03125 v -0.3125 c -0.515625,0 -0.765625,0 -0.765625,-0.296875 v -1.90625 c 0,-0.859375 0,-1.15625 -0.3125,-1.515625 -0.140625,-0.171875 -0.46875,-0.375 -1.046875,-0.375 C 2.46875,-4.40625 2,-3.984375 1.71875,-3.359375 V -4.40625 L 0.3125,-4.296875 v 0.3125 c 0.703125,0 0.78125,0.0625 0.78125,0.5625 z m 0,0"
           id="path3891" />
      </symbol>
      <symbol
         overflow="visible"
         id="symbol1183">
        <path
           style="stroke:none"
           d="m 5.796875,-2.578125 h -0.25 c -0.109375,1.015625 -0.25,2.265625 -2,2.265625 h -0.8125 C 2.265625,-0.3125 2.25,-0.375 2.25,-0.703125 v -5.3125 C 2.25,-6.359375 2.25,-6.5 3.1875,-6.5 H 3.515625 V -6.8125 C 3.15625,-6.78125 2.25,-6.78125 1.84375,-6.78125 c -0.390625,0 -1.171875,0 -1.515625,-0.03125 V -6.5 H 0.5625 c 0.765625,0 0.796875,0.109375 0.796875,0.46875 v 5.25 c 0,0.359375 -0.03125,0.46875 -0.796875,0.46875 H 0.328125 V 0 h 5.1875 z m 0,0"
           id="path1869" />
      </symbol>
      <symbol
         overflow="visible"
         id="symbol108">
        <path
           style="stroke:none"
           d="M 4.6875,-2.140625 C 4.6875,-3.40625 3.703125,-4.46875 2.5,-4.46875 c -1.25,0 -2.21875,1.09375 -2.21875,2.328125 0,1.296875 1.03125,2.25 2.203125,2.25 1.203125,0 2.203125,-0.984375 2.203125,-2.25 z m -2.1875,2 c -0.4375,0 -0.875,-0.203125 -1.140625,-0.671875 -0.25,-0.4375 -0.25,-1.046875 -0.25,-1.40625 0,-0.390625 0,-0.921875 0.234375,-1.359375 C 1.609375,-4.03125 2.078125,-4.25 2.484375,-4.25 c 0.4375,0 0.859375,0.21875 1.125,0.65625 0.265625,0.421875 0.265625,1 0.265625,1.375 0,0.359375 0,0.90625 -0.21875,1.34375 C 3.421875,-0.421875 2.984375,-0.140625 2.5,-0.140625 Z m 0,0"
           id="path4794" />
      </symbol>
      <symbol
         overflow="visible"
         id="symbol8556">
        <path
           style="stroke:none"
           d="m 2.078125,-1.9375 c 0.21875,0.046875 1.03125,0.203125 1.03125,0.921875 0,0.5 -0.34375,0.90625 -1.125,0.90625 -0.84375,0 -1.203125,-0.5625 -1.390625,-1.421875 C 0.5625,-1.65625 0.5625,-1.6875 0.453125,-1.6875 c -0.125,0 -0.125,0.0625 -0.125,0.234375 V -0.125 c 0,0.171875 0,0.234375 0.109375,0.234375 0.046875,0 0.0625,-0.015625 0.25,-0.203125 0.015625,-0.015625 0.015625,-0.03125 0.203125,-0.21875 0.4375,0.40625 0.890625,0.421875 1.09375,0.421875 1.140625,0 1.609375,-0.671875 1.609375,-1.390625 0,-0.515625 -0.296875,-0.828125 -0.421875,-0.9375 C 2.84375,-2.546875 2.453125,-2.625 2.03125,-2.703125 1.46875,-2.8125 0.8125,-2.9375 0.8125,-3.515625 c 0,-0.359375 0.25,-0.765625 1.109375,-0.765625 1.09375,0 1.15625,0.90625 1.171875,1.203125 0,0.09375 0.09375,0.09375 0.109375,0.09375 0.140625,0 0.140625,-0.046875 0.140625,-0.234375 v -1.015625 c 0,-0.15625 0,-0.234375 -0.109375,-0.234375 -0.046875,0 -0.078125,0 -0.203125,0.125 -0.03125,0.03125 -0.125,0.125 -0.171875,0.15625 -0.375,-0.28125 -0.78125,-0.28125 -0.9375,-0.28125 -1.21875,0 -1.59375,0.671875 -1.59375,1.234375 0,0.34375 0.15625,0.625 0.421875,0.84375 0.328125,0.25 0.609375,0.3125 1.328125,0.453125 z m 0,0"
           id="path8796" />
      </symbol>
      <symbol
         overflow="visible"
         id="symbol9392">
        <path
           style="stroke:none"
           d="m 3.296875,2.390625 c 0,-0.03125 0,-0.046875 -0.171875,-0.21875 C 1.890625,0.921875 1.5625,-0.96875 1.5625,-2.5 c 0,-1.734375 0.375,-3.46875 1.609375,-4.703125 0.125,-0.125 0.125,-0.140625 0.125,-0.171875 0,-0.078125 -0.03125,-0.109375 -0.09375,-0.109375 -0.109375,0 -1,0.6875 -1.59375,1.953125 -0.5,1.09375 -0.625,2.203125 -0.625,3.03125 0,0.78125 0.109375,1.984375 0.65625,3.125 C 2.25,1.84375 3.09375,2.5 3.203125,2.5 c 0.0625,0 0.09375,-0.03125 0.09375,-0.109375 z m 0,0"
           id="path9178" />
      </symbol>
      <symbol
         overflow="visible"
         id="symbol6786">
        <path
           style="stroke:none"
           d="m 2.875,-2.5 c 0,-0.765625 -0.109375,-1.96875 -0.65625,-3.109375 -0.59375,-1.21875 -1.453125,-1.875 -1.546875,-1.875 -0.0625,0 -0.109375,0.046875 -0.109375,0.109375 0,0.03125 0,0.046875 0.1875,0.234375 0.984375,0.984375 1.546875,2.5625 1.546875,4.640625 0,1.71875 -0.359375,3.46875 -1.59375,4.71875 C 0.5625,2.34375 0.5625,2.359375 0.5625,2.390625 0.5625,2.453125 0.609375,2.5 0.671875,2.5 0.765625,2.5 1.671875,1.8125 2.25,0.546875 2.765625,-0.546875 2.875,-1.65625 2.875,-2.5 Z m 0,0"
           id="path6384" />
      </symbol>
      <symbol
         overflow="visible"
         id="symbol8510">
        <path
           style="stroke:none"
           d=""
           id="path6520" />
      </symbol>
      <symbol
         overflow="visible"
         id="symbol8748">
        <path
           style="stroke:none"
           d="m 7.109375,-4.1875 c 0.0625,-0.265625 0.078125,-0.328125 0.59375,-0.328125 0.15625,0 0.234375,0 0.234375,-0.140625 0,-0.109375 -0.078125,-0.109375 -0.203125,-0.109375 H 6.78125 c -0.203125,0 -0.203125,0.015625 -0.296875,0.140625 l -2.6875,3.984375 -0.6875,-3.9375 c -0.03125,-0.171875 -0.03125,-0.1875 -0.25,-0.1875 H 1.875 c -0.140625,0 -0.234375,0 -0.234375,0.15625 0,0.09375 0.078125,0.09375 0.234375,0.09375 0.109375,0 0.140625,0 0.265625,0.015625 0.140625,0.015625 0.15625,0.03125 0.15625,0.109375 0,0 0,0.046875 -0.03125,0.140625 l -0.875,3.5 c -0.0625,0.234375 -0.171875,0.484375 -0.734375,0.5 -0.046875,0 -0.140625,0 -0.140625,0.15625 0,0 0,0.09375 0.109375,0.09375 0.203125,0 0.5,-0.03125 0.71875,-0.03125 C 1.515625,-0.03125 1.921875,0 2.078125,0 2.125,0 2.21875,0 2.21875,-0.15625 2.21875,-0.25 2.125,-0.25 2.0625,-0.25 1.625,-0.265625 1.625,-0.453125 1.625,-0.546875 c 0,-0.03125 0,-0.0625 0.03125,-0.171875 l 0.921875,-3.703125 0.75,4.234375 C 3.359375,-0.0625 3.359375,0 3.46875,0 3.5625,0 3.625,-0.078125 3.671875,-0.15625 L 6.59375,-4.5 6.609375,-4.484375 5.625,-0.546875 C 5.5625,-0.3125 5.546875,-0.25 5.015625,-0.25 c -0.125,0 -0.21875,0 -0.21875,0.15625 0,0 0,0.09375 0.109375,0.09375 0.140625,0 0.296875,-0.015625 0.4375,-0.015625 0.140625,0 0.296875,-0.015625 0.4375,-0.015625 C 5.984375,-0.03125 6.46875,0 6.671875,0 6.703125,0 6.8125,0 6.8125,-0.15625 6.8125,-0.25 6.734375,-0.25 6.59375,-0.25 c -0.015625,0 -0.140625,0 -0.265625,-0.015625 -0.15625,-0.015625 -0.15625,-0.03125 -0.15625,-0.109375 0,-0.03125 0.015625,-0.109375 0.015625,-0.140625 z m 0,0"
           id="path4679" />
      </symbol>
      <symbol
         overflow="visible"
         id="symbol1475">
        <path
           style="stroke:none"
           d=""
           id="path9338" />
      </symbol>
      <symbol
         overflow="visible"
         id="symbol3413">
        <path
           style="stroke:none"
           d="m 4.25,-6.046875 c 0.078125,-0.28125 0.109375,-0.34375 0.234375,-0.375 0.09375,-0.015625 0.421875,-0.015625 0.625,-0.015625 1.015625,0 1.453125,0.03125 1.453125,0.8125 0,0.15625 -0.03125,0.546875 -0.078125,0.796875 0,0.046875 -0.03125,0.15625 -0.03125,0.1875 0,0.0625 0.03125,0.140625 0.125,0.140625 0.109375,0 0.125,-0.078125 0.15625,-0.234375 L 7,-6.46875 C 7.015625,-6.515625 7.015625,-6.609375 7.015625,-6.640625 7.015625,-6.75 6.921875,-6.75 6.75,-6.75 H 1.21875 c -0.234375,0 -0.25,0.015625 -0.328125,0.203125 l -0.59375,1.75 c 0,0.015625 -0.0625,0.15625 -0.0625,0.1875 0,0.046875 0.0625,0.109375 0.125,0.109375 0.09375,0 0.109375,-0.0625 0.171875,-0.21875 C 1.0625,-6.265625 1.328125,-6.4375 2.796875,-6.4375 H 3.1875 c 0.28125,0 0.28125,0.03125 0.28125,0.125 0,0.046875 -0.03125,0.171875 -0.046875,0.203125 L 2.09375,-0.78125 C 2,-0.421875 1.96875,-0.3125 0.90625,-0.3125 c -0.359375,0 -0.421875,0 -0.421875,0.1875 C 0.484375,0 0.59375,0 0.65625,0 c 0.265625,0 0.546875,-0.015625 0.8125,-0.015625 0.28125,0 0.578125,-0.015625 0.859375,-0.015625 0.28125,0 0.546875,0.015625 0.828125,0.015625 C 3.4375,-0.015625 3.734375,0 4.015625,0 c 0.09375,0 0.21875,0 0.21875,-0.203125 0,-0.109375 -0.078125,-0.109375 -0.34375,-0.109375 -0.234375,0 -0.375,0 -0.625,-0.015625 -0.296875,-0.03125 -0.375,-0.0625 -0.375,-0.21875 0,-0.015625 0,-0.0625 0.046875,-0.203125 z m 0,0"
           id="path3403" />
      </symbol>
      <symbol
         overflow="visible"
         id="symbol2885">
        <path
           style="stroke:none"
           d="m 3.015625,-3.234375 h 0.96875 c 0.75,0 0.828125,0.15625 0.828125,0.4375 0,0.078125 0,0.1875 -0.0625,0.5 C 4.71875,-2.25 4.71875,-2.21875 4.71875,-2.1875 c 0,0.078125 0.0625,0.109375 0.109375,0.109375 0.109375,0 0.109375,-0.03125 0.15625,-0.203125 L 5.53125,-4.453125 C 5.5625,-4.5625 5.5625,-4.578125 5.5625,-4.609375 5.5625,-4.625 5.546875,-4.71875 5.4375,-4.71875 5.34375,-4.71875 5.328125,-4.671875 5.296875,-4.5 5.078125,-3.734375 4.859375,-3.546875 4,-3.546875 H 3.09375 l 0.640625,-2.53125 C 3.828125,-6.4375 3.84375,-6.46875 4.28125,-6.46875 h 1.3125 c 1.21875,0 1.453125,0.328125 1.453125,1.09375 0,0.234375 0,0.265625 -0.03125,0.546875 C 7,-4.703125 7,-4.6875 7,-4.65625 c 0,0.046875 0.03125,0.125 0.125,0.125 0.109375,0 0.109375,-0.0625 0.125,-0.25 L 7.453125,-6.515625 C 7.484375,-6.78125 7.4375,-6.78125 7.1875,-6.78125 H 2.296875 c -0.1875,0 -0.296875,0 -0.296875,0.203125 0,0.109375 0.09375,0.109375 0.28125,0.109375 0.375,0 0.65625,0 0.65625,0.171875 0,0.046875 0,0.0625 -0.0625,0.25 L 1.5625,-0.78125 c -0.09375,0.390625 -0.109375,0.46875 -0.90625,0.46875 -0.171875,0 -0.28125,0 -0.28125,0.1875 C 0.375,0 0.5,0 0.53125,0 0.8125,0 1.5625,-0.03125 1.84375,-0.03125 2.171875,-0.03125 3,0 3.328125,0 3.421875,0 3.53125,0 3.53125,-0.1875 3.53125,-0.265625 3.484375,-0.296875 3.484375,-0.296875 3.453125,-0.3125 3.421875,-0.3125 3.203125,-0.3125 c -0.21875,0 -0.265625,0 -0.515625,-0.015625 -0.296875,-0.03125 -0.328125,-0.078125 -0.328125,-0.203125 0,-0.015625 0,-0.078125 0.046875,-0.21875 z m 0,0"
           id="path6179" />
      </symbol>
      <symbol
         overflow="visible"
         id="symbol7925">
        <path
           style="stroke:none"
           d="M 9.234375,-6.046875 C 9.328125,-6.40625 9.34375,-6.5 10.09375,-6.5 c 0.21875,0 0.3125,0 0.3125,-0.203125 0,-0.109375 -0.09375,-0.109375 -0.265625,-0.109375 h -1.3125 c -0.265625,0 -0.28125,0 -0.390625,0.1875 L 4.796875,-0.9375 4.015625,-6.578125 C 3.984375,-6.8125 3.96875,-6.8125 3.703125,-6.8125 H 2.34375 c -0.1875,0 -0.296875,0 -0.296875,0.1875 0,0.125 0.09375,0.125 0.28125,0.125 0.140625,0 0.3125,0.015625 0.4375,0.015625 0.15625,0.03125 0.21875,0.046875 0.21875,0.171875 0,0.03125 -0.015625,0.0625 -0.046875,0.1875 l -1.265625,5.0625 c -0.09375,0.40625 -0.265625,0.71875 -1.078125,0.75 -0.046875,0 -0.171875,0.015625 -0.171875,0.1875 0,0.09375 0.0625,0.125 0.140625,0.125 0.3125,0 0.65625,-0.03125 1,-0.03125 C 1.890625,-0.03125 2.25,0 2.578125,0 c 0.046875,0 0.1875,0 0.1875,-0.203125 0,-0.109375 -0.109375,-0.109375 -0.1875,-0.109375 -0.5625,0 -0.671875,-0.203125 -0.671875,-0.4375 0,-0.0625 0,-0.125 0.03125,-0.234375 L 3.296875,-6.40625 H 3.3125 l 0.859375,6.171875 C 4.1875,-0.109375 4.203125,0 4.3125,0 4.421875,0 4.484375,-0.109375 4.53125,-0.171875 l 4.03125,-6.3125 h 0.015625 l -1.4375,5.703125 c -0.09375,0.390625 -0.109375,0.46875 -0.90625,0.46875 -0.15625,0 -0.265625,0 -0.265625,0.1875 C 5.96875,0 6.078125,0 6.109375,0 6.390625,0 7.0625,-0.03125 7.34375,-0.03125 7.75,-0.03125 8.1875,0 8.59375,0 8.65625,0 8.78125,0 8.78125,-0.203125 8.78125,-0.3125 8.6875,-0.3125 8.5,-0.3125 c -0.359375,0 -0.640625,0 -0.640625,-0.171875 0,-0.046875 0,-0.0625 0.046875,-0.25 z m 0,0"
           id="path9490" />
      </symbol>
      <symbol
         overflow="visible"
         id="symbol5465">
        <path
           style="stroke:none"
           d=""
           id="path8645" />
      </symbol>
      <symbol
         overflow="visible"
         id="symbol634">
        <path
           style="stroke:none"
           d="m 6.5625,-2.296875 c 0.171875,0 0.359375,0 0.359375,-0.203125 0,-0.1875 -0.1875,-0.1875 -0.359375,-0.1875 H 1.171875 c -0.171875,0 -0.34375,0 -0.34375,0.1875 0,0.203125 0.171875,0.203125 0.34375,0.203125 z m 0,0"
           id="path8806" />
      </symbol>
    </g>
    <g
       id="g5498">
      <symbol
         overflow="visible"
         id="symbol7551">
        <path
           style="stroke:none"
           d=""
           id="path8662" />
      </symbol>
      <symbol
         overflow="visible"
         id="symbol2932">
        <path
           style="stroke:none"
           d="M 1.09375,-3.421875 V -0.75 c 0,0.4375 -0.109375,0.4375 -0.78125,0.4375 V 0 c 0.359375,-0.015625 0.859375,-0.03125 1.140625,-0.03125 0.25,0 0.765625,0.015625 1.109375,0.03125 v -0.3125 c -0.671875,0 -0.78125,0 -0.78125,-0.4375 V -2.59375 C 1.78125,-3.625 2.5,-4.1875 3.125,-4.1875 c 0.640625,0 0.75,0.53125 0.75,1.109375 V -0.75 c 0,0.4375 -0.109375,0.4375 -0.78125,0.4375 V 0 c 0.34375,-0.015625 0.859375,-0.03125 1.125,-0.03125 0.25,0 0.78125,0.015625 1.109375,0.03125 v -0.3125 c -0.65625,0 -0.765625,0 -0.765625,-0.4375 v -1.84375 c 0,-1.03125 0.703125,-1.59375 1.34375,-1.59375 0.625,0 0.734375,0.53125 0.734375,1.109375 V -0.75 c 0,0.4375 -0.109375,0.4375 -0.78125,0.4375 V 0 c 0.34375,-0.015625 0.859375,-0.03125 1.125,-0.03125 0.265625,0 0.78125,0.015625 1.125,0.03125 v -0.3125 c -0.515625,0 -0.765625,0 -0.78125,-0.296875 v -1.90625 c 0,-0.859375 0,-1.15625 -0.3125,-1.515625 -0.140625,-0.171875 -0.46875,-0.375 -1.046875,-0.375 -0.828125,0 -1.28125,0.59375 -1.4375,0.984375 C 4.390625,-4.296875 3.65625,-4.40625 3.203125,-4.40625 2.46875,-4.40625 2,-3.984375 1.71875,-3.359375 V -4.40625 L 0.3125,-4.296875 v 0.3125 c 0.703125,0 0.78125,0.0625 0.78125,0.5625 z m 0,0"
           id="path1971" />
      </symbol>
      <symbol
         overflow="visible"
         id="symbol8802">
        <path
           style="stroke:none"
           d="M 1.765625,-4.40625 0.375,-4.296875 v 0.3125 c 0.640625,0 0.734375,0.0625 0.734375,0.546875 V -0.75 c 0,0.4375 -0.109375,0.4375 -0.78125,0.4375 V 0 C 0.640625,-0.015625 1.1875,-0.03125 1.421875,-0.03125 1.78125,-0.03125 2.125,-0.015625 2.46875,0 v -0.3125 c -0.671875,0 -0.703125,-0.046875 -0.703125,-0.4375 z m 0.03125,-1.734375 c 0,-0.3125 -0.234375,-0.53125 -0.515625,-0.53125 -0.3125,0 -0.53125,0.265625 -0.53125,0.53125 0,0.265625 0.21875,0.53125 0.53125,0.53125 0.28125,0 0.515625,-0.21875 0.515625,-0.53125 z m 0,0"
           id="path1926" />
      </symbol>
      <symbol
         overflow="visible"
         id="symbol4200">
        <path
           style="stroke:none"
           d="M 1.09375,-3.421875 V -0.75 c 0,0.4375 -0.109375,0.4375 -0.78125,0.4375 V 0 c 0.359375,-0.015625 0.859375,-0.03125 1.140625,-0.03125 0.25,0 0.765625,0.015625 1.109375,0.03125 v -0.3125 c -0.671875,0 -0.78125,0 -0.78125,-0.4375 V -2.59375 C 1.78125,-3.625 2.5,-4.1875 3.125,-4.1875 c 0.640625,0 0.75,0.53125 0.75,1.109375 V -0.75 c 0,0.4375 -0.109375,0.4375 -0.78125,0.4375 V 0 c 0.34375,-0.015625 0.859375,-0.03125 1.125,-0.03125 0.25,0 0.78125,0.015625 1.109375,0.03125 v -0.3125 c -0.515625,0 -0.765625,0 -0.765625,-0.296875 v -1.90625 c 0,-0.859375 0,-1.15625 -0.3125,-1.515625 -0.140625,-0.171875 -0.46875,-0.375 -1.046875,-0.375 C 2.46875,-4.40625 2,-3.984375 1.71875,-3.359375 V -4.40625 L 0.3125,-4.296875 v 0.3125 c 0.703125,0 0.78125,0.0625 0.78125,0.5625 z m 0,0"
           id="path1775" />
      </symbol>
      <symbol
         overflow="visible"
         id="symbol6242">
        <path
           style="stroke:none"
           d="m 5.796875,-2.578125 h -0.25 c -0.109375,1.015625 -0.25,2.265625 -2,2.265625 h -0.8125 C 2.265625,-0.3125 2.25,-0.375 2.25,-0.703125 v -5.3125 C 2.25,-6.359375 2.25,-6.5 3.1875,-6.5 H 3.515625 V -6.8125 C 3.15625,-6.78125 2.25,-6.78125 1.84375,-6.78125 c -0.390625,0 -1.171875,0 -1.515625,-0.03125 V -6.5 H 0.5625 c 0.765625,0 0.796875,0.109375 0.796875,0.46875 v 5.25 c 0,0.359375 -0.03125,0.46875 -0.796875,0.46875 H 0.328125 V 0 h 5.1875 z m 0,0"
           id="path1694" />
      </symbol>
      <symbol
         overflow="visible"
         id="symbol3033">
        <path
           style="stroke:none"
           d="M 4.6875,-2.140625 C 4.6875,-3.40625 3.703125,-4.46875 2.5,-4.46875 c -1.25,0 -2.21875,1.09375 -2.21875,2.328125 0,1.296875 1.03125,2.25 2.203125,2.25 1.203125,0 2.203125,-0.984375 2.203125,-2.25 z m -2.1875,2 c -0.4375,0 -0.875,-0.203125 -1.140625,-0.671875 -0.25,-0.4375 -0.25,-1.046875 -0.25,-1.40625 0,-0.390625 0,-0.921875 0.234375,-1.359375 C 1.609375,-4.03125 2.078125,-4.25 2.484375,-4.25 c 0.4375,0 0.859375,0.21875 1.125,0.65625 0.265625,0.421875 0.265625,1 0.265625,1.375 0,0.359375 0,0.90625 -0.21875,1.34375 C 3.421875,-0.421875 2.984375,-0.140625 2.5,-0.140625 Z m 0,0"
           id="path5323" />
      </symbol>
      <symbol
         overflow="visible"
         id="symbol5925">
        <path
           style="stroke:none"
           d="m 2.078125,-1.9375 c 0.21875,0.046875 1.03125,0.203125 1.03125,0.921875 0,0.5 -0.34375,0.90625 -1.125,0.90625 -0.84375,0 -1.203125,-0.5625 -1.390625,-1.421875 C 0.5625,-1.65625 0.5625,-1.6875 0.453125,-1.6875 c -0.125,0 -0.125,0.0625 -0.125,0.234375 V -0.125 c 0,0.171875 0,0.234375 0.109375,0.234375 0.046875,0 0.0625,-0.015625 0.25,-0.203125 0.015625,-0.015625 0.015625,-0.03125 0.203125,-0.21875 0.4375,0.40625 0.890625,0.421875 1.09375,0.421875 1.140625,0 1.609375,-0.671875 1.609375,-1.390625 0,-0.515625 -0.296875,-0.828125 -0.421875,-0.9375 C 2.84375,-2.546875 2.453125,-2.625 2.03125,-2.703125 1.46875,-2.8125 0.8125,-2.9375 0.8125,-3.515625 c 0,-0.359375 0.25,-0.765625 1.109375,-0.765625 1.09375,0 1.15625,0.90625 1.171875,1.203125 0,0.09375 0.09375,0.09375 0.109375,0.09375 0.140625,0 0.140625,-0.046875 0.140625,-0.234375 v -1.015625 c 0,-0.15625 0,-0.234375 -0.109375,-0.234375 -0.046875,0 -0.078125,0 -0.203125,0.125 -0.03125,0.03125 -0.125,0.125 -0.171875,0.15625 -0.375,-0.28125 -0.78125,-0.28125 -0.9375,-0.28125 -1.21875,0 -1.59375,0.671875 -1.59375,1.234375 0,0.34375 0.15625,0.625 0.421875,0.84375 0.328125,0.25 0.609375,0.3125 1.328125,0.453125 z m 0,0"
           id="path6923" />
      </symbol>
      <symbol
         overflow="visible"
         id="symbol9057">
        <path
           style="stroke:none"
           d="m 3.296875,2.390625 c 0,-0.03125 0,-0.046875 -0.171875,-0.21875 C 1.890625,0.921875 1.5625,-0.96875 1.5625,-2.5 c 0,-1.734375 0.375,-3.46875 1.609375,-4.703125 0.125,-0.125 0.125,-0.140625 0.125,-0.171875 0,-0.078125 -0.03125,-0.109375 -0.09375,-0.109375 -0.109375,0 -1,0.6875 -1.59375,1.953125 -0.5,1.09375 -0.625,2.203125 -0.625,3.03125 0,0.78125 0.109375,1.984375 0.65625,3.125 C 2.25,1.84375 3.09375,2.5 3.203125,2.5 c 0.0625,0 0.09375,-0.03125 0.09375,-0.109375 z m 0,0"
           id="path3789" />
      </symbol>
      <symbol
         overflow="visible"
         id="symbol7534">
        <path
           style="stroke:none"
           d="m 2.875,-2.5 c 0,-0.765625 -0.109375,-1.96875 -0.65625,-3.109375 -0.59375,-1.21875 -1.453125,-1.875 -1.546875,-1.875 -0.0625,0 -0.109375,0.046875 -0.109375,0.109375 0,0.03125 0,0.046875 0.1875,0.234375 0.984375,0.984375 1.546875,2.5625 1.546875,4.640625 0,1.71875 -0.359375,3.46875 -1.59375,4.71875 C 0.5625,2.34375 0.5625,2.359375 0.5625,2.390625 0.5625,2.453125 0.609375,2.5 0.671875,2.5 0.765625,2.5 1.671875,1.8125 2.25,0.546875 2.765625,-0.546875 2.875,-1.65625 2.875,-2.5 Z m 0,0"
           id="path8443" />
      </symbol>
      <symbol
         overflow="visible"
         id="symbol5426">
        <path
           style="stroke:none"
           d=""
           id="path6581" />
      </symbol>
      <symbol
         overflow="visible"
         id="symbol2357">
        <path
           style="stroke:none"
           d="m 7.109375,-4.1875 c 0.0625,-0.265625 0.078125,-0.328125 0.59375,-0.328125 0.15625,0 0.234375,0 0.234375,-0.140625 0,-0.109375 -0.078125,-0.109375 -0.203125,-0.109375 H 6.78125 c -0.203125,0 -0.203125,0.015625 -0.296875,0.140625 l -2.6875,3.984375 -0.6875,-3.9375 c -0.03125,-0.171875 -0.03125,-0.1875 -0.25,-0.1875 H 1.875 c -0.140625,0 -0.234375,0 -0.234375,0.15625 0,0.09375 0.078125,0.09375 0.234375,0.09375 0.109375,0 0.140625,0 0.265625,0.015625 0.140625,0.015625 0.15625,0.03125 0.15625,0.109375 0,0 0,0.046875 -0.03125,0.140625 l -0.875,3.5 c -0.0625,0.234375 -0.171875,0.484375 -0.734375,0.5 -0.046875,0 -0.140625,0 -0.140625,0.15625 0,0 0,0.09375 0.109375,0.09375 0.203125,0 0.5,-0.03125 0.71875,-0.03125 C 1.515625,-0.03125 1.921875,0 2.078125,0 2.125,0 2.21875,0 2.21875,-0.15625 2.21875,-0.25 2.125,-0.25 2.0625,-0.25 1.625,-0.265625 1.625,-0.453125 1.625,-0.546875 c 0,-0.03125 0,-0.0625 0.03125,-0.171875 l 0.921875,-3.703125 0.75,4.234375 C 3.359375,-0.0625 3.359375,0 3.46875,0 3.5625,0 3.625,-0.078125 3.671875,-0.15625 L 6.59375,-4.5 6.609375,-4.484375 5.625,-0.546875 C 5.5625,-0.3125 5.546875,-0.25 5.015625,-0.25 c -0.125,0 -0.21875,0 -0.21875,0.15625 0,0 0,0.09375 0.109375,0.09375 0.140625,0 0.296875,-0.015625 0.4375,-0.015625 0.140625,0 0.296875,-0.015625 0.4375,-0.015625 C 5.984375,-0.03125 6.46875,0 6.671875,0 6.703125,0 6.8125,0 6.8125,-0.15625 6.8125,-0.25 6.734375,-0.25 6.59375,-0.25 c -0.015625,0 -0.140625,0 -0.265625,-0.015625 -0.15625,-0.015625 -0.15625,-0.03125 -0.15625,-0.109375 0,-0.03125 0.015625,-0.109375 0.015625,-0.140625 z m 0,0"
           id="path1949" />
      </symbol>
      <symbol
         overflow="visible"
         id="symbol7883">
        <path
           style="stroke:none"
           d=""
           id="path3884" />
      </symbol>
      <symbol
         overflow="visible"
         id="symbol709">
        <path
           style="stroke:none"
           d="m 4.25,-6.046875 c 0.078125,-0.28125 0.109375,-0.34375 0.234375,-0.375 0.09375,-0.015625 0.421875,-0.015625 0.625,-0.015625 1.015625,0 1.453125,0.03125 1.453125,0.8125 0,0.15625 -0.03125,0.546875 -0.078125,0.796875 0,0.046875 -0.03125,0.15625 -0.03125,0.1875 0,0.0625 0.03125,0.140625 0.125,0.140625 0.109375,0 0.125,-0.078125 0.15625,-0.234375 L 7,-6.46875 C 7.015625,-6.515625 7.015625,-6.609375 7.015625,-6.640625 7.015625,-6.75 6.921875,-6.75 6.75,-6.75 H 1.21875 c -0.234375,0 -0.25,0.015625 -0.328125,0.203125 l -0.59375,1.75 c 0,0.015625 -0.0625,0.15625 -0.0625,0.1875 0,0.046875 0.0625,0.109375 0.125,0.109375 0.09375,0 0.109375,-0.0625 0.171875,-0.21875 C 1.0625,-6.265625 1.328125,-6.4375 2.796875,-6.4375 H 3.1875 c 0.28125,0 0.28125,0.03125 0.28125,0.125 0,0.046875 -0.03125,0.171875 -0.046875,0.203125 L 2.09375,-0.78125 C 2,-0.421875 1.96875,-0.3125 0.90625,-0.3125 c -0.359375,0 -0.421875,0 -0.421875,0.1875 C 0.484375,0 0.59375,0 0.65625,0 c 0.265625,0 0.546875,-0.015625 0.8125,-0.015625 0.28125,0 0.578125,-0.015625 0.859375,-0.015625 0.28125,0 0.546875,0.015625 0.828125,0.015625 C 3.4375,-0.015625 3.734375,0 4.015625,0 c 0.09375,0 0.21875,0 0.21875,-0.203125 0,-0.109375 -0.078125,-0.109375 -0.34375,-0.109375 -0.234375,0 -0.375,0 -0.625,-0.015625 -0.296875,-0.03125 -0.375,-0.0625 -0.375,-0.21875 0,-0.015625 0,-0.0625 0.046875,-0.203125 z m 0,0"
           id="path5718" />
      </symbol>
      <symbol
         overflow="visible"
         id="symbol1291">
        <path
           style="stroke:none"
           d="m 3.015625,-3.234375 h 0.96875 c 0.75,0 0.828125,0.15625 0.828125,0.4375 0,0.078125 0,0.1875 -0.0625,0.5 C 4.71875,-2.25 4.71875,-2.21875 4.71875,-2.1875 c 0,0.078125 0.0625,0.109375 0.109375,0.109375 0.109375,0 0.109375,-0.03125 0.15625,-0.203125 L 5.53125,-4.453125 C 5.5625,-4.5625 5.5625,-4.578125 5.5625,-4.609375 5.5625,-4.625 5.546875,-4.71875 5.4375,-4.71875 5.34375,-4.71875 5.328125,-4.671875 5.296875,-4.5 5.078125,-3.734375 4.859375,-3.546875 4,-3.546875 H 3.09375 l 0.640625,-2.53125 C 3.828125,-6.4375 3.84375,-6.46875 4.28125,-6.46875 h 1.3125 c 1.21875,0 1.453125,0.328125 1.453125,1.09375 0,0.234375 0,0.265625 -0.03125,0.546875 C 7,-4.703125 7,-4.6875 7,-4.65625 c 0,0.046875 0.03125,0.125 0.125,0.125 0.109375,0 0.109375,-0.0625 0.125,-0.25 L 7.453125,-6.515625 C 7.484375,-6.78125 7.4375,-6.78125 7.1875,-6.78125 H 2.296875 c -0.1875,0 -0.296875,0 -0.296875,0.203125 0,0.109375 0.09375,0.109375 0.28125,0.109375 0.375,0 0.65625,0 0.65625,0.171875 0,0.046875 0,0.0625 -0.0625,0.25 L 1.5625,-0.78125 c -0.09375,0.390625 -0.109375,0.46875 -0.90625,0.46875 -0.171875,0 -0.28125,0 -0.28125,0.1875 C 0.375,0 0.5,0 0.53125,0 0.8125,0 1.5625,-0.03125 1.84375,-0.03125 2.171875,-0.03125 3,0 3.328125,0 3.421875,0 3.53125,0 3.53125,-0.1875 3.53125,-0.265625 3.484375,-0.296875 3.484375,-0.296875 3.453125,-0.3125 3.421875,-0.3125 3.203125,-0.3125 c -0.21875,0 -0.265625,0 -0.515625,-0.015625 -0.296875,-0.03125 -0.328125,-0.078125 -0.328125,-0.203125 0,-0.015625 0,-0.078125 0.046875,-0.21875 z m 0,0"
           id="path1779" />
      </symbol>
      <symbol
         overflow="visible"
         id="symbol6889">
        <path
           style="stroke:none"
           d="M 9.234375,-6.046875 C 9.328125,-6.40625 9.34375,-6.5 10.09375,-6.5 c 0.21875,0 0.3125,0 0.3125,-0.203125 0,-0.109375 -0.09375,-0.109375 -0.265625,-0.109375 h -1.3125 c -0.265625,0 -0.28125,0 -0.390625,0.1875 L 4.796875,-0.9375 4.015625,-6.578125 C 3.984375,-6.8125 3.96875,-6.8125 3.703125,-6.8125 H 2.34375 c -0.1875,0 -0.296875,0 -0.296875,0.1875 0,0.125 0.09375,0.125 0.28125,0.125 0.140625,0 0.3125,0.015625 0.4375,0.015625 0.15625,0.03125 0.21875,0.046875 0.21875,0.171875 0,0.03125 -0.015625,0.0625 -0.046875,0.1875 l -1.265625,5.0625 c -0.09375,0.40625 -0.265625,0.71875 -1.078125,0.75 -0.046875,0 -0.171875,0.015625 -0.171875,0.1875 0,0.09375 0.0625,0.125 0.140625,0.125 0.3125,0 0.65625,-0.03125 1,-0.03125 C 1.890625,-0.03125 2.25,0 2.578125,0 c 0.046875,0 0.1875,0 0.1875,-0.203125 0,-0.109375 -0.109375,-0.109375 -0.1875,-0.109375 -0.5625,0 -0.671875,-0.203125 -0.671875,-0.4375 0,-0.0625 0,-0.125 0.03125,-0.234375 L 3.296875,-6.40625 H 3.3125 l 0.859375,6.171875 C 4.1875,-0.109375 4.203125,0 4.3125,0 4.421875,0 4.484375,-0.109375 4.53125,-0.171875 l 4.03125,-6.3125 h 0.015625 l -1.4375,5.703125 c -0.09375,0.390625 -0.109375,0.46875 -0.90625,0.46875 -0.15625,0 -0.265625,0 -0.265625,0.1875 C 5.96875,0 6.078125,0 6.109375,0 6.390625,0 7.0625,-0.03125 7.34375,-0.03125 7.75,-0.03125 8.1875,0 8.59375,0 8.65625,0 8.78125,0 8.78125,-0.203125 8.78125,-0.3125 8.6875,-0.3125 8.5,-0.3125 c -0.359375,0 -0.640625,0 -0.640625,-0.171875 0,-0.046875 0,-0.0625 0.046875,-0.25 z m 0,0"
           id="path1497" />
      </symbol>
      <symbol
         overflow="visible"
         id="symbol8937">
        <path
           style="stroke:none"
           d=""
           id="path3827" />
      </symbol>
      <symbol
         overflow="visible"
         id="symbol3000">
        <path
           style="stroke:none"
           d="m 6.5625,-2.296875 c 0.171875,0 0.359375,0 0.359375,-0.203125 0,-0.1875 -0.1875,-0.1875 -0.359375,-0.1875 H 1.171875 c -0.171875,0 -0.34375,0 -0.34375,0.1875 0,0.203125 0.171875,0.203125 0.34375,0.203125 z m 0,0"
           id="path8900" />
      </symbol>
    </g>
    <g
       id="g1152">
      <symbol
         overflow="visible"
         id="symbol9415">
        <path
           style="stroke:none"
           d=""
           id="path2322" />
      </symbol>
      <symbol
         overflow="visible"
         id="symbol2712">
        <path
           style="stroke:none"
           d="m 0.875,-0.59375 c -0.03125,0.15625 -0.09375,0.390625 -0.09375,0.4375 0,0.171875 0.140625,0.265625 0.296875,0.265625 0.125,0 0.296875,-0.078125 0.375,-0.28125 0,-0.015625 0.125,-0.484375 0.1875,-0.734375 l 0.21875,-0.890625 C 1.90625,-2.03125 1.96875,-2.25 2.03125,-2.46875 c 0.03125,-0.171875 0.109375,-0.46875 0.125,-0.5 0.140625,-0.3125 0.671875,-1.21875 1.625,-1.21875 0.453125,0 0.53125,0.375 0.53125,0.703125 0,0.25 -0.0625,0.53125 -0.140625,0.828125 L 3.890625,-1.5 3.6875,-0.75 c -0.03125,0.203125 -0.125,0.546875 -0.125,0.59375 0,0.171875 0.140625,0.265625 0.28125,0.265625 0.3125,0 0.375,-0.25 0.453125,-0.5625 0.140625,-0.5625 0.515625,-2.015625 0.59375,-2.40625 0.03125,-0.125 0.5625,-1.328125 1.65625,-1.328125 0.421875,0 0.53125,0.34375 0.53125,0.703125 0,0.5625 -0.421875,1.703125 -0.625,2.234375 -0.078125,0.234375 -0.125,0.34375 -0.125,0.546875 0,0.46875 0.34375,0.8125 0.8125,0.8125 0.9375,0 1.3125,-1.453125 1.3125,-1.53125 0,-0.109375 -0.09375,-0.109375 -0.125,-0.109375 -0.09375,0 -0.09375,0.03125 -0.140625,0.1875 -0.15625,0.53125 -0.46875,1.234375 -1.015625,1.234375 -0.171875,0 -0.25,-0.09375 -0.25,-0.328125 0,-0.25 0.09375,-0.484375 0.1875,-0.703125 0.1875,-0.53125 0.609375,-1.625 0.609375,-2.203125 0,-0.640625 -0.40625,-1.0625 -1.15625,-1.0625 -0.734375,0 -1.25,0.4375 -1.625,0.96875 0,-0.125 -0.03125,-0.46875 -0.3125,-0.703125 -0.25,-0.21875 -0.5625,-0.265625 -0.8125,-0.265625 -0.90625,0 -1.390625,0.640625 -1.5625,0.875 -0.046875,-0.578125 -0.46875,-0.875 -0.921875,-0.875 -0.453125,0 -0.640625,0.390625 -0.734375,0.5625 -0.171875,0.359375 -0.296875,0.9375 -0.296875,0.96875 0,0.109375 0.09375,0.109375 0.109375,0.109375 0.109375,0 0.109375,-0.015625 0.171875,-0.234375 0.171875,-0.703125 0.375,-1.1875 0.734375,-1.1875 0.15625,0 0.296875,0.078125 0.296875,0.453125 0,0.21875 -0.03125,0.328125 -0.15625,0.84375 z m 0,0"
           id="path717" />
      </symbol>
      <symbol
         overflow="visible"
         id="symbol6881">
        <path
           style="stroke:none"
           d="M 9.234375,-6.046875 C 9.328125,-6.40625 9.34375,-6.5 10.09375,-6.5 c 0.21875,0 0.3125,0 0.3125,-0.203125 0,-0.109375 -0.09375,-0.109375 -0.265625,-0.109375 h -1.3125 c -0.265625,0 -0.28125,0 -0.390625,0.1875 L 4.796875,-0.9375 4.015625,-6.578125 C 3.984375,-6.8125 3.96875,-6.8125 3.703125,-6.8125 H 2.34375 c -0.1875,0 -0.296875,0 -0.296875,0.1875 0,0.125 0.09375,0.125 0.28125,0.125 0.140625,0 0.3125,0.015625 0.4375,0.015625 0.15625,0.03125 0.21875,0.046875 0.21875,0.171875 0,0.03125 -0.015625,0.0625 -0.046875,0.1875 l -1.265625,5.0625 c -0.09375,0.40625 -0.265625,0.71875 -1.078125,0.75 -0.046875,0 -0.171875,0.015625 -0.171875,0.1875 0,0.09375 0.0625,0.125 0.140625,0.125 0.3125,0 0.65625,-0.03125 1,-0.03125 C 1.890625,-0.03125 2.25,0 2.578125,0 c 0.046875,0 0.1875,0 0.1875,-0.203125 0,-0.109375 -0.109375,-0.109375 -0.1875,-0.109375 -0.5625,0 -0.671875,-0.203125 -0.671875,-0.4375 0,-0.0625 0,-0.125 0.03125,-0.234375 L 3.296875,-6.40625 H 3.3125 l 0.859375,6.171875 C 4.1875,-0.109375 4.203125,0 4.3125,0 4.421875,0 4.484375,-0.109375 4.53125,-0.171875 l 4.03125,-6.3125 h 0.015625 l -1.4375,5.703125 c -0.09375,0.390625 -0.109375,0.46875 -0.90625,0.46875 -0.15625,0 -0.265625,0 -0.265625,0.1875 C 5.96875,0 6.078125,0 6.109375,0 6.390625,0 7.0625,-0.03125 7.34375,-0.03125 7.75,-0.03125 8.1875,0 8.59375,0 8.65625,0 8.78125,0 8.78125,-0.203125 8.78125,-0.3125 8.6875,-0.3125 8.5,-0.3125 c -0.359375,0 -0.640625,0 -0.640625,-0.171875 0,-0.046875 0,-0.0625 0.046875,-0.25 z m 0,0"
           id="path1442" />
      </symbol>
      <symbol
         overflow="visible"
         id="symbol8648">
        <path
           style="stroke:none"
           d=""
           id="path1625" />
      </symbol>
      <symbol
         overflow="visible"
         id="symbol2587">
        <path
           style="stroke:none"
           d="m 5.46875,-2.296875 c 0.15625,0 0.34375,0 0.34375,-0.203125 0,-0.1875 -0.1875,-0.1875 -0.34375,-0.1875 H 1.234375 C 1.359375,-4.03125 2.5,-4.984375 3.90625,-4.984375 h 1.5625 c 0.15625,0 0.34375,0 0.34375,-0.203125 0,-0.203125 -0.1875,-0.203125 -0.34375,-0.203125 H 3.890625 c -1.703125,0 -3.0625,1.296875 -3.0625,2.890625 0,1.609375 1.359375,2.90625 3.0625,2.90625 H 5.46875 c 0.15625,0 0.34375,0 0.34375,-0.203125 C 5.8125,0 5.625,0 5.46875,0 H 3.90625 C 2.5,0 1.359375,-0.953125 1.234375,-2.296875 Z m 0,0"
           id="path3451" />
      </symbol>
    </g>
    <g
       id="g429">
      <symbol
         overflow="visible"
         id="symbol7088">
        <path
           style="stroke:none"
           d=""
           id="path1985" />
      </symbol>
      <symbol
         overflow="visible"
         id="symbol4649">
        <path
           style="stroke:none"
           d="m 6.84375,-3.265625 c 0.15625,0 0.34375,0 0.34375,-0.1875 C 7.1875,-3.65625 7,-3.65625 6.859375,-3.65625 h -5.96875 c -0.140625,0 -0.328125,0 -0.328125,0.203125 0,0.1875 0.1875,0.1875 0.328125,0.1875 z m 0.015625,1.9375 c 0.140625,0 0.328125,0 0.328125,-0.203125 0,-0.1875 -0.1875,-0.1875 -0.34375,-0.1875 H 0.890625 c -0.140625,0 -0.328125,0 -0.328125,0.1875 0,0.203125 0.1875,0.203125 0.328125,0.203125 z m 0,0"
           id="path5551" />
      </symbol>
    </g>
    <g
       id="g8581">
      <symbol
         overflow="visible"
         id="symbol3936">
        <path
           style="stroke:none"
           d=""
           id="path2226" />
      </symbol>
      <symbol
         overflow="visible"
         id="symbol7685">
        <path
           style="stroke:none"
           d="M 2.734375,-4.25 C 2.75,-4.390625 2.75,-4.640625 2.5,-4.640625 2.328125,-4.640625 2.203125,-4.5 2.234375,-4.375 V -4.25 L 2.375,-2.703125 1.09375,-3.625 C 1,-3.671875 0.984375,-3.703125 0.921875,-3.703125 c -0.140625,0 -0.28125,0.140625 -0.28125,0.28125 0,0.15625 0.109375,0.203125 0.203125,0.25 L 2.265625,-2.5 l -1.375,0.671875 c -0.15625,0.078125 -0.25,0.125 -0.25,0.265625 0,0.15625 0.140625,0.28125 0.28125,0.28125 0.0625,0 0.078125,0 0.328125,-0.1875 L 2.375,-2.265625 2.21875,-0.59375 c 0,0.203125 0.1875,0.25 0.265625,0.25 0.125,0 0.265625,-0.0625 0.265625,-0.25 L 2.609375,-2.265625 3.875,-1.34375 c 0.09375,0.046875 0.109375,0.0625 0.1875,0.0625 0.140625,0 0.265625,-0.140625 0.265625,-0.28125 0,-0.140625 -0.09375,-0.1875 -0.21875,-0.25 C 3.515625,-2.109375 3.5,-2.109375 2.71875,-2.484375 l 1.375,-0.671875 C 4.25,-3.234375 4.328125,-3.265625 4.328125,-3.421875 c 0,-0.140625 -0.125,-0.28125 -0.265625,-0.28125 -0.078125,0 -0.09375,0 -0.34375,0.1875 l -1.109375,0.8125 z m 0,0"
           id="path769" />
      </symbol>
    </g>
  </defs>
  <sodipodi:namedview
     id="base"
     pagecolor="#ffffff"
     bordercolor="#666666"
     borderopacity="1.0"
     inkscape:pageopacity="0.0"
     inkscape:pageshadow="2"
     inkscape:zoom="0.81449844"
     inkscape:cx="545.37163"
     inkscape:cy="362.16902"
     inkscape:document-units="mm"
     inkscape:current-layer="layer1"
     inkscape:document-rotation="0"
     showgrid="false"
     inkscape:window-width="1902"
     inkscape:window-height="1032"
     inkscape:window-x="5"
     inkscape:window-y="35"
     inkscape:window-maximized="0"
     fit-margin-top="0"
     fit-margin-left="0"
     fit-margin-right="0"
     fit-margin-bottom="0"
     inkscape:snap-global="false" />
  <metadata
     id="metadata5">
    <rdf:RDF>
      <cc:Work
         rdf:about="">
        <dc:format>image/svg+xml</dc:format>
        <dc:type
           rdf:resource="http://purl.org/dc/dcmitype/StillImage" />
        <dc:title></dc:title>
      </cc:Work>
    </rdf:RDF>
  </metadata>
  <g
     inkscape:label="Layer 1"
     inkscape:groupmode="layer"
     id="layer1"
     transform="translate(11.29928,-76.27928)">
    <rect
       style="fill:#2e3440;fill-opacity:1;fill-rule:evenodd;stroke:#946bb4;stroke-width:0.772251;stroke-linecap:square;stroke-opacity:0.680596;paint-order:markers fill stroke"
       id="rect833"
       width="373.66125"
       height="195.5387"
       x="-10.913155"
       y="76.665405" />
    <text
       xml:space="preserve"
       style="font-size:10.5833px;line-height:1.25;font-family:sans-serif;letter-spacing:0px;stroke-width:0.264583"
       x="55.456467"
       y="137.30093"
       id="text946"><tspan
         sodipodi:role="line"
         id="tspan944"
         x="55.456467"
         y="137.30093"
         style="stroke-width:0.264583" /></text>
    <g
       inkscape:label=""
       transform="matrix(1.4506913,0,0,1.4506913,-47.582869,56.774743)"
       id="g1044"
       style="fill:#ffffff">
      <g
         id="g5292"
         style="fill:#ffffff"
         transform="translate(-16.743392,-24.151034)">
        <g
           style="fill:#ffffff;fill-opacity:1"
           id="g2610">
          <use
             xlink:href="#symbol1438"
             x="91.925003"
             y="81.962997"
             id="use2866"
             width="100%"
             height="100%"
             style="fill:#ffffff" />
          <use
             xlink:href="#symbol2095"
             x="100.22684"
             y="81.962997"
             id="use6976"
             width="100%"
             height="100%"
             style="fill:#ffffff" />
          <use
             xlink:href="#symbol7400"
             x="102.99445"
             y="81.962997"
             id="use5571"
             width="100%"
             height="100%"
             style="fill:#ffffff" />
        </g>
        <g
           inkscape:label=""
           transform="translate(5.5844965,25.983796)"
           id="g1526"
           style="fill:#ffffff">
          <g
             id="g2262"
             style="fill:#ffffff">
            <g
               style="fill:#ffffff;fill-opacity:1"
               id="g9354"
               transform="translate(-6.879167,-22.754168)">
              <use
                 xlink:href="#symbol6242"
                 x="117.373"
                 y="81.962997"
                 id="use1359"
                 width="100%"
                 height="100%"
                 style="fill:#ffffff" />
              <use
                 xlink:href="#symbol3033"
                 x="123.59962"
                 y="81.962997"
                 id="use2397"
                 width="100%"
                 height="100%"
                 style="fill:#ffffff" />
              <use
                 xlink:href="#symbol5925"
                 x="128.58093"
                 y="81.962997"
                 id="use9084"
                 width="100%"
                 height="100%"
                 style="fill:#ffffff" />
              <use
                 xlink:href="#symbol5925"
                 x="132.51018"
                 y="81.962997"
                 id="use3217"
                 width="100%"
                 height="100%"
                 style="fill:#ffffff" />
              <use
                 xlink:href="#symbol9057"
                 x="136.43942"
                 y="81.962997"
                 id="use5265"
                 width="100%"
                 height="100%"
                 style="fill:#ffffff" />
            </g>
            <g
               style="fill:#77cfe8;fill-opacity:1"
               id="g3387"
               transform="translate(-6.879167,-22.754168)">
              <use
                 xlink:href="#symbol709"
                 x="140.315"
                 y="81.962997"
                 id="use9437"
                 width="100%"
                 height="100%"
                 style="fill:#77cfe8;fill-opacity:1" />
            </g>
            <g
               style="fill:#ffffff;fill-opacity:1"
               id="g4128"
               transform="translate(-6.879167,-22.754168)">
              <use
                 xlink:href="#symbol3000"
                 x="149.73399"
                 y="81.962997"
                 id="use165"
                 width="100%"
                 height="100%"
                 style="fill:#ffffff" />
            </g>
            <g
               style="fill:#eb8f70;fill-opacity:1"
               id="g8113"
               transform="translate(-6.879167,-22.754168)">
              <use
                 xlink:href="#symbol1291"
                 x="159.69701"
                 y="81.962997"
                 id="use7940"
                 width="100%"
                 height="100%"
                 style="fill:#eb8f70;fill-opacity:1" />
            </g>
            <g
               style="fill:#eb8f70;fill-opacity:1"
               id="g9991"
               transform="translate(-6.879167,-22.754168)">
              <use
                 xlink:href="#symbol9057"
                 x="167.487"
                 y="81.962997"
                 id="use8421"
                 width="100%"
                 height="100%"
                 style="fill:#eb8f70;fill-opacity:1" />
            </g>
            <g
               style="fill:#ffffff;fill-opacity:1"
               id="g1998"
               transform="translate(-6.879167,-22.754168)">
              <use
                 xlink:href="#symbol7534"
                 x="182.11301"
                 y="81.962997"
                 id="use9874"
                 width="100%"
                 height="100%"
                 style="fill:#eb8f70;fill-opacity:1" />
              <use
                 xlink:href="#symbol7534"
                 x="185.98746"
                 y="81.962997"
                 id="use9228"
                 width="100%"
                 height="100%"
                 style="fill:#ffffff" />
            </g>
          </g>
        </g>
      </g>
    </g>
    <text
       xml:space="preserve"
       style="font-size:6.94646px;line-height:1.25;font-family:sans-serif;letter-spacing:0px;fill:#73c5dd;fill-opacity:1;stroke-width:18318.8"
       x="117.02969"
       y="122.01459"
       id="text1596"><tspan
         sodipodi:role="line"
         id="tspan1594"
         x="117.02969"
         y="122.01459"
         style="font-style:normal;font-variant:normal;font-weight:300;font-stretch:normal;font-family:Iosevka;-inkscape-font-specification:'Iosevka Light';fill:#73c5dd;fill-opacity:1;stroke-width:18318.8">target state</tspan></text>
    <text
       xml:space="preserve"
       style="font-size:6.94646px;line-height:1.25;font-family:sans-serif;letter-spacing:0px;fill:#eb8f70;fill-opacity:1;stroke-width:18318.8"
       x="157.80362"
       y="169.61282"
       id="text1600"><tspan
         sodipodi:role="line"
         id="tspan1598"
         x="157.80362"
         y="169.61282"
         style="font-style:normal;font-variant:normal;font-weight:300;font-stretch:normal;font-family:Iosevka;-inkscape-font-specification:'Iosevka Light';fill:#eb8f70;fill-opacity:1;stroke-width:18318.8">forecast model</tspan></text>
    <g
       inkscape:label=""
       transform="matrix(1.4506913,0,0,1.4506913,-66.180765,55.605159)"
       id="g1793"
       style="fill:#ffffff">
      <g
         id="g6891"
         style="fill:#ffffff"
         transform="matrix(0.67134508,0,0,0.67134508,24.425887,12.685123)">
        <g
           style="fill:#ffffff;fill-opacity:1"
           id="g6348">
          <use
             xlink:href="#symbol2712"
             x="91.925003"
             y="81.962997"
             id="use4853"
             width="100%"
             height="100%"
             style="fill:#ffffff" />
        </g>
        <g
           style="fill:#ffffff;fill-opacity:1"
           id="g979">
          <use
             xlink:href="#symbol2587"
             x="103.44"
             y="81.962997"
             id="use3167"
             width="100%"
             height="100%"
             style="fill:#ffffff" />
        </g>
        <g
           style="fill:#d0a6e5;fill-opacity:1"
           id="g2571">
          <use
             xlink:href="#symbol6881"
             x="112.849"
             y="81.962997"
             id="use6979"
             width="100%"
             height="100%"
             style="fill:#d0a6e5;fill-opacity:1" />
        </g>
        <g
           style="fill:#ffffff;fill-opacity:1"
           id="g1826"
           transform="matrix(1.6973893,0,0,1.6973893,55.324141,-65.906797)">
          <use
             xlink:href="#symbol2712"
             x="91.925003"
             y="81.962997"
             id="use1824"
             width="100%"
             height="100%"
             style="fill:#ffffff" />
        </g>
        <g
           style="fill:#5ed5a4;fill-opacity:1"
           id="g1830"
           transform="matrix(1.7169062,0,0,1.7169062,-111.54038,-66.599522)">
          <use
             xlink:href="#symbol2712"
             x="91.925003"
             y="81.962997"
             id="use1828"
             width="100%"
             height="100%"
             style="fill:#5ed5a4;fill-opacity:1" />
        </g>
        <g
           style="fill:#d0a6e5;fill-opacity:1"
           id="g12254"
           transform="translate(271.47974,114.17069)">
          <use
             xlink:href="#symbol6881"
             x="112.849"
             y="81.962997"
             id="use12252"
             width="100%"
             height="100%"
             style="fill:#d0a6e5;fill-opacity:1" />
        </g>
      </g>
    </g>
    <text
       xml:space="preserve"
       style="font-size:6.94646px;line-height:1.25;font-family:sans-serif;letter-spacing:0px;fill:#d0a6e5;fill-opacity:1;stroke-width:18318.8"
       x="80.330048"
       y="171.45485"
       id="text1818"><tspan
         sodipodi:role="line"
         id="tspan1816"
         x="80.330048"
         y="171.45485"
         style="font-style:normal;font-variant:normal;font-weight:300;font-stretch:normal;font-family:Iosevka;-inkscape-font-specification:'Iosevka Light';fill:#d0a6e5;fill-opacity:1;stroke-width:18318.8">possible </tspan><tspan
         sodipodi:role="line"
         x="80.330048"
         y="180.29395"
         style="font-style:normal;font-variant:normal;font-weight:300;font-stretch:normal;font-family:Iosevka;-inkscape-font-specification:'Iosevka Light';fill:#d0a6e5;fill-opacity:1;stroke-width:18318.8"
         id="tspan1820">landscape</tspan><tspan
         sodipodi:role="line"
         x="80.330048"
         y="189.13304"
         style="font-style:normal;font-variant:normal;font-weight:300;font-stretch:normal;font-family:Iosevka;-inkscape-font-specification:'Iosevka Light';fill:#d0a6e5;fill-opacity:1;stroke-width:18318.8"
         id="tspan1822">modifications</tspan></text>
    <text
       xml:space="preserve"
       style="font-size:6.94646px;line-height:1.25;font-family:sans-serif;letter-spacing:0px;fill:#5ed5a4;fill-opacity:1;stroke-width:18318.8"
       x="5.644547"
       y="103.73655"
       id="text1834"><tspan
         sodipodi:role="line"
         id="tspan1832"
         x="5.644547"
         y="103.73655"
         style="font-style:normal;font-variant:normal;font-weight:300;font-stretch:normal;font-family:Iosevka;-inkscape-font-specification:'Iosevka Light';fill:#5ed5a4;fill-opacity:1;stroke-width:18318.8">best </tspan><tspan
         sodipodi:role="line"
         x="5.644547"
         y="112.57565"
         style="font-style:normal;font-variant:normal;font-weight:300;font-stretch:normal;font-family:Iosevka;-inkscape-font-specification:'Iosevka Light';fill:#5ed5a4;fill-opacity:1;stroke-width:18318.8"
         id="tspan1836">landscape </tspan><tspan
         sodipodi:role="line"
         x="5.644547"
         y="121.41473"
         style="font-style:normal;font-variant:normal;font-weight:300;font-stretch:normal;font-family:Iosevka;-inkscape-font-specification:'Iosevka Light';fill:#5ed5a4;fill-opacity:1;stroke-width:18318.8"
         id="tspan1838">modification</tspan></text>
    <g
       inkscape:label=""
       transform="matrix(1.4608253,0,0,1.4608253,-94.138764,27.007805)"
       id="g2049"
       style="fill:#ffffff">
      <g
         id="g347"
         style="fill:#ffffff">
        <g
           style="fill:#ffffff;fill-opacity:1"
           id="g7572">
          <use
             xlink:href="#symbol4649"
             x="91.925003"
             y="81.962997"
             id="use9458"
             width="100%"
             height="100%"
             style="fill:#ffffff" />
        </g>
      </g>
    </g>
    <g
       inkscape:label=""
       transform="translate(-62.711436,58.489443)"
       id="g2297"
       style="fill:#5ed5a4;fill-opacity:1">
      <g
         id="g9945"
         style="fill:#5ed5a4;fill-opacity:1">
        <g
           style="fill:#5ed5a4;fill-opacity:1"
           id="g6145">
          <use
             xlink:href="#symbol7685"
             x="91.925003"
             y="81.962997"
             id="use4448"
             width="100%"
             height="100%"
             style="fill:#5ed5a4;fill-opacity:1" />
        </g>
      </g>
    </g>
    <path
       style="fill:#1a1f1b;fill-opacity:1;stroke:#000000;stroke-width:0.670238;stroke-linecap:butt;stroke-linejoin:miter;stroke-miterlimit:4;stroke-dasharray:none;stroke-opacity:1"
       d="m 269.60025,118.91916 c -4.42014,-1.29011 20.5315,-16.55656 25.08877,-19.603554 2.74579,-1.835851 42.04201,9.589224 41.38059,11.622354 -0.66143,2.03315 -17.46609,19.48228 -23.41367,20.5478 -4.93191,0.88357 -43.05569,-12.5666 -43.05569,-12.5666 z"
       id="path2060"
       sodipodi:nodetypes="sssss" />
    <path
       style="fill:none;stroke:#f8f8f8;stroke-width:0.665;stroke-linecap:butt;stroke-linejoin:miter;stroke-miterlimit:4;stroke-dasharray:none;stroke-opacity:1"
       d="m 286.62846,115.64085 10.74026,-4.06518"
       id="path12260" />
    <path
       style="fill:#4a8e55;fill-opacity:0.565379;stroke:none;stroke-width:0.0851844px;stroke-linecap:butt;stroke-linejoin:miter;stroke-opacity:1"
       d="m 293.7901,111.51845 c -0.32042,-4.89153 0.42891,-7.33209 6.09408,-6.01012 5.66517,1.32196 14.98063,4.45926 10.98332,5.4279 -3.9973,0.96863 -5.96298,1.8392 -9.22376,2.41397 -2.97546,0.52447 -7.69605,0.57418 -7.85364,-1.83175 z"
       id="path2070"
       sodipodi:nodetypes="sssss" />
    <path
       style="fill:#4a8e55;fill-opacity:0.565379;stroke:none;stroke-width:0.0547421px;stroke-linecap:butt;stroke-linejoin:miter;stroke-opacity:1"
       d="m 294.59805,109.457 c 0.18995,-1.21498 1.47481,-3.65427 5.20283,-2.82465 3.72802,0.82962 9.85815,2.79847 7.22768,3.40636 -2.63046,0.60787 -7.77273,2.15063 -9.6816,1.6735 -1.90886,-0.47713 -2.93884,-1.04023 -2.74891,-2.25521 z"
       id="path2074"
       sodipodi:nodetypes="zsssz" />
    <path
       style="fill:#4a8e55;fill-opacity:0.565379;stroke:none;stroke-width:0.0389793px;stroke-linecap:butt;stroke-linejoin:miter;stroke-opacity:1"
       d="m 287.41893,116.98404 c -1.60143,0.50626 -3.67177,1.1336 -5.29705,0.32566 -9.46625,-4.70568 9.56623,-1.98556 5.29705,-0.32566 z"
       id="path2076"
       sodipodi:nodetypes="csc" />
    <path
       style="fill:#4a8e55;fill-opacity:0.565379;stroke:none;stroke-width:0.0366455px;stroke-linecap:butt;stroke-linejoin:miter;stroke-opacity:1"
       d="m 317.94453,113.02291 c 1.48219,0.0382 9.90067,-2.49332 9.45271,-1.38084 -6.58174,8.38904 -10.89457,8.21563 -14.01243,5.11147 -1.35271,-1.34676 3.07753,-3.7688 4.55972,-3.73063 z"
       id="path2078"
       sodipodi:nodetypes="zcaz" />
    <path
       style="fill:#4a8e55;fill-opacity:0.565379;stroke:none;stroke-width:0.0242065px;stroke-linecap:butt;stroke-linejoin:miter;stroke-opacity:1"
       d="m 285.64628,116.4863 c -1.05591,0.29611 -2.42099,0.66304 -3.49263,0.19049 -6.24162,-2.75232 6.30753,-1.16135 3.49263,-0.19049 z"
       id="path2080"
       sodipodi:nodetypes="csc" />
    <path
       style="fill:#4a8e55;fill-opacity:0.565379;stroke:none;stroke-width:0.0286508px;stroke-linecap:butt;stroke-linejoin:miter;stroke-opacity:1"
       d="m 300.93004,119.95777 c -0.86519,0.50626 -1.98371,1.1336 -2.86179,0.32566 -5.11425,-4.70567 5.16826,-1.98556 2.86179,-0.32566 z"
       id="path2084"
       sodipodi:nodetypes="csc" />
    <path
       style="fill:#4a8e55;fill-opacity:0.565379;stroke:none;stroke-width:0.0177923px;stroke-linecap:butt;stroke-linejoin:miter;stroke-opacity:1"
       d="m 299.97235,119.46004 c -0.57047,0.2961 -1.30797,0.66303 -1.88694,0.19048 -3.3721,-2.75232 3.40772,-1.16134 1.88694,-0.19048 z"
       id="path2086"
       sodipodi:nodetypes="csc" />
    <path
       style="fill:#4a8e55;fill-opacity:0.565379;stroke:none;stroke-width:0.0257147px;stroke-linecap:butt;stroke-linejoin:miter;stroke-opacity:1"
       d="m 318.12967,113.6157 c 1.10554,0.0252 7.38472,-1.64598 7.05059,-0.91157 -4.90919,5.53813 -8.12605,5.42365 -10.45161,3.3744 -1.00895,-0.88907 2.29548,-2.48802 3.40102,-2.46283 z"
       id="path2088"
       sodipodi:nodetypes="zcaz" />
    <path
       style="fill:#4a8e55;fill-opacity:0.565379;stroke:none;stroke-width:0.0422862px;stroke-linecap:butt;stroke-linejoin:miter;stroke-opacity:1"
       d="m 314.81625,121.90079 c -1.88648,-0.50576 -4.32533,-1.1325 -6.23992,-0.32535 -11.15121,4.70113 11.26899,1.98364 6.23992,0.32535 z"
       id="path2090"
       sodipodi:nodetypes="csc" />
    <path
       style="fill:#4a8e55;fill-opacity:0.565379;stroke:none;stroke-width:0.0262599px;stroke-linecap:butt;stroke-linejoin:miter;stroke-opacity:1"
       d="m 312.72807,122.39804 c -1.24386,-0.29582 -2.85193,-0.66239 -4.11432,-0.19029 -7.3526,2.74964 7.43026,1.16022 4.11432,0.19029 z"
       id="path2092"
       sodipodi:nodetypes="csc" />
    <path
       style="fill:#1a1f1b;fill-opacity:1;stroke:#000000;stroke-width:0.670238;stroke-linecap:butt;stroke-linejoin:miter;stroke-miterlimit:4;stroke-dasharray:none;stroke-opacity:1"
       d="m 269.98923,153.2796 c -4.42014,-1.29011 20.5315,-16.55656 25.08877,-19.60356 2.74579,-1.83586 42.04201,9.58923 41.38059,11.62236 -0.66143,2.03315 -17.46609,19.48228 -23.41367,20.5478 -4.93191,0.88357 -43.05569,-12.5666 -43.05569,-12.5666 z"
       id="path12174"
       sodipodi:nodetypes="sssss" />
    <path
       style="fill:#4a8e55;fill-opacity:0.565379;stroke:none;stroke-width:0.0851844px;stroke-linecap:butt;stroke-linejoin:miter;stroke-opacity:1"
       d="m 294.17908,145.87889 c -0.32042,-4.89153 0.42891,-7.33209 6.09408,-6.01012 5.66517,1.32196 14.98063,4.45926 10.98332,5.4279 -3.9973,0.96863 -5.96298,1.8392 -9.22376,2.41397 -2.97546,0.52447 -7.69605,0.57418 -7.85364,-1.83175 z"
       id="path12176"
       sodipodi:nodetypes="sssss" />
    <path
       style="fill:#4a8e55;fill-opacity:0.565379;stroke:none;stroke-width:0.0547421px;stroke-linecap:butt;stroke-linejoin:miter;stroke-opacity:1"
       d="m 294.98703,143.81744 c 0.18995,-1.21498 1.47481,-3.65427 5.20283,-2.82465 3.72802,0.82962 9.85815,2.79847 7.22768,3.40636 -2.63046,0.60787 -7.77273,2.15063 -9.6816,1.6735 -1.90886,-0.47713 -2.93884,-1.04023 -2.74891,-2.25521 z"
       id="path12178"
       sodipodi:nodetypes="zsssz" />
    <path
       style="fill:#4a8e55;fill-opacity:0.565379;stroke:none;stroke-width:0.0389793px;stroke-linecap:butt;stroke-linejoin:miter;stroke-opacity:1"
       d="m 287.80791,151.34448 c -1.60143,0.50626 -3.67177,1.1336 -5.29705,0.32566 -9.46625,-4.70568 9.56623,-1.98556 5.29705,-0.32566 z"
       id="path12180"
       sodipodi:nodetypes="csc" />
    <path
       style="fill:#4a8e55;fill-opacity:0.565379;stroke:none;stroke-width:0.0366455px;stroke-linecap:butt;stroke-linejoin:miter;stroke-opacity:1"
       d="m 318.33351,147.38335 c 1.48219,0.0382 9.90067,-2.49332 9.45271,-1.38084 -6.58174,8.38904 -10.89457,8.21563 -14.01243,5.11147 -1.35271,-1.34676 3.07753,-3.7688 4.55972,-3.73063 z"
       id="path12182"
       sodipodi:nodetypes="zcaz" />
    <path
       style="fill:#4a8e55;fill-opacity:0.565379;stroke:none;stroke-width:0.0242065px;stroke-linecap:butt;stroke-linejoin:miter;stroke-opacity:1"
       d="m 286.03526,150.84674 c -1.05591,0.29611 -2.42099,0.66304 -3.49263,0.19049 -6.24162,-2.75232 6.30753,-1.16135 3.49263,-0.19049 z"
       id="path12184"
       sodipodi:nodetypes="csc" />
    <path
       style="fill:#4a8e55;fill-opacity:0.565379;stroke:none;stroke-width:0.0286508px;stroke-linecap:butt;stroke-linejoin:miter;stroke-opacity:1"
       d="m 301.31902,154.31821 c -0.86519,0.50626 -1.98371,1.1336 -2.86179,0.32566 -5.11425,-4.70567 5.16826,-1.98556 2.86179,-0.32566 z"
       id="path12186"
       sodipodi:nodetypes="csc" />
    <path
       style="fill:#4a8e55;fill-opacity:0.565379;stroke:none;stroke-width:0.0177923px;stroke-linecap:butt;stroke-linejoin:miter;stroke-opacity:1"
       d="m 300.36133,153.82048 c -0.57047,0.2961 -1.30797,0.66303 -1.88694,0.19048 -3.3721,-2.75232 3.40772,-1.16134 1.88694,-0.19048 z"
       id="path12188"
       sodipodi:nodetypes="csc" />
    <path
       style="fill:#4a8e55;fill-opacity:0.565379;stroke:none;stroke-width:0.0257147px;stroke-linecap:butt;stroke-linejoin:miter;stroke-opacity:1"
       d="m 318.51865,147.97614 c 1.10554,0.0252 7.38472,-1.64598 7.05059,-0.91157 -4.90919,5.53813 -8.12605,5.42365 -10.45161,3.3744 -1.00895,-0.88907 2.29548,-2.48802 3.40102,-2.46283 z"
       id="path12190"
       sodipodi:nodetypes="zcaz" />
    <path
       style="fill:#4a8e55;fill-opacity:0.565379;stroke:none;stroke-width:0.0422862px;stroke-linecap:butt;stroke-linejoin:miter;stroke-opacity:1"
       d="m 315.20523,156.26123 c -1.88648,-0.50576 -4.32533,-1.1325 -6.23992,-0.32535 -11.15121,4.70113 11.26899,1.98364 6.23992,0.32535 z"
       id="path12192"
       sodipodi:nodetypes="csc" />
    <path
       style="fill:#4a8e55;fill-opacity:0.565379;stroke:none;stroke-width:0.0262599px;stroke-linecap:butt;stroke-linejoin:miter;stroke-opacity:1"
       d="m 313.11705,156.75848 c -1.24386,-0.29582 -2.85193,-0.66239 -4.11432,-0.19029 -7.3526,2.74964 7.43026,1.16022 4.11432,0.19029 z"
       id="path12194"
       sodipodi:nodetypes="csc" />
    <path
       style="fill:#1a1f1b;fill-opacity:1;stroke:#000000;stroke-width:0.670238;stroke-linecap:butt;stroke-linejoin:miter;stroke-miterlimit:4;stroke-dasharray:none;stroke-opacity:1"
       d="m 268.59163,188.59069 c -4.42014,-1.29011 20.5315,-16.55656 25.08877,-19.60356 2.74579,-1.83586 42.04201,9.58923 41.38059,11.62236 -0.66143,2.03315 -17.46609,19.48228 -23.41367,20.5478 -4.93191,0.88357 -43.05569,-12.5666 -43.05569,-12.5666 z"
       id="path12196"
       sodipodi:nodetypes="sssss" />
    <path
       style="fill:#4a8e55;fill-opacity:0.565379;stroke:none;stroke-width:0.0851844px;stroke-linecap:butt;stroke-linejoin:miter;stroke-opacity:1"
       d="m 292.78148,181.18998 c -0.32042,-4.89153 0.42891,-7.33209 6.09408,-6.01012 5.66517,1.32196 14.98063,4.45926 10.98332,5.4279 -3.9973,0.96863 -5.96298,1.8392 -9.22376,2.41397 -2.97546,0.52447 -7.69605,0.57418 -7.85364,-1.83175 z"
       id="path12198"
       sodipodi:nodetypes="sssss" />
    <path
       style="fill:#4a8e55;fill-opacity:0.565379;stroke:none;stroke-width:0.0547421px;stroke-linecap:butt;stroke-linejoin:miter;stroke-opacity:1"
       d="m 293.58943,179.12853 c 0.18995,-1.21498 1.47481,-3.65427 5.20283,-2.82465 3.72802,0.82962 9.85815,2.79847 7.22768,3.40636 -2.63046,0.60787 -7.77273,2.15063 -9.6816,1.6735 -1.90886,-0.47713 -2.93884,-1.04023 -2.74891,-2.25521 z"
       id="path12200"
       sodipodi:nodetypes="zsssz" />
    <path
       style="fill:#4a8e55;fill-opacity:0.565379;stroke:none;stroke-width:0.0389793px;stroke-linecap:butt;stroke-linejoin:miter;stroke-opacity:1"
       d="m 286.41031,186.65557 c -1.60143,0.50626 -3.67177,1.1336 -5.29705,0.32566 -9.46625,-4.70568 9.56623,-1.98556 5.29705,-0.32566 z"
       id="path12202"
       sodipodi:nodetypes="csc" />
    <path
       style="fill:#4a8e55;fill-opacity:0.565379;stroke:none;stroke-width:0.0366455px;stroke-linecap:butt;stroke-linejoin:miter;stroke-opacity:1"
       d="m 316.93591,182.69444 c 1.48219,0.0382 9.90067,-2.49332 9.45271,-1.38084 -6.58174,8.38904 -10.89457,8.21563 -14.01243,5.11147 -1.35271,-1.34676 3.07753,-3.7688 4.55972,-3.73063 z"
       id="path12204"
       sodipodi:nodetypes="zcaz" />
    <path
       style="fill:#4a8e55;fill-opacity:0.565379;stroke:none;stroke-width:0.0242065px;stroke-linecap:butt;stroke-linejoin:miter;stroke-opacity:1"
       d="m 284.63766,186.15783 c -1.05591,0.29611 -2.42099,0.66304 -3.49263,0.19049 -6.24162,-2.75232 6.30753,-1.16135 3.49263,-0.19049 z"
       id="path12206"
       sodipodi:nodetypes="csc" />
    <path
       style="fill:#4a8e55;fill-opacity:0.565379;stroke:none;stroke-width:0.0286508px;stroke-linecap:butt;stroke-linejoin:miter;stroke-opacity:1"
       d="m 299.92142,189.6293 c -0.86519,0.50626 -1.98371,1.1336 -2.86179,0.32566 -5.11425,-4.70567 5.16826,-1.98556 2.86179,-0.32566 z"
       id="path12208"
       sodipodi:nodetypes="csc" />
    <path
       style="fill:#4a8e55;fill-opacity:0.565379;stroke:none;stroke-width:0.0177923px;stroke-linecap:butt;stroke-linejoin:miter;stroke-opacity:1"
       d="m 298.96373,189.13157 c -0.57047,0.2961 -1.30797,0.66303 -1.88694,0.19048 -3.3721,-2.75232 3.40772,-1.16134 1.88694,-0.19048 z"
       id="path12210"
       sodipodi:nodetypes="csc" />
    <path
       style="fill:#4a8e55;fill-opacity:0.565379;stroke:none;stroke-width:0.0257147px;stroke-linecap:butt;stroke-linejoin:miter;stroke-opacity:1"
       d="m 317.12105,183.28723 c 1.10554,0.0252 7.38472,-1.64598 7.05059,-0.91157 -4.90919,5.53813 -8.12605,5.42365 -10.45161,3.3744 -1.00895,-0.88907 2.29548,-2.48802 3.40102,-2.46283 z"
       id="path12212"
       sodipodi:nodetypes="zcaz" />
    <path
       style="fill:#4a8e55;fill-opacity:0.565379;stroke:none;stroke-width:0.0422862px;stroke-linecap:butt;stroke-linejoin:miter;stroke-opacity:1"
       d="m 313.80763,191.57232 c -1.88648,-0.50576 -4.32533,-1.1325 -6.23992,-0.32535 -11.15121,4.70113 11.26899,1.98364 6.23992,0.32535 z"
       id="path12214"
       sodipodi:nodetypes="csc" />
    <path
       style="fill:#4a8e55;fill-opacity:0.565379;stroke:none;stroke-width:0.0262599px;stroke-linecap:butt;stroke-linejoin:miter;stroke-opacity:1"
       d="m 311.71945,192.06957 c -1.24386,-0.29582 -2.85193,-0.66239 -4.11432,-0.19029 -7.3526,2.74964 7.43026,1.16022 4.11432,0.19029 z"
       id="path12216"
       sodipodi:nodetypes="csc" />
    <path
       style="fill:#1a1f1b;fill-opacity:1;stroke:#000000;stroke-width:0.670238;stroke-linecap:butt;stroke-linejoin:miter;stroke-miterlimit:4;stroke-dasharray:none;stroke-opacity:1"
       d="m 267.33653,227.17696 c -4.42014,-1.29011 20.5315,-16.55656 25.08877,-19.60356 2.74579,-1.83586 42.04201,9.58923 41.38059,11.62236 -0.66143,2.03315 -17.46609,19.48228 -23.41367,20.5478 -4.93191,0.88357 -43.05569,-12.5666 -43.05569,-12.5666 z"
       id="path12218"
       sodipodi:nodetypes="sssss" />
    <path
       style="fill:none;stroke:#f8f8f8;stroke-width:0.665;stroke-linecap:butt;stroke-linejoin:miter;stroke-miterlimit:4;stroke-dasharray:none;stroke-opacity:1"
       d="M 308.45656,230.01945 296.98108,217.79818"
       id="path12266"
       sodipodi:nodetypes="cc" />
    <path
       style="fill:#4a8e55;fill-opacity:0.565379;stroke:none;stroke-width:0.0851844px;stroke-linecap:butt;stroke-linejoin:miter;stroke-opacity:1"
       d="m 291.52638,219.77625 c -0.32042,-4.89153 0.42891,-7.33209 6.09408,-6.01012 5.66517,1.32196 14.98063,4.45926 10.98332,5.4279 -3.9973,0.96863 -5.96298,1.8392 -9.22376,2.41397 -2.97546,0.52447 -7.69605,0.57418 -7.85364,-1.83175 z"
       id="path12220"
       sodipodi:nodetypes="sssss" />
    <path
       style="fill:#4a8e55;fill-opacity:0.565379;stroke:none;stroke-width:0.0547421px;stroke-linecap:butt;stroke-linejoin:miter;stroke-opacity:1"
       d="m 292.33433,217.7148 c 0.18995,-1.21498 1.47481,-3.65427 5.20283,-2.82465 3.72802,0.82962 9.85815,2.79847 7.22768,3.40636 -2.63046,0.60787 -7.77273,2.15063 -9.6816,1.6735 -1.90886,-0.47713 -2.93884,-1.04023 -2.74891,-2.25521 z"
       id="path12222"
       sodipodi:nodetypes="zsssz" />
    <path
       style="fill:#4a8e55;fill-opacity:0.565379;stroke:none;stroke-width:0.0389793px;stroke-linecap:butt;stroke-linejoin:miter;stroke-opacity:1"
       d="m 285.15521,225.24184 c -1.60143,0.50626 -3.67177,1.1336 -5.29705,0.32566 -9.46625,-4.70568 9.56623,-1.98556 5.29705,-0.32566 z"
       id="path12224"
       sodipodi:nodetypes="csc" />
    <path
       style="fill:#4a8e55;fill-opacity:0.565379;stroke:none;stroke-width:0.0366455px;stroke-linecap:butt;stroke-linejoin:miter;stroke-opacity:1"
       d="m 315.68081,221.28071 c 1.48219,0.0382 9.90067,-2.49332 9.45271,-1.38084 -6.58174,8.38904 -10.89457,8.21563 -14.01243,5.11147 -1.35271,-1.34676 3.07753,-3.7688 4.55972,-3.73063 z"
       id="path12226"
       sodipodi:nodetypes="zcaz" />
    <path
       style="fill:#4a8e55;fill-opacity:0.565379;stroke:none;stroke-width:0.0242065px;stroke-linecap:butt;stroke-linejoin:miter;stroke-opacity:1"
       d="m 283.38256,224.7441 c -1.05591,0.29611 -2.42099,0.66304 -3.49263,0.19049 -6.24162,-2.75232 6.30753,-1.16135 3.49263,-0.19049 z"
       id="path12228"
       sodipodi:nodetypes="csc" />
    <path
       style="fill:#4a8e55;fill-opacity:0.565379;stroke:none;stroke-width:0.0286508px;stroke-linecap:butt;stroke-linejoin:miter;stroke-opacity:1"
       d="m 298.66632,228.21557 c -0.86519,0.50626 -1.98371,1.1336 -2.86179,0.32566 -5.11425,-4.70567 5.16826,-1.98556 2.86179,-0.32566 z"
       id="path12230"
       sodipodi:nodetypes="csc" />
    <path
       style="fill:#4a8e55;fill-opacity:0.565379;stroke:none;stroke-width:0.0177923px;stroke-linecap:butt;stroke-linejoin:miter;stroke-opacity:1"
       d="m 297.70863,227.71784 c -0.57047,0.2961 -1.30797,0.66303 -1.88694,0.19048 -3.3721,-2.75232 3.40772,-1.16134 1.88694,-0.19048 z"
       id="path12232"
       sodipodi:nodetypes="csc" />
    <path
       style="fill:#4a8e55;fill-opacity:0.565379;stroke:none;stroke-width:0.0257147px;stroke-linecap:butt;stroke-linejoin:miter;stroke-opacity:1"
       d="m 315.86595,221.8735 c 1.10554,0.0252 7.38472,-1.64598 7.05059,-0.91157 -4.90919,5.53813 -8.12605,5.42365 -10.45161,3.3744 -1.00895,-0.88907 2.29548,-2.48802 3.40102,-2.46283 z"
       id="path12234"
       sodipodi:nodetypes="zcaz" />
    <path
       style="fill:#4a8e55;fill-opacity:0.565379;stroke:none;stroke-width:0.0422862px;stroke-linecap:butt;stroke-linejoin:miter;stroke-opacity:1"
       d="m 312.55253,230.15859 c -1.88648,-0.50576 -4.32533,-1.1325 -6.23992,-0.32535 -11.15121,4.70113 11.26899,1.98364 6.23992,0.32535 z"
       id="path12236"
       sodipodi:nodetypes="csc" />
    <path
       style="fill:#4a8e55;fill-opacity:0.565379;stroke:none;stroke-width:0.0262599px;stroke-linecap:butt;stroke-linejoin:miter;stroke-opacity:1"
       d="m 310.46435,230.65584 c -1.24386,-0.29582 -2.85193,-0.66239 -4.11432,-0.19029 -7.3526,2.74964 7.43026,1.16022 4.11432,0.19029 z"
       id="path12238"
       sodipodi:nodetypes="csc" />
    <rect
       style="fill:none;fill-rule:evenodd;stroke:#ffffff;stroke-width:0.415966;stroke-linecap:square;stroke-miterlimit:4;stroke-dasharray:none;stroke-opacity:1;paint-order:markers fill stroke"
       id="rect12240"
       width="100.37301"
       height="162.49913"
       x="254.32613"
       y="92.344643" />
    <path
       style="fill:none;stroke:#f8f8f8;stroke-width:0.665;stroke-linecap:butt;stroke-linejoin:miter;stroke-miterlimit:4;stroke-dasharray:none;stroke-opacity:1"
       d="m 307.79514,144.74517 12.71711,4.82934"
       id="path12262"
       sodipodi:nodetypes="cc" />
    <path
       style="fill:none;stroke:#f8f8f8;stroke-width:0.665;stroke-linecap:butt;stroke-linejoin:miter;stroke-miterlimit:4;stroke-dasharray:none;stroke-opacity:1"
       d="m 297.64827,188.38219 17.20585,-2.63216"
       id="path12264"
       sodipodi:nodetypes="cc" />
  </g>
</svg>
